M48
;Layer_Color=9474304
;FILE_FORMAT=2:4
INCH,TZ
;TYPE=PLATED
T1F00S00C0.0118
T2F00S00C0.0138
T3F00S00C0.0354
T4F00S00C0.0402
T5F00S00C0.0630
;TYPE=NON_PLATED
T6F00S00C0.1280
%
T01
X1693Y4626
X5551Y4045
X8740
X11919
X15089
X18307
X22805Y4980
X25443Y4902
X28169Y4882
X30974Y4902
X30935Y8376
X28220Y8447
X26083Y6909
X26171Y10551
X26722Y15915
X29390Y15876
X24035Y15896
X21339Y15915
X19772Y11831
X16634Y11860
X13465Y11880
X10285
X22815Y8474
X25531
X7126Y11870
X3110Y12175
X4183Y26378
Y28150
X7156Y32953
Y33573
Y34193
Y34813
Y35433
X5167Y35502
X13986Y30463
X22579Y33012
X25315Y33051
X25338Y24409
X23996
X22654
X21312
X19975Y24405
X26680Y24409
X28022
X29364
X30705
X32047Y24370
X30738Y33071
X28022Y33061
T02
X5249Y2266
X7808Y4629
X10957
X14156
X17306
X20692Y4550
X24540Y2266
X27296
X30052
X32808
X34186Y5022
X31430
X28674
X38319Y5288
Y10800
Y16312
X34186Y16046
X31430
X32808Y13290
X30052
X27296
X26784Y10554
X29274Y10505
X29442Y6951
X26833Y6942
X32808Y18802
X35564
X34186Y21558
X36942
X24540Y13290
X21784
X21312Y10534
X24107Y10485
X23871Y6902
X21548Y6981
X17650Y10534
X16036Y13329
X13280
X10760Y13290
X17650Y16046
X9382
X8005Y13290
X4587Y13346
X2493Y13290
X859Y12975
Y15731
Y18487
X888Y21607
Y24363
Y27119
X6134Y30780
X8878Y30768
X2493Y35337
X21302Y33034
X23162Y32581
X23205Y24379
X21916
X20528Y24369
X24544Y24389
X25902Y24408
X27240Y24399
X28638Y24418
X29898Y24369
X31256Y24379
X35564Y24314
X36942Y27069
X34186
X35564Y29825
X32808
X34186Y32581
X36942
X35564Y35337
X32808
X30052
X28674Y32581
X25918
X31430
X30406Y38379
X27650
X24894
X14845
X12089
X9333
T03
X35333Y6452
X36033Y6852
Y7652
Y8452
Y9252
X35333Y8852
Y8052
Y7252
Y12652
Y13452
Y14252
Y15052
X36033Y15452
Y14652
Y13852
Y13052
T04
X11782Y14386
Y15386
Y16386
Y17386
Y18386
Y19386
Y20386
Y21386
Y22386
X12781
Y21386
Y20386
Y19386
Y18386
Y17386
Y16386
Y15386
Y14386
X3018Y14603
Y15603
Y16603
Y17603
Y18603
Y19603
Y20603
Y21603
X2018
Y20603
Y19603
Y18603
Y17603
Y16603
Y15603
Y14603
Y22603
X3018
Y23603
Y24603
Y25603
Y26603
Y27603
Y28603
Y29603
Y30603
Y31603
Y32603
Y33603
X2018
Y32603
Y31603
Y30603
Y29603
Y28603
Y27603
Y26603
Y25603
Y24603
Y23603
X5161Y36378
X6161
X7161
X8161
X9161
Y37378
X8161
X7161
X6161
X5161
X10161
Y36378
X11161
X12161
X13161
X14161
X15161
X16161
X17161
X18161
X19161
Y37378
X18161
X17161
X16161
X15161
X14161
X13161
X12161
X11161
X11782Y33386
X12781
Y32386
X11782
Y31386
X12781
Y30386
X11782
Y29386
X12781
Y28386
X11782
Y27386
X12781
Y26386
X11782
Y25386
X12781
Y24386
X11782
Y23386
X12781
T05
X35683Y4652
Y17252
T06
X37033Y5352
Y16552
M30
