M48
;Layer_Color=9474304
;FILE_FORMAT=2:4
INCH,TZ
;TYPE=PLATED
T01F00S00C0.0354
T02F00S00C0.0402
T03F00S00C0.0630
;TYPE=NON_PLATED
T04F00S00C0.1280
%
T01
X35191Y14987
Y15787
Y16587
Y17387
X35891Y17787
Y16987
Y16187
Y15387
Y21587
Y22387
X35191Y21987
Y21187
Y22787
Y23587
X35891Y23987
Y23187
T02
X1756Y12512
X2756
Y13512
Y14512
Y15512
Y16512
Y17512
Y18512
Y19512
Y20512
Y21512
X1756
Y20512
Y19512
Y18512
Y17512
Y16512
Y15512
Y14512
Y13512
X7874Y13490
Y14490
Y15490
Y16490
Y17490
Y18490
Y19490
Y20490
Y21490
Y22490
X8874
Y21490
Y20490
Y19490
Y18490
Y17490
Y16490
Y15490
Y14490
Y13490
Y12490
X7874
Y23490
Y24490
Y25490
Y26490
X8874
Y25490
Y24490
Y23490
X2756Y23512
Y22512
X1756
Y23512
Y24512
X2756
Y25512
Y26512
X1756
Y25512
T03
X35541Y13187
Y25787
T04
X36891Y13887
Y25087
M30
