G04*
G04 #@! TF.GenerationSoftware,Altium Limited,Altium Designer,26.4.1 (12)*
G04*
G04 Layer_Color=8421504*
%FSLAX25Y25*%
%MOIN*%
G70*
G04*
G04 #@! TF.SameCoordinates,3211C402-4045-4842-8DCB-CB9E3EA1FAD3*
G04*
G04*
G04 #@! TF.FilePolarity,Positive*
G04*
G01*
G75*
%ADD21O,0.04331X0.02362*%
%ADD22R,0.03740X0.03347*%
%ADD23R,0.03150X0.03150*%
%ADD24R,0.03543X0.02756*%
%ADD25R,0.03347X0.03740*%
D21*
X276772Y358465D02*
D03*
X266535Y362205D02*
D03*
X276772Y365945D02*
D03*
X324016Y358465D02*
D03*
Y365945D02*
D03*
X313779Y362205D02*
D03*
X87795Y358465D02*
D03*
X77559Y362205D02*
D03*
X87795Y365945D02*
D03*
X135039Y358465D02*
D03*
X124803Y362205D02*
D03*
X135039Y365945D02*
D03*
X229528Y358465D02*
D03*
X219291Y362205D02*
D03*
X229528Y365945D02*
D03*
X182283Y358465D02*
D03*
X172047Y362205D02*
D03*
X182283Y365945D02*
D03*
D22*
X229528Y336024D02*
D03*
Y341142D02*
D03*
X172047Y333268D02*
D03*
X27559Y313610D02*
D03*
Y308492D02*
D03*
X77559Y328150D02*
D03*
X172047D02*
D03*
X266535D02*
D03*
X124803D02*
D03*
X313779D02*
D03*
X219291D02*
D03*
Y333268D02*
D03*
X324016Y336024D02*
D03*
Y341142D02*
D03*
X313779Y333268D02*
D03*
X87795Y336024D02*
D03*
Y341142D02*
D03*
X77559Y333268D02*
D03*
X124803D02*
D03*
X266535D02*
D03*
X135039Y336024D02*
D03*
Y341142D02*
D03*
X276772Y336024D02*
D03*
Y341142D02*
D03*
X182283Y336024D02*
D03*
Y341142D02*
D03*
D23*
X172047Y343307D02*
D03*
Y349606D02*
D03*
X17323Y313610D02*
D03*
Y307311D02*
D03*
X313779Y349606D02*
D03*
Y343307D02*
D03*
X219291Y349606D02*
D03*
Y343307D02*
D03*
X77559Y349606D02*
D03*
Y343307D02*
D03*
X124803Y349606D02*
D03*
Y343307D02*
D03*
X266535Y349606D02*
D03*
Y343307D02*
D03*
D24*
X238779Y247244D02*
D03*
X250590D02*
D03*
X179724Y215748D02*
D03*
X191535D02*
D03*
X250590Y184252D02*
D03*
X179724Y152756D02*
D03*
X191535D02*
D03*
X238779Y123228D02*
D03*
X250590D02*
D03*
X179724Y91732D02*
D03*
X191535D02*
D03*
X238779Y184252D02*
D03*
Y189764D02*
D03*
Y128740D02*
D03*
X250590D02*
D03*
X179724Y97244D02*
D03*
X191535D02*
D03*
X250590Y252756D02*
D03*
X238779D02*
D03*
X179724Y221260D02*
D03*
X191535D02*
D03*
X250590Y189764D02*
D03*
X191535Y158268D02*
D03*
X179724D02*
D03*
D25*
X233661Y135827D02*
D03*
X238779D02*
D03*
X245472D02*
D03*
X250590D02*
D03*
X174606Y104331D02*
D03*
X179724D02*
D03*
X186417D02*
D03*
X191535D02*
D03*
X233661Y259842D02*
D03*
X238779D02*
D03*
X250590D02*
D03*
X245472D02*
D03*
X174606Y228346D02*
D03*
X179724D02*
D03*
X186417D02*
D03*
X191535D02*
D03*
X250590Y196850D02*
D03*
X191535Y165354D02*
D03*
X233661Y196850D02*
D03*
X238779D02*
D03*
X245472D02*
D03*
X174606Y165354D02*
D03*
X179724D02*
D03*
X186417D02*
D03*
M02*
