G04*
G04 #@! TF.GenerationSoftware,Altium Limited,Altium Designer,26.4.1 (12)*
G04*
G04 Layer_Physical_Order=2*
G04 Layer_Color=36540*
%FSLAX25Y25*%
%MOIN*%
G70*
G04*
G04 #@! TF.SameCoordinates,C503C9E0-7D2B-41AE-8193-1F329FCF2B1D*
G04*
G04*
G04 #@! TF.FilePolarity,Positive*
G04*
G01*
G75*
%ADD38C,0.05512*%
%ADD41C,0.09449*%
%ADD42C,0.06102*%
G36*
X388034Y392257D02*
X389208Y391771D01*
X390263Y391065D01*
X391161Y390167D01*
X391866Y389112D01*
X392352Y387938D01*
X392600Y386692D01*
X392603Y386056D01*
Y6858D01*
Y6223D01*
X392355Y4978D01*
X391869Y3804D01*
X391164Y2749D01*
X390266Y1851D01*
X389210Y1145D01*
X388037Y659D01*
X386790Y411D01*
X386122Y409D01*
X6321D01*
X5076Y657D01*
X3903Y1143D01*
X2847Y1848D01*
X1949Y2746D01*
X1244Y3802D01*
X758Y4975D01*
X510Y6220D01*
Y6855D01*
X508Y383760D01*
X508Y384042D01*
Y386691D01*
X755Y387936D01*
X1241Y389109D01*
X1946Y390165D01*
X2844Y391063D01*
X3900Y391768D01*
X5073Y392254D01*
X6319Y392502D01*
X6954D01*
X386154Y392504D01*
X386789D01*
X388034Y392257D01*
D02*
G37*
%LPC*%
G36*
X373721Y388736D02*
X371356Y388549D01*
X369050Y387996D01*
X366859Y387088D01*
X364837Y385849D01*
X363034Y384309D01*
X361493Y382505D01*
X360254Y380483D01*
X359347Y378292D01*
X358793Y375986D01*
X358607Y373622D01*
X358793Y371258D01*
X359347Y368952D01*
X360254Y366761D01*
X361493Y364738D01*
X363034Y362935D01*
X364837Y361395D01*
X366859Y360156D01*
X369050Y359248D01*
X371356Y358695D01*
X373721Y358508D01*
X376085Y358695D01*
X378391Y359248D01*
X380582Y360156D01*
X382604Y361395D01*
X384407Y362935D01*
X385948Y364738D01*
X387187Y366761D01*
X388094Y368952D01*
X388648Y371258D01*
X388834Y373622D01*
X388648Y375986D01*
X388094Y378292D01*
X387187Y380483D01*
X385948Y382505D01*
X384407Y384309D01*
X382604Y385849D01*
X380582Y387088D01*
X378391Y387996D01*
X376085Y388549D01*
X373721Y388736D01*
D02*
G37*
G36*
X19390D02*
X17026Y388549D01*
X14719Y387996D01*
X12528Y387088D01*
X10506Y385849D01*
X8703Y384309D01*
X7163Y382505D01*
X5923Y380483D01*
X5016Y378292D01*
X4462Y375986D01*
X4276Y373622D01*
X4462Y371258D01*
X5016Y368952D01*
X5923Y366761D01*
X7163Y364738D01*
X8703Y362935D01*
X10506Y361395D01*
X12528Y360156D01*
X14719Y359248D01*
X17026Y358695D01*
X19390Y358508D01*
X21754Y358695D01*
X24060Y359248D01*
X26251Y360156D01*
X28273Y361395D01*
X30077Y362935D01*
X31617Y364738D01*
X32856Y366761D01*
X33764Y368952D01*
X34317Y371258D01*
X34503Y373622D01*
X34317Y375986D01*
X33764Y378292D01*
X32856Y380483D01*
X31617Y382505D01*
X30077Y384309D01*
X28273Y385849D01*
X26251Y387088D01*
X24060Y387996D01*
X21754Y388549D01*
X19390Y388736D01*
D02*
G37*
G36*
X18559Y269044D02*
Y266118D01*
X21485D01*
X21334Y266682D01*
X20801Y267606D01*
X20046Y268360D01*
X19123Y268893D01*
X18559Y269044D01*
D02*
G37*
G36*
X16559D02*
X15995Y268893D01*
X15072Y268360D01*
X14317Y267606D01*
X13784Y266682D01*
X13633Y266118D01*
X16559D01*
Y269044D01*
D02*
G37*
G36*
X89740Y268828D02*
Y265901D01*
X92666D01*
X92515Y266465D01*
X91982Y267389D01*
X91228Y268143D01*
X90304Y268677D01*
X89740Y268828D01*
D02*
G37*
G36*
X87740Y268828D02*
X87177Y268677D01*
X86253Y268143D01*
X85498Y267389D01*
X84965Y266465D01*
X84814Y265901D01*
X87740D01*
Y268828D01*
D02*
G37*
G36*
X28064Y268957D02*
X27054D01*
X26077Y268695D01*
X25202Y268190D01*
X24487Y267475D01*
X23982Y266600D01*
X23720Y265623D01*
Y264613D01*
X23982Y263636D01*
X24487Y262761D01*
X25202Y262047D01*
X26077Y261541D01*
X27054Y261280D01*
X28064D01*
X29041Y261541D01*
X29916Y262047D01*
X30631Y262761D01*
X31136Y263636D01*
X31398Y264613D01*
Y265623D01*
X31136Y266600D01*
X30631Y267475D01*
X29916Y268190D01*
X29041Y268695D01*
X28064Y268957D01*
D02*
G37*
G36*
X21485Y264118D02*
X18559D01*
Y261192D01*
X19123Y261343D01*
X20046Y261876D01*
X20801Y262631D01*
X21334Y263554D01*
X21485Y264118D01*
D02*
G37*
G36*
X16559D02*
X13633D01*
X13784Y263554D01*
X14317Y262631D01*
X15072Y261876D01*
X15995Y261343D01*
X16559Y261192D01*
Y264118D01*
D02*
G37*
G36*
X79246Y268740D02*
X78235D01*
X77258Y268478D01*
X76383Y267973D01*
X75669Y267259D01*
X75163Y266383D01*
X74902Y265407D01*
Y264396D01*
X75163Y263420D01*
X75669Y262545D01*
X76383Y261830D01*
X77258Y261325D01*
X78235Y261063D01*
X79246D01*
X80222Y261325D01*
X81097Y261830D01*
X81812Y262545D01*
X82317Y263420D01*
X82579Y264396D01*
Y265407D01*
X82317Y266383D01*
X81812Y267259D01*
X81097Y267973D01*
X80222Y268478D01*
X79246Y268740D01*
D02*
G37*
G36*
X92666Y263901D02*
X89740D01*
Y260975D01*
X90304Y261126D01*
X91228Y261660D01*
X91982Y262414D01*
X92515Y263338D01*
X92666Y263901D01*
D02*
G37*
G36*
X87740D02*
X84814D01*
X84965Y263338D01*
X85498Y262414D01*
X86253Y261660D01*
X87177Y261126D01*
X87740Y260975D01*
Y263901D01*
D02*
G37*
G36*
X356413Y263532D02*
Y258874D01*
X361072D01*
X360748Y260084D01*
X359994Y261389D01*
X358928Y262455D01*
X357623Y263208D01*
X356413Y263532D01*
D02*
G37*
G36*
X354413Y263532D02*
X353204Y263208D01*
X351899Y262455D01*
X350833Y261389D01*
X350079Y260084D01*
X349755Y258874D01*
X354413D01*
Y263532D01*
D02*
G37*
G36*
X18559Y259044D02*
Y256118D01*
X21485D01*
X21334Y256682D01*
X20801Y257606D01*
X20046Y258360D01*
X19123Y258893D01*
X18559Y259044D01*
D02*
G37*
G36*
X16559D02*
X15995Y258893D01*
X15072Y258360D01*
X14317Y257606D01*
X13784Y256682D01*
X13633Y256118D01*
X16559D01*
Y259044D01*
D02*
G37*
G36*
X89740Y258828D02*
Y255902D01*
X92666D01*
X92515Y256465D01*
X91982Y257389D01*
X91228Y258143D01*
X90304Y258677D01*
X89740Y258828D01*
D02*
G37*
G36*
X87740Y258828D02*
X87177Y258677D01*
X86253Y258143D01*
X85498Y257389D01*
X84965Y256465D01*
X84814Y255902D01*
X87740D01*
Y258828D01*
D02*
G37*
G36*
X361072Y256874D02*
X356413D01*
Y252216D01*
X357623Y252540D01*
X358928Y253293D01*
X359994Y254359D01*
X360748Y255664D01*
X361072Y256874D01*
D02*
G37*
G36*
X354413D02*
X349755D01*
X350079Y255664D01*
X350833Y254359D01*
X351899Y253293D01*
X353204Y252540D01*
X354413Y252216D01*
Y256874D01*
D02*
G37*
G36*
X28064Y258957D02*
X27054D01*
X26077Y258695D01*
X25202Y258190D01*
X24487Y257475D01*
X23982Y256600D01*
X23720Y255624D01*
Y254613D01*
X23982Y253637D01*
X24487Y252761D01*
X25202Y252046D01*
X26077Y251541D01*
X27054Y251279D01*
X28064D01*
X29041Y251541D01*
X29916Y252046D01*
X30631Y252761D01*
X31136Y253637D01*
X31398Y254613D01*
Y255624D01*
X31136Y256600D01*
X30631Y257475D01*
X29916Y258190D01*
X29041Y258695D01*
X28064Y258957D01*
D02*
G37*
G36*
X21485Y254118D02*
X18559D01*
Y251192D01*
X19123Y251343D01*
X20046Y251876D01*
X20801Y252631D01*
X21334Y253554D01*
X21485Y254118D01*
D02*
G37*
G36*
X16559D02*
X13633D01*
X13784Y253554D01*
X14317Y252631D01*
X15072Y251876D01*
X15995Y251343D01*
X16559Y251192D01*
Y254118D01*
D02*
G37*
G36*
X79246Y258740D02*
X78235D01*
X77258Y258478D01*
X76383Y257973D01*
X75669Y257259D01*
X75163Y256383D01*
X74902Y255407D01*
Y254396D01*
X75163Y253420D01*
X75669Y252545D01*
X76383Y251830D01*
X77258Y251325D01*
X78235Y251063D01*
X79246D01*
X80222Y251325D01*
X81097Y251830D01*
X81812Y252545D01*
X82317Y253420D01*
X82579Y254396D01*
Y255407D01*
X82317Y256383D01*
X81812Y257259D01*
X81097Y257973D01*
X80222Y258478D01*
X79246Y258740D01*
D02*
G37*
G36*
X92666Y253902D02*
X89740D01*
Y250975D01*
X90304Y251127D01*
X91228Y251660D01*
X91982Y252414D01*
X92515Y253338D01*
X92666Y253902D01*
D02*
G37*
G36*
X87740D02*
X84814D01*
X84965Y253338D01*
X85498Y252414D01*
X86253Y251660D01*
X87177Y251127D01*
X87740Y250975D01*
Y253902D01*
D02*
G37*
G36*
X18559Y249044D02*
Y246118D01*
X21485D01*
X21334Y246682D01*
X20801Y247606D01*
X20046Y248360D01*
X19123Y248893D01*
X18559Y249044D01*
D02*
G37*
G36*
X16559D02*
X15995Y248893D01*
X15072Y248360D01*
X14317Y247606D01*
X13784Y246682D01*
X13633Y246118D01*
X16559D01*
Y249044D01*
D02*
G37*
G36*
X89740Y248828D02*
Y245902D01*
X92666D01*
X92515Y246465D01*
X91982Y247389D01*
X91228Y248143D01*
X90304Y248677D01*
X89740Y248828D01*
D02*
G37*
G36*
X87740D02*
X87177Y248677D01*
X86253Y248143D01*
X85498Y247389D01*
X84965Y246465D01*
X84814Y245902D01*
X87740D01*
Y248828D01*
D02*
G37*
G36*
X369621Y258059D02*
X368206D01*
X366818Y257783D01*
X365510Y257241D01*
X364333Y256455D01*
X363332Y255454D01*
X362546Y254277D01*
X362004Y252970D01*
X361728Y251582D01*
Y250166D01*
X362004Y248778D01*
X362546Y247471D01*
X363332Y246294D01*
X364333Y245293D01*
X365510Y244507D01*
X366818Y243965D01*
X368206Y243689D01*
X369621D01*
X371009Y243965D01*
X372317Y244507D01*
X373494Y245293D01*
X374494Y246294D01*
X375281Y247471D01*
X375822Y248778D01*
X376098Y250166D01*
Y251582D01*
X375822Y252970D01*
X375281Y254277D01*
X374494Y255454D01*
X373494Y256455D01*
X372317Y257241D01*
X371009Y257783D01*
X369621Y258059D01*
D02*
G37*
G36*
X28064Y248957D02*
X27054D01*
X26077Y248695D01*
X25202Y248190D01*
X24487Y247475D01*
X23982Y246600D01*
X23720Y245623D01*
Y244613D01*
X23982Y243636D01*
X24487Y242761D01*
X25202Y242046D01*
X26077Y241541D01*
X27054Y241280D01*
X28064D01*
X29041Y241541D01*
X29916Y242046D01*
X30631Y242761D01*
X31136Y243636D01*
X31398Y244613D01*
Y245623D01*
X31136Y246600D01*
X30631Y247475D01*
X29916Y248190D01*
X29041Y248695D01*
X28064Y248957D01*
D02*
G37*
G36*
X21485Y244118D02*
X18559D01*
Y241192D01*
X19123Y241343D01*
X20046Y241876D01*
X20801Y242631D01*
X21334Y243554D01*
X21485Y244118D01*
D02*
G37*
G36*
X16559D02*
X13633D01*
X13784Y243554D01*
X14317Y242631D01*
X15072Y241876D01*
X15995Y241343D01*
X16559Y241192D01*
Y244118D01*
D02*
G37*
G36*
X79246Y248740D02*
X78235D01*
X77258Y248479D01*
X76383Y247973D01*
X75669Y247258D01*
X75163Y246383D01*
X74902Y245407D01*
Y244396D01*
X75163Y243420D01*
X75669Y242545D01*
X76383Y241830D01*
X77258Y241325D01*
X78235Y241063D01*
X79246D01*
X80222Y241325D01*
X81097Y241830D01*
X81812Y242545D01*
X82317Y243420D01*
X82579Y244396D01*
Y245407D01*
X82317Y246383D01*
X81812Y247258D01*
X81097Y247973D01*
X80222Y248479D01*
X79246Y248740D01*
D02*
G37*
G36*
X92666Y243902D02*
X89740D01*
Y240975D01*
X90304Y241126D01*
X91228Y241660D01*
X91982Y242414D01*
X92515Y243338D01*
X92666Y243902D01*
D02*
G37*
G36*
X87740D02*
X84814D01*
X84965Y243338D01*
X85498Y242414D01*
X86253Y241660D01*
X87177Y241126D01*
X87740Y240975D01*
Y243902D01*
D02*
G37*
G36*
X362457Y243417D02*
X355370D01*
Y238075D01*
X355032Y237984D01*
X354919Y238180D01*
X354220Y238879D01*
X353363Y239374D01*
X352913Y239494D01*
Y235874D01*
Y232254D01*
X353363Y232374D01*
X354220Y232869D01*
X354919Y233568D01*
X355413Y234424D01*
X355669Y235380D01*
Y236331D01*
X362457D01*
Y243417D01*
D02*
G37*
G36*
X350913Y239494D02*
X350464Y239374D01*
X349607Y238879D01*
X348908Y238180D01*
X348413Y237324D01*
X348293Y236874D01*
X350913D01*
Y239494D01*
D02*
G37*
G36*
X18559Y239044D02*
Y236118D01*
X21485D01*
X21334Y236682D01*
X20801Y237606D01*
X20046Y238360D01*
X19123Y238893D01*
X18559Y239044D01*
D02*
G37*
G36*
X16559D02*
X15995Y238893D01*
X15072Y238360D01*
X14317Y237606D01*
X13784Y236682D01*
X13633Y236118D01*
X16559D01*
Y239044D01*
D02*
G37*
G36*
X89740Y238828D02*
Y235902D01*
X92666D01*
X92515Y236465D01*
X91982Y237389D01*
X91228Y238143D01*
X90304Y238677D01*
X89740Y238828D01*
D02*
G37*
G36*
X87740D02*
X87177Y238677D01*
X86253Y238143D01*
X85498Y237389D01*
X84965Y236465D01*
X84814Y235902D01*
X87740D01*
Y238828D01*
D02*
G37*
G36*
X350913Y234874D02*
X348293D01*
X348413Y234424D01*
X348908Y233568D01*
X349607Y232869D01*
X350464Y232374D01*
X350913Y232254D01*
Y234874D01*
D02*
G37*
G36*
X28064Y238957D02*
X27054D01*
X26077Y238695D01*
X25202Y238190D01*
X24487Y237475D01*
X23982Y236600D01*
X23720Y235624D01*
Y234613D01*
X23982Y233636D01*
X24487Y232761D01*
X25202Y232047D01*
X26077Y231541D01*
X27054Y231279D01*
X28064D01*
X29041Y231541D01*
X29916Y232047D01*
X30631Y232761D01*
X31136Y233636D01*
X31398Y234613D01*
Y235624D01*
X31136Y236600D01*
X30631Y237475D01*
X29916Y238190D01*
X29041Y238695D01*
X28064Y238957D01*
D02*
G37*
G36*
X21485Y234118D02*
X18559D01*
Y231192D01*
X19123Y231343D01*
X20046Y231876D01*
X20801Y232631D01*
X21334Y233554D01*
X21485Y234118D01*
D02*
G37*
G36*
X16559D02*
X13633D01*
X13784Y233554D01*
X14317Y232631D01*
X15072Y231876D01*
X15995Y231343D01*
X16559Y231192D01*
Y234118D01*
D02*
G37*
G36*
X79246Y238740D02*
X78235D01*
X77258Y238478D01*
X76383Y237973D01*
X75669Y237259D01*
X75163Y236383D01*
X74902Y235407D01*
Y234396D01*
X75163Y233420D01*
X75669Y232545D01*
X76383Y231830D01*
X77258Y231325D01*
X78235Y231063D01*
X79246D01*
X80222Y231325D01*
X81097Y231830D01*
X81812Y232545D01*
X82317Y233420D01*
X82579Y234396D01*
Y235407D01*
X82317Y236383D01*
X81812Y237259D01*
X81097Y237973D01*
X80222Y238478D01*
X79246Y238740D01*
D02*
G37*
G36*
X92666Y233902D02*
X89740D01*
Y230975D01*
X90304Y231126D01*
X91228Y231660D01*
X91982Y232414D01*
X92515Y233338D01*
X92666Y233902D01*
D02*
G37*
G36*
X87740D02*
X84814D01*
X84965Y233338D01*
X85498Y232414D01*
X86253Y231660D01*
X87177Y231126D01*
X87740Y230975D01*
Y233902D01*
D02*
G37*
G36*
X359380Y235417D02*
X358447D01*
X357546Y235176D01*
X356738Y234709D01*
X356078Y234050D01*
X355612Y233242D01*
X355370Y232341D01*
Y231408D01*
X355612Y230506D01*
X356078Y229698D01*
X356738Y229039D01*
X357546Y228572D01*
X358447Y228331D01*
X359380D01*
X360281Y228572D01*
X361089Y229039D01*
X361749Y229698D01*
X362215Y230506D01*
X362457Y231408D01*
Y232341D01*
X362215Y233242D01*
X361749Y234050D01*
X361089Y234709D01*
X360281Y235176D01*
X359380Y235417D01*
D02*
G37*
G36*
X18559Y229044D02*
Y226118D01*
X21485D01*
X21334Y226682D01*
X20801Y227606D01*
X20046Y228360D01*
X19123Y228893D01*
X18559Y229044D01*
D02*
G37*
G36*
X16559D02*
X15995Y228893D01*
X15072Y228360D01*
X14317Y227606D01*
X13784Y226682D01*
X13633Y226118D01*
X16559D01*
Y229044D01*
D02*
G37*
G36*
X89740Y228828D02*
Y225902D01*
X92666D01*
X92515Y226465D01*
X91982Y227389D01*
X91228Y228143D01*
X90304Y228677D01*
X89740Y228828D01*
D02*
G37*
G36*
X87740D02*
X87177Y228677D01*
X86253Y228143D01*
X85498Y227389D01*
X84965Y226465D01*
X84814Y225902D01*
X87740D01*
Y228828D01*
D02*
G37*
G36*
X359913Y227495D02*
Y224874D01*
X362534D01*
X362413Y225324D01*
X361919Y226180D01*
X361220Y226880D01*
X360363Y227374D01*
X359913Y227495D01*
D02*
G37*
G36*
X357913Y227495D02*
X357464Y227374D01*
X356607Y226880D01*
X355908Y226180D01*
X355414Y225324D01*
X355293Y224874D01*
X357913D01*
Y227495D01*
D02*
G37*
G36*
X352380Y231417D02*
X351447D01*
X350546Y231176D01*
X349738Y230709D01*
X349078Y230050D01*
X348612Y229242D01*
X348370Y228341D01*
Y227408D01*
X348612Y226506D01*
X349078Y225698D01*
X349738Y225039D01*
X350546Y224572D01*
X351447Y224331D01*
X352380D01*
X353281Y224572D01*
X354089Y225039D01*
X354749Y225698D01*
X355215Y226506D01*
X355457Y227408D01*
Y228341D01*
X355215Y229242D01*
X354749Y230050D01*
X354089Y230709D01*
X353281Y231176D01*
X352380Y231417D01*
D02*
G37*
G36*
X28064Y228957D02*
X27054D01*
X26077Y228695D01*
X25202Y228190D01*
X24487Y227475D01*
X23982Y226600D01*
X23720Y225623D01*
Y224613D01*
X23982Y223637D01*
X24487Y222761D01*
X25202Y222046D01*
X26077Y221541D01*
X27054Y221280D01*
X28064D01*
X29041Y221541D01*
X29916Y222046D01*
X30631Y222761D01*
X31136Y223637D01*
X31398Y224613D01*
Y225623D01*
X31136Y226600D01*
X30631Y227475D01*
X29916Y228190D01*
X29041Y228695D01*
X28064Y228957D01*
D02*
G37*
G36*
X21485Y224118D02*
X18559D01*
Y221192D01*
X19123Y221343D01*
X20046Y221876D01*
X20801Y222631D01*
X21334Y223554D01*
X21485Y224118D01*
D02*
G37*
G36*
X16559D02*
X13633D01*
X13784Y223554D01*
X14317Y222631D01*
X15072Y221876D01*
X15995Y221343D01*
X16559Y221192D01*
Y224118D01*
D02*
G37*
G36*
X79246Y228740D02*
X78235D01*
X77258Y228479D01*
X76383Y227973D01*
X75669Y227258D01*
X75163Y226383D01*
X74902Y225407D01*
Y224396D01*
X75163Y223420D01*
X75669Y222545D01*
X76383Y221830D01*
X77258Y221325D01*
X78235Y221063D01*
X79246D01*
X80222Y221325D01*
X81097Y221830D01*
X81812Y222545D01*
X82317Y223420D01*
X82579Y224396D01*
Y225407D01*
X82317Y226383D01*
X81812Y227258D01*
X81097Y227973D01*
X80222Y228479D01*
X79246Y228740D01*
D02*
G37*
G36*
X92666Y223902D02*
X89740D01*
Y220975D01*
X90304Y221127D01*
X91228Y221660D01*
X91982Y222414D01*
X92515Y223338D01*
X92666Y223902D01*
D02*
G37*
G36*
X87740D02*
X84814D01*
X84965Y223338D01*
X85498Y222414D01*
X86253Y221660D01*
X87177Y221127D01*
X87740Y220975D01*
Y223902D01*
D02*
G37*
G36*
X352913Y223495D02*
Y220874D01*
X355534D01*
X355413Y221324D01*
X354919Y222180D01*
X354220Y222880D01*
X353363Y223374D01*
X352913Y223495D01*
D02*
G37*
G36*
X350913Y223495D02*
X350464Y223374D01*
X349607Y222880D01*
X348908Y222180D01*
X348413Y221324D01*
X348293Y220874D01*
X350913D01*
Y223495D01*
D02*
G37*
G36*
X362534Y222874D02*
X359913D01*
Y220254D01*
X360363Y220374D01*
X361220Y220869D01*
X361919Y221568D01*
X362413Y222424D01*
X362534Y222874D01*
D02*
G37*
G36*
X357913D02*
X355293D01*
X355414Y222424D01*
X355908Y221568D01*
X356607Y220869D01*
X357464Y220374D01*
X357913Y220254D01*
Y222874D01*
D02*
G37*
G36*
X355534Y218874D02*
X352913D01*
Y216254D01*
X353363Y216374D01*
X354220Y216869D01*
X354919Y217568D01*
X355413Y218424D01*
X355534Y218874D01*
D02*
G37*
G36*
X350913D02*
X348293D01*
X348413Y218424D01*
X348908Y217568D01*
X349607Y216869D01*
X350464Y216374D01*
X350913Y216254D01*
Y218874D01*
D02*
G37*
G36*
X18559Y219044D02*
Y216118D01*
X21485D01*
X21334Y216682D01*
X20801Y217606D01*
X20046Y218360D01*
X19123Y218893D01*
X18559Y219044D01*
D02*
G37*
G36*
X16559D02*
X15995Y218893D01*
X15072Y218360D01*
X14317Y217606D01*
X13784Y216682D01*
X13633Y216118D01*
X16559D01*
Y219044D01*
D02*
G37*
G36*
X89740Y218828D02*
Y215902D01*
X92666D01*
X92515Y216465D01*
X91982Y217389D01*
X91228Y218143D01*
X90304Y218677D01*
X89740Y218828D01*
D02*
G37*
G36*
X87740D02*
X87177Y218677D01*
X86253Y218143D01*
X85498Y217389D01*
X84965Y216465D01*
X84814Y215902D01*
X87740D01*
Y218828D01*
D02*
G37*
G36*
X352913Y215494D02*
Y212874D01*
X355534D01*
X355413Y213324D01*
X354919Y214180D01*
X354220Y214879D01*
X353363Y215374D01*
X352913Y215494D01*
D02*
G37*
G36*
X350913Y215494D02*
X350464Y215374D01*
X349607Y214879D01*
X348908Y214180D01*
X348413Y213324D01*
X348293Y212874D01*
X350913D01*
Y215494D01*
D02*
G37*
G36*
X359380Y219417D02*
X358447D01*
X357546Y219176D01*
X356738Y218709D01*
X356078Y218050D01*
X355612Y217242D01*
X355370Y216340D01*
Y215408D01*
X355612Y214506D01*
X356078Y213698D01*
X356738Y213039D01*
X357546Y212572D01*
X358447Y212331D01*
X359380D01*
X360281Y212572D01*
X361089Y213039D01*
X361749Y213698D01*
X362215Y214506D01*
X362457Y215408D01*
Y216340D01*
X362215Y217242D01*
X361749Y218050D01*
X361089Y218709D01*
X360281Y219176D01*
X359380Y219417D01*
D02*
G37*
G36*
X28064Y218957D02*
X27054D01*
X26077Y218695D01*
X25202Y218190D01*
X24487Y217475D01*
X23982Y216600D01*
X23720Y215623D01*
Y214613D01*
X23982Y213636D01*
X24487Y212761D01*
X25202Y212047D01*
X26077Y211541D01*
X27054Y211280D01*
X28064D01*
X29041Y211541D01*
X29916Y212047D01*
X30631Y212761D01*
X31136Y213636D01*
X31398Y214613D01*
Y215623D01*
X31136Y216600D01*
X30631Y217475D01*
X29916Y218190D01*
X29041Y218695D01*
X28064Y218957D01*
D02*
G37*
G36*
X21485Y214118D02*
X18559D01*
Y211192D01*
X19123Y211343D01*
X20046Y211876D01*
X20801Y212631D01*
X21334Y213554D01*
X21485Y214118D01*
D02*
G37*
G36*
X16559D02*
X13633D01*
X13784Y213554D01*
X14317Y212631D01*
X15072Y211876D01*
X15995Y211343D01*
X16559Y211192D01*
Y214118D01*
D02*
G37*
G36*
X79246Y218740D02*
X78235D01*
X77258Y218478D01*
X76383Y217973D01*
X75669Y217259D01*
X75163Y216383D01*
X74902Y215407D01*
Y214396D01*
X75163Y213420D01*
X75669Y212545D01*
X76383Y211830D01*
X77258Y211325D01*
X78235Y211063D01*
X79246D01*
X80222Y211325D01*
X81097Y211830D01*
X81812Y212545D01*
X82317Y213420D01*
X82579Y214396D01*
Y215407D01*
X82317Y216383D01*
X81812Y217259D01*
X81097Y217973D01*
X80222Y218478D01*
X79246Y218740D01*
D02*
G37*
G36*
X92666Y213902D02*
X89740D01*
Y210975D01*
X90304Y211126D01*
X91228Y211660D01*
X91982Y212414D01*
X92515Y213338D01*
X92666Y213902D01*
D02*
G37*
G36*
X87740D02*
X84814D01*
X84965Y213338D01*
X85498Y212414D01*
X86253Y211660D01*
X87177Y211126D01*
X87740Y210975D01*
Y213902D01*
D02*
G37*
G36*
X355534Y210874D02*
X352913D01*
Y208254D01*
X353363Y208374D01*
X354220Y208869D01*
X354919Y209568D01*
X355413Y210424D01*
X355534Y210874D01*
D02*
G37*
G36*
X350913D02*
X348293D01*
X348413Y210424D01*
X348908Y209568D01*
X349607Y208869D01*
X350464Y208374D01*
X350913Y208254D01*
Y210874D01*
D02*
G37*
G36*
X18559Y209044D02*
Y206118D01*
X21485D01*
X21334Y206682D01*
X20801Y207606D01*
X20046Y208360D01*
X19123Y208893D01*
X18559Y209044D01*
D02*
G37*
G36*
X16559D02*
X15995Y208893D01*
X15072Y208360D01*
X14317Y207606D01*
X13784Y206682D01*
X13633Y206118D01*
X16559D01*
Y209044D01*
D02*
G37*
G36*
X89740Y208828D02*
Y205902D01*
X92666D01*
X92515Y206465D01*
X91982Y207389D01*
X91228Y208143D01*
X90304Y208677D01*
X89740Y208828D01*
D02*
G37*
G36*
X87740D02*
X87177Y208677D01*
X86253Y208143D01*
X85498Y207389D01*
X84965Y206465D01*
X84814Y205902D01*
X87740D01*
Y208828D01*
D02*
G37*
G36*
X28064Y208957D02*
X27054D01*
X26077Y208695D01*
X25202Y208190D01*
X24487Y207475D01*
X23982Y206600D01*
X23720Y205624D01*
Y204613D01*
X23982Y203637D01*
X24487Y202761D01*
X25202Y202046D01*
X26077Y201541D01*
X27054Y201279D01*
X28064D01*
X29041Y201541D01*
X29916Y202046D01*
X30631Y202761D01*
X31136Y203637D01*
X31398Y204613D01*
Y205624D01*
X31136Y206600D01*
X30631Y207475D01*
X29916Y208190D01*
X29041Y208695D01*
X28064Y208957D01*
D02*
G37*
G36*
X21485Y204118D02*
X18559D01*
Y201192D01*
X19123Y201343D01*
X20046Y201876D01*
X20801Y202631D01*
X21334Y203554D01*
X21485Y204118D01*
D02*
G37*
G36*
X16559D02*
X13633D01*
X13784Y203554D01*
X14317Y202631D01*
X15072Y201876D01*
X15995Y201343D01*
X16559Y201192D01*
Y204118D01*
D02*
G37*
G36*
X79246Y208740D02*
X78235D01*
X77258Y208478D01*
X76383Y207973D01*
X75669Y207259D01*
X75163Y206383D01*
X74902Y205407D01*
Y204396D01*
X75163Y203420D01*
X75669Y202545D01*
X76383Y201830D01*
X77258Y201325D01*
X78235Y201063D01*
X79246D01*
X80222Y201325D01*
X81097Y201830D01*
X81812Y202545D01*
X82317Y203420D01*
X82579Y204396D01*
Y205407D01*
X82317Y206383D01*
X81812Y207259D01*
X81097Y207973D01*
X80222Y208478D01*
X79246Y208740D01*
D02*
G37*
G36*
X92666Y203902D02*
X89740D01*
Y200975D01*
X90304Y201127D01*
X91228Y201660D01*
X91982Y202414D01*
X92515Y203338D01*
X92666Y203902D01*
D02*
G37*
G36*
X87740D02*
X84814D01*
X84965Y203338D01*
X85498Y202414D01*
X86253Y201660D01*
X87177Y201127D01*
X87740Y200975D01*
Y203902D01*
D02*
G37*
G36*
X18559Y199044D02*
Y196118D01*
X21485D01*
X21334Y196682D01*
X20801Y197606D01*
X20046Y198360D01*
X19123Y198893D01*
X18559Y199044D01*
D02*
G37*
G36*
X16559D02*
X15995Y198893D01*
X15072Y198360D01*
X14317Y197606D01*
X13784Y196682D01*
X13633Y196118D01*
X16559D01*
Y199044D01*
D02*
G37*
G36*
X89740Y198828D02*
Y195902D01*
X92666D01*
X92515Y196465D01*
X91982Y197389D01*
X91228Y198143D01*
X90304Y198677D01*
X89740Y198828D01*
D02*
G37*
G36*
X87740D02*
X87177Y198677D01*
X86253Y198143D01*
X85498Y197389D01*
X84965Y196465D01*
X84814Y195902D01*
X87740D01*
Y198828D01*
D02*
G37*
G36*
X28064Y198957D02*
X27054D01*
X26077Y198695D01*
X25202Y198190D01*
X24487Y197475D01*
X23982Y196600D01*
X23720Y195624D01*
Y194613D01*
X23982Y193637D01*
X24487Y192761D01*
X25202Y192046D01*
X26077Y191541D01*
X27054Y191279D01*
X28064D01*
X29041Y191541D01*
X29916Y192046D01*
X30631Y192761D01*
X31136Y193637D01*
X31398Y194613D01*
Y195624D01*
X31136Y196600D01*
X30631Y197475D01*
X29916Y198190D01*
X29041Y198695D01*
X28064Y198957D01*
D02*
G37*
G36*
X21485Y194118D02*
X18559D01*
Y191192D01*
X19123Y191343D01*
X20046Y191876D01*
X20801Y192631D01*
X21334Y193554D01*
X21485Y194118D01*
D02*
G37*
G36*
X16559D02*
X13633D01*
X13784Y193554D01*
X14317Y192631D01*
X15072Y191876D01*
X15995Y191343D01*
X16559Y191192D01*
Y194118D01*
D02*
G37*
G36*
X79246Y198740D02*
X78235D01*
X77258Y198478D01*
X76383Y197973D01*
X75669Y197258D01*
X75163Y196383D01*
X74902Y195407D01*
Y194396D01*
X75163Y193420D01*
X75669Y192545D01*
X76383Y191830D01*
X77258Y191325D01*
X78235Y191063D01*
X79246D01*
X80222Y191325D01*
X81097Y191830D01*
X81812Y192545D01*
X82317Y193420D01*
X82579Y194396D01*
Y195407D01*
X82317Y196383D01*
X81812Y197258D01*
X81097Y197973D01*
X80222Y198478D01*
X79246Y198740D01*
D02*
G37*
G36*
X92666Y193902D02*
X89740D01*
Y190975D01*
X90304Y191127D01*
X91228Y191660D01*
X91982Y192414D01*
X92515Y193338D01*
X92666Y193902D01*
D02*
G37*
G36*
X87740D02*
X84814D01*
X84965Y193338D01*
X85498Y192414D01*
X86253Y191660D01*
X87177Y191127D01*
X87740Y190975D01*
Y193902D01*
D02*
G37*
G36*
X18559Y189044D02*
Y186118D01*
X21485D01*
X21334Y186682D01*
X20801Y187606D01*
X20046Y188360D01*
X19123Y188893D01*
X18559Y189044D01*
D02*
G37*
G36*
X16559D02*
X15995Y188893D01*
X15072Y188360D01*
X14317Y187606D01*
X13784Y186682D01*
X13633Y186118D01*
X16559D01*
Y189044D01*
D02*
G37*
G36*
X89740Y188828D02*
Y185902D01*
X92666D01*
X92515Y186465D01*
X91982Y187389D01*
X91228Y188143D01*
X90304Y188677D01*
X89740Y188828D01*
D02*
G37*
G36*
X87740D02*
X87177Y188677D01*
X86253Y188143D01*
X85498Y187389D01*
X84965Y186465D01*
X84814Y185902D01*
X87740D01*
Y188828D01*
D02*
G37*
G36*
X28064Y188957D02*
X27054D01*
X26077Y188695D01*
X25202Y188190D01*
X24487Y187475D01*
X23982Y186600D01*
X23720Y185624D01*
Y184613D01*
X23982Y183636D01*
X24487Y182761D01*
X25202Y182046D01*
X26077Y181541D01*
X27054Y181280D01*
X28064D01*
X29041Y181541D01*
X29916Y182046D01*
X30631Y182761D01*
X31136Y183636D01*
X31398Y184613D01*
Y185624D01*
X31136Y186600D01*
X30631Y187475D01*
X29916Y188190D01*
X29041Y188695D01*
X28064Y188957D01*
D02*
G37*
G36*
X21485Y184118D02*
X18559D01*
Y181192D01*
X19123Y181343D01*
X20046Y181876D01*
X20801Y182631D01*
X21334Y183554D01*
X21485Y184118D01*
D02*
G37*
G36*
X16559D02*
X13633D01*
X13784Y183554D01*
X14317Y182631D01*
X15072Y181876D01*
X15995Y181343D01*
X16559Y181192D01*
Y184118D01*
D02*
G37*
G36*
X79246Y188740D02*
X78235D01*
X77258Y188479D01*
X76383Y187973D01*
X75669Y187259D01*
X75163Y186383D01*
X74902Y185407D01*
Y184396D01*
X75163Y183420D01*
X75669Y182545D01*
X76383Y181830D01*
X77258Y181325D01*
X78235Y181063D01*
X79246D01*
X80222Y181325D01*
X81097Y181830D01*
X81812Y182545D01*
X82317Y183420D01*
X82579Y184396D01*
Y185407D01*
X82317Y186383D01*
X81812Y187259D01*
X81097Y187973D01*
X80222Y188479D01*
X79246Y188740D01*
D02*
G37*
G36*
X92666Y183902D02*
X89740D01*
Y180975D01*
X90304Y181126D01*
X91228Y181660D01*
X91982Y182414D01*
X92515Y183338D01*
X92666Y183902D01*
D02*
G37*
G36*
X87740D02*
X84814D01*
X84965Y183338D01*
X85498Y182414D01*
X86253Y181660D01*
X87177Y181126D01*
X87740Y180975D01*
Y183902D01*
D02*
G37*
G36*
X18559Y179044D02*
Y176118D01*
X21485D01*
X21334Y176682D01*
X20801Y177606D01*
X20046Y178360D01*
X19123Y178893D01*
X18559Y179044D01*
D02*
G37*
G36*
X16559D02*
X15995Y178893D01*
X15072Y178360D01*
X14317Y177606D01*
X13784Y176682D01*
X13633Y176118D01*
X16559D01*
Y179044D01*
D02*
G37*
G36*
X362457Y181417D02*
X355370D01*
Y176075D01*
X355032Y175984D01*
X354919Y176180D01*
X354220Y176880D01*
X353363Y177374D01*
X352913Y177495D01*
Y173874D01*
Y170254D01*
X353363Y170374D01*
X354220Y170869D01*
X354919Y171568D01*
X355413Y172424D01*
X355669Y173380D01*
Y174331D01*
X362457D01*
Y181417D01*
D02*
G37*
G36*
X89740Y178828D02*
Y175902D01*
X92666D01*
X92515Y176465D01*
X91982Y177389D01*
X91228Y178143D01*
X90304Y178677D01*
X89740Y178828D01*
D02*
G37*
G36*
X87740D02*
X87177Y178677D01*
X86253Y178143D01*
X85498Y177389D01*
X84965Y176465D01*
X84814Y175902D01*
X87740D01*
Y178828D01*
D02*
G37*
G36*
X350913Y177495D02*
X350464Y177374D01*
X349607Y176880D01*
X348908Y176180D01*
X348413Y175324D01*
X348293Y174874D01*
X350913D01*
Y177495D01*
D02*
G37*
G36*
X28064Y178957D02*
X27054D01*
X26077Y178695D01*
X25202Y178190D01*
X24487Y177475D01*
X23982Y176600D01*
X23720Y175624D01*
Y174613D01*
X23982Y173636D01*
X24487Y172761D01*
X25202Y172046D01*
X26077Y171541D01*
X27054Y171280D01*
X28064D01*
X29041Y171541D01*
X29916Y172046D01*
X30631Y172761D01*
X31136Y173636D01*
X31398Y174613D01*
Y175624D01*
X31136Y176600D01*
X30631Y177475D01*
X29916Y178190D01*
X29041Y178695D01*
X28064Y178957D01*
D02*
G37*
G36*
X21485Y174118D02*
X18559D01*
Y171192D01*
X19123Y171343D01*
X20046Y171876D01*
X20801Y172631D01*
X21334Y173554D01*
X21485Y174118D01*
D02*
G37*
G36*
X16559D02*
X13633D01*
X13784Y173554D01*
X14317Y172631D01*
X15072Y171876D01*
X15995Y171343D01*
X16559Y171192D01*
Y174118D01*
D02*
G37*
G36*
X79246Y178740D02*
X78235D01*
X77258Y178479D01*
X76383Y177973D01*
X75669Y177259D01*
X75163Y176383D01*
X74902Y175407D01*
Y174396D01*
X75163Y173420D01*
X75669Y172545D01*
X76383Y171830D01*
X77258Y171325D01*
X78235Y171063D01*
X79246D01*
X80222Y171325D01*
X81097Y171830D01*
X81812Y172545D01*
X82317Y173420D01*
X82579Y174396D01*
Y175407D01*
X82317Y176383D01*
X81812Y177259D01*
X81097Y177973D01*
X80222Y178479D01*
X79246Y178740D01*
D02*
G37*
G36*
X92666Y173902D02*
X89740D01*
Y170975D01*
X90304Y171126D01*
X91228Y171660D01*
X91982Y172414D01*
X92515Y173338D01*
X92666Y173902D01*
D02*
G37*
G36*
X87740D02*
X84814D01*
X84965Y173338D01*
X85498Y172414D01*
X86253Y171660D01*
X87177Y171126D01*
X87740Y170975D01*
Y173902D01*
D02*
G37*
G36*
X350913Y172874D02*
X348293D01*
X348413Y172424D01*
X348908Y171568D01*
X349607Y170869D01*
X350464Y170374D01*
X350913Y170254D01*
Y172874D01*
D02*
G37*
G36*
X359380Y173417D02*
X358447D01*
X357546Y173176D01*
X356738Y172709D01*
X356078Y172050D01*
X355612Y171242D01*
X355370Y170341D01*
Y169408D01*
X355612Y168506D01*
X356078Y167698D01*
X356738Y167039D01*
X357546Y166572D01*
X358447Y166331D01*
X359380D01*
X360281Y166572D01*
X361089Y167039D01*
X361749Y167698D01*
X362215Y168506D01*
X362457Y169408D01*
Y170341D01*
X362215Y171242D01*
X361749Y172050D01*
X361089Y172709D01*
X360281Y173176D01*
X359380Y173417D01*
D02*
G37*
G36*
X18559Y169044D02*
Y166118D01*
X21485D01*
X21334Y166682D01*
X20801Y167606D01*
X20046Y168360D01*
X19123Y168893D01*
X18559Y169044D01*
D02*
G37*
G36*
X16559D02*
X15995Y168893D01*
X15072Y168360D01*
X14317Y167606D01*
X13784Y166682D01*
X13633Y166118D01*
X16559D01*
Y169044D01*
D02*
G37*
G36*
X89740Y168828D02*
Y165902D01*
X92666D01*
X92515Y166465D01*
X91982Y167389D01*
X91228Y168143D01*
X90304Y168677D01*
X89740Y168828D01*
D02*
G37*
G36*
X87740D02*
X87177Y168677D01*
X86253Y168143D01*
X85498Y167389D01*
X84965Y166465D01*
X84814Y165902D01*
X87740D01*
Y168828D01*
D02*
G37*
G36*
X359913Y165495D02*
Y162874D01*
X362534D01*
X362413Y163324D01*
X361919Y164180D01*
X361220Y164880D01*
X360363Y165374D01*
X359913Y165495D01*
D02*
G37*
G36*
X357913Y165495D02*
X357464Y165374D01*
X356607Y164880D01*
X355908Y164180D01*
X355414Y163324D01*
X355293Y162874D01*
X357913D01*
Y165495D01*
D02*
G37*
G36*
X352380Y169417D02*
X351447D01*
X350546Y169176D01*
X349738Y168709D01*
X349078Y168050D01*
X348612Y167242D01*
X348370Y166340D01*
Y165408D01*
X348612Y164506D01*
X349078Y163698D01*
X349738Y163039D01*
X350546Y162572D01*
X351447Y162331D01*
X352380D01*
X353281Y162572D01*
X354089Y163039D01*
X354749Y163698D01*
X355215Y164506D01*
X355457Y165408D01*
Y166340D01*
X355215Y167242D01*
X354749Y168050D01*
X354089Y168709D01*
X353281Y169176D01*
X352380Y169417D01*
D02*
G37*
G36*
X28064Y168957D02*
X27054D01*
X26077Y168695D01*
X25202Y168190D01*
X24487Y167475D01*
X23982Y166600D01*
X23720Y165623D01*
Y164613D01*
X23982Y163637D01*
X24487Y162761D01*
X25202Y162047D01*
X26077Y161541D01*
X27054Y161279D01*
X28064D01*
X29041Y161541D01*
X29916Y162047D01*
X30631Y162761D01*
X31136Y163637D01*
X31398Y164613D01*
Y165623D01*
X31136Y166600D01*
X30631Y167475D01*
X29916Y168190D01*
X29041Y168695D01*
X28064Y168957D01*
D02*
G37*
G36*
X21485Y164118D02*
X18559D01*
Y161192D01*
X19123Y161343D01*
X20046Y161876D01*
X20801Y162631D01*
X21334Y163554D01*
X21485Y164118D01*
D02*
G37*
G36*
X16559D02*
X13633D01*
X13784Y163554D01*
X14317Y162631D01*
X15072Y161876D01*
X15995Y161343D01*
X16559Y161192D01*
Y164118D01*
D02*
G37*
G36*
X79246Y168740D02*
X78235D01*
X77258Y168479D01*
X76383Y167973D01*
X75669Y167259D01*
X75163Y166383D01*
X74902Y165407D01*
Y164396D01*
X75163Y163420D01*
X75669Y162545D01*
X76383Y161830D01*
X77258Y161325D01*
X78235Y161063D01*
X79246D01*
X80222Y161325D01*
X81097Y161830D01*
X81812Y162545D01*
X82317Y163420D01*
X82579Y164396D01*
Y165407D01*
X82317Y166383D01*
X81812Y167259D01*
X81097Y167973D01*
X80222Y168479D01*
X79246Y168740D01*
D02*
G37*
G36*
X92666Y163902D02*
X89740D01*
Y160975D01*
X90304Y161126D01*
X91228Y161660D01*
X91982Y162414D01*
X92515Y163338D01*
X92666Y163902D01*
D02*
G37*
G36*
X87740D02*
X84814D01*
X84965Y163338D01*
X85498Y162414D01*
X86253Y161660D01*
X87177Y161126D01*
X87740Y160975D01*
Y163902D01*
D02*
G37*
G36*
X352913Y161495D02*
Y158874D01*
X355534D01*
X355413Y159324D01*
X354919Y160180D01*
X354220Y160880D01*
X353363Y161374D01*
X352913Y161495D01*
D02*
G37*
G36*
X350913Y161495D02*
X350464Y161374D01*
X349607Y160880D01*
X348908Y160180D01*
X348413Y159324D01*
X348293Y158874D01*
X350913D01*
Y161495D01*
D02*
G37*
G36*
X362534Y160874D02*
X359913D01*
Y158254D01*
X360363Y158374D01*
X361220Y158869D01*
X361919Y159568D01*
X362413Y160424D01*
X362534Y160874D01*
D02*
G37*
G36*
X357913D02*
X355293D01*
X355414Y160424D01*
X355908Y159568D01*
X356607Y158869D01*
X357464Y158374D01*
X357913Y158254D01*
Y160874D01*
D02*
G37*
G36*
X18559Y159044D02*
Y156118D01*
X21485D01*
X21334Y156682D01*
X20801Y157606D01*
X20046Y158360D01*
X19123Y158893D01*
X18559Y159044D01*
D02*
G37*
G36*
X16559D02*
X15995Y158893D01*
X15072Y158360D01*
X14317Y157606D01*
X13784Y156682D01*
X13633Y156118D01*
X16559D01*
Y159044D01*
D02*
G37*
G36*
X89740Y158828D02*
Y155902D01*
X92666D01*
X92515Y156465D01*
X91982Y157389D01*
X91228Y158143D01*
X90304Y158677D01*
X89740Y158828D01*
D02*
G37*
G36*
X87740D02*
X87177Y158677D01*
X86253Y158143D01*
X85498Y157389D01*
X84965Y156465D01*
X84814Y155902D01*
X87740D01*
Y158828D01*
D02*
G37*
G36*
X355534Y156874D02*
X352913D01*
Y154254D01*
X353363Y154374D01*
X354220Y154869D01*
X354919Y155568D01*
X355413Y156424D01*
X355534Y156874D01*
D02*
G37*
G36*
X350913D02*
X348293D01*
X348413Y156424D01*
X348908Y155568D01*
X349607Y154869D01*
X350464Y154374D01*
X350913Y154254D01*
Y156874D01*
D02*
G37*
G36*
X28064Y158957D02*
X27054D01*
X26077Y158695D01*
X25202Y158190D01*
X24487Y157475D01*
X23982Y156600D01*
X23720Y155623D01*
Y154613D01*
X23982Y153637D01*
X24487Y152761D01*
X25202Y152047D01*
X26077Y151541D01*
X27054Y151279D01*
X28064D01*
X29041Y151541D01*
X29916Y152047D01*
X30631Y152761D01*
X31136Y153637D01*
X31398Y154613D01*
Y155623D01*
X31136Y156600D01*
X30631Y157475D01*
X29916Y158190D01*
X29041Y158695D01*
X28064Y158957D01*
D02*
G37*
G36*
X21485Y154118D02*
X18559D01*
Y151192D01*
X19123Y151343D01*
X20046Y151876D01*
X20801Y152631D01*
X21334Y153554D01*
X21485Y154118D01*
D02*
G37*
G36*
X16559D02*
X13633D01*
X13784Y153554D01*
X14317Y152631D01*
X15072Y151876D01*
X15995Y151343D01*
X16559Y151192D01*
Y154118D01*
D02*
G37*
G36*
X79246Y158740D02*
X78235D01*
X77258Y158478D01*
X76383Y157973D01*
X75669Y157258D01*
X75163Y156383D01*
X74902Y155407D01*
Y154396D01*
X75163Y153420D01*
X75669Y152545D01*
X76383Y151830D01*
X77258Y151325D01*
X78235Y151063D01*
X79246D01*
X80222Y151325D01*
X81097Y151830D01*
X81812Y152545D01*
X82317Y153420D01*
X82579Y154396D01*
Y155407D01*
X82317Y156383D01*
X81812Y157258D01*
X81097Y157973D01*
X80222Y158478D01*
X79246Y158740D01*
D02*
G37*
G36*
X92666Y153902D02*
X89740D01*
Y150975D01*
X90304Y151127D01*
X91228Y151660D01*
X91982Y152414D01*
X92515Y153338D01*
X92666Y153902D01*
D02*
G37*
G36*
X87740D02*
X84814D01*
X84965Y153338D01*
X85498Y152414D01*
X86253Y151660D01*
X87177Y151127D01*
X87740Y150975D01*
Y153902D01*
D02*
G37*
G36*
X352913Y153495D02*
Y150874D01*
X355534D01*
X355413Y151324D01*
X354919Y152180D01*
X354220Y152880D01*
X353363Y153374D01*
X352913Y153495D01*
D02*
G37*
G36*
X350913Y153495D02*
X350464Y153374D01*
X349607Y152880D01*
X348908Y152180D01*
X348413Y151324D01*
X348293Y150874D01*
X350913D01*
Y153495D01*
D02*
G37*
G36*
X359380Y157417D02*
X358447D01*
X357546Y157176D01*
X356738Y156709D01*
X356078Y156050D01*
X355612Y155242D01*
X355370Y154341D01*
Y153408D01*
X355612Y152506D01*
X356078Y151698D01*
X356738Y151039D01*
X357546Y150572D01*
X358447Y150331D01*
X359380D01*
X360281Y150572D01*
X361089Y151039D01*
X361749Y151698D01*
X362215Y152506D01*
X362457Y153408D01*
Y154341D01*
X362215Y155242D01*
X361749Y156050D01*
X361089Y156709D01*
X360281Y157176D01*
X359380Y157417D01*
D02*
G37*
G36*
X355534Y148874D02*
X352913D01*
Y146254D01*
X353363Y146374D01*
X354220Y146869D01*
X354919Y147568D01*
X355413Y148424D01*
X355534Y148874D01*
D02*
G37*
G36*
X350913D02*
X348293D01*
X348413Y148424D01*
X348908Y147568D01*
X349607Y146869D01*
X350464Y146374D01*
X350913Y146254D01*
Y148874D01*
D02*
G37*
G36*
X18559Y149044D02*
Y146118D01*
X21485D01*
X21334Y146682D01*
X20801Y147606D01*
X20046Y148360D01*
X19123Y148893D01*
X18559Y149044D01*
D02*
G37*
G36*
X16559D02*
X15995Y148893D01*
X15072Y148360D01*
X14317Y147606D01*
X13784Y146682D01*
X13633Y146118D01*
X16559D01*
Y149044D01*
D02*
G37*
G36*
X89740Y148828D02*
Y145902D01*
X92666D01*
X92515Y146465D01*
X91982Y147389D01*
X91228Y148143D01*
X90304Y148677D01*
X89740Y148828D01*
D02*
G37*
G36*
X87740D02*
X87177Y148677D01*
X86253Y148143D01*
X85498Y147389D01*
X84965Y146465D01*
X84814Y145902D01*
X87740D01*
Y148828D01*
D02*
G37*
G36*
X28064Y148957D02*
X27054D01*
X26077Y148695D01*
X25202Y148190D01*
X24487Y147475D01*
X23982Y146600D01*
X23720Y145624D01*
Y144613D01*
X23982Y143637D01*
X24487Y142761D01*
X25202Y142046D01*
X26077Y141541D01*
X27054Y141279D01*
X28064D01*
X29041Y141541D01*
X29916Y142046D01*
X30631Y142761D01*
X31136Y143637D01*
X31398Y144613D01*
Y145624D01*
X31136Y146600D01*
X30631Y147475D01*
X29916Y148190D01*
X29041Y148695D01*
X28064Y148957D01*
D02*
G37*
G36*
X21485Y144118D02*
X18559D01*
Y141192D01*
X19123Y141343D01*
X20046Y141876D01*
X20801Y142631D01*
X21334Y143554D01*
X21485Y144118D01*
D02*
G37*
G36*
X16559D02*
X13633D01*
X13784Y143554D01*
X14317Y142631D01*
X15072Y141876D01*
X15995Y141343D01*
X16559Y141192D01*
Y144118D01*
D02*
G37*
G36*
X79246Y148740D02*
X78235D01*
X77258Y148478D01*
X76383Y147973D01*
X75669Y147258D01*
X75163Y146383D01*
X74902Y145407D01*
Y144396D01*
X75163Y143420D01*
X75669Y142545D01*
X76383Y141830D01*
X77258Y141325D01*
X78235Y141063D01*
X79246D01*
X80222Y141325D01*
X81097Y141830D01*
X81812Y142545D01*
X82317Y143420D01*
X82579Y144396D01*
Y145407D01*
X82317Y146383D01*
X81812Y147258D01*
X81097Y147973D01*
X80222Y148478D01*
X79246Y148740D01*
D02*
G37*
G36*
X92666Y143902D02*
X89740D01*
Y140975D01*
X90304Y141127D01*
X91228Y141660D01*
X91982Y142414D01*
X92515Y143338D01*
X92666Y143902D01*
D02*
G37*
G36*
X87740D02*
X84814D01*
X84965Y143338D01*
X85498Y142414D01*
X86253Y141660D01*
X87177Y141127D01*
X87740Y140975D01*
Y143902D01*
D02*
G37*
G36*
X18559Y139044D02*
Y136118D01*
X21485D01*
X21334Y136682D01*
X20801Y137606D01*
X20046Y138360D01*
X19123Y138893D01*
X18559Y139044D01*
D02*
G37*
G36*
X16559D02*
X15995Y138893D01*
X15072Y138360D01*
X14317Y137606D01*
X13784Y136682D01*
X13633Y136118D01*
X16559D01*
Y139044D01*
D02*
G37*
G36*
X89740Y138828D02*
Y135902D01*
X92666D01*
X92515Y136465D01*
X91982Y137389D01*
X91228Y138143D01*
X90304Y138677D01*
X89740Y138828D01*
D02*
G37*
G36*
X87740D02*
X87177Y138677D01*
X86253Y138143D01*
X85498Y137389D01*
X84965Y136465D01*
X84814Y135902D01*
X87740D01*
Y138828D01*
D02*
G37*
G36*
X356413Y137532D02*
Y132874D01*
X361072D01*
X360748Y134084D01*
X359994Y135389D01*
X358928Y136455D01*
X357623Y137208D01*
X356413Y137532D01*
D02*
G37*
G36*
X354413Y137532D02*
X353204Y137208D01*
X351899Y136455D01*
X350833Y135389D01*
X350079Y134084D01*
X349755Y132874D01*
X354413D01*
Y137532D01*
D02*
G37*
G36*
X369621Y146059D02*
X368206D01*
X366818Y145783D01*
X365510Y145241D01*
X364333Y144455D01*
X363332Y143454D01*
X362546Y142277D01*
X362004Y140970D01*
X361728Y139582D01*
Y138166D01*
X362004Y136778D01*
X362546Y135471D01*
X363332Y134294D01*
X364333Y133293D01*
X365510Y132507D01*
X366818Y131965D01*
X368206Y131689D01*
X369621D01*
X371009Y131965D01*
X372317Y132507D01*
X373494Y133293D01*
X374494Y134294D01*
X375281Y135471D01*
X375822Y136778D01*
X376098Y138166D01*
Y139582D01*
X375822Y140970D01*
X375281Y142277D01*
X374494Y143454D01*
X373494Y144455D01*
X372317Y145241D01*
X371009Y145783D01*
X369621Y146059D01*
D02*
G37*
G36*
X28064Y138957D02*
X27054D01*
X26077Y138695D01*
X25202Y138190D01*
X24487Y137475D01*
X23982Y136600D01*
X23720Y135624D01*
Y134613D01*
X23982Y133636D01*
X24487Y132761D01*
X25202Y132046D01*
X26077Y131541D01*
X27054Y131280D01*
X28064D01*
X29041Y131541D01*
X29916Y132046D01*
X30631Y132761D01*
X31136Y133636D01*
X31398Y134613D01*
Y135624D01*
X31136Y136600D01*
X30631Y137475D01*
X29916Y138190D01*
X29041Y138695D01*
X28064Y138957D01*
D02*
G37*
G36*
X21485Y134118D02*
X18559D01*
Y131192D01*
X19123Y131343D01*
X20046Y131876D01*
X20801Y132631D01*
X21334Y133554D01*
X21485Y134118D01*
D02*
G37*
G36*
X16559D02*
X13633D01*
X13784Y133554D01*
X14317Y132631D01*
X15072Y131876D01*
X15995Y131343D01*
X16559Y131192D01*
Y134118D01*
D02*
G37*
G36*
X79246Y138740D02*
X78235D01*
X77258Y138479D01*
X76383Y137973D01*
X75669Y137259D01*
X75163Y136383D01*
X74902Y135407D01*
Y134396D01*
X75163Y133420D01*
X75669Y132545D01*
X76383Y131830D01*
X77258Y131325D01*
X78235Y131063D01*
X79246D01*
X80222Y131325D01*
X81097Y131830D01*
X81812Y132545D01*
X82317Y133420D01*
X82579Y134396D01*
Y135407D01*
X82317Y136383D01*
X81812Y137259D01*
X81097Y137973D01*
X80222Y138479D01*
X79246Y138740D01*
D02*
G37*
G36*
X92666Y133902D02*
X89740D01*
Y130975D01*
X90304Y131126D01*
X91228Y131660D01*
X91982Y132414D01*
X92515Y133338D01*
X92666Y133902D01*
D02*
G37*
G36*
X87740D02*
X84814D01*
X84965Y133338D01*
X85498Y132414D01*
X86253Y131660D01*
X87177Y131126D01*
X87740Y130975D01*
Y133902D01*
D02*
G37*
G36*
X361072Y130874D02*
X356413D01*
Y126216D01*
X357623Y126540D01*
X358928Y127293D01*
X359994Y128359D01*
X360748Y129665D01*
X361072Y130874D01*
D02*
G37*
G36*
X354413D02*
X349755D01*
X350079Y129665D01*
X350833Y128359D01*
X351899Y127293D01*
X353204Y126540D01*
X354413Y126216D01*
Y130874D01*
D02*
G37*
G36*
X18559Y129044D02*
Y126118D01*
X21485D01*
X21334Y126682D01*
X20801Y127606D01*
X20046Y128360D01*
X19123Y128893D01*
X18559Y129044D01*
D02*
G37*
G36*
X16559D02*
X15995Y128893D01*
X15072Y128360D01*
X14317Y127606D01*
X13784Y126682D01*
X13633Y126118D01*
X16559D01*
Y129044D01*
D02*
G37*
G36*
X89740Y128828D02*
Y125902D01*
X92666D01*
X92515Y126465D01*
X91982Y127389D01*
X91228Y128143D01*
X90304Y128677D01*
X89740Y128828D01*
D02*
G37*
G36*
X87740D02*
X87177Y128677D01*
X86253Y128143D01*
X85498Y127389D01*
X84965Y126465D01*
X84814Y125902D01*
X87740D01*
Y128828D01*
D02*
G37*
G36*
X28064Y128957D02*
X27054D01*
X26077Y128695D01*
X25202Y128190D01*
X24487Y127475D01*
X23982Y126600D01*
X23720Y125624D01*
Y124613D01*
X23982Y123636D01*
X24487Y122761D01*
X25202Y122046D01*
X26077Y121541D01*
X27054Y121280D01*
X28064D01*
X29041Y121541D01*
X29916Y122046D01*
X30631Y122761D01*
X31136Y123636D01*
X31398Y124613D01*
Y125624D01*
X31136Y126600D01*
X30631Y127475D01*
X29916Y128190D01*
X29041Y128695D01*
X28064Y128957D01*
D02*
G37*
G36*
X21485Y124118D02*
X18559D01*
Y121192D01*
X19123Y121343D01*
X20046Y121876D01*
X20801Y122631D01*
X21334Y123554D01*
X21485Y124118D01*
D02*
G37*
G36*
X16559D02*
X13633D01*
X13784Y123554D01*
X14317Y122631D01*
X15072Y121876D01*
X15995Y121343D01*
X16559Y121192D01*
Y124118D01*
D02*
G37*
G36*
X79246Y128740D02*
X78235D01*
X77258Y128479D01*
X76383Y127973D01*
X75669Y127259D01*
X75163Y126383D01*
X74902Y125407D01*
Y124396D01*
X75163Y123420D01*
X75669Y122545D01*
X76383Y121830D01*
X77258Y121325D01*
X78235Y121063D01*
X79246D01*
X80222Y121325D01*
X81097Y121830D01*
X81812Y122545D01*
X82317Y123420D01*
X82579Y124396D01*
Y125407D01*
X82317Y126383D01*
X81812Y127259D01*
X81097Y127973D01*
X80222Y128479D01*
X79246Y128740D01*
D02*
G37*
G36*
X92666Y123902D02*
X89740D01*
Y120975D01*
X90304Y121126D01*
X91228Y121660D01*
X91982Y122414D01*
X92515Y123338D01*
X92666Y123902D01*
D02*
G37*
G36*
X87740D02*
X84814D01*
X84965Y123338D01*
X85498Y122414D01*
X86253Y121660D01*
X87177Y121126D01*
X87740Y120975D01*
Y123902D01*
D02*
G37*
G36*
X19783Y34799D02*
X17419Y34613D01*
X15113Y34059D01*
X12922Y33151D01*
X10900Y31912D01*
X9097Y30372D01*
X7556Y28569D01*
X6317Y26546D01*
X5410Y24355D01*
X4856Y22049D01*
X4670Y19685D01*
X4856Y17321D01*
X5410Y15015D01*
X6317Y12824D01*
X7556Y10802D01*
X9097Y8998D01*
X10900Y7458D01*
X12922Y6219D01*
X15113Y5311D01*
X17419Y4758D01*
X19783Y4572D01*
X22148Y4758D01*
X24454Y5311D01*
X26645Y6219D01*
X28667Y7458D01*
X30470Y8998D01*
X32011Y10802D01*
X33250Y12824D01*
X34157Y15015D01*
X34711Y17321D01*
X34897Y19685D01*
X34711Y22049D01*
X34157Y24355D01*
X33250Y26546D01*
X32011Y28569D01*
X30470Y30372D01*
X28667Y31912D01*
X26645Y33151D01*
X24454Y34059D01*
X22148Y34613D01*
X19783Y34799D01*
D02*
G37*
G36*
X373721Y34405D02*
X371356Y34219D01*
X369050Y33665D01*
X366859Y32758D01*
X364837Y31518D01*
X363034Y29978D01*
X361493Y28175D01*
X360254Y26153D01*
X359347Y23962D01*
X358793Y21656D01*
X358607Y19291D01*
X358793Y16927D01*
X359347Y14621D01*
X360254Y12430D01*
X361493Y10408D01*
X363034Y8604D01*
X364837Y7064D01*
X366859Y5825D01*
X369050Y4918D01*
X371356Y4364D01*
X373721Y4178D01*
X376085Y4364D01*
X378391Y4918D01*
X380582Y5825D01*
X382604Y7064D01*
X384407Y8604D01*
X385948Y10408D01*
X387187Y12430D01*
X388094Y14621D01*
X388648Y16927D01*
X388834Y19291D01*
X388648Y21656D01*
X388094Y23962D01*
X387187Y26153D01*
X385948Y28175D01*
X384407Y29978D01*
X382604Y31518D01*
X380582Y32758D01*
X378391Y33665D01*
X376085Y34219D01*
X373721Y34405D01*
D02*
G37*
%LPD*%
G36*
X375673Y385949D02*
X377577Y385492D01*
X379386Y384742D01*
X381056Y383719D01*
X382546Y382447D01*
X383818Y380958D01*
X384841Y379288D01*
X385590Y377479D01*
X386047Y375574D01*
X386201Y373622D01*
X386047Y371670D01*
X385590Y369765D01*
X384841Y367956D01*
X383818Y366286D01*
X382546Y364797D01*
X381056Y363525D01*
X379386Y362502D01*
X377577Y361752D01*
X375673Y361295D01*
X373721Y361141D01*
X371768Y361295D01*
X369864Y361752D01*
X368054Y362502D01*
X366385Y363525D01*
X364895Y364797D01*
X363623Y366286D01*
X362600Y367956D01*
X361851Y369765D01*
X361393Y371670D01*
X361240Y373622D01*
X361393Y375574D01*
X361851Y377479D01*
X362600Y379288D01*
X363623Y380958D01*
X364895Y382447D01*
X366385Y383719D01*
X368054Y384742D01*
X369864Y385492D01*
X371768Y385949D01*
X373721Y386103D01*
X375673Y385949D01*
D02*
G37*
%LPC*%
G36*
X374515Y382496D02*
X372926D01*
X372848Y382480D01*
X372769D01*
X371210Y382170D01*
X371137Y382140D01*
X371059Y382124D01*
X369590Y381516D01*
X369525Y381472D01*
X369451Y381442D01*
X368130Y380559D01*
X368074Y380503D01*
X368008Y380459D01*
X366884Y379335D01*
X366840Y379269D01*
X366784Y379213D01*
X365901Y377891D01*
X365870Y377818D01*
X365826Y377752D01*
X365218Y376284D01*
X365203Y376206D01*
X365172Y376133D01*
X364862Y374574D01*
Y374495D01*
X364847Y374417D01*
Y373622D01*
Y372827D01*
X364862Y372750D01*
Y372671D01*
X365172Y371111D01*
X365203Y371038D01*
X365218Y370961D01*
X365826Y369492D01*
X365870Y369426D01*
X365901Y369353D01*
X366784Y368031D01*
X366840Y367975D01*
X366884Y367910D01*
X368008Y366785D01*
X368074Y366741D01*
X368130Y366686D01*
X369451Y365802D01*
X369525Y365772D01*
X369590Y365728D01*
X371059Y365120D01*
X371137Y365104D01*
X371210Y365074D01*
X372769Y364764D01*
X372848D01*
X372926Y364748D01*
X374515D01*
X374593Y364764D01*
X374672D01*
X376231Y365074D01*
X376304Y365104D01*
X376382Y365120D01*
X377851Y365728D01*
X377916Y365772D01*
X377990Y365802D01*
X379311Y366686D01*
X379367Y366741D01*
X379433Y366785D01*
X380557Y367910D01*
X380601Y367975D01*
X380657Y368031D01*
X381540Y369353D01*
X381571Y369426D01*
X381614Y369492D01*
X382223Y370961D01*
X382238Y371038D01*
X382269Y371111D01*
X382579Y372671D01*
Y372750D01*
X382594Y372827D01*
Y373622D01*
Y374417D01*
X382579Y374495D01*
Y374574D01*
X382269Y376133D01*
X382238Y376206D01*
X382223Y376284D01*
X381614Y377752D01*
X381571Y377818D01*
X381540Y377891D01*
X380657Y379213D01*
X380601Y379269D01*
X380557Y379335D01*
X379433Y380459D01*
X379367Y380503D01*
X379311Y380559D01*
X377990Y381442D01*
X377916Y381472D01*
X377851Y381516D01*
X376382Y382124D01*
X376304Y382140D01*
X376231Y382170D01*
X374672Y382480D01*
X374593D01*
X374515Y382496D01*
D02*
G37*
%LPD*%
G36*
X21342Y385949D02*
X23246Y385492D01*
X25056Y384742D01*
X26726Y383719D01*
X28215Y382447D01*
X29487Y380958D01*
X30510Y379288D01*
X31260Y377479D01*
X31717Y375574D01*
X31870Y373622D01*
X31717Y371670D01*
X31260Y369765D01*
X30510Y367956D01*
X29487Y366286D01*
X28215Y364797D01*
X26726Y363525D01*
X25056Y362502D01*
X23246Y361752D01*
X21342Y361295D01*
X19390Y361141D01*
X17437Y361295D01*
X15533Y361752D01*
X13724Y362502D01*
X12054Y363525D01*
X10565Y364797D01*
X9293Y366286D01*
X8269Y367956D01*
X7520Y369765D01*
X7063Y371670D01*
X6909Y373622D01*
X7063Y375574D01*
X7520Y377479D01*
X8269Y379288D01*
X9293Y380958D01*
X10565Y382447D01*
X12054Y383719D01*
X13724Y384742D01*
X15533Y385492D01*
X17437Y385949D01*
X19390Y386103D01*
X21342Y385949D01*
D02*
G37*
%LPC*%
G36*
X20185Y382496D02*
X18595D01*
X18517Y382480D01*
X18438D01*
X16879Y382170D01*
X16806Y382140D01*
X16728Y382124D01*
X15259Y381516D01*
X15194Y381472D01*
X15121Y381442D01*
X13799Y380559D01*
X13743Y380503D01*
X13677Y380459D01*
X12553Y379335D01*
X12509Y379269D01*
X12453Y379213D01*
X11570Y377891D01*
X11540Y377818D01*
X11496Y377752D01*
X10887Y376284D01*
X10872Y376206D01*
X10842Y376133D01*
X10531Y374574D01*
Y374495D01*
X10516Y374417D01*
Y373622D01*
Y372827D01*
X10531Y372750D01*
Y372671D01*
X10842Y371111D01*
X10872Y371038D01*
X10887Y370961D01*
X11496Y369492D01*
X11540Y369426D01*
X11570Y369353D01*
X12453Y368031D01*
X12509Y367975D01*
X12553Y367910D01*
X13677Y366785D01*
X13743Y366741D01*
X13799Y366686D01*
X15121Y365802D01*
X15194Y365772D01*
X15259Y365728D01*
X16728Y365120D01*
X16806Y365104D01*
X16879Y365074D01*
X18438Y364764D01*
X18517D01*
X18595Y364748D01*
X20185D01*
X20262Y364764D01*
X20341D01*
X21901Y365074D01*
X21974Y365104D01*
X22051Y365120D01*
X23520Y365728D01*
X23586Y365772D01*
X23659Y365802D01*
X24981Y366686D01*
X25037Y366741D01*
X25102Y366785D01*
X26226Y367910D01*
X26270Y367975D01*
X26326Y368031D01*
X27210Y369353D01*
X27240Y369426D01*
X27284Y369492D01*
X27892Y370961D01*
X27908Y371038D01*
X27938Y371111D01*
X28248Y372671D01*
Y372750D01*
X28264Y372827D01*
Y373622D01*
Y374417D01*
X28248Y374495D01*
Y374574D01*
X27938Y376133D01*
X27908Y376206D01*
X27892Y376284D01*
X27284Y377752D01*
X27240Y377818D01*
X27210Y377891D01*
X26326Y379213D01*
X26270Y379269D01*
X26226Y379335D01*
X25102Y380459D01*
X25036Y380503D01*
X24981Y380559D01*
X23659Y381442D01*
X23586Y381472D01*
X23520Y381516D01*
X22051Y382124D01*
X21974Y382140D01*
X21901Y382170D01*
X20341Y382480D01*
X20262D01*
X20185Y382496D01*
D02*
G37*
%LPD*%
G36*
X21736Y32012D02*
X23640Y31555D01*
X25449Y30805D01*
X27119Y29782D01*
X28609Y28510D01*
X29880Y27021D01*
X30904Y25351D01*
X31653Y23542D01*
X32110Y21637D01*
X32264Y19685D01*
X32110Y17733D01*
X31653Y15828D01*
X30904Y14019D01*
X29880Y12349D01*
X28609Y10860D01*
X27119Y9588D01*
X25449Y8565D01*
X23640Y7815D01*
X21736Y7358D01*
X19783Y7204D01*
X17831Y7358D01*
X15927Y7815D01*
X14117Y8565D01*
X12448Y9588D01*
X10958Y10860D01*
X9686Y12349D01*
X8663Y14019D01*
X7914Y15828D01*
X7457Y17733D01*
X7303Y19685D01*
X7457Y21637D01*
X7914Y23542D01*
X8663Y25351D01*
X9686Y27021D01*
X10958Y28510D01*
X12448Y29782D01*
X14117Y30805D01*
X15927Y31555D01*
X17831Y32012D01*
X19783Y32166D01*
X21736Y32012D01*
D02*
G37*
%LPC*%
G36*
X20578Y28559D02*
X18989D01*
X18911Y28543D01*
X18832D01*
X17273Y28233D01*
X17200Y28203D01*
X17122Y28188D01*
X15653Y27579D01*
X15587Y27535D01*
X15514Y27505D01*
X14193Y26622D01*
X14137Y26566D01*
X14071Y26522D01*
X12947Y25398D01*
X12903Y25332D01*
X12847Y25276D01*
X11964Y23954D01*
X11933Y23881D01*
X11889Y23815D01*
X11281Y22346D01*
X11266Y22269D01*
X11235Y22196D01*
X10925Y20637D01*
Y20558D01*
X10910Y20480D01*
Y19685D01*
Y18890D01*
X10925Y18813D01*
Y18733D01*
X11235Y17174D01*
X11266Y17101D01*
X11281Y17024D01*
X11889Y15555D01*
X11933Y15489D01*
X11964Y15416D01*
X12847Y14094D01*
X12903Y14038D01*
X12947Y13972D01*
X14071Y12848D01*
X14137Y12804D01*
X14193Y12749D01*
X15514Y11865D01*
X15587Y11835D01*
X15653Y11791D01*
X17122Y11183D01*
X17200Y11167D01*
X17273Y11137D01*
X18832Y10827D01*
X18911D01*
X18989Y10811D01*
X20578D01*
X20656Y10827D01*
X20735D01*
X22294Y11137D01*
X22367Y11167D01*
X22445Y11183D01*
X23914Y11791D01*
X23979Y11835D01*
X24053Y11865D01*
X25374Y12748D01*
X25430Y12804D01*
X25496Y12848D01*
X26620Y13972D01*
X26664Y14038D01*
X26720Y14094D01*
X27603Y15416D01*
X27634Y15489D01*
X27678Y15555D01*
X28286Y17024D01*
X28301Y17101D01*
X28332Y17174D01*
X28642Y18733D01*
Y18813D01*
X28657Y18890D01*
Y19685D01*
Y20480D01*
X28642Y20558D01*
Y20637D01*
X28332Y22196D01*
X28301Y22269D01*
X28286Y22346D01*
X27678Y23815D01*
X27634Y23881D01*
X27603Y23954D01*
X26720Y25276D01*
X26664Y25332D01*
X26620Y25398D01*
X25496Y26522D01*
X25430Y26566D01*
X25374Y26622D01*
X24053Y27505D01*
X23979Y27535D01*
X23914Y27579D01*
X22445Y28188D01*
X22367Y28203D01*
X22294Y28233D01*
X20735Y28543D01*
X20656D01*
X20578Y28559D01*
D02*
G37*
%LPD*%
G36*
X375673Y31618D02*
X377577Y31161D01*
X379386Y30412D01*
X381056Y29388D01*
X382546Y28117D01*
X383818Y26627D01*
X384841Y24957D01*
X385590Y23148D01*
X386047Y21244D01*
X386201Y19291D01*
X386047Y17339D01*
X385590Y15435D01*
X384841Y13625D01*
X383818Y11955D01*
X382546Y10466D01*
X381056Y9194D01*
X379386Y8171D01*
X377577Y7422D01*
X375673Y6964D01*
X373721Y6811D01*
X371768Y6964D01*
X369864Y7422D01*
X368054Y8171D01*
X366385Y9194D01*
X364895Y10466D01*
X363623Y11955D01*
X362600Y13625D01*
X361851Y15435D01*
X361393Y17339D01*
X361240Y19291D01*
X361393Y21244D01*
X361851Y23148D01*
X362600Y24957D01*
X363623Y26627D01*
X364895Y28117D01*
X366385Y29388D01*
X368054Y30412D01*
X369864Y31161D01*
X371768Y31618D01*
X373721Y31772D01*
X375673Y31618D01*
D02*
G37*
%LPC*%
G36*
X374515Y28165D02*
X372926D01*
X372848Y28150D01*
X372769D01*
X371210Y27839D01*
X371137Y27809D01*
X371059Y27794D01*
X369590Y27185D01*
X369525Y27141D01*
X369451Y27111D01*
X368130Y26228D01*
X368074Y26172D01*
X368008Y26128D01*
X366884Y25004D01*
X366840Y24938D01*
X366784Y24882D01*
X365901Y23560D01*
X365870Y23487D01*
X365826Y23422D01*
X365218Y21953D01*
X365203Y21875D01*
X365172Y21802D01*
X364862Y20243D01*
Y20164D01*
X364847Y20086D01*
Y19291D01*
Y18496D01*
X364862Y18419D01*
Y18340D01*
X365172Y16781D01*
X365203Y16707D01*
X365218Y16630D01*
X365826Y15161D01*
X365870Y15095D01*
X365901Y15022D01*
X366784Y13700D01*
X366840Y13645D01*
X366884Y13579D01*
X368008Y12455D01*
X368074Y12411D01*
X368130Y12355D01*
X369451Y11472D01*
X369525Y11441D01*
X369590Y11397D01*
X371059Y10789D01*
X371137Y10774D01*
X371210Y10743D01*
X372769Y10433D01*
X372848D01*
X372926Y10418D01*
X374515D01*
X374593Y10433D01*
X374672D01*
X376231Y10743D01*
X376304Y10774D01*
X376382Y10789D01*
X377851Y11397D01*
X377916Y11441D01*
X377990Y11472D01*
X379311Y12355D01*
X379367Y12411D01*
X379433Y12455D01*
X380557Y13579D01*
X380601Y13645D01*
X380657Y13700D01*
X381540Y15022D01*
X381571Y15095D01*
X381614Y15161D01*
X382223Y16630D01*
X382238Y16707D01*
X382269Y16781D01*
X382579Y18340D01*
Y18419D01*
X382594Y18496D01*
Y19291D01*
Y20086D01*
X382579Y20164D01*
Y20243D01*
X382269Y21802D01*
X382238Y21875D01*
X382223Y21953D01*
X381614Y23422D01*
X381571Y23487D01*
X381540Y23560D01*
X380657Y24882D01*
X380601Y24938D01*
X380557Y25004D01*
X379433Y26128D01*
X379367Y26172D01*
X379311Y26228D01*
X377990Y27111D01*
X377916Y27141D01*
X377851Y27185D01*
X376382Y27794D01*
X376304Y27809D01*
X376231Y27839D01*
X374672Y28150D01*
X374593D01*
X374515Y28165D01*
D02*
G37*
%LPD*%
D38*
X351913Y211874D02*
D03*
Y219874D02*
D03*
X358913Y223874D02*
D03*
X351913Y235874D02*
D03*
Y149874D02*
D03*
Y157874D02*
D03*
X358913Y161874D02*
D03*
X351913Y173874D02*
D03*
D41*
X355413Y257874D02*
D03*
Y131874D02*
D03*
D42*
X17559Y265118D02*
D03*
Y255118D02*
D03*
Y245118D02*
D03*
Y235118D02*
D03*
Y225118D02*
D03*
Y215118D02*
D03*
Y205118D02*
D03*
Y195118D02*
D03*
Y185118D02*
D03*
Y175118D02*
D03*
Y165118D02*
D03*
Y155118D02*
D03*
Y145118D02*
D03*
Y135118D02*
D03*
Y125118D02*
D03*
X88740Y264902D02*
D03*
Y254902D02*
D03*
Y244902D02*
D03*
Y234902D02*
D03*
Y224902D02*
D03*
Y214902D02*
D03*
Y204902D02*
D03*
Y194902D02*
D03*
Y184902D02*
D03*
Y174902D02*
D03*
Y164902D02*
D03*
Y154902D02*
D03*
Y144902D02*
D03*
Y134902D02*
D03*
Y124902D02*
D03*
M02*
