G04*
G04 #@! TF.GenerationSoftware,Altium Limited,Altium Designer,26.4.1 (12)*
G04*
G04 Layer_Color=16711935*
%FSLAX25Y25*%
%MOIN*%
G70*
G04*
G04 #@! TF.SameCoordinates,D39B8398-86C8-4CF1-8612-2F4D2E61BB95*
G04*
G04*
G04 #@! TF.FilePolarity,Negative*
G04*
G01*
G75*
%ADD32C,0.06902*%
%ADD33C,0.06312*%
%ADD34C,0.10249*%
%ADD35C,0.13595*%
%ADD36R,0.06312X0.06312*%
D32*
X78740Y264902D02*
D03*
X27559Y265118D02*
D03*
X88740Y124902D02*
D03*
Y134902D02*
D03*
Y144902D02*
D03*
Y154902D02*
D03*
Y164902D02*
D03*
Y174902D02*
D03*
Y184902D02*
D03*
Y194902D02*
D03*
Y204902D02*
D03*
Y214902D02*
D03*
Y224902D02*
D03*
Y234902D02*
D03*
Y244902D02*
D03*
Y254902D02*
D03*
Y264902D02*
D03*
X17559Y125118D02*
D03*
Y135118D02*
D03*
Y145118D02*
D03*
Y155118D02*
D03*
Y165118D02*
D03*
Y175118D02*
D03*
Y185118D02*
D03*
Y195118D02*
D03*
Y205118D02*
D03*
Y215118D02*
D03*
Y225118D02*
D03*
Y235118D02*
D03*
Y245118D02*
D03*
Y255118D02*
D03*
Y265118D02*
D03*
X27559Y125118D02*
D03*
Y145118D02*
D03*
Y155118D02*
D03*
Y175118D02*
D03*
Y195118D02*
D03*
Y205118D02*
D03*
Y215118D02*
D03*
Y225118D02*
D03*
Y235118D02*
D03*
Y245118D02*
D03*
Y255118D02*
D03*
Y165118D02*
D03*
Y185118D02*
D03*
Y135118D02*
D03*
X78740Y254902D02*
D03*
Y244902D02*
D03*
Y234902D02*
D03*
Y224902D02*
D03*
Y214902D02*
D03*
Y204902D02*
D03*
Y194902D02*
D03*
Y174902D02*
D03*
Y154902D02*
D03*
Y144902D02*
D03*
Y124902D02*
D03*
Y164902D02*
D03*
Y184902D02*
D03*
Y134902D02*
D03*
D33*
X351913Y173874D02*
D03*
X358913Y161874D02*
D03*
X351913Y157874D02*
D03*
Y149874D02*
D03*
Y235874D02*
D03*
X358913Y223874D02*
D03*
X351913Y219874D02*
D03*
Y211874D02*
D03*
X358913Y169874D02*
D03*
X351913Y165874D02*
D03*
X358913Y153874D02*
D03*
Y215874D02*
D03*
X351913Y227874D02*
D03*
X358913Y231874D02*
D03*
D34*
X355413Y131874D02*
D03*
Y257874D02*
D03*
D35*
X368913Y138874D02*
D03*
Y250874D02*
D03*
D36*
X358913Y239874D02*
D03*
Y177874D02*
D03*
M02*
