G04*
G04 #@! TF.GenerationSoftware,Altium Limited,Altium Designer,26.4.1 (12)*
G04*
G04 Layer_Color=16711935*
%FSLAX25Y25*%
%MOIN*%
G70*
G04*
G04 #@! TF.SameCoordinates,D39B8398-86C8-4CF1-8612-2F4D2E61BB95*
G04*
G04*
G04 #@! TF.FilePolarity,Positive*
G04*
G01*
G75*
%ADD20C,0.01000*%
D20*
X387500Y19291D02*
X387464Y20286D01*
X387356Y21275D01*
X387178Y22253D01*
X386929Y23217D01*
X386611Y24160D01*
X386226Y25077D01*
X385776Y25964D01*
X385263Y26817D01*
X384690Y27630D01*
X384060Y28400D01*
X383376Y29122D01*
X382641Y29794D01*
X381860Y30410D01*
X381037Y30968D01*
X380175Y31466D01*
X379280Y31900D01*
X378355Y32268D01*
X377407Y32569D01*
X376439Y32800D01*
X375457Y32961D01*
X374466Y33051D01*
X373472Y33069D01*
X372478Y33015D01*
X371491Y32889D01*
X370516Y32693D01*
X369557Y32427D01*
X368620Y32092D01*
X367710Y31691D01*
X366831Y31225D01*
X365988Y30696D01*
X365185Y30109D01*
X364426Y29465D01*
X363717Y28767D01*
X363059Y28021D01*
X362457Y27229D01*
X361913Y26395D01*
X361432Y25525D01*
X361014Y24622D01*
X360662Y23691D01*
X360379Y22738D01*
X360165Y21766D01*
X360022Y20781D01*
X359950Y19789D01*
Y18794D01*
X360022Y17801D01*
X360165Y16817D01*
X360379Y15845D01*
X360662Y14891D01*
X361014Y13961D01*
X361432Y13058D01*
X361913Y12187D01*
X362457Y11354D01*
X363059Y10562D01*
X363717Y9815D01*
X364426Y9118D01*
X365185Y8474D01*
X365987Y7886D01*
X366831Y7358D01*
X367710Y6892D01*
X368620Y6491D01*
X369557Y6156D01*
X370516Y5890D01*
X371491Y5693D01*
X372478Y5568D01*
X373472Y5514D01*
X374466Y5532D01*
X375457Y5622D01*
X376439Y5783D01*
X377407Y6014D01*
X378355Y6315D01*
X379280Y6683D01*
X380175Y7117D01*
X381036Y7614D01*
X381860Y8173D01*
X382641Y8789D01*
X383376Y9460D01*
X384060Y10182D01*
X384690Y10952D01*
X385263Y11766D01*
X385776Y12618D01*
X386226Y13506D01*
X386611Y14423D01*
X386929Y15366D01*
X387178Y16329D01*
X387356Y17308D01*
X387464Y18297D01*
X387500Y19291D01*
Y373622D02*
X387464Y374616D01*
X387356Y375606D01*
X387178Y376584D01*
X386929Y377548D01*
X386611Y378490D01*
X386226Y379408D01*
X385776Y380295D01*
X385263Y381148D01*
X384690Y381961D01*
X384060Y382731D01*
X383376Y383453D01*
X382641Y384124D01*
X381860Y384741D01*
X381037Y385299D01*
X380175Y385796D01*
X379280Y386230D01*
X378355Y386599D01*
X377407Y386899D01*
X376439Y387131D01*
X375457Y387292D01*
X374466Y387381D01*
X373472Y387399D01*
X372478Y387346D01*
X371491Y387220D01*
X370516Y387024D01*
X369557Y386758D01*
X368620Y386423D01*
X367710Y386021D01*
X366831Y385556D01*
X365988Y385027D01*
X365185Y384439D01*
X364426Y383795D01*
X363717Y383098D01*
X363059Y382352D01*
X362457Y381560D01*
X361913Y380726D01*
X361432Y379856D01*
X361014Y378953D01*
X360662Y378022D01*
X360379Y377068D01*
X360165Y376097D01*
X360022Y375112D01*
X359950Y374119D01*
Y373125D01*
X360022Y372132D01*
X360165Y371148D01*
X360379Y370176D01*
X360662Y369222D01*
X361014Y368291D01*
X361432Y367389D01*
X361913Y366518D01*
X362457Y365685D01*
X363059Y364893D01*
X363717Y364146D01*
X364426Y363449D01*
X365185Y362805D01*
X365987Y362217D01*
X366831Y361689D01*
X367710Y361223D01*
X368620Y360821D01*
X369557Y360487D01*
X370516Y360220D01*
X371491Y360024D01*
X372478Y359899D01*
X373472Y359845D01*
X374466Y359863D01*
X375457Y359952D01*
X376439Y360113D01*
X377407Y360345D01*
X378355Y360645D01*
X379280Y361014D01*
X380175Y361448D01*
X381036Y361945D01*
X381860Y362504D01*
X382641Y363120D01*
X383376Y363791D01*
X384060Y364513D01*
X384690Y365283D01*
X385263Y366096D01*
X385776Y366949D01*
X386226Y367836D01*
X386611Y368754D01*
X386929Y369696D01*
X387178Y370660D01*
X387356Y371639D01*
X387464Y372628D01*
X387500Y373622D01*
X33169D02*
X33133Y374616D01*
X33026Y375606D01*
X32847Y376584D01*
X32598Y377548D01*
X32281Y378490D01*
X31896Y379408D01*
X31446Y380295D01*
X30933Y381148D01*
X30360Y381961D01*
X29729Y382731D01*
X29045Y383453D01*
X28310Y384124D01*
X27529Y384741D01*
X26706Y385299D01*
X25844Y385796D01*
X24949Y386230D01*
X24025Y386599D01*
X23076Y386899D01*
X22108Y387131D01*
X21127Y387292D01*
X20136Y387381D01*
X19141Y387399D01*
X18147Y387346D01*
X17161Y387220D01*
X16185Y387024D01*
X15226Y386758D01*
X14289Y386423D01*
X13379Y386021D01*
X12500Y385556D01*
X11657Y385027D01*
X10854Y384439D01*
X10096Y383795D01*
X9386Y383098D01*
X8728Y382352D01*
X8126Y381560D01*
X7583Y380726D01*
X7101Y379856D01*
X6683Y378953D01*
X6332Y378022D01*
X6048Y377068D01*
X5834Y376097D01*
X5691Y375112D01*
X5619Y374119D01*
Y373125D01*
X5691Y372132D01*
X5834Y371148D01*
X6048Y370176D01*
X6331Y369222D01*
X6683Y368291D01*
X7101Y367389D01*
X7583Y366518D01*
X8126Y365685D01*
X8728Y364893D01*
X9386Y364146D01*
X10096Y363449D01*
X10854Y362805D01*
X11657Y362217D01*
X12500Y361689D01*
X13379Y361223D01*
X14289Y360821D01*
X15226Y360487D01*
X16185Y360220D01*
X17160Y360024D01*
X18147Y359899D01*
X19141Y359845D01*
X20136Y359863D01*
X21127Y359952D01*
X22108Y360113D01*
X23076Y360345D01*
X24025Y360645D01*
X24949Y361014D01*
X25844Y361448D01*
X26706Y361945D01*
X27529Y362504D01*
X28310Y363120D01*
X29045Y363791D01*
X29729Y364513D01*
X30360Y365283D01*
X30933Y366096D01*
X31446Y366949D01*
X31896Y367836D01*
X32281Y368754D01*
X32598Y369696D01*
X32847Y370660D01*
X33026Y371639D01*
X33133Y372628D01*
X33169Y373622D01*
X33563Y19685D02*
X33527Y20679D01*
X33419Y21668D01*
X33241Y22647D01*
X32992Y23611D01*
X32674Y24553D01*
X32289Y25471D01*
X31839Y26358D01*
X31326Y27211D01*
X30753Y28024D01*
X30123Y28794D01*
X29439Y29516D01*
X28704Y30187D01*
X27923Y30804D01*
X27100Y31362D01*
X26238Y31859D01*
X25343Y32293D01*
X24418Y32662D01*
X23470Y32962D01*
X22502Y33194D01*
X21520Y33355D01*
X20529Y33444D01*
X19535Y33462D01*
X18541Y33408D01*
X17554Y33283D01*
X16579Y33087D01*
X15620Y32821D01*
X14683Y32486D01*
X13773Y32085D01*
X12894Y31618D01*
X12051Y31090D01*
X11248Y30503D01*
X10489Y29858D01*
X9780Y29161D01*
X9122Y28415D01*
X8520Y27623D01*
X7976Y26789D01*
X7495Y25919D01*
X7077Y25016D01*
X6725Y24085D01*
X6442Y23131D01*
X6228Y22160D01*
X6085Y21175D01*
X6013Y20182D01*
Y19188D01*
X6085Y18195D01*
X6228Y17211D01*
X6442Y16239D01*
X6725Y15285D01*
X7077Y14355D01*
X7495Y13452D01*
X7976Y12581D01*
X8520Y11748D01*
X9122Y10955D01*
X9780Y10209D01*
X10489Y9512D01*
X11248Y8868D01*
X12050Y8280D01*
X12894Y7752D01*
X13773Y7286D01*
X14683Y6884D01*
X15620Y6549D01*
X16579Y6283D01*
X17554Y6087D01*
X18541Y5962D01*
X19535Y5908D01*
X20529Y5926D01*
X21520Y6015D01*
X22502Y6176D01*
X23470Y6408D01*
X24418Y6708D01*
X25343Y7077D01*
X26238Y7511D01*
X27099Y8008D01*
X27923Y8567D01*
X28704Y9183D01*
X29439Y9854D01*
X30123Y10576D01*
X30753Y11346D01*
X31326Y12159D01*
X31839Y13012D01*
X32289Y13899D01*
X32674Y14817D01*
X32992Y15759D01*
X33241Y16723D01*
X33419Y17702D01*
X33527Y18691D01*
X33563Y19685D01*
M02*
