G04*
G04 #@! TF.GenerationSoftware,Altium Limited,Altium Designer,26.4.1 (12)*
G04*
G04 Layer_Color=8388736*
%FSLAX25Y25*%
%MOIN*%
G70*
G04*
G04 #@! TF.SameCoordinates,D39B8398-86C8-4CF1-8612-2F4D2E61BB95*
G04*
G04*
G04 #@! TF.FilePolarity,Negative*
G04*
G01*
G75*
%ADD27R,0.04540X0.04147*%
%ADD28R,0.03950X0.03950*%
%ADD29R,0.04147X0.04540*%
%ADD30R,0.04343X0.03556*%
%ADD31O,0.05131X0.03162*%
%ADD32C,0.06902*%
%ADD33C,0.06312*%
%ADD34C,0.10249*%
%ADD35C,0.13595*%
%ADD36R,0.06312X0.06312*%
D27*
X172047Y333268D02*
D03*
Y328150D02*
D03*
X124803Y333268D02*
D03*
Y328150D02*
D03*
X219291Y333268D02*
D03*
Y328150D02*
D03*
X266535Y333268D02*
D03*
Y328150D02*
D03*
X313779Y333268D02*
D03*
Y328150D02*
D03*
X77559Y333268D02*
D03*
Y328150D02*
D03*
X77559Y319488D02*
D03*
Y314370D02*
D03*
X219291D02*
D03*
X313779D02*
D03*
X124803D02*
D03*
X266535D02*
D03*
X172047D02*
D03*
X27559Y308492D02*
D03*
Y313610D02*
D03*
X229528Y336024D02*
D03*
Y341142D02*
D03*
X172047Y319488D02*
D03*
X219291D02*
D03*
X324016Y336024D02*
D03*
Y341142D02*
D03*
X313779Y319488D02*
D03*
X87795Y336024D02*
D03*
Y341142D02*
D03*
X124803Y319488D02*
D03*
X266535D02*
D03*
X135039Y336024D02*
D03*
Y341142D02*
D03*
X276772Y336024D02*
D03*
Y341142D02*
D03*
X182283Y336024D02*
D03*
Y341142D02*
D03*
D28*
X172047Y343307D02*
D03*
X17323Y313610D02*
D03*
Y307311D02*
D03*
X172047Y349606D02*
D03*
X313779D02*
D03*
Y343307D02*
D03*
X219291Y349606D02*
D03*
Y343307D02*
D03*
X77559Y349606D02*
D03*
Y343307D02*
D03*
X124803Y349606D02*
D03*
Y343307D02*
D03*
X266535Y349606D02*
D03*
Y343307D02*
D03*
D29*
X22441Y320866D02*
D03*
X27559D02*
D03*
X233661Y135827D02*
D03*
X238779D02*
D03*
X245472D02*
D03*
X250590D02*
D03*
X174606Y104331D02*
D03*
X179724D02*
D03*
X186417D02*
D03*
X191535D02*
D03*
X233661Y259842D02*
D03*
X238779D02*
D03*
X250590D02*
D03*
X245472D02*
D03*
X174606Y228346D02*
D03*
X179724D02*
D03*
X186417D02*
D03*
X191535D02*
D03*
X250590Y196850D02*
D03*
X191535Y165354D02*
D03*
X233661Y196850D02*
D03*
X238779D02*
D03*
X245472D02*
D03*
X174606Y165354D02*
D03*
X179724D02*
D03*
X186417D02*
D03*
D30*
X238779Y184252D02*
D03*
X191535Y91732D02*
D03*
X179724D02*
D03*
X250590Y123228D02*
D03*
X238779D02*
D03*
X191535Y152756D02*
D03*
X179724D02*
D03*
X250590Y184252D02*
D03*
X191535Y215748D02*
D03*
X179724D02*
D03*
X250590Y247244D02*
D03*
X238779D02*
D03*
Y189764D02*
D03*
Y128740D02*
D03*
X250590D02*
D03*
X179724Y97244D02*
D03*
X191535D02*
D03*
X250590Y252756D02*
D03*
X238779D02*
D03*
X179724Y221260D02*
D03*
X191535D02*
D03*
X250590Y189764D02*
D03*
X191535Y158268D02*
D03*
X179724D02*
D03*
D31*
X182283Y365945D02*
D03*
X229528D02*
D03*
X135039D02*
D03*
X87795Y365945D02*
D03*
X324016Y365945D02*
D03*
X276772D02*
D03*
Y358465D02*
D03*
X266535Y362205D02*
D03*
X324016Y358465D02*
D03*
X313779Y362205D02*
D03*
X87795Y358465D02*
D03*
X77559Y362205D02*
D03*
X135039Y358465D02*
D03*
X124803Y362205D02*
D03*
X229528Y358465D02*
D03*
X219291Y362205D02*
D03*
X182283Y358465D02*
D03*
X172047Y362205D02*
D03*
D32*
X78740Y264902D02*
D03*
X27559Y265118D02*
D03*
X88740Y124902D02*
D03*
Y134902D02*
D03*
Y144902D02*
D03*
Y154902D02*
D03*
Y164902D02*
D03*
Y174902D02*
D03*
Y184902D02*
D03*
Y194902D02*
D03*
Y204902D02*
D03*
Y214902D02*
D03*
Y224902D02*
D03*
Y234902D02*
D03*
Y244902D02*
D03*
Y254902D02*
D03*
Y264902D02*
D03*
X17559Y125118D02*
D03*
Y135118D02*
D03*
Y145118D02*
D03*
Y155118D02*
D03*
Y165118D02*
D03*
Y175118D02*
D03*
Y185118D02*
D03*
Y195118D02*
D03*
Y205118D02*
D03*
Y215118D02*
D03*
Y225118D02*
D03*
Y235118D02*
D03*
Y245118D02*
D03*
Y255118D02*
D03*
Y265118D02*
D03*
X27559Y125118D02*
D03*
Y145118D02*
D03*
Y155118D02*
D03*
Y175118D02*
D03*
Y195118D02*
D03*
Y205118D02*
D03*
Y215118D02*
D03*
Y225118D02*
D03*
Y235118D02*
D03*
Y245118D02*
D03*
Y255118D02*
D03*
Y165118D02*
D03*
Y185118D02*
D03*
Y135118D02*
D03*
X78740Y254902D02*
D03*
Y244902D02*
D03*
Y234902D02*
D03*
Y224902D02*
D03*
Y214902D02*
D03*
Y204902D02*
D03*
Y194902D02*
D03*
Y174902D02*
D03*
Y154902D02*
D03*
Y144902D02*
D03*
Y124902D02*
D03*
Y164902D02*
D03*
Y184902D02*
D03*
Y134902D02*
D03*
D33*
X351913Y173874D02*
D03*
X358913Y161874D02*
D03*
X351913Y157874D02*
D03*
Y149874D02*
D03*
Y235874D02*
D03*
X358913Y223874D02*
D03*
X351913Y219874D02*
D03*
Y211874D02*
D03*
X358913Y169874D02*
D03*
X351913Y165874D02*
D03*
X358913Y153874D02*
D03*
Y215874D02*
D03*
X351913Y227874D02*
D03*
X358913Y231874D02*
D03*
D34*
X355413Y131874D02*
D03*
Y257874D02*
D03*
D35*
X368913Y138874D02*
D03*
Y250874D02*
D03*
D36*
X358913Y239874D02*
D03*
Y177874D02*
D03*
M02*
