G04*
G04 #@! TF.GenerationSoftware,Altium Limited,Altium Designer,26.4.1 (12)*
G04*
G04 Layer_Color=16711935*
%FSLAX25Y25*%
%MOIN*%
G70*
G04*
G04 #@! TF.SameCoordinates,827F8109-FE27-48AC-95B4-77E84D688F66*
G04*
G04*
G04 #@! TF.FilePolarity,Positive*
G04*
G01*
G75*
%ADD20C,0.01000*%
D20*
X-295Y6890D02*
X-222Y5858D01*
X-2Y4848D01*
X360Y3878D01*
X855Y2971D01*
X1475Y2143D01*
X2207Y1412D01*
X3035Y792D01*
X3942Y296D01*
X4911Y-65D01*
X5922Y-285D01*
X6954Y-359D01*
X381791Y19291D02*
X381730Y20283D01*
X381548Y21260D01*
X381246Y22207D01*
X380831Y23110D01*
X380308Y23955D01*
X379685Y24729D01*
X378972Y25420D01*
X378179Y26019D01*
X377318Y26516D01*
X376403Y26903D01*
X375447Y27175D01*
X374465Y27328D01*
X373472Y27358D01*
X372482Y27267D01*
X371512Y27054D01*
X370575Y26724D01*
X369685Y26281D01*
X368857Y25732D01*
X368102Y25085D01*
X367433Y24351D01*
X366859Y23540D01*
X366388Y22665D01*
X366029Y21738D01*
X365787Y20774D01*
X365665Y19788D01*
Y18794D01*
X365787Y17808D01*
X366029Y16845D01*
X366388Y15918D01*
X366859Y15043D01*
X367433Y14232D01*
X368102Y13497D01*
X368857Y12851D01*
X369685Y12302D01*
X370575Y11859D01*
X371512Y11529D01*
X372482Y11316D01*
X373472Y11224D01*
X374465Y11255D01*
X375447Y11407D01*
X376403Y11679D01*
X377318Y12067D01*
X378179Y12563D01*
X378972Y13162D01*
X379685Y13854D01*
X380308Y14628D01*
X380831Y15473D01*
X381246Y16376D01*
X381548Y17323D01*
X381730Y18300D01*
X381791Y19291D01*
X393403Y386058D02*
X393329Y387090D01*
X393109Y388101D01*
X392748Y389070D01*
X392252Y389977D01*
X391632Y390805D01*
X390901Y391537D01*
X390073Y392156D01*
X389165Y392652D01*
X388196Y393014D01*
X387186Y393233D01*
X386154Y393307D01*
X381791Y373622D02*
X381730Y374614D01*
X381548Y375591D01*
X381246Y376538D01*
X380831Y377440D01*
X380308Y378285D01*
X379685Y379059D01*
X378972Y379751D01*
X378179Y380350D01*
X377318Y380847D01*
X376403Y381234D01*
X375447Y381506D01*
X374465Y381659D01*
X373472Y381689D01*
X372482Y381597D01*
X371512Y381385D01*
X370575Y381055D01*
X369685Y380612D01*
X368857Y380063D01*
X368102Y379416D01*
X367433Y378682D01*
X366859Y377871D01*
X366388Y376995D01*
X366029Y376069D01*
X365787Y375105D01*
X365665Y374119D01*
Y373125D01*
X365787Y372139D01*
X366029Y371175D01*
X366388Y370249D01*
X366859Y369373D01*
X367433Y368562D01*
X368102Y367828D01*
X368857Y367181D01*
X369685Y366633D01*
X370575Y366190D01*
X371512Y365859D01*
X372482Y365647D01*
X373472Y365555D01*
X374465Y365586D01*
X375447Y365738D01*
X376403Y366010D01*
X377318Y366397D01*
X378179Y366894D01*
X378972Y367493D01*
X379685Y368185D01*
X380308Y368959D01*
X380831Y369804D01*
X381246Y370707D01*
X381548Y371654D01*
X381730Y372630D01*
X381791Y373622D01*
X386157Y-391D02*
X387188Y-317D01*
X388199Y-97D01*
X389168Y264D01*
X390076Y760D01*
X390904Y1379D01*
X391635Y2111D01*
X392255Y2939D01*
X392751Y3846D01*
X393112Y4815D01*
X393332Y5826D01*
X393406Y6858D01*
X6954Y393304D02*
X5922Y393231D01*
X4911Y393011D01*
X3942Y392649D01*
X3035Y392154D01*
X2207Y391534D01*
X1475Y390803D01*
X855Y389975D01*
X360Y389067D01*
X-2Y388098D01*
X-222Y387087D01*
X-295Y386056D01*
X27461Y373622D02*
X27400Y374614D01*
X27217Y375591D01*
X26916Y376538D01*
X26500Y377440D01*
X25977Y378285D01*
X25354Y379059D01*
X24641Y379751D01*
X23848Y380350D01*
X22987Y380847D01*
X22072Y381234D01*
X21116Y381506D01*
X20134Y381659D01*
X19141Y381689D01*
X18152Y381597D01*
X17181Y381385D01*
X16244Y381055D01*
X15354Y380612D01*
X14526Y380063D01*
X13771Y379416D01*
X13102Y378682D01*
X12528Y377871D01*
X12058Y376995D01*
X11699Y376069D01*
X11456Y375105D01*
X11334Y374119D01*
Y373125D01*
X11456Y372139D01*
X11699Y371175D01*
X12058Y370249D01*
X12528Y369373D01*
X13102Y368562D01*
X13771Y367828D01*
X14526Y367181D01*
X15354Y366633D01*
X16244Y366190D01*
X17181Y365859D01*
X18152Y365647D01*
X19141Y365555D01*
X20134Y365586D01*
X21116Y365738D01*
X22072Y366010D01*
X22987Y366397D01*
X23848Y366894D01*
X24641Y367493D01*
X25354Y368185D01*
X25977Y368959D01*
X26500Y369804D01*
X26916Y370707D01*
X27217Y371654D01*
X27400Y372630D01*
X27461Y373622D01*
X27854Y19685D02*
X27793Y20677D01*
X27611Y21654D01*
X27309Y22601D01*
X26894Y23503D01*
X26371Y24348D01*
X25748Y25122D01*
X25034Y25814D01*
X24241Y26413D01*
X23381Y26910D01*
X22466Y27297D01*
X21510Y27569D01*
X20528Y27722D01*
X19535Y27752D01*
X18545Y27660D01*
X17575Y27448D01*
X16637Y27117D01*
X15748Y26675D01*
X14920Y26126D01*
X14165Y25479D01*
X13496Y24745D01*
X12922Y23934D01*
X12451Y23058D01*
X12092Y22132D01*
X11850Y21168D01*
X11728Y20182D01*
Y19188D01*
X11850Y18202D01*
X12092Y17238D01*
X12451Y16312D01*
X12922Y15436D01*
X13496Y14625D01*
X14165Y13891D01*
X14920Y13244D01*
X15748Y12696D01*
X16637Y12252D01*
X17575Y11922D01*
X18545Y11710D01*
X19535Y11618D01*
X20528Y11649D01*
X21510Y11801D01*
X22466Y12073D01*
X23381Y12460D01*
X24241Y12957D01*
X25034Y13556D01*
X25748Y14248D01*
X26371Y15022D01*
X26894Y15867D01*
X27309Y16770D01*
X27611Y17717D01*
X27793Y18693D01*
X27854Y19685D01*
X393406Y6890D02*
Y386056D01*
X-295Y6858D02*
Y383760D01*
X6956Y-394D02*
X386122D01*
X6954Y393304D02*
X386157D01*
X-295Y384042D02*
Y386056D01*
M02*
