G04*
G04 #@! TF.GenerationSoftware,Altium Limited,Altium Designer,26.4.1 (12)*
G04*
G04 Layer_Physical_Order=4*
G04 Layer_Color=16711680*
%FSLAX25Y25*%
%MOIN*%
G70*
G04*
G04 #@! TF.SameCoordinates,827F8109-FE27-48AC-95B4-77E84D688F66*
G04*
G04*
G04 #@! TF.FilePolarity,Positive*
G04*
G01*
G75*
%ADD37C,0.01500*%
%ADD38C,0.05512*%
%ADD39C,0.12795*%
%ADD40R,0.05512X0.05512*%
%ADD41C,0.09449*%
%ADD42C,0.06102*%
G36*
X388034Y392257D02*
X389208Y391771D01*
X390263Y391065D01*
X391161Y390167D01*
X391866Y389112D01*
X392352Y387938D01*
X392600Y386692D01*
X392603Y386056D01*
Y6858D01*
Y6223D01*
X392355Y4978D01*
X391869Y3804D01*
X391164Y2749D01*
X390266Y1851D01*
X389210Y1145D01*
X388037Y659D01*
X386790Y411D01*
X386122Y409D01*
X6321D01*
X5076Y657D01*
X3903Y1143D01*
X2847Y1848D01*
X1949Y2746D01*
X1244Y3802D01*
X758Y4975D01*
X510Y6220D01*
Y6855D01*
X508Y383760D01*
X508Y384042D01*
Y386691D01*
X755Y387936D01*
X1241Y389109D01*
X1946Y390165D01*
X2844Y391063D01*
X3900Y391768D01*
X5073Y392254D01*
X6319Y392502D01*
X6954D01*
X386154Y392504D01*
X386789D01*
X388034Y392257D01*
D02*
G37*
%LPC*%
G36*
X373721Y388748D02*
X371354Y388562D01*
X369046Y388008D01*
X366853Y387100D01*
X364829Y385859D01*
X363025Y384318D01*
X361483Y382513D01*
X360243Y380489D01*
X359335Y378296D01*
X358781Y375988D01*
X358594Y373622D01*
X358781Y371256D01*
X359335Y368948D01*
X360243Y366755D01*
X361483Y364731D01*
X363025Y362926D01*
X364829Y361385D01*
X366853Y360144D01*
X369046Y359236D01*
X371354Y358682D01*
X373721Y358496D01*
X376087Y358682D01*
X378395Y359236D01*
X380588Y360144D01*
X382611Y361385D01*
X384416Y362926D01*
X385958Y364731D01*
X387198Y366755D01*
X388106Y368948D01*
X388660Y371256D01*
X388847Y373622D01*
X388660Y375988D01*
X388106Y378296D01*
X387198Y380489D01*
X385958Y382513D01*
X384416Y384318D01*
X382611Y385859D01*
X380588Y387100D01*
X378395Y388008D01*
X376087Y388562D01*
X373721Y388748D01*
D02*
G37*
G36*
X19390D02*
X17023Y388562D01*
X14716Y388008D01*
X12523Y387100D01*
X10499Y385859D01*
X8694Y384318D01*
X7152Y382513D01*
X5912Y380489D01*
X5004Y378296D01*
X4450Y375988D01*
X4264Y373622D01*
X4450Y371256D01*
X5004Y368948D01*
X5912Y366755D01*
X7152Y364731D01*
X8694Y362926D01*
X10499Y361385D01*
X12523Y360144D01*
X14716Y359236D01*
X17023Y358682D01*
X19390Y358496D01*
X21756Y358682D01*
X24064Y359236D01*
X26257Y360144D01*
X28281Y361385D01*
X30086Y362926D01*
X31627Y364731D01*
X32867Y366755D01*
X33776Y368948D01*
X34330Y371256D01*
X34516Y373622D01*
X34330Y375988D01*
X33776Y378296D01*
X32867Y380489D01*
X31627Y382513D01*
X30086Y384318D01*
X28281Y385859D01*
X26257Y387100D01*
X24064Y388008D01*
X21756Y388562D01*
X19390Y388748D01*
D02*
G37*
G36*
X18559Y269044D02*
Y266118D01*
X21485D01*
X21334Y266682D01*
X20801Y267606D01*
X20046Y268360D01*
X19123Y268893D01*
X18559Y269044D01*
D02*
G37*
G36*
X16559D02*
X15995Y268893D01*
X15072Y268360D01*
X14317Y267606D01*
X13784Y266682D01*
X13633Y266118D01*
X16559D01*
Y269044D01*
D02*
G37*
G36*
X89740Y268828D02*
Y265901D01*
X92666D01*
X92515Y266465D01*
X91982Y267389D01*
X91228Y268143D01*
X90304Y268677D01*
X89740Y268828D01*
D02*
G37*
G36*
X87740Y268828D02*
X87177Y268677D01*
X86253Y268143D01*
X85498Y267389D01*
X84965Y266465D01*
X84814Y265901D01*
X87740D01*
Y268828D01*
D02*
G37*
G36*
X21485Y264118D02*
X18559D01*
Y261192D01*
X19123Y261343D01*
X20046Y261876D01*
X20801Y262631D01*
X21334Y263554D01*
X21485Y264118D01*
D02*
G37*
G36*
X16559D02*
X13633D01*
X13784Y263554D01*
X14317Y262631D01*
X15072Y261876D01*
X15995Y261343D01*
X16559Y261192D01*
Y264118D01*
D02*
G37*
G36*
X28066Y268969D02*
X27052D01*
X26073Y268707D01*
X25194Y268200D01*
X24477Y267483D01*
X23970Y266605D01*
X23708Y265625D01*
Y264611D01*
X23970Y263632D01*
X24477Y262753D01*
X25194Y262036D01*
X26073Y261529D01*
X27052Y261267D01*
X28066D01*
X29046Y261529D01*
X29924Y262036D01*
X30641Y262753D01*
X31031Y263429D01*
X75148D01*
X75151Y263415D01*
X75659Y262537D01*
X76376Y261820D01*
X77254Y261313D01*
X78233Y261050D01*
X79247D01*
X80227Y261313D01*
X81105Y261820D01*
X81822Y262537D01*
X82329Y263415D01*
X82591Y264394D01*
Y265409D01*
X82329Y266388D01*
X81822Y267266D01*
X81105Y267983D01*
X80227Y268490D01*
X79247Y268753D01*
X78233D01*
X77254Y268490D01*
X76376Y267983D01*
X75659Y267266D01*
X75268Y266590D01*
X31152D01*
X31148Y266605D01*
X30641Y267483D01*
X29924Y268200D01*
X29046Y268707D01*
X28066Y268969D01*
D02*
G37*
G36*
X92666Y263901D02*
X89740D01*
Y260975D01*
X90304Y261126D01*
X91228Y261660D01*
X91982Y262414D01*
X92515Y263338D01*
X92666Y263901D01*
D02*
G37*
G36*
X87740D02*
X84814D01*
X84965Y263338D01*
X85498Y262414D01*
X86253Y261660D01*
X87177Y261126D01*
X87740Y260975D01*
Y263901D01*
D02*
G37*
G36*
X356413Y263532D02*
Y258874D01*
X361072D01*
X360748Y260084D01*
X359994Y261389D01*
X358928Y262455D01*
X357623Y263208D01*
X356413Y263532D01*
D02*
G37*
G36*
X354413Y263532D02*
X353204Y263208D01*
X351899Y262455D01*
X350833Y261389D01*
X350079Y260084D01*
X349755Y258874D01*
X354413D01*
Y263532D01*
D02*
G37*
G36*
X18559Y259044D02*
Y256118D01*
X21485D01*
X21334Y256682D01*
X20801Y257606D01*
X20046Y258360D01*
X19123Y258893D01*
X18559Y259044D01*
D02*
G37*
G36*
X16559D02*
X15995Y258893D01*
X15072Y258360D01*
X14317Y257606D01*
X13784Y256682D01*
X13633Y256118D01*
X16559D01*
Y259044D01*
D02*
G37*
G36*
X89740Y258828D02*
Y255902D01*
X92666D01*
X92515Y256465D01*
X91982Y257389D01*
X91228Y258143D01*
X90304Y258677D01*
X89740Y258828D01*
D02*
G37*
G36*
X87740Y258828D02*
X87177Y258677D01*
X86253Y258143D01*
X85498Y257389D01*
X84965Y256465D01*
X84814Y255902D01*
X87740D01*
Y258828D01*
D02*
G37*
G36*
X361072Y256874D02*
X356413D01*
Y252216D01*
X357623Y252540D01*
X358928Y253293D01*
X359994Y254359D01*
X360748Y255664D01*
X361072Y256874D01*
D02*
G37*
G36*
X354413D02*
X349755D01*
X350079Y255664D01*
X350833Y254359D01*
X351899Y253293D01*
X353204Y252540D01*
X354413Y252216D01*
Y256874D01*
D02*
G37*
G36*
X21485Y254118D02*
X18559D01*
Y251192D01*
X19123Y251343D01*
X20046Y251876D01*
X20801Y252631D01*
X21334Y253554D01*
X21485Y254118D01*
D02*
G37*
G36*
X16559D02*
X13633D01*
X13784Y253554D01*
X14317Y252631D01*
X15072Y251876D01*
X15995Y251343D01*
X16559Y251192D01*
Y254118D01*
D02*
G37*
G36*
X28066Y258969D02*
X27052D01*
X26073Y258707D01*
X25194Y258200D01*
X24477Y257483D01*
X23970Y256605D01*
X23708Y255625D01*
Y254611D01*
X23970Y253632D01*
X24477Y252753D01*
X25194Y252036D01*
X26073Y251529D01*
X27052Y251267D01*
X28066D01*
X29046Y251529D01*
X29924Y252036D01*
X30641Y252753D01*
X31031Y253430D01*
X75148D01*
X75151Y253415D01*
X75659Y252537D01*
X76376Y251820D01*
X77254Y251313D01*
X78233Y251050D01*
X79247D01*
X80227Y251313D01*
X81105Y251820D01*
X81822Y252537D01*
X82329Y253415D01*
X82591Y254395D01*
Y255409D01*
X82329Y256388D01*
X81822Y257266D01*
X81105Y257983D01*
X80227Y258490D01*
X79247Y258753D01*
X78233D01*
X77254Y258490D01*
X76376Y257983D01*
X75659Y257266D01*
X75268Y256590D01*
X31152D01*
X31148Y256605D01*
X30641Y257483D01*
X29924Y258200D01*
X29046Y258707D01*
X28066Y258969D01*
D02*
G37*
G36*
X92666Y253902D02*
X89740D01*
Y250975D01*
X90304Y251127D01*
X91228Y251660D01*
X91982Y252414D01*
X92515Y253338D01*
X92666Y253902D01*
D02*
G37*
G36*
X87740D02*
X84814D01*
X84965Y253338D01*
X85498Y252414D01*
X86253Y251660D01*
X87177Y251127D01*
X87740Y250975D01*
Y253902D01*
D02*
G37*
G36*
X18559Y249044D02*
Y246118D01*
X21485D01*
X21334Y246682D01*
X20801Y247606D01*
X20046Y248360D01*
X19123Y248893D01*
X18559Y249044D01*
D02*
G37*
G36*
X16559D02*
X15995Y248893D01*
X15072Y248360D01*
X14317Y247606D01*
X13784Y246682D01*
X13633Y246118D01*
X16559D01*
Y249044D01*
D02*
G37*
G36*
X89740Y248828D02*
Y245902D01*
X92666D01*
X92515Y246465D01*
X91982Y247389D01*
X91228Y248143D01*
X90304Y248677D01*
X89740Y248828D01*
D02*
G37*
G36*
X87740D02*
X87177Y248677D01*
X86253Y248143D01*
X85498Y247389D01*
X84965Y246465D01*
X84814Y245902D01*
X87740D01*
Y248828D01*
D02*
G37*
G36*
X369622Y258072D02*
X368204D01*
X366814Y257795D01*
X365504Y257253D01*
X364325Y256465D01*
X363323Y255462D01*
X362535Y254283D01*
X361992Y252974D01*
X361716Y251583D01*
Y250165D01*
X361992Y248775D01*
X362535Y247465D01*
X363323Y246286D01*
X364325Y245283D01*
X365504Y244496D01*
X366814Y243953D01*
X368204Y243676D01*
X369622D01*
X371013Y243953D01*
X372323Y244496D01*
X373502Y245283D01*
X374504Y246286D01*
X375292Y247465D01*
X375834Y248775D01*
X376111Y250165D01*
Y251583D01*
X375834Y252974D01*
X375292Y254283D01*
X374504Y255462D01*
X373502Y256465D01*
X372323Y257253D01*
X371013Y257795D01*
X369622Y258072D01*
D02*
G37*
G36*
X21485Y244118D02*
X18559D01*
Y241192D01*
X19123Y241343D01*
X20046Y241876D01*
X20801Y242631D01*
X21334Y243554D01*
X21485Y244118D01*
D02*
G37*
G36*
X16559D02*
X13633D01*
X13784Y243554D01*
X14317Y242631D01*
X15072Y241876D01*
X15995Y241343D01*
X16559Y241192D01*
Y244118D01*
D02*
G37*
G36*
X28066Y248969D02*
X27052D01*
X26073Y248707D01*
X25194Y248200D01*
X24477Y247483D01*
X23970Y246605D01*
X23708Y245625D01*
Y244611D01*
X23970Y243632D01*
X24477Y242753D01*
X25194Y242036D01*
X26073Y241529D01*
X27052Y241267D01*
X28066D01*
X29046Y241529D01*
X29924Y242036D01*
X30641Y242753D01*
X31031Y243429D01*
X75148D01*
X75151Y243415D01*
X75659Y242537D01*
X76376Y241820D01*
X77254Y241313D01*
X78233Y241050D01*
X79247D01*
X80227Y241313D01*
X81105Y241820D01*
X81822Y242537D01*
X82329Y243415D01*
X82591Y244394D01*
Y245409D01*
X82329Y246388D01*
X81822Y247266D01*
X81105Y247983D01*
X80227Y248490D01*
X79247Y248753D01*
X78233D01*
X77254Y248490D01*
X76376Y247983D01*
X75659Y247266D01*
X75268Y246590D01*
X31152D01*
X31148Y246605D01*
X30641Y247483D01*
X29924Y248200D01*
X29046Y248707D01*
X28066Y248969D01*
D02*
G37*
G36*
X92666Y243902D02*
X89740D01*
Y240975D01*
X90304Y241126D01*
X91228Y241660D01*
X91982Y242414D01*
X92515Y243338D01*
X92666Y243902D01*
D02*
G37*
G36*
X87740D02*
X84814D01*
X84965Y243338D01*
X85498Y242414D01*
X86253Y241660D01*
X87177Y241126D01*
X87740Y240975D01*
Y243902D01*
D02*
G37*
G36*
X362469Y243430D02*
X355358D01*
Y238097D01*
X355019Y238006D01*
X354919Y238180D01*
X354220Y238879D01*
X353363Y239374D01*
X352913Y239494D01*
Y235874D01*
Y232254D01*
X353363Y232374D01*
X354220Y232869D01*
X354919Y233568D01*
X355413Y234424D01*
X355669Y235380D01*
Y236318D01*
X362469D01*
Y243430D01*
D02*
G37*
G36*
X350913Y239494D02*
X350464Y239374D01*
X349607Y238879D01*
X348908Y238180D01*
X348413Y237324D01*
X348293Y236874D01*
X350913D01*
Y239494D01*
D02*
G37*
G36*
X18559Y239044D02*
Y236118D01*
X21485D01*
X21334Y236682D01*
X20801Y237606D01*
X20046Y238360D01*
X19123Y238893D01*
X18559Y239044D01*
D02*
G37*
G36*
X16559D02*
X15995Y238893D01*
X15072Y238360D01*
X14317Y237606D01*
X13784Y236682D01*
X13633Y236118D01*
X16559D01*
Y239044D01*
D02*
G37*
G36*
X89740Y238828D02*
Y235902D01*
X92666D01*
X92515Y236465D01*
X91982Y237389D01*
X91228Y238143D01*
X90304Y238677D01*
X89740Y238828D01*
D02*
G37*
G36*
X87740D02*
X87177Y238677D01*
X86253Y238143D01*
X85498Y237389D01*
X84965Y236465D01*
X84814Y235902D01*
X87740D01*
Y238828D01*
D02*
G37*
G36*
X350913Y234874D02*
X348293D01*
X348413Y234424D01*
X348908Y233568D01*
X349607Y232869D01*
X350464Y232374D01*
X350913Y232254D01*
Y234874D01*
D02*
G37*
G36*
X21485Y234118D02*
X18559D01*
Y231192D01*
X19123Y231343D01*
X20046Y231876D01*
X20801Y232631D01*
X21334Y233554D01*
X21485Y234118D01*
D02*
G37*
G36*
X16559D02*
X13633D01*
X13784Y233554D01*
X14317Y232631D01*
X15072Y231876D01*
X15995Y231343D01*
X16559Y231192D01*
Y234118D01*
D02*
G37*
G36*
X28066Y238969D02*
X27052D01*
X26073Y238707D01*
X25194Y238200D01*
X24477Y237483D01*
X23970Y236605D01*
X23708Y235625D01*
Y234611D01*
X23970Y233632D01*
X24477Y232753D01*
X25194Y232036D01*
X26073Y231529D01*
X27052Y231267D01*
X28066D01*
X29046Y231529D01*
X29924Y232036D01*
X30641Y232753D01*
X31031Y233430D01*
X75148D01*
X75151Y233415D01*
X75659Y232537D01*
X76376Y231820D01*
X77254Y231313D01*
X78233Y231050D01*
X79247D01*
X80227Y231313D01*
X81105Y231820D01*
X81822Y232537D01*
X82329Y233415D01*
X82591Y234395D01*
Y235409D01*
X82329Y236388D01*
X81822Y237266D01*
X81105Y237983D01*
X80227Y238490D01*
X79247Y238753D01*
X78233D01*
X77254Y238490D01*
X76376Y237983D01*
X75659Y237266D01*
X75268Y236590D01*
X31152D01*
X31148Y236605D01*
X30641Y237483D01*
X29924Y238200D01*
X29046Y238707D01*
X28066Y238969D01*
D02*
G37*
G36*
X92666Y233902D02*
X89740D01*
Y230975D01*
X90304Y231126D01*
X91228Y231660D01*
X91982Y232414D01*
X92515Y233338D01*
X92666Y233902D01*
D02*
G37*
G36*
X87740D02*
X84814D01*
X84965Y233338D01*
X85498Y232414D01*
X86253Y231660D01*
X87177Y231126D01*
X87740Y230975D01*
Y233902D01*
D02*
G37*
G36*
X359382Y235430D02*
X358445D01*
X357541Y235188D01*
X356730Y234719D01*
X356068Y234057D01*
X355600Y233247D01*
X355358Y232342D01*
Y231406D01*
X355600Y230502D01*
X356068Y229691D01*
X356730Y229029D01*
X357541Y228560D01*
X358445Y228318D01*
X359382D01*
X360286Y228560D01*
X361097Y229029D01*
X361759Y229691D01*
X362227Y230502D01*
X362469Y231406D01*
Y232342D01*
X362227Y233247D01*
X361759Y234057D01*
X361097Y234719D01*
X360286Y235188D01*
X359382Y235430D01*
D02*
G37*
G36*
X18559Y229044D02*
Y226118D01*
X21485D01*
X21334Y226682D01*
X20801Y227606D01*
X20046Y228360D01*
X19123Y228893D01*
X18559Y229044D01*
D02*
G37*
G36*
X16559D02*
X15995Y228893D01*
X15072Y228360D01*
X14317Y227606D01*
X13784Y226682D01*
X13633Y226118D01*
X16559D01*
Y229044D01*
D02*
G37*
G36*
X89740Y228828D02*
Y225902D01*
X92666D01*
X92515Y226465D01*
X91982Y227389D01*
X91228Y228143D01*
X90304Y228677D01*
X89740Y228828D01*
D02*
G37*
G36*
X87740D02*
X87177Y228677D01*
X86253Y228143D01*
X85498Y227389D01*
X84965Y226465D01*
X84814Y225902D01*
X87740D01*
Y228828D01*
D02*
G37*
G36*
X359913Y227495D02*
Y224874D01*
X362534D01*
X362413Y225324D01*
X361919Y226180D01*
X361220Y226880D01*
X360363Y227374D01*
X359913Y227495D01*
D02*
G37*
G36*
X357913Y227495D02*
X357464Y227374D01*
X356607Y226880D01*
X355908Y226180D01*
X355414Y225324D01*
X355293Y224874D01*
X357913D01*
Y227495D01*
D02*
G37*
G36*
X352381Y231430D02*
X351445D01*
X350541Y231188D01*
X349730Y230719D01*
X349068Y230057D01*
X348600Y229247D01*
X348358Y228342D01*
Y227406D01*
X348600Y226501D01*
X349068Y225691D01*
X349730Y225029D01*
X350541Y224560D01*
X351445Y224318D01*
X352381D01*
X353286Y224560D01*
X354097Y225029D01*
X354759Y225691D01*
X355227Y226501D01*
X355469Y227406D01*
Y228342D01*
X355227Y229247D01*
X354759Y230057D01*
X354097Y230719D01*
X353286Y231188D01*
X352381Y231430D01*
D02*
G37*
G36*
X21485Y224118D02*
X18559D01*
Y221192D01*
X19123Y221343D01*
X20046Y221876D01*
X20801Y222631D01*
X21334Y223554D01*
X21485Y224118D01*
D02*
G37*
G36*
X16559D02*
X13633D01*
X13784Y223554D01*
X14317Y222631D01*
X15072Y221876D01*
X15995Y221343D01*
X16559Y221192D01*
Y224118D01*
D02*
G37*
G36*
X28066Y228969D02*
X27052D01*
X26073Y228707D01*
X25194Y228200D01*
X24477Y227483D01*
X23970Y226605D01*
X23708Y225625D01*
Y224611D01*
X23970Y223632D01*
X24477Y222753D01*
X25194Y222036D01*
X26073Y221529D01*
X27052Y221267D01*
X28066D01*
X29046Y221529D01*
X29924Y222036D01*
X30641Y222753D01*
X31031Y223429D01*
X75148D01*
X75151Y223415D01*
X75659Y222537D01*
X76376Y221820D01*
X77254Y221313D01*
X78233Y221050D01*
X79247D01*
X80227Y221313D01*
X81105Y221820D01*
X81822Y222537D01*
X82329Y223415D01*
X82591Y224394D01*
Y225409D01*
X82329Y226388D01*
X81822Y227266D01*
X81105Y227983D01*
X80227Y228490D01*
X79247Y228753D01*
X78233D01*
X77254Y228490D01*
X76376Y227983D01*
X75659Y227266D01*
X75268Y226590D01*
X31152D01*
X31148Y226605D01*
X30641Y227483D01*
X29924Y228200D01*
X29046Y228707D01*
X28066Y228969D01*
D02*
G37*
G36*
X92666Y223902D02*
X89740D01*
Y220975D01*
X90304Y221127D01*
X91228Y221660D01*
X91982Y222414D01*
X92515Y223338D01*
X92666Y223902D01*
D02*
G37*
G36*
X87740D02*
X84814D01*
X84965Y223338D01*
X85498Y222414D01*
X86253Y221660D01*
X87177Y221127D01*
X87740Y220975D01*
Y223902D01*
D02*
G37*
G36*
X352913Y223495D02*
Y220874D01*
X355534D01*
X355413Y221324D01*
X354919Y222180D01*
X354220Y222880D01*
X353363Y223374D01*
X352913Y223495D01*
D02*
G37*
G36*
X350913Y223495D02*
X350464Y223374D01*
X349607Y222880D01*
X348908Y222180D01*
X348413Y221324D01*
X348293Y220874D01*
X350913D01*
Y223495D01*
D02*
G37*
G36*
X362534Y222874D02*
X359913D01*
Y220254D01*
X360363Y220374D01*
X361220Y220869D01*
X361919Y221568D01*
X362413Y222424D01*
X362534Y222874D01*
D02*
G37*
G36*
X357913D02*
X355293D01*
X355414Y222424D01*
X355908Y221568D01*
X356607Y220869D01*
X357464Y220374D01*
X357913Y220254D01*
Y222874D01*
D02*
G37*
G36*
X355534Y218874D02*
X352913D01*
Y216254D01*
X353363Y216374D01*
X354220Y216869D01*
X354919Y217568D01*
X355413Y218424D01*
X355534Y218874D01*
D02*
G37*
G36*
X350913D02*
X348293D01*
X348413Y218424D01*
X348908Y217568D01*
X349607Y216869D01*
X350464Y216374D01*
X350913Y216254D01*
Y218874D01*
D02*
G37*
G36*
X18559Y219044D02*
Y216118D01*
X21485D01*
X21334Y216682D01*
X20801Y217606D01*
X20046Y218360D01*
X19123Y218893D01*
X18559Y219044D01*
D02*
G37*
G36*
X16559D02*
X15995Y218893D01*
X15072Y218360D01*
X14317Y217606D01*
X13784Y216682D01*
X13633Y216118D01*
X16559D01*
Y219044D01*
D02*
G37*
G36*
X89740Y218828D02*
Y215902D01*
X92666D01*
X92515Y216465D01*
X91982Y217389D01*
X91228Y218143D01*
X90304Y218677D01*
X89740Y218828D01*
D02*
G37*
G36*
X87740D02*
X87177Y218677D01*
X86253Y218143D01*
X85498Y217389D01*
X84965Y216465D01*
X84814Y215902D01*
X87740D01*
Y218828D01*
D02*
G37*
G36*
X352913Y215494D02*
Y212874D01*
X355534D01*
X355413Y213324D01*
X354919Y214180D01*
X354220Y214879D01*
X353363Y215374D01*
X352913Y215494D01*
D02*
G37*
G36*
X350913Y215494D02*
X350464Y215374D01*
X349607Y214879D01*
X348908Y214180D01*
X348413Y213324D01*
X348293Y212874D01*
X350913D01*
Y215494D01*
D02*
G37*
G36*
X359382Y219430D02*
X358445D01*
X357541Y219188D01*
X356730Y218720D01*
X356068Y218057D01*
X355600Y217247D01*
X355358Y216342D01*
Y215406D01*
X355600Y214502D01*
X356068Y213691D01*
X356730Y213029D01*
X357541Y212561D01*
X358445Y212318D01*
X359382D01*
X360286Y212561D01*
X361097Y213029D01*
X361759Y213691D01*
X362227Y214502D01*
X362469Y215406D01*
Y216342D01*
X362227Y217247D01*
X361759Y218057D01*
X361097Y218720D01*
X360286Y219188D01*
X359382Y219430D01*
D02*
G37*
G36*
X21485Y214118D02*
X18559D01*
Y211192D01*
X19123Y211343D01*
X20046Y211876D01*
X20801Y212631D01*
X21334Y213554D01*
X21485Y214118D01*
D02*
G37*
G36*
X16559D02*
X13633D01*
X13784Y213554D01*
X14317Y212631D01*
X15072Y211876D01*
X15995Y211343D01*
X16559Y211192D01*
Y214118D01*
D02*
G37*
G36*
X28066Y218969D02*
X27052D01*
X26073Y218707D01*
X25194Y218200D01*
X24477Y217483D01*
X23970Y216605D01*
X23708Y215625D01*
Y214611D01*
X23970Y213632D01*
X24477Y212753D01*
X25194Y212036D01*
X26073Y211529D01*
X27052Y211267D01*
X28066D01*
X29046Y211529D01*
X29924Y212036D01*
X30641Y212753D01*
X31031Y213429D01*
X75148D01*
X75151Y213415D01*
X75659Y212537D01*
X76376Y211820D01*
X77254Y211313D01*
X78233Y211050D01*
X79247D01*
X80227Y211313D01*
X81105Y211820D01*
X81822Y212537D01*
X82329Y213415D01*
X82591Y214394D01*
Y215409D01*
X82329Y216388D01*
X81822Y217266D01*
X81105Y217983D01*
X80227Y218490D01*
X79247Y218753D01*
X78233D01*
X77254Y218490D01*
X76376Y217983D01*
X75659Y217266D01*
X75268Y216590D01*
X31152D01*
X31148Y216605D01*
X30641Y217483D01*
X29924Y218200D01*
X29046Y218707D01*
X28066Y218969D01*
D02*
G37*
G36*
X92666Y213902D02*
X89740D01*
Y210975D01*
X90304Y211126D01*
X91228Y211660D01*
X91982Y212414D01*
X92515Y213338D01*
X92666Y213902D01*
D02*
G37*
G36*
X87740D02*
X84814D01*
X84965Y213338D01*
X85498Y212414D01*
X86253Y211660D01*
X87177Y211126D01*
X87740Y210975D01*
Y213902D01*
D02*
G37*
G36*
X355534Y210874D02*
X352913D01*
Y208254D01*
X353363Y208374D01*
X354220Y208869D01*
X354919Y209568D01*
X355413Y210424D01*
X355534Y210874D01*
D02*
G37*
G36*
X350913D02*
X348293D01*
X348413Y210424D01*
X348908Y209568D01*
X349607Y208869D01*
X350464Y208374D01*
X350913Y208254D01*
Y210874D01*
D02*
G37*
G36*
X18559Y209044D02*
Y206118D01*
X21485D01*
X21334Y206682D01*
X20801Y207606D01*
X20046Y208360D01*
X19123Y208893D01*
X18559Y209044D01*
D02*
G37*
G36*
X16559D02*
X15995Y208893D01*
X15072Y208360D01*
X14317Y207606D01*
X13784Y206682D01*
X13633Y206118D01*
X16559D01*
Y209044D01*
D02*
G37*
G36*
X89740Y208828D02*
Y205902D01*
X92666D01*
X92515Y206465D01*
X91982Y207389D01*
X91228Y208143D01*
X90304Y208677D01*
X89740Y208828D01*
D02*
G37*
G36*
X87740D02*
X87177Y208677D01*
X86253Y208143D01*
X85498Y207389D01*
X84965Y206465D01*
X84814Y205902D01*
X87740D01*
Y208828D01*
D02*
G37*
G36*
X21485Y204118D02*
X18559D01*
Y201192D01*
X19123Y201343D01*
X20046Y201876D01*
X20801Y202631D01*
X21334Y203554D01*
X21485Y204118D01*
D02*
G37*
G36*
X16559D02*
X13633D01*
X13784Y203554D01*
X14317Y202631D01*
X15072Y201876D01*
X15995Y201343D01*
X16559Y201192D01*
Y204118D01*
D02*
G37*
G36*
X28066Y208969D02*
X27052D01*
X26073Y208707D01*
X25194Y208200D01*
X24477Y207483D01*
X23970Y206605D01*
X23708Y205625D01*
Y204611D01*
X23970Y203632D01*
X24477Y202753D01*
X25194Y202036D01*
X26073Y201529D01*
X27052Y201267D01*
X28066D01*
X29046Y201529D01*
X29924Y202036D01*
X30641Y202753D01*
X31031Y203430D01*
X75148D01*
X75151Y203415D01*
X75659Y202537D01*
X76376Y201820D01*
X77254Y201313D01*
X78233Y201050D01*
X79247D01*
X80227Y201313D01*
X81105Y201820D01*
X81822Y202537D01*
X82329Y203415D01*
X82591Y204395D01*
Y205409D01*
X82329Y206388D01*
X81822Y207266D01*
X81105Y207983D01*
X80227Y208490D01*
X79247Y208753D01*
X78233D01*
X77254Y208490D01*
X76376Y207983D01*
X75659Y207266D01*
X75268Y206590D01*
X31152D01*
X31148Y206605D01*
X30641Y207483D01*
X29924Y208200D01*
X29046Y208707D01*
X28066Y208969D01*
D02*
G37*
G36*
X92666Y203902D02*
X89740D01*
Y200975D01*
X90304Y201127D01*
X91228Y201660D01*
X91982Y202414D01*
X92515Y203338D01*
X92666Y203902D01*
D02*
G37*
G36*
X87740D02*
X84814D01*
X84965Y203338D01*
X85498Y202414D01*
X86253Y201660D01*
X87177Y201127D01*
X87740Y200975D01*
Y203902D01*
D02*
G37*
G36*
X18559Y199044D02*
Y196118D01*
X21485D01*
X21334Y196682D01*
X20801Y197606D01*
X20046Y198360D01*
X19123Y198893D01*
X18559Y199044D01*
D02*
G37*
G36*
X16559D02*
X15995Y198893D01*
X15072Y198360D01*
X14317Y197606D01*
X13784Y196682D01*
X13633Y196118D01*
X16559D01*
Y199044D01*
D02*
G37*
G36*
X89740Y198828D02*
Y195902D01*
X92666D01*
X92515Y196465D01*
X91982Y197389D01*
X91228Y198143D01*
X90304Y198677D01*
X89740Y198828D01*
D02*
G37*
G36*
X87740D02*
X87177Y198677D01*
X86253Y198143D01*
X85498Y197389D01*
X84965Y196465D01*
X84814Y195902D01*
X87740D01*
Y198828D01*
D02*
G37*
G36*
X21485Y194118D02*
X18559D01*
Y191192D01*
X19123Y191343D01*
X20046Y191876D01*
X20801Y192631D01*
X21334Y193554D01*
X21485Y194118D01*
D02*
G37*
G36*
X16559D02*
X13633D01*
X13784Y193554D01*
X14317Y192631D01*
X15072Y191876D01*
X15995Y191343D01*
X16559Y191192D01*
Y194118D01*
D02*
G37*
G36*
X28066Y198969D02*
X27052D01*
X26073Y198707D01*
X25194Y198200D01*
X24477Y197483D01*
X23970Y196605D01*
X23708Y195625D01*
Y194611D01*
X23970Y193632D01*
X24477Y192753D01*
X25194Y192036D01*
X26073Y191529D01*
X27052Y191267D01*
X28066D01*
X29046Y191529D01*
X29924Y192036D01*
X30641Y192753D01*
X31031Y193430D01*
X75148D01*
X75151Y193415D01*
X75659Y192537D01*
X76376Y191820D01*
X77254Y191313D01*
X78233Y191050D01*
X79247D01*
X80227Y191313D01*
X81105Y191820D01*
X81822Y192537D01*
X82329Y193415D01*
X82591Y194395D01*
Y195409D01*
X82329Y196388D01*
X81822Y197266D01*
X81105Y197983D01*
X80227Y198490D01*
X79247Y198753D01*
X78233D01*
X77254Y198490D01*
X76376Y197983D01*
X75659Y197266D01*
X75268Y196590D01*
X31152D01*
X31148Y196605D01*
X30641Y197483D01*
X29924Y198200D01*
X29046Y198707D01*
X28066Y198969D01*
D02*
G37*
G36*
X92666Y193902D02*
X89740D01*
Y190975D01*
X90304Y191127D01*
X91228Y191660D01*
X91982Y192414D01*
X92515Y193338D01*
X92666Y193902D01*
D02*
G37*
G36*
X87740D02*
X84814D01*
X84965Y193338D01*
X85498Y192414D01*
X86253Y191660D01*
X87177Y191127D01*
X87740Y190975D01*
Y193902D01*
D02*
G37*
G36*
X18559Y189044D02*
Y186118D01*
X21485D01*
X21334Y186682D01*
X20801Y187606D01*
X20046Y188360D01*
X19123Y188893D01*
X18559Y189044D01*
D02*
G37*
G36*
X16559D02*
X15995Y188893D01*
X15072Y188360D01*
X14317Y187606D01*
X13784Y186682D01*
X13633Y186118D01*
X16559D01*
Y189044D01*
D02*
G37*
G36*
X89740Y188828D02*
Y185902D01*
X92666D01*
X92515Y186465D01*
X91982Y187389D01*
X91228Y188143D01*
X90304Y188677D01*
X89740Y188828D01*
D02*
G37*
G36*
X87740D02*
X87177Y188677D01*
X86253Y188143D01*
X85498Y187389D01*
X84965Y186465D01*
X84814Y185902D01*
X87740D01*
Y188828D01*
D02*
G37*
G36*
X21485Y184118D02*
X18559D01*
Y181192D01*
X19123Y181343D01*
X20046Y181876D01*
X20801Y182631D01*
X21334Y183554D01*
X21485Y184118D01*
D02*
G37*
G36*
X16559D02*
X13633D01*
X13784Y183554D01*
X14317Y182631D01*
X15072Y181876D01*
X15995Y181343D01*
X16559Y181192D01*
Y184118D01*
D02*
G37*
G36*
X28066Y188969D02*
X27052D01*
X26073Y188707D01*
X25194Y188200D01*
X24477Y187483D01*
X23970Y186605D01*
X23708Y185625D01*
Y184611D01*
X23970Y183632D01*
X24477Y182753D01*
X25194Y182036D01*
X26073Y181529D01*
X27052Y181267D01*
X28066D01*
X29046Y181529D01*
X29924Y182036D01*
X30641Y182753D01*
X31031Y183430D01*
X75148D01*
X75151Y183415D01*
X75659Y182537D01*
X76376Y181820D01*
X77254Y181313D01*
X78233Y181050D01*
X79247D01*
X80227Y181313D01*
X81105Y181820D01*
X81822Y182537D01*
X82329Y183415D01*
X82591Y184395D01*
Y185409D01*
X82329Y186388D01*
X81822Y187266D01*
X81105Y187983D01*
X80227Y188490D01*
X79247Y188753D01*
X78233D01*
X77254Y188490D01*
X76376Y187983D01*
X75659Y187266D01*
X75268Y186590D01*
X31152D01*
X31148Y186605D01*
X30641Y187483D01*
X29924Y188200D01*
X29046Y188707D01*
X28066Y188969D01*
D02*
G37*
G36*
X92666Y183902D02*
X89740D01*
Y180975D01*
X90304Y181126D01*
X91228Y181660D01*
X91982Y182414D01*
X92515Y183338D01*
X92666Y183902D01*
D02*
G37*
G36*
X87740D02*
X84814D01*
X84965Y183338D01*
X85498Y182414D01*
X86253Y181660D01*
X87177Y181126D01*
X87740Y180975D01*
Y183902D01*
D02*
G37*
G36*
X18559Y179044D02*
Y176118D01*
X21485D01*
X21334Y176682D01*
X20801Y177606D01*
X20046Y178360D01*
X19123Y178893D01*
X18559Y179044D01*
D02*
G37*
G36*
X16559D02*
X15995Y178893D01*
X15072Y178360D01*
X14317Y177606D01*
X13784Y176682D01*
X13633Y176118D01*
X16559D01*
Y179044D01*
D02*
G37*
G36*
X362469Y181430D02*
X355358D01*
Y176097D01*
X355019Y176006D01*
X354919Y176180D01*
X354220Y176880D01*
X353363Y177374D01*
X352913Y177495D01*
Y173874D01*
Y170254D01*
X353363Y170374D01*
X354220Y170869D01*
X354919Y171568D01*
X355413Y172424D01*
X355669Y173380D01*
Y174318D01*
X362469D01*
Y181430D01*
D02*
G37*
G36*
X89740Y178828D02*
Y175902D01*
X92666D01*
X92515Y176465D01*
X91982Y177389D01*
X91228Y178143D01*
X90304Y178677D01*
X89740Y178828D01*
D02*
G37*
G36*
X87740D02*
X87177Y178677D01*
X86253Y178143D01*
X85498Y177389D01*
X84965Y176465D01*
X84814Y175902D01*
X87740D01*
Y178828D01*
D02*
G37*
G36*
X350913Y177495D02*
X350464Y177374D01*
X349607Y176880D01*
X348908Y176180D01*
X348413Y175324D01*
X348293Y174874D01*
X350913D01*
Y177495D01*
D02*
G37*
G36*
X28066Y178969D02*
X27052D01*
X26073Y178707D01*
X25194Y178200D01*
X24477Y177483D01*
X23970Y176605D01*
X23708Y175625D01*
Y174611D01*
X23970Y173632D01*
X24477Y172753D01*
X25194Y172036D01*
X26073Y171529D01*
X27052Y171267D01*
X28066D01*
X29046Y171529D01*
X29924Y172036D01*
X30641Y172753D01*
X31148Y173632D01*
X31410Y174611D01*
Y175625D01*
X31148Y176605D01*
X30641Y177483D01*
X29924Y178200D01*
X29046Y178707D01*
X28066Y178969D01*
D02*
G37*
G36*
X21485Y174118D02*
X18559D01*
Y171192D01*
X19123Y171343D01*
X20046Y171876D01*
X20801Y172631D01*
X21334Y173554D01*
X21485Y174118D01*
D02*
G37*
G36*
X16559D02*
X13633D01*
X13784Y173554D01*
X14317Y172631D01*
X15072Y171876D01*
X15995Y171343D01*
X16559Y171192D01*
Y174118D01*
D02*
G37*
G36*
X79247Y178753D02*
X78233D01*
X77254Y178490D01*
X76376Y177983D01*
X75659Y177266D01*
X75151Y176388D01*
X74889Y175409D01*
Y174395D01*
X75151Y173415D01*
X75659Y172537D01*
X76376Y171820D01*
X77254Y171313D01*
X78233Y171050D01*
X79247D01*
X80227Y171313D01*
X81105Y171820D01*
X81822Y172537D01*
X82329Y173415D01*
X82591Y174395D01*
Y175409D01*
X82329Y176388D01*
X81822Y177266D01*
X81105Y177983D01*
X80227Y178490D01*
X79247Y178753D01*
D02*
G37*
G36*
X92666Y173902D02*
X89740D01*
Y170975D01*
X90304Y171126D01*
X91228Y171660D01*
X91982Y172414D01*
X92515Y173338D01*
X92666Y173902D01*
D02*
G37*
G36*
X87740D02*
X84814D01*
X84965Y173338D01*
X85498Y172414D01*
X86253Y171660D01*
X87177Y171126D01*
X87740Y170975D01*
Y173902D01*
D02*
G37*
G36*
X350913Y172874D02*
X348293D01*
X348413Y172424D01*
X348908Y171568D01*
X349607Y170869D01*
X350464Y170374D01*
X350913Y170254D01*
Y172874D01*
D02*
G37*
G36*
X359382Y173430D02*
X358445D01*
X357541Y173188D01*
X356730Y172720D01*
X356068Y172057D01*
X355600Y171247D01*
X355358Y170342D01*
Y169406D01*
X355600Y168501D01*
X356068Y167691D01*
X356730Y167029D01*
X357541Y166560D01*
X358445Y166318D01*
X359382D01*
X360286Y166560D01*
X361097Y167029D01*
X361759Y167691D01*
X362227Y168501D01*
X362469Y169406D01*
Y170342D01*
X362227Y171247D01*
X361759Y172057D01*
X361097Y172720D01*
X360286Y173188D01*
X359382Y173430D01*
D02*
G37*
G36*
X18559Y169044D02*
Y166118D01*
X21485D01*
X21334Y166682D01*
X20801Y167606D01*
X20046Y168360D01*
X19123Y168893D01*
X18559Y169044D01*
D02*
G37*
G36*
X16559D02*
X15995Y168893D01*
X15072Y168360D01*
X14317Y167606D01*
X13784Y166682D01*
X13633Y166118D01*
X16559D01*
Y169044D01*
D02*
G37*
G36*
X89740Y168828D02*
Y165902D01*
X92666D01*
X92515Y166465D01*
X91982Y167389D01*
X91228Y168143D01*
X90304Y168677D01*
X89740Y168828D01*
D02*
G37*
G36*
X87740D02*
X87177Y168677D01*
X86253Y168143D01*
X85498Y167389D01*
X84965Y166465D01*
X84814Y165902D01*
X87740D01*
Y168828D01*
D02*
G37*
G36*
X359913Y165495D02*
Y162874D01*
X362534D01*
X362413Y163324D01*
X361919Y164180D01*
X361220Y164880D01*
X360363Y165374D01*
X359913Y165495D01*
D02*
G37*
G36*
X357913Y165495D02*
X357464Y165374D01*
X356607Y164880D01*
X355908Y164180D01*
X355414Y163324D01*
X355293Y162874D01*
X357913D01*
Y165495D01*
D02*
G37*
G36*
X352381Y169430D02*
X351445D01*
X350541Y169188D01*
X349730Y168719D01*
X349068Y168057D01*
X348600Y167247D01*
X348358Y166342D01*
Y165406D01*
X348600Y164502D01*
X349068Y163691D01*
X349730Y163029D01*
X350541Y162560D01*
X351445Y162318D01*
X352381D01*
X353286Y162560D01*
X354097Y163029D01*
X354759Y163691D01*
X355227Y164502D01*
X355469Y165406D01*
Y166342D01*
X355227Y167247D01*
X354759Y168057D01*
X354097Y168719D01*
X353286Y169188D01*
X352381Y169430D01*
D02*
G37*
G36*
X21485Y164118D02*
X18559D01*
Y161192D01*
X19123Y161343D01*
X20046Y161876D01*
X20801Y162631D01*
X21334Y163554D01*
X21485Y164118D01*
D02*
G37*
G36*
X16559D02*
X13633D01*
X13784Y163554D01*
X14317Y162631D01*
X15072Y161876D01*
X15995Y161343D01*
X16559Y161192D01*
Y164118D01*
D02*
G37*
G36*
X28066Y168969D02*
X27052D01*
X26073Y168707D01*
X25194Y168200D01*
X24477Y167483D01*
X23970Y166605D01*
X23708Y165625D01*
Y164611D01*
X23970Y163632D01*
X24477Y162753D01*
X25194Y162036D01*
X26073Y161529D01*
X27052Y161267D01*
X28066D01*
X29046Y161529D01*
X29924Y162036D01*
X30641Y162753D01*
X31031Y163429D01*
X75148D01*
X75151Y163415D01*
X75659Y162537D01*
X76376Y161820D01*
X77254Y161313D01*
X78233Y161050D01*
X79247D01*
X80227Y161313D01*
X81105Y161820D01*
X81822Y162537D01*
X82329Y163415D01*
X82591Y164395D01*
Y165409D01*
X82329Y166388D01*
X81822Y167266D01*
X81105Y167983D01*
X80227Y168490D01*
X79247Y168753D01*
X78233D01*
X77254Y168490D01*
X76376Y167983D01*
X75659Y167266D01*
X75268Y166590D01*
X31152D01*
X31148Y166605D01*
X30641Y167483D01*
X29924Y168200D01*
X29046Y168707D01*
X28066Y168969D01*
D02*
G37*
G36*
X92666Y163902D02*
X89740D01*
Y160975D01*
X90304Y161126D01*
X91228Y161660D01*
X91982Y162414D01*
X92515Y163338D01*
X92666Y163902D01*
D02*
G37*
G36*
X87740D02*
X84814D01*
X84965Y163338D01*
X85498Y162414D01*
X86253Y161660D01*
X87177Y161126D01*
X87740Y160975D01*
Y163902D01*
D02*
G37*
G36*
X352913Y161495D02*
Y158874D01*
X355534D01*
X355413Y159324D01*
X354919Y160180D01*
X354220Y160880D01*
X353363Y161374D01*
X352913Y161495D01*
D02*
G37*
G36*
X350913Y161495D02*
X350464Y161374D01*
X349607Y160880D01*
X348908Y160180D01*
X348413Y159324D01*
X348293Y158874D01*
X350913D01*
Y161495D01*
D02*
G37*
G36*
X362534Y160874D02*
X359913D01*
Y158254D01*
X360363Y158374D01*
X361220Y158869D01*
X361919Y159568D01*
X362413Y160424D01*
X362534Y160874D01*
D02*
G37*
G36*
X357913D02*
X355293D01*
X355414Y160424D01*
X355908Y159568D01*
X356607Y158869D01*
X357464Y158374D01*
X357913Y158254D01*
Y160874D01*
D02*
G37*
G36*
X18559Y159044D02*
Y156118D01*
X21485D01*
X21334Y156682D01*
X20801Y157606D01*
X20046Y158360D01*
X19123Y158893D01*
X18559Y159044D01*
D02*
G37*
G36*
X16559D02*
X15995Y158893D01*
X15072Y158360D01*
X14317Y157606D01*
X13784Y156682D01*
X13633Y156118D01*
X16559D01*
Y159044D01*
D02*
G37*
G36*
X89740Y158828D02*
Y155902D01*
X92666D01*
X92515Y156465D01*
X91982Y157389D01*
X91228Y158143D01*
X90304Y158677D01*
X89740Y158828D01*
D02*
G37*
G36*
X87740D02*
X87177Y158677D01*
X86253Y158143D01*
X85498Y157389D01*
X84965Y156465D01*
X84814Y155902D01*
X87740D01*
Y158828D01*
D02*
G37*
G36*
X355534Y156874D02*
X352913D01*
Y154254D01*
X353363Y154374D01*
X354220Y154869D01*
X354919Y155568D01*
X355413Y156424D01*
X355534Y156874D01*
D02*
G37*
G36*
X350913D02*
X348293D01*
X348413Y156424D01*
X348908Y155568D01*
X349607Y154869D01*
X350464Y154374D01*
X350913Y154254D01*
Y156874D01*
D02*
G37*
G36*
X21485Y154118D02*
X18559D01*
Y151192D01*
X19123Y151343D01*
X20046Y151876D01*
X20801Y152631D01*
X21334Y153554D01*
X21485Y154118D01*
D02*
G37*
G36*
X16559D02*
X13633D01*
X13784Y153554D01*
X14317Y152631D01*
X15072Y151876D01*
X15995Y151343D01*
X16559Y151192D01*
Y154118D01*
D02*
G37*
G36*
X28066Y158969D02*
X27052D01*
X26073Y158707D01*
X25194Y158200D01*
X24477Y157483D01*
X23970Y156605D01*
X23708Y155625D01*
Y154611D01*
X23970Y153632D01*
X24477Y152753D01*
X25194Y152036D01*
X26073Y151529D01*
X27052Y151267D01*
X28066D01*
X29046Y151529D01*
X29924Y152036D01*
X30641Y152753D01*
X31031Y153429D01*
X75148D01*
X75151Y153415D01*
X75659Y152537D01*
X76376Y151820D01*
X77254Y151313D01*
X78233Y151050D01*
X79247D01*
X80227Y151313D01*
X81105Y151820D01*
X81822Y152537D01*
X82329Y153415D01*
X82591Y154395D01*
Y155409D01*
X82329Y156388D01*
X81822Y157266D01*
X81105Y157983D01*
X80227Y158490D01*
X79247Y158753D01*
X78233D01*
X77254Y158490D01*
X76376Y157983D01*
X75659Y157266D01*
X75268Y156590D01*
X31152D01*
X31148Y156605D01*
X30641Y157483D01*
X29924Y158200D01*
X29046Y158707D01*
X28066Y158969D01*
D02*
G37*
G36*
X92666Y153902D02*
X89740D01*
Y150975D01*
X90304Y151127D01*
X91228Y151660D01*
X91982Y152414D01*
X92515Y153338D01*
X92666Y153902D01*
D02*
G37*
G36*
X87740D02*
X84814D01*
X84965Y153338D01*
X85498Y152414D01*
X86253Y151660D01*
X87177Y151127D01*
X87740Y150975D01*
Y153902D01*
D02*
G37*
G36*
X352913Y153495D02*
Y150874D01*
X355534D01*
X355413Y151324D01*
X354919Y152180D01*
X354220Y152880D01*
X353363Y153374D01*
X352913Y153495D01*
D02*
G37*
G36*
X350913Y153495D02*
X350464Y153374D01*
X349607Y152880D01*
X348908Y152180D01*
X348413Y151324D01*
X348293Y150874D01*
X350913D01*
Y153495D01*
D02*
G37*
G36*
X359382Y157430D02*
X358445D01*
X357541Y157188D01*
X356730Y156720D01*
X356068Y156057D01*
X355600Y155247D01*
X355358Y154342D01*
Y153406D01*
X355600Y152501D01*
X356068Y151691D01*
X356730Y151029D01*
X357541Y150560D01*
X358445Y150318D01*
X359382D01*
X360286Y150560D01*
X361097Y151029D01*
X361759Y151691D01*
X362227Y152501D01*
X362469Y153406D01*
Y154342D01*
X362227Y155247D01*
X361759Y156057D01*
X361097Y156720D01*
X360286Y157188D01*
X359382Y157430D01*
D02*
G37*
G36*
X355534Y148874D02*
X352913D01*
Y146254D01*
X353363Y146374D01*
X354220Y146869D01*
X354919Y147568D01*
X355413Y148424D01*
X355534Y148874D01*
D02*
G37*
G36*
X350913D02*
X348293D01*
X348413Y148424D01*
X348908Y147568D01*
X349607Y146869D01*
X350464Y146374D01*
X350913Y146254D01*
Y148874D01*
D02*
G37*
G36*
X18559Y149044D02*
Y146118D01*
X21485D01*
X21334Y146682D01*
X20801Y147606D01*
X20046Y148360D01*
X19123Y148893D01*
X18559Y149044D01*
D02*
G37*
G36*
X16559D02*
X15995Y148893D01*
X15072Y148360D01*
X14317Y147606D01*
X13784Y146682D01*
X13633Y146118D01*
X16559D01*
Y149044D01*
D02*
G37*
G36*
X89740Y148828D02*
Y145902D01*
X92666D01*
X92515Y146465D01*
X91982Y147389D01*
X91228Y148143D01*
X90304Y148677D01*
X89740Y148828D01*
D02*
G37*
G36*
X87740D02*
X87177Y148677D01*
X86253Y148143D01*
X85498Y147389D01*
X84965Y146465D01*
X84814Y145902D01*
X87740D01*
Y148828D01*
D02*
G37*
G36*
X21485Y144118D02*
X18559D01*
Y141192D01*
X19123Y141343D01*
X20046Y141876D01*
X20801Y142631D01*
X21334Y143554D01*
X21485Y144118D01*
D02*
G37*
G36*
X16559D02*
X13633D01*
X13784Y143554D01*
X14317Y142631D01*
X15072Y141876D01*
X15995Y141343D01*
X16559Y141192D01*
Y144118D01*
D02*
G37*
G36*
X28066Y148969D02*
X27052D01*
X26073Y148707D01*
X25194Y148200D01*
X24477Y147483D01*
X23970Y146605D01*
X23708Y145625D01*
Y144611D01*
X23970Y143632D01*
X24477Y142753D01*
X25194Y142036D01*
X26073Y141529D01*
X27052Y141267D01*
X28066D01*
X29046Y141529D01*
X29924Y142036D01*
X30641Y142753D01*
X31031Y143430D01*
X75148D01*
X75151Y143415D01*
X75659Y142537D01*
X76376Y141820D01*
X77254Y141313D01*
X78233Y141050D01*
X79247D01*
X80227Y141313D01*
X81105Y141820D01*
X81822Y142537D01*
X82329Y143415D01*
X82591Y144395D01*
Y145409D01*
X82329Y146388D01*
X81822Y147266D01*
X81105Y147983D01*
X80227Y148490D01*
X79247Y148753D01*
X78233D01*
X77254Y148490D01*
X76376Y147983D01*
X75659Y147266D01*
X75268Y146590D01*
X31152D01*
X31148Y146605D01*
X30641Y147483D01*
X29924Y148200D01*
X29046Y148707D01*
X28066Y148969D01*
D02*
G37*
G36*
X92666Y143902D02*
X89740D01*
Y140975D01*
X90304Y141127D01*
X91228Y141660D01*
X91982Y142414D01*
X92515Y143338D01*
X92666Y143902D01*
D02*
G37*
G36*
X87740D02*
X84814D01*
X84965Y143338D01*
X85498Y142414D01*
X86253Y141660D01*
X87177Y141127D01*
X87740Y140975D01*
Y143902D01*
D02*
G37*
G36*
X18559Y139044D02*
Y136118D01*
X21485D01*
X21334Y136682D01*
X20801Y137606D01*
X20046Y138360D01*
X19123Y138893D01*
X18559Y139044D01*
D02*
G37*
G36*
X16559D02*
X15995Y138893D01*
X15072Y138360D01*
X14317Y137606D01*
X13784Y136682D01*
X13633Y136118D01*
X16559D01*
Y139044D01*
D02*
G37*
G36*
X89740Y138828D02*
Y135902D01*
X92666D01*
X92515Y136465D01*
X91982Y137389D01*
X91228Y138143D01*
X90304Y138677D01*
X89740Y138828D01*
D02*
G37*
G36*
X87740D02*
X87177Y138677D01*
X86253Y138143D01*
X85498Y137389D01*
X84965Y136465D01*
X84814Y135902D01*
X87740D01*
Y138828D01*
D02*
G37*
G36*
X356413Y137532D02*
Y132874D01*
X361072D01*
X360748Y134084D01*
X359994Y135389D01*
X358928Y136455D01*
X357623Y137208D01*
X356413Y137532D01*
D02*
G37*
G36*
X354413Y137532D02*
X353204Y137208D01*
X351899Y136455D01*
X350833Y135389D01*
X350079Y134084D01*
X349755Y132874D01*
X354413D01*
Y137532D01*
D02*
G37*
G36*
X369622Y146072D02*
X368204D01*
X366814Y145795D01*
X365504Y145253D01*
X364325Y144465D01*
X363323Y143462D01*
X362535Y142283D01*
X361992Y140973D01*
X361716Y139583D01*
Y138165D01*
X361992Y136775D01*
X362535Y135465D01*
X363323Y134286D01*
X364325Y133283D01*
X365504Y132496D01*
X366814Y131953D01*
X368204Y131676D01*
X369622D01*
X371013Y131953D01*
X372323Y132496D01*
X373502Y133283D01*
X374504Y134286D01*
X375292Y135465D01*
X375834Y136775D01*
X376111Y138165D01*
Y139583D01*
X375834Y140973D01*
X375292Y142283D01*
X374504Y143462D01*
X373502Y144465D01*
X372323Y145253D01*
X371013Y145795D01*
X369622Y146072D01*
D02*
G37*
G36*
X21485Y134118D02*
X18559D01*
Y131192D01*
X19123Y131343D01*
X20046Y131876D01*
X20801Y132631D01*
X21334Y133554D01*
X21485Y134118D01*
D02*
G37*
G36*
X16559D02*
X13633D01*
X13784Y133554D01*
X14317Y132631D01*
X15072Y131876D01*
X15995Y131343D01*
X16559Y131192D01*
Y134118D01*
D02*
G37*
G36*
X28066Y138969D02*
X27052D01*
X26073Y138707D01*
X25194Y138200D01*
X24477Y137483D01*
X23970Y136605D01*
X23708Y135625D01*
Y134611D01*
X23970Y133632D01*
X24477Y132753D01*
X25194Y132036D01*
X26073Y131529D01*
X27052Y131267D01*
X28066D01*
X29046Y131529D01*
X29924Y132036D01*
X30641Y132753D01*
X31031Y133430D01*
X75148D01*
X75151Y133415D01*
X75659Y132537D01*
X76376Y131820D01*
X77254Y131313D01*
X78233Y131050D01*
X79247D01*
X80227Y131313D01*
X81105Y131820D01*
X81822Y132537D01*
X82329Y133415D01*
X82591Y134395D01*
Y135409D01*
X82329Y136388D01*
X81822Y137266D01*
X81105Y137983D01*
X80227Y138490D01*
X79247Y138753D01*
X78233D01*
X77254Y138490D01*
X76376Y137983D01*
X75659Y137266D01*
X75268Y136590D01*
X31152D01*
X31148Y136605D01*
X30641Y137483D01*
X29924Y138200D01*
X29046Y138707D01*
X28066Y138969D01*
D02*
G37*
G36*
X92666Y133902D02*
X89740D01*
Y130975D01*
X90304Y131126D01*
X91228Y131660D01*
X91982Y132414D01*
X92515Y133338D01*
X92666Y133902D01*
D02*
G37*
G36*
X87740D02*
X84814D01*
X84965Y133338D01*
X85498Y132414D01*
X86253Y131660D01*
X87177Y131126D01*
X87740Y130975D01*
Y133902D01*
D02*
G37*
G36*
X361072Y130874D02*
X356413D01*
Y126216D01*
X357623Y126540D01*
X358928Y127293D01*
X359994Y128359D01*
X360748Y129665D01*
X361072Y130874D01*
D02*
G37*
G36*
X354413D02*
X349755D01*
X350079Y129665D01*
X350833Y128359D01*
X351899Y127293D01*
X353204Y126540D01*
X354413Y126216D01*
Y130874D01*
D02*
G37*
G36*
X18559Y129044D02*
Y126118D01*
X21485D01*
X21334Y126682D01*
X20801Y127606D01*
X20046Y128360D01*
X19123Y128893D01*
X18559Y129044D01*
D02*
G37*
G36*
X16559D02*
X15995Y128893D01*
X15072Y128360D01*
X14317Y127606D01*
X13784Y126682D01*
X13633Y126118D01*
X16559D01*
Y129044D01*
D02*
G37*
G36*
X89740Y128828D02*
Y125902D01*
X92666D01*
X92515Y126465D01*
X91982Y127389D01*
X91228Y128143D01*
X90304Y128677D01*
X89740Y128828D01*
D02*
G37*
G36*
X87740D02*
X87177Y128677D01*
X86253Y128143D01*
X85498Y127389D01*
X84965Y126465D01*
X84814Y125902D01*
X87740D01*
Y128828D01*
D02*
G37*
G36*
X28066Y128969D02*
X27052D01*
X26073Y128707D01*
X25194Y128200D01*
X24477Y127483D01*
X23970Y126605D01*
X23708Y125625D01*
Y124611D01*
X23970Y123632D01*
X24477Y122753D01*
X25194Y122036D01*
X26073Y121529D01*
X27052Y121267D01*
X28066D01*
X29046Y121529D01*
X29924Y122036D01*
X30641Y122753D01*
X31148Y123632D01*
X31410Y124611D01*
Y125625D01*
X31148Y126605D01*
X30641Y127483D01*
X29924Y128200D01*
X29046Y128707D01*
X28066Y128969D01*
D02*
G37*
G36*
X21485Y124118D02*
X18559D01*
Y121192D01*
X19123Y121343D01*
X20046Y121876D01*
X20801Y122631D01*
X21334Y123554D01*
X21485Y124118D01*
D02*
G37*
G36*
X16559D02*
X13633D01*
X13784Y123554D01*
X14317Y122631D01*
X15072Y121876D01*
X15995Y121343D01*
X16559Y121192D01*
Y124118D01*
D02*
G37*
G36*
X79247Y128753D02*
X78233D01*
X77254Y128490D01*
X76376Y127983D01*
X75659Y127266D01*
X75151Y126388D01*
X74889Y125409D01*
Y124395D01*
X75151Y123415D01*
X75659Y122537D01*
X76376Y121820D01*
X77254Y121313D01*
X78233Y121050D01*
X79247D01*
X80227Y121313D01*
X81105Y121820D01*
X81822Y122537D01*
X82329Y123415D01*
X82591Y124395D01*
Y125409D01*
X82329Y126388D01*
X81822Y127266D01*
X81105Y127983D01*
X80227Y128490D01*
X79247Y128753D01*
D02*
G37*
G36*
X92666Y123902D02*
X89740D01*
Y120975D01*
X90304Y121126D01*
X91228Y121660D01*
X91982Y122414D01*
X92515Y123338D01*
X92666Y123902D01*
D02*
G37*
G36*
X87740D02*
X84814D01*
X84965Y123338D01*
X85498Y122414D01*
X86253Y121660D01*
X87177Y121126D01*
X87740Y120975D01*
Y123902D01*
D02*
G37*
G36*
X19783Y34811D02*
X17417Y34625D01*
X15109Y34071D01*
X12916Y33163D01*
X10892Y31922D01*
X9088Y30381D01*
X7546Y28576D01*
X6306Y26552D01*
X5398Y24359D01*
X4843Y22051D01*
X4657Y19685D01*
X4843Y17319D01*
X5398Y15011D01*
X6306Y12818D01*
X7546Y10794D01*
X9088Y8989D01*
X10892Y7448D01*
X12916Y6208D01*
X15109Y5299D01*
X17417Y4745D01*
X19783Y4559D01*
X22150Y4745D01*
X24458Y5299D01*
X26651Y6208D01*
X28674Y7448D01*
X30479Y8989D01*
X32021Y10794D01*
X33261Y12818D01*
X34169Y15011D01*
X34723Y17319D01*
X34910Y19685D01*
X34723Y22051D01*
X34169Y24359D01*
X33261Y26552D01*
X32021Y28576D01*
X30479Y30381D01*
X28674Y31922D01*
X26651Y33163D01*
X24458Y34071D01*
X22150Y34625D01*
X19783Y34811D01*
D02*
G37*
G36*
X373721Y34418D02*
X371354Y34231D01*
X369046Y33677D01*
X366853Y32769D01*
X364829Y31529D01*
X363025Y29987D01*
X361483Y28182D01*
X360243Y26158D01*
X359335Y23966D01*
X358781Y21658D01*
X358594Y19291D01*
X358781Y16925D01*
X359335Y14617D01*
X360243Y12424D01*
X361483Y10400D01*
X363025Y8596D01*
X364829Y7054D01*
X366853Y5814D01*
X369046Y4905D01*
X371354Y4351D01*
X373721Y4165D01*
X376087Y4351D01*
X378395Y4905D01*
X380588Y5814D01*
X382611Y7054D01*
X384416Y8596D01*
X385958Y10400D01*
X387198Y12424D01*
X388106Y14617D01*
X388660Y16925D01*
X388847Y19291D01*
X388660Y21658D01*
X388106Y23966D01*
X387198Y26158D01*
X385958Y28182D01*
X384416Y29987D01*
X382611Y31529D01*
X380588Y32769D01*
X378395Y33677D01*
X376087Y34231D01*
X373721Y34418D01*
D02*
G37*
%LPD*%
G36*
X375671Y385936D02*
X377573Y385480D01*
X379381Y384731D01*
X381049Y383709D01*
X382537Y382438D01*
X383807Y380950D01*
X384829Y379282D01*
X385578Y377475D01*
X386035Y375572D01*
X386188Y373622D01*
X386035Y371672D01*
X385578Y369769D01*
X384829Y367962D01*
X383807Y366294D01*
X382537Y364806D01*
X381049Y363535D01*
X379381Y362513D01*
X377573Y361764D01*
X375671Y361308D01*
X373721Y361154D01*
X371770Y361308D01*
X369868Y361764D01*
X368060Y362513D01*
X366392Y363535D01*
X364904Y364806D01*
X363634Y366294D01*
X362611Y367962D01*
X361863Y369769D01*
X361406Y371672D01*
X361252Y373622D01*
X361406Y375572D01*
X361863Y377475D01*
X362611Y379282D01*
X363634Y380950D01*
X364904Y382438D01*
X366392Y383709D01*
X368060Y384731D01*
X369868Y385480D01*
X371770Y385936D01*
X373721Y386090D01*
X375671Y385936D01*
D02*
G37*
%LPC*%
G36*
X374515Y382509D02*
X372926D01*
X372847Y382493D01*
X372766D01*
X371207Y382183D01*
X371133Y382152D01*
X371054Y382136D01*
X369585Y381528D01*
X369519Y381483D01*
X369444Y381453D01*
X368122Y380569D01*
X368066Y380512D01*
X367999Y380468D01*
X366875Y379344D01*
X366830Y379277D01*
X366773Y379220D01*
X365890Y377898D01*
X365859Y377824D01*
X365815Y377757D01*
X365206Y376288D01*
X365191Y376210D01*
X365160Y376135D01*
X364850Y374576D01*
Y374496D01*
X364834Y374417D01*
Y373622D01*
Y372827D01*
X364850Y372748D01*
Y372668D01*
X365160Y371109D01*
X365191Y371035D01*
X365206Y370956D01*
X365815Y369487D01*
X365859Y369420D01*
X365890Y369346D01*
X366773Y368024D01*
X366830Y367967D01*
X366875Y367900D01*
X367999Y366776D01*
X368066Y366732D01*
X368122Y366675D01*
X369444Y365792D01*
X369518Y365761D01*
X369585Y365716D01*
X371054Y365108D01*
X371133Y365092D01*
X371207Y365061D01*
X372766Y364751D01*
X372847D01*
X372926Y364736D01*
X374515D01*
X374594Y364751D01*
X374675D01*
X376234Y365061D01*
X376308Y365092D01*
X376387Y365108D01*
X377856Y365716D01*
X377922Y365761D01*
X377997Y365792D01*
X379318Y366675D01*
X379375Y366732D01*
X379442Y366776D01*
X380566Y367900D01*
X380611Y367967D01*
X380668Y368024D01*
X381551Y369346D01*
X381582Y369420D01*
X381626Y369487D01*
X382235Y370956D01*
X382250Y371035D01*
X382281Y371109D01*
X382591Y372668D01*
Y372748D01*
X382607Y372827D01*
Y373622D01*
Y374417D01*
X382591Y374496D01*
Y374576D01*
X382281Y376135D01*
X382250Y376210D01*
X382235Y376288D01*
X381626Y377757D01*
X381582Y377824D01*
X381551Y377898D01*
X380668Y379220D01*
X380611Y379277D01*
X380566Y379344D01*
X379442Y380468D01*
X379375Y380512D01*
X379318Y380569D01*
X377997Y381453D01*
X377922Y381483D01*
X377856Y381528D01*
X376387Y382136D01*
X376308Y382152D01*
X376234Y382183D01*
X374675Y382493D01*
X374594D01*
X374515Y382509D01*
D02*
G37*
%LPD*%
G36*
X21340Y385936D02*
X23243Y385480D01*
X25050Y384731D01*
X26718Y383709D01*
X28206Y382438D01*
X29476Y380950D01*
X30499Y379282D01*
X31247Y377475D01*
X31704Y375572D01*
X31858Y373622D01*
X31704Y371672D01*
X31247Y369769D01*
X30499Y367962D01*
X29476Y366294D01*
X28206Y364806D01*
X26718Y363535D01*
X25050Y362513D01*
X23243Y361764D01*
X21340Y361308D01*
X19390Y361154D01*
X17439Y361308D01*
X15537Y361764D01*
X13729Y362513D01*
X12061Y363535D01*
X10574Y364806D01*
X9303Y366294D01*
X8281Y367962D01*
X7532Y369769D01*
X7075Y371672D01*
X6922Y373622D01*
X7075Y375572D01*
X7532Y377475D01*
X8281Y379282D01*
X9303Y380950D01*
X10574Y382438D01*
X12061Y383709D01*
X13729Y384731D01*
X15537Y385480D01*
X17439Y385936D01*
X19390Y386090D01*
X21340Y385936D01*
D02*
G37*
%LPC*%
G36*
X20185Y382509D02*
X18595D01*
X18516Y382493D01*
X18436D01*
X16876Y382183D01*
X16802Y382152D01*
X16723Y382136D01*
X15255Y381528D01*
X15188Y381483D01*
X15114Y381453D01*
X13792Y380569D01*
X13735Y380512D01*
X13668Y380468D01*
X12544Y379344D01*
X12499Y379277D01*
X12443Y379220D01*
X11559Y377898D01*
X11529Y377824D01*
X11484Y377757D01*
X10875Y376288D01*
X10860Y376210D01*
X10829Y376135D01*
X10519Y374576D01*
Y374496D01*
X10503Y374417D01*
Y373622D01*
Y372827D01*
X10519Y372748D01*
Y372668D01*
X10829Y371109D01*
X10860Y371035D01*
X10875Y370956D01*
X11484Y369487D01*
X11529Y369420D01*
X11559Y369346D01*
X12443Y368024D01*
X12499Y367967D01*
X12544Y367900D01*
X13668Y366776D01*
X13735Y366732D01*
X13792Y366675D01*
X15114Y365792D01*
X15188Y365761D01*
X15255Y365716D01*
X16723Y365108D01*
X16802Y365092D01*
X16876Y365061D01*
X18436Y364751D01*
X18516D01*
X18595Y364736D01*
X20185D01*
X20264Y364751D01*
X20344D01*
X21903Y365061D01*
X21977Y365092D01*
X22056Y365108D01*
X23525Y365716D01*
X23592Y365761D01*
X23666Y365792D01*
X24988Y366675D01*
X25045Y366732D01*
X25111Y366776D01*
X26236Y367900D01*
X26280Y367967D01*
X26337Y368024D01*
X27220Y369346D01*
X27251Y369420D01*
X27296Y369487D01*
X27904Y370956D01*
X27920Y371035D01*
X27951Y371109D01*
X28261Y372668D01*
Y372748D01*
X28276Y372827D01*
Y373622D01*
Y374417D01*
X28261Y374496D01*
Y374576D01*
X27951Y376135D01*
X27920Y376210D01*
X27904Y376288D01*
X27296Y377757D01*
X27251Y377824D01*
X27220Y377898D01*
X26337Y379220D01*
X26280Y379277D01*
X26236Y379344D01*
X25111Y380468D01*
X25045Y380512D01*
X24988Y380569D01*
X23666Y381453D01*
X23592Y381483D01*
X23525Y381528D01*
X22056Y382136D01*
X21977Y382152D01*
X21903Y382183D01*
X20344Y382493D01*
X20264D01*
X20185Y382509D01*
D02*
G37*
%LPD*%
G36*
X21734Y31999D02*
X23636Y31543D01*
X25444Y30794D01*
X27112Y29772D01*
X28600Y28501D01*
X29870Y27013D01*
X30893Y25345D01*
X31641Y23538D01*
X32098Y21635D01*
X32251Y19685D01*
X32098Y17735D01*
X31641Y15832D01*
X30893Y14025D01*
X29870Y12357D01*
X28600Y10869D01*
X27112Y9598D01*
X25444Y8576D01*
X23636Y7827D01*
X21734Y7371D01*
X19783Y7217D01*
X17833Y7371D01*
X15931Y7827D01*
X14123Y8576D01*
X12455Y9598D01*
X10967Y10869D01*
X9697Y12357D01*
X8674Y14025D01*
X7926Y15832D01*
X7469Y17735D01*
X7316Y19685D01*
X7469Y21635D01*
X7926Y23538D01*
X8674Y25345D01*
X9697Y27013D01*
X10967Y28501D01*
X12455Y29772D01*
X14123Y30794D01*
X15931Y31543D01*
X17833Y31999D01*
X19783Y32153D01*
X21734Y31999D01*
D02*
G37*
%LPC*%
G36*
X20578Y28572D02*
X18989D01*
X18910Y28556D01*
X18829D01*
X17270Y28246D01*
X17196Y28215D01*
X17117Y28199D01*
X15648Y27591D01*
X15582Y27546D01*
X15507Y27516D01*
X14185Y26632D01*
X14129Y26575D01*
X14062Y26531D01*
X12938Y25407D01*
X12893Y25340D01*
X12836Y25283D01*
X11953Y23961D01*
X11922Y23887D01*
X11878Y23820D01*
X11269Y22351D01*
X11253Y22273D01*
X11223Y22198D01*
X10913Y20639D01*
Y20559D01*
X10897Y20480D01*
Y19685D01*
Y18890D01*
X10913Y18811D01*
Y18731D01*
X11223Y17172D01*
X11253Y17097D01*
X11269Y17019D01*
X11878Y15550D01*
X11922Y15483D01*
X11953Y15409D01*
X12836Y14087D01*
X12893Y14030D01*
X12938Y13963D01*
X14062Y12839D01*
X14129Y12795D01*
X14185Y12738D01*
X15507Y11855D01*
X15582Y11824D01*
X15648Y11779D01*
X17117Y11171D01*
X17196Y11155D01*
X17270Y11124D01*
X18829Y10814D01*
X18910D01*
X18989Y10798D01*
X20578D01*
X20657Y10814D01*
X20738D01*
X22297Y11124D01*
X22371Y11155D01*
X22450Y11171D01*
X23919Y11779D01*
X23985Y11824D01*
X24060Y11855D01*
X25381Y12738D01*
X25438Y12795D01*
X25505Y12839D01*
X26629Y13963D01*
X26674Y14030D01*
X26731Y14087D01*
X27614Y15409D01*
X27645Y15483D01*
X27689Y15550D01*
X28298Y17019D01*
X28313Y17097D01*
X28344Y17172D01*
X28654Y18731D01*
Y18811D01*
X28670Y18890D01*
Y19685D01*
Y20480D01*
X28654Y20559D01*
Y20639D01*
X28344Y22198D01*
X28313Y22273D01*
X28298Y22351D01*
X27689Y23820D01*
X27645Y23887D01*
X27614Y23961D01*
X26731Y25283D01*
X26674Y25340D01*
X26629Y25407D01*
X25505Y26531D01*
X25438Y26575D01*
X25381Y26632D01*
X24060Y27516D01*
X23985Y27546D01*
X23919Y27591D01*
X22450Y28199D01*
X22371Y28215D01*
X22297Y28246D01*
X20738Y28556D01*
X20657D01*
X20578Y28572D01*
D02*
G37*
%LPD*%
G36*
X375671Y31606D02*
X377573Y31149D01*
X379381Y30400D01*
X381049Y29378D01*
X382537Y28108D01*
X383807Y26620D01*
X384829Y24952D01*
X385578Y23144D01*
X386035Y21242D01*
X386188Y19291D01*
X386035Y17341D01*
X385578Y15439D01*
X384829Y13631D01*
X383807Y11963D01*
X382537Y10475D01*
X381049Y9205D01*
X379381Y8182D01*
X377573Y7434D01*
X375671Y6977D01*
X373721Y6823D01*
X371770Y6977D01*
X369868Y7434D01*
X368060Y8182D01*
X366392Y9205D01*
X364904Y10475D01*
X363634Y11963D01*
X362611Y13631D01*
X361863Y15439D01*
X361406Y17341D01*
X361252Y19291D01*
X361406Y21242D01*
X361863Y23144D01*
X362611Y24952D01*
X363634Y26620D01*
X364904Y28108D01*
X366392Y29378D01*
X368060Y30400D01*
X369868Y31149D01*
X371770Y31606D01*
X373721Y31759D01*
X375671Y31606D01*
D02*
G37*
%LPC*%
G36*
X374515Y28178D02*
X372926D01*
X372847Y28162D01*
X372766D01*
X371207Y27852D01*
X371133Y27821D01*
X371054Y27806D01*
X369585Y27197D01*
X369519Y27153D01*
X369444Y27122D01*
X368122Y26239D01*
X368066Y26182D01*
X367999Y26137D01*
X366875Y25013D01*
X366830Y24946D01*
X366773Y24889D01*
X365890Y23568D01*
X365859Y23493D01*
X365815Y23426D01*
X365206Y21958D01*
X365191Y21879D01*
X365160Y21805D01*
X364850Y20245D01*
Y20165D01*
X364834Y20086D01*
Y19291D01*
Y18496D01*
X364850Y18418D01*
Y18337D01*
X365160Y16778D01*
X365191Y16704D01*
X365206Y16625D01*
X365815Y15156D01*
X365859Y15089D01*
X365890Y15015D01*
X366773Y13693D01*
X366830Y13636D01*
X366875Y13570D01*
X367999Y12445D01*
X368066Y12401D01*
X368122Y12344D01*
X369444Y11461D01*
X369518Y11430D01*
X369585Y11385D01*
X371054Y10777D01*
X371133Y10761D01*
X371207Y10731D01*
X372766Y10420D01*
X372847D01*
X372926Y10405D01*
X374515D01*
X374594Y10420D01*
X374675D01*
X376234Y10731D01*
X376308Y10761D01*
X376387Y10777D01*
X377856Y11385D01*
X377922Y11430D01*
X377997Y11461D01*
X379318Y12344D01*
X379375Y12401D01*
X379442Y12445D01*
X380566Y13570D01*
X380611Y13636D01*
X380668Y13693D01*
X381551Y15015D01*
X381582Y15089D01*
X381626Y15156D01*
X382235Y16625D01*
X382250Y16704D01*
X382281Y16778D01*
X382591Y18337D01*
Y18418D01*
X382607Y18496D01*
Y19291D01*
Y20086D01*
X382591Y20165D01*
Y20245D01*
X382281Y21805D01*
X382250Y21879D01*
X382235Y21958D01*
X381626Y23426D01*
X381582Y23493D01*
X381551Y23568D01*
X380668Y24889D01*
X380611Y24946D01*
X380566Y25013D01*
X379442Y26137D01*
X379375Y26182D01*
X379318Y26239D01*
X377997Y27122D01*
X377922Y27153D01*
X377856Y27197D01*
X376387Y27806D01*
X376308Y27821D01*
X376234Y27852D01*
X374675Y28162D01*
X374594D01*
X374515Y28178D01*
D02*
G37*
%LPD*%
D37*
X27559Y265118D02*
X27667Y265010D01*
X78632D01*
X78740Y264902D01*
X27559Y205118D02*
X27667Y205010D01*
X78632D01*
X78740Y204902D01*
X78632Y215010D02*
X78740Y214902D01*
X27667Y215010D02*
X78632D01*
X27559Y215118D02*
X27667Y215010D01*
X78632Y195010D02*
X78740Y194902D01*
X27667Y195010D02*
X78632D01*
X27559Y195118D02*
X27667Y195010D01*
Y165010D02*
X78632D01*
X78740Y164902D01*
X27559Y165118D02*
X27667Y165010D01*
X27559Y185118D02*
X27667Y185010D01*
X78632D02*
X78740Y184902D01*
X27667Y185010D02*
X78632D01*
Y155010D02*
X78740Y154902D01*
X27559Y155118D02*
X27667Y155010D01*
X78632D01*
Y145010D02*
X78740Y144902D01*
X27559Y145118D02*
X27667Y145010D01*
X78632D01*
Y135010D02*
X78740Y134902D01*
X27559Y135118D02*
X27667Y135010D01*
X78632D01*
X27559Y255118D02*
X27667Y255010D01*
X78632D01*
X78740Y254902D01*
X78632Y245010D02*
X78740Y244902D01*
X27667Y245010D02*
X78632D01*
X27559Y245118D02*
X27667Y245010D01*
X27559Y235118D02*
X27667Y235010D01*
X78632D01*
X78740Y234902D01*
X78632Y225010D02*
X78740Y224902D01*
X27667Y225010D02*
X78632D01*
X27559Y225118D02*
X27667Y225010D01*
D38*
X358913Y169874D02*
D03*
X351913Y165874D02*
D03*
X358913Y153874D02*
D03*
Y215874D02*
D03*
X351913Y227874D02*
D03*
X358913Y231874D02*
D03*
X351913Y211874D02*
D03*
Y219874D02*
D03*
X358913Y223874D02*
D03*
X351913Y235874D02*
D03*
Y149874D02*
D03*
Y157874D02*
D03*
X358913Y161874D02*
D03*
X351913Y173874D02*
D03*
D39*
X368913Y138874D02*
D03*
Y250874D02*
D03*
D40*
X358913Y239874D02*
D03*
Y177874D02*
D03*
D41*
X355413Y257874D02*
D03*
Y131874D02*
D03*
D42*
X27559Y125118D02*
D03*
Y145118D02*
D03*
Y155118D02*
D03*
Y175118D02*
D03*
Y195118D02*
D03*
Y205118D02*
D03*
Y215118D02*
D03*
Y225118D02*
D03*
Y235118D02*
D03*
Y245118D02*
D03*
Y255118D02*
D03*
Y165118D02*
D03*
Y185118D02*
D03*
Y265118D02*
D03*
X17559D02*
D03*
Y255118D02*
D03*
Y245118D02*
D03*
Y235118D02*
D03*
Y225118D02*
D03*
Y215118D02*
D03*
Y205118D02*
D03*
Y195118D02*
D03*
Y185118D02*
D03*
Y175118D02*
D03*
Y165118D02*
D03*
Y155118D02*
D03*
Y145118D02*
D03*
Y135118D02*
D03*
Y125118D02*
D03*
X27559Y135118D02*
D03*
X78740Y254902D02*
D03*
Y244902D02*
D03*
Y234902D02*
D03*
Y224902D02*
D03*
Y214902D02*
D03*
Y204902D02*
D03*
Y194902D02*
D03*
Y174902D02*
D03*
Y154902D02*
D03*
Y144902D02*
D03*
Y124902D02*
D03*
Y164902D02*
D03*
Y184902D02*
D03*
Y264902D02*
D03*
X88740D02*
D03*
Y254902D02*
D03*
Y244902D02*
D03*
Y234902D02*
D03*
Y224902D02*
D03*
Y214902D02*
D03*
Y204902D02*
D03*
Y194902D02*
D03*
Y184902D02*
D03*
Y174902D02*
D03*
Y164902D02*
D03*
Y154902D02*
D03*
Y144902D02*
D03*
Y134902D02*
D03*
Y124902D02*
D03*
X78740Y134902D02*
D03*
M02*
