G04*
G04 #@! TF.GenerationSoftware,Altium Limited,Altium Designer,26.4.1 (12)*
G04*
G04 Layer_Physical_Order=1*
G04 Layer_Color=255*
%FSLAX25Y25*%
%MOIN*%
G70*
G04*
G04 #@! TF.SameCoordinates,D39B8398-86C8-4CF1-8612-2F4D2E61BB95*
G04*
G04*
G04 #@! TF.FilePolarity,Positive*
G04*
G01*
G75*
%ADD17C,0.00787*%
%ADD22R,0.03740X0.03347*%
%ADD23R,0.03150X0.03150*%
%ADD24R,0.03347X0.03740*%
%ADD25R,0.03543X0.02756*%
%ADD26O,0.04331X0.02362*%
%ADD37C,0.01500*%
%ADD38C,0.06102*%
%ADD39C,0.05512*%
%ADD40C,0.09449*%
%ADD41C,0.12795*%
%ADD42R,0.05512X0.05512*%
G36*
X388034Y392257D02*
X389208Y391771D01*
X390263Y391065D01*
X391161Y390167D01*
X391866Y389112D01*
X392352Y387938D01*
X392600Y386692D01*
X392603Y386056D01*
Y6858D01*
Y6223D01*
X392355Y4978D01*
X391869Y3804D01*
X391164Y2749D01*
X390266Y1851D01*
X389210Y1145D01*
X388037Y659D01*
X386790Y411D01*
X386122Y409D01*
X6321D01*
X5076Y657D01*
X3903Y1143D01*
X2847Y1848D01*
X1949Y2746D01*
X1244Y3802D01*
X758Y4975D01*
X510Y6220D01*
Y6855D01*
X508Y383760D01*
X508Y384042D01*
Y386691D01*
X755Y387936D01*
X1241Y389109D01*
X1946Y390165D01*
X2844Y391063D01*
X3900Y391768D01*
X5073Y392254D01*
X6319Y392502D01*
X6954D01*
X386154Y392504D01*
X386789D01*
X388034Y392257D01*
D02*
G37*
%LPC*%
G36*
X88795Y368166D02*
Y365945D01*
X86795D01*
Y368166D01*
X85960Y367999D01*
X85238Y367517D01*
X84756Y366796D01*
X84587Y365945D01*
X84368Y365678D01*
X52264D01*
X51952Y365616D01*
X51687Y365439D01*
X51687Y365439D01*
X22258Y336010D01*
X22081Y335745D01*
X22019Y335433D01*
X22019Y335433D01*
Y323536D01*
X19968D01*
Y322446D01*
X18701D01*
X18096Y322326D01*
X17583Y321984D01*
X16205Y320606D01*
X15863Y320093D01*
X15742Y319488D01*
Y315985D01*
X14948D01*
Y311235D01*
X19698D01*
Y315985D01*
X18903D01*
Y317915D01*
X19968Y318196D01*
Y318196D01*
X22019D01*
Y302371D01*
X21289Y268788D01*
X20097Y268309D01*
X20046Y268360D01*
X19123Y268893D01*
X18559Y269044D01*
Y265118D01*
Y261192D01*
X19123Y261343D01*
X20046Y261876D01*
X20801Y262631D01*
X20847Y262710D01*
X21594Y262763D01*
X21706Y262742D01*
X22138Y262584D01*
X22156Y262540D01*
X23731Y260177D01*
X23788Y260120D01*
X23833Y260053D01*
X23899Y260009D01*
X23956Y259952D01*
X24030Y259921D01*
X24097Y259876D01*
X24176Y259861D01*
X24250Y259830D01*
X24330Y259830D01*
X24409Y259814D01*
X25238D01*
X25346Y259651D01*
X25194Y258200D01*
X24477Y257483D01*
X23970Y256605D01*
X23708Y255625D01*
Y254611D01*
X23970Y253632D01*
X24477Y252753D01*
X25194Y252036D01*
X26073Y251529D01*
X27052Y251267D01*
X28066D01*
X29046Y251529D01*
X29924Y252036D01*
X30641Y252753D01*
X31148Y253632D01*
X31410Y254611D01*
Y255625D01*
X31148Y256605D01*
X30641Y257483D01*
X29924Y258200D01*
X29772Y259651D01*
X29881Y259814D01*
X30709D01*
X30815Y259835D01*
X30923Y259843D01*
X30970Y259866D01*
X31021Y259876D01*
X31111Y259937D01*
X31208Y259985D01*
X31242Y260024D01*
X31285Y260053D01*
X31346Y260143D01*
X31417Y260225D01*
X34567Y265737D01*
X34578Y265771D01*
X34598Y265799D01*
X34628Y265920D01*
X34667Y266039D01*
X34665Y266074D01*
X34673Y266108D01*
X36235Y304373D01*
X37739Y305877D01*
X50108Y305854D01*
X50559Y304762D01*
X40713Y294917D01*
X40371Y294404D01*
X40250Y293799D01*
Y198981D01*
X37967Y196698D01*
X31094D01*
X30641Y197483D01*
X29924Y198200D01*
X29046Y198707D01*
X28066Y198969D01*
X27052D01*
X26073Y198707D01*
X25194Y198200D01*
X24477Y197483D01*
X23970Y196605D01*
X23708Y195625D01*
Y194611D01*
X23970Y193632D01*
X24477Y192753D01*
X25194Y192036D01*
X26073Y191529D01*
X27052Y191267D01*
X28066D01*
X29046Y191529D01*
X29924Y192036D01*
X30641Y192753D01*
X31094Y193538D01*
X38622D01*
X39227Y193658D01*
X39740Y194001D01*
X42514Y196775D01*
X43695Y196286D01*
Y192584D01*
X37810Y186698D01*
X31094D01*
X30641Y187483D01*
X29924Y188200D01*
X29046Y188707D01*
X28066Y188969D01*
X27052D01*
X26073Y188707D01*
X25194Y188200D01*
X24477Y187483D01*
X23970Y186605D01*
X23708Y185625D01*
Y184611D01*
X23970Y183632D01*
X24477Y182753D01*
X25194Y182036D01*
X26073Y181529D01*
X27052Y181267D01*
X28066D01*
X29046Y181529D01*
X29924Y182036D01*
X30641Y182753D01*
X31094Y183538D01*
X38465D01*
X39069Y183658D01*
X39582Y184001D01*
X46109Y190527D01*
X47231Y190146D01*
X47290Y190099D01*
Y175981D01*
X38007Y166699D01*
X31094D01*
X30641Y167483D01*
X29924Y168200D01*
X29046Y168707D01*
X28066Y168969D01*
X27052D01*
X26073Y168707D01*
X25194Y168200D01*
X24477Y167483D01*
X23970Y166605D01*
X23708Y165625D01*
Y164611D01*
X23970Y163632D01*
X24477Y162753D01*
X25194Y162036D01*
X26073Y161529D01*
X27052Y161267D01*
X28066D01*
X29046Y161529D01*
X29924Y162036D01*
X30641Y162753D01*
X31094Y163538D01*
X38662D01*
X39267Y163658D01*
X39779Y164001D01*
X49803Y174024D01*
X50531Y173862D01*
X50984Y173574D01*
Y169809D01*
X37874Y156699D01*
X31094D01*
X30641Y157483D01*
X29924Y158200D01*
X29046Y158707D01*
X28066Y158969D01*
X27052D01*
X26073Y158707D01*
X25194Y158200D01*
X24477Y157483D01*
X23970Y156605D01*
X23708Y155625D01*
Y154611D01*
X23970Y153632D01*
X24477Y152753D01*
X25194Y152036D01*
X26073Y151529D01*
X27052Y151267D01*
X28066D01*
X29046Y151529D01*
X29924Y152036D01*
X30641Y152753D01*
X31094Y153538D01*
X38528D01*
X39133Y153658D01*
X39646Y154001D01*
X53341Y167696D01*
X54522Y167214D01*
Y163284D01*
X37936Y146698D01*
X31094D01*
X30641Y147483D01*
X29924Y148200D01*
X29046Y148707D01*
X28066Y148969D01*
X27052D01*
X26073Y148707D01*
X25194Y148200D01*
X24477Y147483D01*
X23970Y146605D01*
X23708Y145625D01*
Y144611D01*
X23970Y143632D01*
X24477Y142753D01*
X25194Y142036D01*
X26073Y141529D01*
X27052Y141267D01*
X28066D01*
X29046Y141529D01*
X29924Y142036D01*
X30641Y142753D01*
X31094Y143538D01*
X38591D01*
X39196Y143658D01*
X39709Y144001D01*
X57195Y161487D01*
X57301Y161484D01*
X58376Y161117D01*
Y157188D01*
X37887Y136698D01*
X31094D01*
X30641Y137483D01*
X29924Y138200D01*
X29046Y138707D01*
X28066Y138969D01*
X27052D01*
X26073Y138707D01*
X25194Y138200D01*
X24477Y137483D01*
X23970Y136605D01*
X23708Y135625D01*
Y134611D01*
X23970Y133632D01*
X24477Y132753D01*
X25194Y132036D01*
X26073Y131529D01*
X27052Y131267D01*
X28066D01*
X29046Y131529D01*
X29924Y132036D01*
X30641Y132753D01*
X31094Y133538D01*
X38542D01*
X39146Y133658D01*
X39659Y134001D01*
X61074Y155416D01*
X61417Y155929D01*
X61537Y156533D01*
Y282728D01*
X62663Y283853D01*
X319291D01*
X319896Y283973D01*
X320409Y284316D01*
X325133Y289040D01*
X325476Y289553D01*
X325596Y290158D01*
Y304504D01*
X326432Y305339D01*
X336547Y305320D01*
X336577Y305326D01*
X336606Y305322D01*
X336732Y305356D01*
X336860Y305381D01*
X336884Y305398D01*
X336913Y305406D01*
X337016Y305486D01*
X337125Y305558D01*
X337141Y305582D01*
X337165Y305601D01*
X346285Y316099D01*
X346350Y316213D01*
X346423Y316322D01*
X346428Y316350D01*
X346443Y316375D01*
X346459Y316505D01*
X346485Y316634D01*
Y356693D01*
X346480Y356715D01*
X346484Y356738D01*
X346450Y356871D01*
X346423Y357005D01*
X346410Y357024D01*
X346405Y357046D01*
X346322Y357156D01*
X346246Y357270D01*
X346227Y357282D01*
X346214Y357300D01*
X337093Y365470D01*
X336975Y365540D01*
X336861Y365616D01*
X336839Y365620D01*
X336819Y365632D01*
X336684Y365651D01*
X336549Y365678D01*
X327443D01*
X327224Y365945D01*
X327055Y366796D01*
X326572Y367517D01*
X325851Y367999D01*
X325016Y368166D01*
Y365945D01*
X323016D01*
Y368166D01*
X322181Y367999D01*
X321459Y367517D01*
X320977Y366796D01*
X320808Y365945D01*
X320588Y365678D01*
X280199D01*
X279980Y365945D01*
X279810Y366796D01*
X279328Y367517D01*
X278607Y367999D01*
X277772Y368166D01*
Y365945D01*
X275772D01*
Y368166D01*
X274936Y367999D01*
X274215Y367517D01*
X273733Y366796D01*
X273564Y365945D01*
X273344Y365678D01*
X232955D01*
X232736Y365945D01*
X232566Y366796D01*
X232084Y367517D01*
X231363Y367999D01*
X230528Y368166D01*
Y365945D01*
X228528D01*
Y368166D01*
X227692Y367999D01*
X226971Y367517D01*
X226489Y366796D01*
X226320Y365945D01*
X226100Y365678D01*
X185711D01*
X185492Y365945D01*
X185322Y366796D01*
X184840Y367517D01*
X184119Y367999D01*
X183283Y368166D01*
Y365945D01*
X181283D01*
Y368166D01*
X180448Y367999D01*
X179727Y367517D01*
X179245Y366796D01*
X179075Y365945D01*
X178856Y365678D01*
X138467D01*
X138247Y365945D01*
X138078Y366796D01*
X137596Y367517D01*
X136875Y367999D01*
X136039Y368166D01*
Y365945D01*
X134039D01*
Y368166D01*
X133204Y367999D01*
X132483Y367517D01*
X132001Y366796D01*
X131831Y365945D01*
X131612Y365678D01*
X91223D01*
X91003Y365945D01*
X90834Y366796D01*
X90352Y367517D01*
X89631Y367999D01*
X88795Y368166D01*
D02*
G37*
G36*
X373721Y388748D02*
X371354Y388562D01*
X369046Y388008D01*
X366853Y387100D01*
X364829Y385859D01*
X363025Y384318D01*
X361483Y382513D01*
X360243Y380489D01*
X359335Y378296D01*
X358781Y375988D01*
X358594Y373622D01*
X358781Y371256D01*
X359335Y368948D01*
X360243Y366755D01*
X361483Y364731D01*
X363025Y362926D01*
X364829Y361385D01*
X366853Y360144D01*
X369046Y359236D01*
X371354Y358682D01*
X373721Y358496D01*
X376087Y358682D01*
X378395Y359236D01*
X380588Y360144D01*
X382611Y361385D01*
X384416Y362926D01*
X385958Y364731D01*
X387198Y366755D01*
X388106Y368948D01*
X388660Y371256D01*
X388847Y373622D01*
X388660Y375988D01*
X388106Y378296D01*
X387198Y380489D01*
X385958Y382513D01*
X384416Y384318D01*
X382611Y385859D01*
X380588Y387100D01*
X378395Y388008D01*
X376087Y388562D01*
X373721Y388748D01*
D02*
G37*
G36*
X19390D02*
X17023Y388562D01*
X14716Y388008D01*
X12523Y387100D01*
X10499Y385859D01*
X8694Y384318D01*
X7152Y382513D01*
X5912Y380489D01*
X5004Y378296D01*
X4450Y375988D01*
X4264Y373622D01*
X4450Y371256D01*
X5004Y368948D01*
X5912Y366755D01*
X7152Y364731D01*
X8694Y362926D01*
X10499Y361385D01*
X12523Y360144D01*
X14716Y359236D01*
X17023Y358682D01*
X19390Y358496D01*
X21756Y358682D01*
X24064Y359236D01*
X26257Y360144D01*
X28281Y361385D01*
X30086Y362926D01*
X31627Y364731D01*
X32867Y366755D01*
X33776Y368948D01*
X34330Y371256D01*
X34516Y373622D01*
X34330Y375988D01*
X33776Y378296D01*
X32867Y380489D01*
X31627Y382513D01*
X30086Y384318D01*
X28281Y385859D01*
X26257Y387100D01*
X24064Y388008D01*
X21756Y388562D01*
X19390Y388748D01*
D02*
G37*
G36*
X19898Y309885D02*
X18323D01*
Y308311D01*
X19898D01*
Y309885D01*
D02*
G37*
G36*
X16323D02*
X14748D01*
Y308311D01*
X16323D01*
Y309885D01*
D02*
G37*
G36*
X19898Y306311D02*
X18323D01*
Y304736D01*
X19898D01*
Y306311D01*
D02*
G37*
G36*
X16323D02*
X14748D01*
Y304736D01*
X16323D01*
Y306311D01*
D02*
G37*
G36*
X16559Y269044D02*
X15995Y268893D01*
X15072Y268360D01*
X14317Y267606D01*
X13784Y266682D01*
X13633Y266118D01*
X16559D01*
Y269044D01*
D02*
G37*
G36*
X89740Y268828D02*
Y265901D01*
X92666D01*
X92515Y266465D01*
X91982Y267389D01*
X91228Y268143D01*
X90304Y268677D01*
X89740Y268828D01*
D02*
G37*
G36*
X87740Y268828D02*
X87177Y268677D01*
X86253Y268143D01*
X85498Y267389D01*
X84965Y266465D01*
X84814Y265901D01*
X87740D01*
Y268828D01*
D02*
G37*
G36*
X248117Y262512D02*
X246936Y262512D01*
X242999D01*
Y261423D01*
X241253D01*
Y262512D01*
X237316D01*
X236306Y262512D01*
X235125Y262512D01*
X231188D01*
Y261423D01*
X179545D01*
X178940Y261302D01*
X178427Y260960D01*
X168949Y251482D01*
X92720D01*
X92421Y251860D01*
X92126Y252663D01*
X92515Y253338D01*
X92666Y253902D01*
X88740D01*
X84814D01*
X84965Y253338D01*
X84371Y252042D01*
X84247Y252002D01*
X83796Y252081D01*
X82357Y253520D01*
X82591Y254395D01*
Y255409D01*
X82329Y256388D01*
X81822Y257266D01*
X81105Y257983D01*
X80227Y258490D01*
X79247Y258753D01*
X78233D01*
X77254Y258490D01*
X76376Y257983D01*
X75659Y257266D01*
X75151Y256388D01*
X74889Y255409D01*
Y254395D01*
X75151Y253415D01*
X75659Y252537D01*
X76376Y251820D01*
X77254Y251313D01*
X78233Y251050D01*
X79247D01*
X80122Y251285D01*
X82623Y248784D01*
X83135Y248442D01*
X83740Y248321D01*
X84760D01*
X85060Y247943D01*
X85355Y247140D01*
X84965Y246465D01*
X84814Y245902D01*
X88740D01*
X92666D01*
X92515Y246465D01*
X92126Y247140D01*
X92421Y247943D01*
X92720Y248321D01*
X169604D01*
X170209Y248442D01*
X170721Y248784D01*
X180199Y258262D01*
X231188D01*
Y257172D01*
X235125D01*
X236135Y257172D01*
X237199Y256891D01*
Y254934D01*
X236208D01*
X236208Y250720D01*
X236008Y249622D01*
X236008Y249480D01*
Y248244D01*
X238779D01*
X241551D01*
Y249480D01*
X241551Y249622D01*
X241351Y250720D01*
X241351Y250803D01*
Y254934D01*
X240360D01*
Y257172D01*
X241253D01*
Y258262D01*
X242999D01*
Y257172D01*
X246936D01*
X247946Y257172D01*
X249010Y256891D01*
Y254934D01*
X248019D01*
X248019Y250720D01*
X247819Y249622D01*
X247819Y249480D01*
Y248244D01*
X250591D01*
X253362D01*
Y249480D01*
X253362Y249622D01*
X253162Y250720D01*
X253162Y250803D01*
Y254934D01*
X252171D01*
Y257172D01*
X253064D01*
Y258625D01*
X311504D01*
X314728Y255401D01*
Y244094D01*
X314820Y243629D01*
X315084Y243234D01*
X319305Y239014D01*
X319700Y238750D01*
X320165Y238657D01*
X347819D01*
X348501Y237476D01*
X348413Y237324D01*
X348293Y236874D01*
X351913D01*
Y234874D01*
X348293D01*
X348413Y234424D01*
X348501Y234272D01*
X347819Y233091D01*
X252543D01*
X252078Y232998D01*
X251683Y232735D01*
X248512Y229563D01*
X194009D01*
Y231016D01*
X190072D01*
X189062Y231016D01*
X187881Y231016D01*
X183944D01*
Y229927D01*
X182198D01*
Y231016D01*
X178261D01*
X177251Y231016D01*
X176187Y231298D01*
Y234842D01*
X176066Y235447D01*
X175724Y235960D01*
X170704Y240980D01*
X170191Y241322D01*
X169587Y241443D01*
X92681D01*
X92351Y241901D01*
X92103Y242624D01*
X92515Y243338D01*
X92666Y243902D01*
X88740D01*
X84814D01*
X84965Y243338D01*
X84447Y242009D01*
X84418Y241985D01*
X83822Y242054D01*
X82357Y243520D01*
X82591Y244394D01*
Y245409D01*
X82329Y246388D01*
X81822Y247266D01*
X81105Y247983D01*
X80227Y248490D01*
X79247Y248753D01*
X78233D01*
X77254Y248490D01*
X76376Y247983D01*
X75659Y247266D01*
X75151Y246388D01*
X74889Y245409D01*
Y244394D01*
X75151Y243415D01*
X75659Y242537D01*
X76376Y241820D01*
X77254Y241313D01*
X78233Y241050D01*
X79247D01*
X80122Y241285D01*
X82662Y238745D01*
X83175Y238402D01*
X83780Y238282D01*
X84721D01*
X84991Y237972D01*
X85332Y237101D01*
X84965Y236465D01*
X84814Y235902D01*
X88740D01*
X92666D01*
X92515Y236465D01*
X92148Y237101D01*
X92489Y237972D01*
X92760Y238282D01*
X168932D01*
X173026Y234188D01*
Y231016D01*
X172133D01*
Y225676D01*
X176070D01*
X177079Y225676D01*
X178144Y225395D01*
Y223438D01*
X177153D01*
X177153Y219224D01*
X176953Y218126D01*
X176953Y217984D01*
Y216748D01*
X179724D01*
X182496D01*
Y217984D01*
X182496Y218126D01*
X182296Y219224D01*
X182296Y219307D01*
Y223438D01*
X181305D01*
Y225676D01*
X182198D01*
Y226766D01*
X183944D01*
Y225676D01*
X187881D01*
X188891Y225676D01*
X189955Y225395D01*
Y223438D01*
X188964D01*
X188964Y219224D01*
X188764Y218126D01*
X188764Y217984D01*
Y216748D01*
X191535D01*
X194307D01*
Y217984D01*
X194307Y218126D01*
X194107Y219224D01*
X194107Y219307D01*
Y223438D01*
X193116D01*
Y225676D01*
X194009D01*
Y227129D01*
X249016D01*
X249481Y227222D01*
X249876Y227486D01*
X253047Y230657D01*
X347134D01*
X347815Y229476D01*
X347592Y229091D01*
X319409D01*
X318944Y228998D01*
X318549Y228735D01*
X314100Y224286D01*
X313836Y223891D01*
X313743Y223425D01*
Y201291D01*
X310519Y198067D01*
X253064D01*
Y199520D01*
X249127D01*
X248117Y199520D01*
X246936Y199520D01*
X242999D01*
Y198431D01*
X241253D01*
Y199520D01*
X237316D01*
X236306Y199520D01*
X235125Y199520D01*
X231188D01*
Y198431D01*
X132544D01*
X128549Y202426D01*
Y225394D01*
X128429Y225998D01*
X128086Y226511D01*
X123179Y231418D01*
X122667Y231761D01*
X122062Y231881D01*
X93038D01*
X92356Y233062D01*
X92515Y233338D01*
X92666Y233902D01*
X88740D01*
X84814D01*
X84850Y233768D01*
X84294Y232746D01*
X84061Y232541D01*
X83409Y232468D01*
X82357Y233520D01*
X82591Y234395D01*
Y235409D01*
X82329Y236388D01*
X81822Y237266D01*
X81105Y237983D01*
X80227Y238490D01*
X79247Y238753D01*
X78233D01*
X77254Y238490D01*
X76376Y237983D01*
X75659Y237266D01*
X75151Y236388D01*
X74889Y235409D01*
Y234395D01*
X75151Y233415D01*
X75659Y232537D01*
X76376Y231820D01*
X77254Y231313D01*
X78233Y231050D01*
X79247D01*
X80122Y231285D01*
X82209Y229198D01*
X82722Y228855D01*
X83327Y228735D01*
X85174D01*
X85663Y227554D01*
X85498Y227389D01*
X84965Y226465D01*
X84814Y225902D01*
X88740D01*
X92666D01*
X92515Y226465D01*
X91982Y227389D01*
X91832Y227539D01*
X92321Y228720D01*
X121407D01*
X125388Y224739D01*
Y201772D01*
X125508Y201167D01*
X125851Y200654D01*
X130772Y195733D01*
X131285Y195390D01*
X131890Y195270D01*
X231188D01*
Y194180D01*
X235125D01*
X236135Y194180D01*
X237199Y193899D01*
Y191942D01*
X236208D01*
X236208Y187728D01*
X236008Y186630D01*
X236008Y186487D01*
Y185252D01*
X238779D01*
X241551D01*
Y186487D01*
X241551Y186630D01*
X241351Y187728D01*
X241351Y187811D01*
Y191942D01*
X240360D01*
Y194180D01*
X241253D01*
Y195270D01*
X242999D01*
Y194180D01*
X246936D01*
X247946Y194180D01*
X249010Y193899D01*
Y191942D01*
X248019D01*
X248019Y187728D01*
X247819Y186630D01*
X247819Y186487D01*
Y185252D01*
X250591D01*
X253362D01*
Y186487D01*
X253362Y186630D01*
X253162Y187728D01*
X253162Y187811D01*
Y191942D01*
X252171D01*
Y194180D01*
X253064D01*
Y195633D01*
X311023D01*
X311489Y195726D01*
X311884Y195990D01*
X315821Y199927D01*
X316085Y200322D01*
X316178Y200787D01*
Y222921D01*
X319914Y226657D01*
X348558D01*
X348600Y226501D01*
X349068Y225691D01*
X349730Y225029D01*
X350473Y224599D01*
X350526Y224334D01*
X350469Y223460D01*
X350445Y223363D01*
X349607Y222880D01*
X348908Y222180D01*
X348413Y221324D01*
X348293Y220874D01*
X351913D01*
Y218874D01*
X348293D01*
X348413Y218424D01*
X348501Y218272D01*
X347819Y217091D01*
X330047D01*
X329581Y216999D01*
X329187Y216735D01*
X323942Y211491D01*
X323679Y211096D01*
X323586Y210630D01*
Y170780D01*
X319378Y166571D01*
X194009D01*
Y168024D01*
X190072D01*
X189062Y168024D01*
X187881Y168024D01*
X183944D01*
Y166935D01*
X182198D01*
Y168024D01*
X178261D01*
X177251Y168024D01*
X176070Y168024D01*
X172133D01*
Y166935D01*
X125655D01*
X120675Y171915D01*
Y214961D01*
X120555Y215565D01*
X120212Y216078D01*
X115291Y220999D01*
X114778Y221342D01*
X114173Y221462D01*
X92700D01*
X92386Y221879D01*
X92114Y222643D01*
X92515Y223338D01*
X92666Y223902D01*
X88740D01*
X84814D01*
X84965Y223338D01*
X84398Y222011D01*
X84337Y221990D01*
X83810Y222067D01*
X82357Y223520D01*
X82591Y224394D01*
Y225409D01*
X82329Y226388D01*
X81822Y227266D01*
X81105Y227983D01*
X80227Y228490D01*
X79247Y228753D01*
X78233D01*
X77254Y228490D01*
X76376Y227983D01*
X75659Y227266D01*
X75151Y226388D01*
X74889Y225409D01*
Y224394D01*
X75151Y223415D01*
X75659Y222537D01*
X76376Y221820D01*
X77254Y221313D01*
X78233Y221050D01*
X79247D01*
X80122Y221285D01*
X82642Y218764D01*
X83155Y218422D01*
X83760Y218302D01*
X84741D01*
X85025Y217959D01*
X85343Y217120D01*
X84965Y216465D01*
X84814Y215902D01*
X88740D01*
X92666D01*
X92515Y216465D01*
X92137Y217120D01*
X92455Y217959D01*
X92740Y218302D01*
X113519D01*
X117514Y214306D01*
Y171260D01*
X117634Y170655D01*
X117977Y170142D01*
X123883Y164237D01*
X124395Y163894D01*
X125000Y163774D01*
X172133D01*
Y162684D01*
X176070D01*
X177079Y162684D01*
X178144Y162403D01*
Y160446D01*
X177153D01*
X177153Y156232D01*
X176953Y155134D01*
X176953Y154991D01*
Y153756D01*
X179724D01*
X182496D01*
Y154991D01*
X182496Y155134D01*
X182296Y156232D01*
X182296Y156315D01*
Y160446D01*
X181305D01*
Y162684D01*
X182198D01*
Y163774D01*
X183944D01*
Y162684D01*
X187881D01*
X188891Y162684D01*
X189955Y162403D01*
Y160446D01*
X188964D01*
X188964Y156232D01*
X188764Y155134D01*
X188764Y154991D01*
Y153756D01*
X191535D01*
X194307D01*
Y154991D01*
X194307Y155134D01*
X194107Y156232D01*
X194107Y156315D01*
Y160446D01*
X193116D01*
Y162684D01*
X194009D01*
Y164137D01*
X319882D01*
X320348Y164230D01*
X320742Y164494D01*
X325664Y169415D01*
X325928Y169810D01*
X326020Y170276D01*
Y210126D01*
X330551Y214657D01*
X347819D01*
X348501Y213476D01*
X348413Y213324D01*
X348293Y212874D01*
X351913D01*
X356407D01*
X356710Y213049D01*
X356730Y213029D01*
X357541Y212561D01*
X358445Y212318D01*
X359382D01*
X360286Y212561D01*
X361097Y213029D01*
X361759Y213691D01*
X362227Y214502D01*
X362469Y215406D01*
Y216342D01*
X362227Y217247D01*
X361759Y218057D01*
X361097Y218720D01*
X360353Y219149D01*
X360301Y219414D01*
X360357Y220288D01*
X360382Y220385D01*
X361220Y220869D01*
X361919Y221568D01*
X362413Y222424D01*
X362534Y222874D01*
X358913D01*
Y224874D01*
X362534D01*
X362413Y225324D01*
X361919Y226180D01*
X361220Y226880D01*
X360382Y227363D01*
X360357Y227460D01*
X360301Y228334D01*
X360353Y228599D01*
X361097Y229029D01*
X361759Y229691D01*
X362227Y230502D01*
X362469Y231406D01*
Y232342D01*
X362227Y233247D01*
X361759Y234057D01*
X361097Y234719D01*
X360373Y235137D01*
X360345Y235245D01*
X360936Y236318D01*
X362469D01*
Y243430D01*
X355358D01*
Y241091D01*
X320669D01*
X317162Y244599D01*
Y255906D01*
X317069Y256371D01*
X316806Y256766D01*
X312869Y260703D01*
X312474Y260967D01*
X312008Y261059D01*
X253064D01*
Y262512D01*
X249127D01*
X248117Y262512D01*
D02*
G37*
G36*
X16559Y264118D02*
X13633D01*
X13784Y263554D01*
X14317Y262631D01*
X15072Y261876D01*
X15995Y261343D01*
X16559Y261192D01*
Y264118D01*
D02*
G37*
G36*
X79247Y268753D02*
X78233D01*
X77254Y268490D01*
X76376Y267983D01*
X75659Y267266D01*
X75151Y266388D01*
X74889Y265409D01*
Y264394D01*
X75151Y263415D01*
X75659Y262537D01*
X76376Y261820D01*
X77254Y261313D01*
X78233Y261050D01*
X79247D01*
X80227Y261313D01*
X81105Y261820D01*
X81822Y262537D01*
X82329Y263415D01*
X82591Y264394D01*
Y265409D01*
X82329Y266388D01*
X81822Y267266D01*
X81105Y267983D01*
X80227Y268490D01*
X79247Y268753D01*
D02*
G37*
G36*
X92666Y263901D02*
X89740D01*
Y260975D01*
X90304Y261126D01*
X91228Y261660D01*
X91982Y262414D01*
X92515Y263338D01*
X92666Y263901D01*
D02*
G37*
G36*
X87740D02*
X84814D01*
X84965Y263338D01*
X85498Y262414D01*
X86253Y261660D01*
X87177Y261126D01*
X87740Y260975D01*
Y263901D01*
D02*
G37*
G36*
X356413Y263532D02*
Y258874D01*
X361072D01*
X360748Y260084D01*
X359994Y261389D01*
X358928Y262455D01*
X357623Y263208D01*
X356413Y263532D01*
D02*
G37*
G36*
X354413Y263532D02*
X353204Y263208D01*
X351899Y262455D01*
X350833Y261389D01*
X350079Y260084D01*
X349755Y258874D01*
X354413D01*
Y263532D01*
D02*
G37*
G36*
X18559Y259044D02*
Y256118D01*
X21485D01*
X21334Y256682D01*
X20801Y257606D01*
X20046Y258360D01*
X19123Y258893D01*
X18559Y259044D01*
D02*
G37*
G36*
X16559D02*
X15995Y258893D01*
X15072Y258360D01*
X14317Y257606D01*
X13784Y256682D01*
X13633Y256118D01*
X16559D01*
Y259044D01*
D02*
G37*
G36*
X89740Y258828D02*
Y255902D01*
X92666D01*
X92515Y256465D01*
X91982Y257389D01*
X91228Y258143D01*
X90304Y258677D01*
X89740Y258828D01*
D02*
G37*
G36*
X87740Y258828D02*
X87177Y258677D01*
X86253Y258143D01*
X85498Y257389D01*
X84965Y256465D01*
X84814Y255902D01*
X87740D01*
Y258828D01*
D02*
G37*
G36*
X361072Y256874D02*
X356413D01*
Y252216D01*
X357623Y252540D01*
X358928Y253293D01*
X359994Y254359D01*
X360748Y255664D01*
X361072Y256874D01*
D02*
G37*
G36*
X354413D02*
X349755D01*
X350079Y255664D01*
X350833Y254359D01*
X351899Y253293D01*
X353204Y252540D01*
X354413Y252216D01*
Y256874D01*
D02*
G37*
G36*
X21485Y254118D02*
X18559D01*
Y251192D01*
X19123Y251343D01*
X20046Y251876D01*
X20801Y252631D01*
X21334Y253554D01*
X21485Y254118D01*
D02*
G37*
G36*
X16559D02*
X13633D01*
X13784Y253554D01*
X14317Y252631D01*
X15072Y251876D01*
X15995Y251343D01*
X16559Y251192D01*
Y254118D01*
D02*
G37*
G36*
X18559Y249044D02*
Y246118D01*
X21485D01*
X21334Y246682D01*
X20801Y247606D01*
X20046Y248360D01*
X19123Y248893D01*
X18559Y249044D01*
D02*
G37*
G36*
X16559D02*
X15995Y248893D01*
X15072Y248360D01*
X14317Y247606D01*
X13784Y246682D01*
X13633Y246118D01*
X16559D01*
Y249044D01*
D02*
G37*
G36*
X253362Y246244D02*
X251591D01*
Y244866D01*
X253362D01*
Y246244D01*
D02*
G37*
G36*
X249591D02*
X247819D01*
Y244866D01*
X249591D01*
Y246244D01*
D02*
G37*
G36*
X241551D02*
X239779D01*
Y244866D01*
X241551D01*
Y246244D01*
D02*
G37*
G36*
X237779D02*
X236008D01*
Y244866D01*
X237779D01*
Y246244D01*
D02*
G37*
G36*
X369622Y258072D02*
X368204D01*
X366814Y257795D01*
X365504Y257253D01*
X364325Y256465D01*
X363323Y255462D01*
X362535Y254283D01*
X361992Y252974D01*
X361716Y251583D01*
Y250165D01*
X361992Y248775D01*
X362535Y247465D01*
X363323Y246286D01*
X364325Y245283D01*
X365504Y244496D01*
X366814Y243953D01*
X368204Y243676D01*
X369622D01*
X371013Y243953D01*
X372323Y244496D01*
X373502Y245283D01*
X374504Y246286D01*
X375292Y247465D01*
X375834Y248775D01*
X376111Y250165D01*
Y251583D01*
X375834Y252974D01*
X375292Y254283D01*
X374504Y255462D01*
X373502Y256465D01*
X372323Y257253D01*
X371013Y257795D01*
X369622Y258072D01*
D02*
G37*
G36*
X28066Y248969D02*
X27052D01*
X26073Y248707D01*
X25194Y248200D01*
X24477Y247483D01*
X23970Y246605D01*
X23708Y245625D01*
Y244611D01*
X23970Y243632D01*
X24477Y242753D01*
X25194Y242036D01*
X26073Y241529D01*
X27052Y241267D01*
X28066D01*
X29046Y241529D01*
X29924Y242036D01*
X30641Y242753D01*
X31148Y243632D01*
X31410Y244611D01*
Y245625D01*
X31148Y246605D01*
X30641Y247483D01*
X29924Y248200D01*
X29046Y248707D01*
X28066Y248969D01*
D02*
G37*
G36*
X21485Y244118D02*
X18559D01*
Y241192D01*
X19123Y241343D01*
X20046Y241876D01*
X20801Y242631D01*
X21334Y243554D01*
X21485Y244118D01*
D02*
G37*
G36*
X16559D02*
X13633D01*
X13784Y243554D01*
X14317Y242631D01*
X15072Y241876D01*
X15995Y241343D01*
X16559Y241192D01*
Y244118D01*
D02*
G37*
G36*
X18559Y239044D02*
Y236118D01*
X21485D01*
X21334Y236682D01*
X20801Y237606D01*
X20046Y238360D01*
X19123Y238893D01*
X18559Y239044D01*
D02*
G37*
G36*
X16559D02*
X15995Y238893D01*
X15072Y238360D01*
X14317Y237606D01*
X13784Y236682D01*
X13633Y236118D01*
X16559D01*
Y239044D01*
D02*
G37*
G36*
X28066Y238969D02*
X27052D01*
X26073Y238707D01*
X25194Y238200D01*
X24477Y237483D01*
X23970Y236605D01*
X23708Y235625D01*
Y234611D01*
X23970Y233632D01*
X24477Y232753D01*
X25194Y232036D01*
X26073Y231529D01*
X27052Y231267D01*
X28066D01*
X29046Y231529D01*
X29924Y232036D01*
X30641Y232753D01*
X31148Y233632D01*
X31410Y234611D01*
Y235625D01*
X31148Y236605D01*
X30641Y237483D01*
X29924Y238200D01*
X29046Y238707D01*
X28066Y238969D01*
D02*
G37*
G36*
X21485Y234118D02*
X18559D01*
Y231192D01*
X19123Y231343D01*
X20046Y231876D01*
X20801Y232631D01*
X21334Y233554D01*
X21485Y234118D01*
D02*
G37*
G36*
X16559D02*
X13633D01*
X13784Y233554D01*
X14317Y232631D01*
X15072Y231876D01*
X15995Y231343D01*
X16559Y231192D01*
Y234118D01*
D02*
G37*
G36*
X18559Y229044D02*
Y226118D01*
X21485D01*
X21334Y226682D01*
X20801Y227606D01*
X20046Y228360D01*
X19123Y228893D01*
X18559Y229044D01*
D02*
G37*
G36*
X16559D02*
X15995Y228893D01*
X15072Y228360D01*
X14317Y227606D01*
X13784Y226682D01*
X13633Y226118D01*
X16559D01*
Y229044D01*
D02*
G37*
G36*
X28066Y228969D02*
X27052D01*
X26073Y228707D01*
X25194Y228200D01*
X24477Y227483D01*
X23970Y226605D01*
X23708Y225625D01*
Y224611D01*
X23970Y223632D01*
X24477Y222753D01*
X25194Y222036D01*
X26073Y221529D01*
X27052Y221267D01*
X28066D01*
X29046Y221529D01*
X29924Y222036D01*
X30641Y222753D01*
X31148Y223632D01*
X31410Y224611D01*
Y225625D01*
X31148Y226605D01*
X30641Y227483D01*
X29924Y228200D01*
X29046Y228707D01*
X28066Y228969D01*
D02*
G37*
G36*
X21485Y224118D02*
X18559D01*
Y221192D01*
X19123Y221343D01*
X20046Y221876D01*
X20801Y222631D01*
X21334Y223554D01*
X21485Y224118D01*
D02*
G37*
G36*
X16559D02*
X13633D01*
X13784Y223554D01*
X14317Y222631D01*
X15072Y221876D01*
X15995Y221343D01*
X16559Y221192D01*
Y224118D01*
D02*
G37*
G36*
X18559Y219044D02*
Y216118D01*
X21485D01*
X21334Y216682D01*
X20801Y217606D01*
X20046Y218360D01*
X19123Y218893D01*
X18559Y219044D01*
D02*
G37*
G36*
X16559D02*
X15995Y218893D01*
X15072Y218360D01*
X14317Y217606D01*
X13784Y216682D01*
X13633Y216118D01*
X16559D01*
Y219044D01*
D02*
G37*
G36*
X194307Y214748D02*
X192535D01*
Y213370D01*
X194307D01*
Y214748D01*
D02*
G37*
G36*
X190535D02*
X188764D01*
Y213370D01*
X190535D01*
Y214748D01*
D02*
G37*
G36*
X182496D02*
X180724D01*
Y213370D01*
X182496D01*
Y214748D01*
D02*
G37*
G36*
X178724D02*
X176953D01*
Y213370D01*
X178724D01*
Y214748D01*
D02*
G37*
G36*
X28066Y218969D02*
X27052D01*
X26073Y218707D01*
X25194Y218200D01*
X24477Y217483D01*
X23970Y216605D01*
X23708Y215625D01*
Y214611D01*
X23970Y213632D01*
X24477Y212753D01*
X25194Y212036D01*
X26073Y211529D01*
X27052Y211267D01*
X28066D01*
X29046Y211529D01*
X29924Y212036D01*
X30641Y212753D01*
X31148Y213632D01*
X31410Y214611D01*
Y215625D01*
X31148Y216605D01*
X30641Y217483D01*
X29924Y218200D01*
X29046Y218707D01*
X28066Y218969D01*
D02*
G37*
G36*
X21485Y214118D02*
X18559D01*
Y211192D01*
X19123Y211343D01*
X20046Y211876D01*
X20801Y212631D01*
X21334Y213554D01*
X21485Y214118D01*
D02*
G37*
G36*
X16559D02*
X13633D01*
X13784Y213554D01*
X14317Y212631D01*
X15072Y211876D01*
X15995Y211343D01*
X16559Y211192D01*
Y214118D01*
D02*
G37*
G36*
X355534Y210874D02*
X352913D01*
Y208254D01*
X353363Y208374D01*
X354220Y208869D01*
X354919Y209568D01*
X355413Y210424D01*
X355534Y210874D01*
D02*
G37*
G36*
X350913D02*
X348293D01*
X348413Y210424D01*
X348908Y209568D01*
X349607Y208869D01*
X350464Y208374D01*
X350913Y208254D01*
Y210874D01*
D02*
G37*
G36*
X18559Y209044D02*
Y206118D01*
X21485D01*
X21334Y206682D01*
X20801Y207606D01*
X20046Y208360D01*
X19123Y208893D01*
X18559Y209044D01*
D02*
G37*
G36*
X16559D02*
X15995Y208893D01*
X15072Y208360D01*
X14317Y207606D01*
X13784Y206682D01*
X13633Y206118D01*
X16559D01*
Y209044D01*
D02*
G37*
G36*
X28066Y208969D02*
X27052D01*
X26073Y208707D01*
X25194Y208200D01*
X24477Y207483D01*
X23970Y206605D01*
X23708Y205625D01*
Y204611D01*
X23970Y203632D01*
X24477Y202753D01*
X25194Y202036D01*
X26073Y201529D01*
X27052Y201267D01*
X28066D01*
X29046Y201529D01*
X29924Y202036D01*
X30641Y202753D01*
X31148Y203632D01*
X31410Y204611D01*
Y205625D01*
X31148Y206605D01*
X30641Y207483D01*
X29924Y208200D01*
X29046Y208707D01*
X28066Y208969D01*
D02*
G37*
G36*
X21485Y204118D02*
X18559D01*
Y201192D01*
X19123Y201343D01*
X20046Y201876D01*
X20801Y202631D01*
X21334Y203554D01*
X21485Y204118D01*
D02*
G37*
G36*
X16559D02*
X13633D01*
X13784Y203554D01*
X14317Y202631D01*
X15072Y201876D01*
X15995Y201343D01*
X16559Y201192D01*
Y204118D01*
D02*
G37*
G36*
X18559Y199044D02*
Y196118D01*
X21485D01*
X21334Y196682D01*
X20801Y197606D01*
X20046Y198360D01*
X19123Y198893D01*
X18559Y199044D01*
D02*
G37*
G36*
X16559D02*
X15995Y198893D01*
X15072Y198360D01*
X14317Y197606D01*
X13784Y196682D01*
X13633Y196118D01*
X16559D01*
Y199044D01*
D02*
G37*
G36*
X21485Y194118D02*
X18559D01*
Y191192D01*
X19123Y191343D01*
X20046Y191876D01*
X20801Y192631D01*
X21334Y193554D01*
X21485Y194118D01*
D02*
G37*
G36*
X16559D02*
X13633D01*
X13784Y193554D01*
X14317Y192631D01*
X15072Y191876D01*
X15995Y191343D01*
X16559Y191192D01*
Y194118D01*
D02*
G37*
G36*
X79247Y198753D02*
X78233D01*
X77254Y198490D01*
X76376Y197983D01*
X75659Y197266D01*
X75151Y196388D01*
X74889Y195409D01*
Y194395D01*
X75151Y193415D01*
X75659Y192537D01*
X76376Y191820D01*
X77254Y191313D01*
X78233Y191050D01*
X79247D01*
X80227Y191313D01*
X81105Y191820D01*
X81822Y192537D01*
X82329Y193415D01*
X82591Y194395D01*
Y195409D01*
X82329Y196388D01*
X81822Y197266D01*
X81105Y197983D01*
X80227Y198490D01*
X79247Y198753D01*
D02*
G37*
G36*
X92666Y193902D02*
X89740D01*
Y190975D01*
X90304Y191127D01*
X91228Y191660D01*
X91982Y192414D01*
X92515Y193338D01*
X92666Y193902D01*
D02*
G37*
G36*
X87740D02*
X84814D01*
X84965Y193338D01*
X85498Y192414D01*
X86253Y191660D01*
X87177Y191127D01*
X87740Y190975D01*
Y193902D01*
D02*
G37*
G36*
X18559Y189044D02*
Y186118D01*
X21485D01*
X21334Y186682D01*
X20801Y187606D01*
X20046Y188360D01*
X19123Y188893D01*
X18559Y189044D01*
D02*
G37*
G36*
X16559D02*
X15995Y188893D01*
X15072Y188360D01*
X14317Y187606D01*
X13784Y186682D01*
X13633Y186118D01*
X16559D01*
Y189044D01*
D02*
G37*
G36*
X89740Y188828D02*
Y185902D01*
X92666D01*
X92515Y186465D01*
X91982Y187389D01*
X91228Y188143D01*
X90304Y188677D01*
X89740Y188828D01*
D02*
G37*
G36*
X87740D02*
X87177Y188677D01*
X86253Y188143D01*
X85498Y187389D01*
X84965Y186465D01*
X84814Y185902D01*
X87740D01*
Y188828D01*
D02*
G37*
G36*
X253362Y183252D02*
X251591D01*
Y181874D01*
X253362D01*
Y183252D01*
D02*
G37*
G36*
X249591D02*
X247819D01*
Y181874D01*
X249591D01*
Y183252D01*
D02*
G37*
G36*
X241551D02*
X239779D01*
Y181874D01*
X241551D01*
Y183252D01*
D02*
G37*
G36*
X237779D02*
X236008D01*
Y181874D01*
X237779D01*
Y183252D01*
D02*
G37*
G36*
X21485Y184118D02*
X18559D01*
Y181192D01*
X19123Y181343D01*
X20046Y181876D01*
X20801Y182631D01*
X21334Y183554D01*
X21485Y184118D01*
D02*
G37*
G36*
X16559D02*
X13633D01*
X13784Y183554D01*
X14317Y182631D01*
X15072Y181876D01*
X15995Y181343D01*
X16559Y181192D01*
Y184118D01*
D02*
G37*
G36*
X79247Y188753D02*
X78233D01*
X77254Y188490D01*
X76376Y187983D01*
X75659Y187266D01*
X75151Y186388D01*
X74889Y185409D01*
Y184395D01*
X75151Y183415D01*
X75659Y182537D01*
X76376Y181820D01*
X77254Y181313D01*
X78233Y181050D01*
X79247D01*
X80227Y181313D01*
X81105Y181820D01*
X81822Y182537D01*
X82329Y183415D01*
X82591Y184395D01*
Y185409D01*
X82329Y186388D01*
X81822Y187266D01*
X81105Y187983D01*
X80227Y188490D01*
X79247Y188753D01*
D02*
G37*
G36*
X92666Y183902D02*
X89740D01*
Y180975D01*
X90304Y181126D01*
X91228Y181660D01*
X91982Y182414D01*
X92515Y183338D01*
X92666Y183902D01*
D02*
G37*
G36*
X87740D02*
X84814D01*
X84965Y183338D01*
X85498Y182414D01*
X86253Y181660D01*
X87177Y181126D01*
X87740Y180975D01*
Y183902D01*
D02*
G37*
G36*
X18559Y179044D02*
Y176118D01*
X21485D01*
X21334Y176682D01*
X20801Y177606D01*
X20046Y178360D01*
X19123Y178893D01*
X18559Y179044D01*
D02*
G37*
G36*
X16559D02*
X15995Y178893D01*
X15072Y178360D01*
X14317Y177606D01*
X13784Y176682D01*
X13633Y176118D01*
X16559D01*
Y179044D01*
D02*
G37*
G36*
X89740Y178828D02*
Y175902D01*
X92666D01*
X92515Y176465D01*
X91982Y177389D01*
X91228Y178143D01*
X90304Y178677D01*
X89740Y178828D01*
D02*
G37*
G36*
X87740D02*
X87177Y178677D01*
X86253Y178143D01*
X85498Y177389D01*
X84965Y176465D01*
X84814Y175902D01*
X87740D01*
Y178828D01*
D02*
G37*
G36*
X28066Y178969D02*
X27052D01*
X26073Y178707D01*
X25194Y178200D01*
X24477Y177483D01*
X23970Y176605D01*
X23708Y175625D01*
Y174611D01*
X23970Y173632D01*
X24477Y172753D01*
X25194Y172036D01*
X26073Y171529D01*
X27052Y171267D01*
X28066D01*
X29046Y171529D01*
X29924Y172036D01*
X30641Y172753D01*
X31148Y173632D01*
X31410Y174611D01*
Y175625D01*
X31148Y176605D01*
X30641Y177483D01*
X29924Y178200D01*
X29046Y178707D01*
X28066Y178969D01*
D02*
G37*
G36*
X21485Y174118D02*
X18559D01*
Y171192D01*
X19123Y171343D01*
X20046Y171876D01*
X20801Y172631D01*
X21334Y173554D01*
X21485Y174118D01*
D02*
G37*
G36*
X16559D02*
X13633D01*
X13784Y173554D01*
X14317Y172631D01*
X15072Y171876D01*
X15995Y171343D01*
X16559Y171192D01*
Y174118D01*
D02*
G37*
G36*
X79247Y178753D02*
X78233D01*
X77254Y178490D01*
X76376Y177983D01*
X75659Y177266D01*
X75151Y176388D01*
X74889Y175409D01*
Y174395D01*
X75151Y173415D01*
X75659Y172537D01*
X76376Y171820D01*
X77254Y171313D01*
X78233Y171050D01*
X79247D01*
X80227Y171313D01*
X81105Y171820D01*
X81822Y172537D01*
X82329Y173415D01*
X82591Y174395D01*
Y175409D01*
X82329Y176388D01*
X81822Y177266D01*
X81105Y177983D01*
X80227Y178490D01*
X79247Y178753D01*
D02*
G37*
G36*
X92666Y173902D02*
X89740D01*
Y170975D01*
X90304Y171126D01*
X91228Y171660D01*
X91982Y172414D01*
X92515Y173338D01*
X92666Y173902D01*
D02*
G37*
G36*
X87740D02*
X84814D01*
X84965Y173338D01*
X85498Y172414D01*
X86253Y171660D01*
X87177Y171126D01*
X87740Y170975D01*
Y173902D01*
D02*
G37*
G36*
X18559Y169044D02*
Y166118D01*
X21485D01*
X21334Y166682D01*
X20801Y167606D01*
X20046Y168360D01*
X19123Y168893D01*
X18559Y169044D01*
D02*
G37*
G36*
X16559D02*
X15995Y168893D01*
X15072Y168360D01*
X14317Y167606D01*
X13784Y166682D01*
X13633Y166118D01*
X16559D01*
Y169044D01*
D02*
G37*
G36*
X89740Y168828D02*
Y165902D01*
X92666D01*
X92515Y166465D01*
X91982Y167389D01*
X91228Y168143D01*
X90304Y168677D01*
X89740Y168828D01*
D02*
G37*
G36*
X87740D02*
X87177Y168677D01*
X86253Y168143D01*
X85498Y167389D01*
X84965Y166465D01*
X84814Y165902D01*
X87740D01*
Y168828D01*
D02*
G37*
G36*
X21485Y164118D02*
X18559D01*
Y161192D01*
X19123Y161343D01*
X20046Y161876D01*
X20801Y162631D01*
X21334Y163554D01*
X21485Y164118D01*
D02*
G37*
G36*
X16559D02*
X13633D01*
X13784Y163554D01*
X14317Y162631D01*
X15072Y161876D01*
X15995Y161343D01*
X16559Y161192D01*
Y164118D01*
D02*
G37*
G36*
X79247Y168753D02*
X78233D01*
X77254Y168490D01*
X76376Y167983D01*
X75659Y167266D01*
X75151Y166388D01*
X74889Y165409D01*
Y164395D01*
X75151Y163415D01*
X75659Y162537D01*
X76376Y161820D01*
X77254Y161313D01*
X78233Y161050D01*
X79247D01*
X80227Y161313D01*
X81105Y161820D01*
X81822Y162537D01*
X82329Y163415D01*
X82591Y164395D01*
Y165409D01*
X82329Y166388D01*
X81822Y167266D01*
X81105Y167983D01*
X80227Y168490D01*
X79247Y168753D01*
D02*
G37*
G36*
X92666Y163902D02*
X89740D01*
Y160975D01*
X90304Y161126D01*
X91228Y161660D01*
X91982Y162414D01*
X92515Y163338D01*
X92666Y163902D01*
D02*
G37*
G36*
X87740D02*
X84814D01*
X84965Y163338D01*
X85498Y162414D01*
X86253Y161660D01*
X87177Y161126D01*
X87740Y160975D01*
Y163902D01*
D02*
G37*
G36*
X18559Y159044D02*
Y156118D01*
X21485D01*
X21334Y156682D01*
X20801Y157606D01*
X20046Y158360D01*
X19123Y158893D01*
X18559Y159044D01*
D02*
G37*
G36*
X16559D02*
X15995Y158893D01*
X15072Y158360D01*
X14317Y157606D01*
X13784Y156682D01*
X13633Y156118D01*
X16559D01*
Y159044D01*
D02*
G37*
G36*
X89740Y158828D02*
Y155902D01*
X92666D01*
X92515Y156465D01*
X91982Y157389D01*
X91228Y158143D01*
X90304Y158677D01*
X89740Y158828D01*
D02*
G37*
G36*
X87740D02*
X87177Y158677D01*
X86253Y158143D01*
X85498Y157389D01*
X84965Y156465D01*
X84814Y155902D01*
X87740D01*
Y158828D01*
D02*
G37*
G36*
X21485Y154118D02*
X18559D01*
Y151192D01*
X19123Y151343D01*
X20046Y151876D01*
X20801Y152631D01*
X21334Y153554D01*
X21485Y154118D01*
D02*
G37*
G36*
X16559D02*
X13633D01*
X13784Y153554D01*
X14317Y152631D01*
X15072Y151876D01*
X15995Y151343D01*
X16559Y151192D01*
Y154118D01*
D02*
G37*
G36*
X79247Y158753D02*
X78233D01*
X77254Y158490D01*
X76376Y157983D01*
X75659Y157266D01*
X75151Y156388D01*
X74889Y155409D01*
Y154395D01*
X75151Y153415D01*
X75659Y152537D01*
X76376Y151820D01*
X77254Y151313D01*
X78233Y151050D01*
X79247D01*
X80227Y151313D01*
X81105Y151820D01*
X81822Y152537D01*
X82329Y153415D01*
X82591Y154395D01*
Y155409D01*
X82329Y156388D01*
X81822Y157266D01*
X81105Y157983D01*
X80227Y158490D01*
X79247Y158753D01*
D02*
G37*
G36*
X92666Y153902D02*
X89740D01*
Y150975D01*
X90304Y151127D01*
X91228Y151660D01*
X91982Y152414D01*
X92515Y153338D01*
X92666Y153902D01*
D02*
G37*
G36*
X87740D02*
X84814D01*
X84965Y153338D01*
X85498Y152414D01*
X86253Y151660D01*
X87177Y151127D01*
X87740Y150975D01*
Y153902D01*
D02*
G37*
G36*
X194307Y151756D02*
X192535D01*
Y150378D01*
X194307D01*
Y151756D01*
D02*
G37*
G36*
X190535D02*
X188764D01*
Y150378D01*
X190535D01*
Y151756D01*
D02*
G37*
G36*
X182496D02*
X180724D01*
Y150378D01*
X182496D01*
Y151756D01*
D02*
G37*
G36*
X178724D02*
X176953D01*
Y150378D01*
X178724D01*
Y151756D01*
D02*
G37*
G36*
X355534Y148874D02*
X352913D01*
Y146254D01*
X353363Y146374D01*
X354220Y146869D01*
X354919Y147568D01*
X355413Y148424D01*
X355534Y148874D01*
D02*
G37*
G36*
X350913D02*
X348293D01*
X348413Y148424D01*
X348908Y147568D01*
X349607Y146869D01*
X350464Y146374D01*
X350913Y146254D01*
Y148874D01*
D02*
G37*
G36*
X18559Y149044D02*
Y146118D01*
X21485D01*
X21334Y146682D01*
X20801Y147606D01*
X20046Y148360D01*
X19123Y148893D01*
X18559Y149044D01*
D02*
G37*
G36*
X16559D02*
X15995Y148893D01*
X15072Y148360D01*
X14317Y147606D01*
X13784Y146682D01*
X13633Y146118D01*
X16559D01*
Y149044D01*
D02*
G37*
G36*
X89740Y148828D02*
Y145902D01*
X92666D01*
X92515Y146465D01*
X91982Y147389D01*
X91228Y148143D01*
X90304Y148677D01*
X89740Y148828D01*
D02*
G37*
G36*
X87740D02*
X87177Y148677D01*
X86253Y148143D01*
X85498Y147389D01*
X84965Y146465D01*
X84814Y145902D01*
X87740D01*
Y148828D01*
D02*
G37*
G36*
X21485Y144118D02*
X18559D01*
Y141192D01*
X19123Y141343D01*
X20046Y141876D01*
X20801Y142631D01*
X21334Y143554D01*
X21485Y144118D01*
D02*
G37*
G36*
X16559D02*
X13633D01*
X13784Y143554D01*
X14317Y142631D01*
X15072Y141876D01*
X15995Y141343D01*
X16559Y141192D01*
Y144118D01*
D02*
G37*
G36*
X79247Y148753D02*
X78233D01*
X77254Y148490D01*
X76376Y147983D01*
X75659Y147266D01*
X75151Y146388D01*
X74889Y145409D01*
Y144395D01*
X75151Y143415D01*
X75659Y142537D01*
X76376Y141820D01*
X77254Y141313D01*
X78233Y141050D01*
X79247D01*
X80227Y141313D01*
X81105Y141820D01*
X81822Y142537D01*
X82329Y143415D01*
X82591Y144395D01*
Y145409D01*
X82329Y146388D01*
X81822Y147266D01*
X81105Y147983D01*
X80227Y148490D01*
X79247Y148753D01*
D02*
G37*
G36*
X92666Y143902D02*
X89740D01*
Y140975D01*
X90304Y141127D01*
X91228Y141660D01*
X91982Y142414D01*
X92515Y143338D01*
X92666Y143902D01*
D02*
G37*
G36*
X87740D02*
X84814D01*
X84965Y143338D01*
X85498Y142414D01*
X86253Y141660D01*
X87177Y141127D01*
X87740Y140975D01*
Y143902D01*
D02*
G37*
G36*
X18559Y139044D02*
Y136118D01*
X21485D01*
X21334Y136682D01*
X20801Y137606D01*
X20046Y138360D01*
X19123Y138893D01*
X18559Y139044D01*
D02*
G37*
G36*
X16559D02*
X15995Y138893D01*
X15072Y138360D01*
X14317Y137606D01*
X13784Y136682D01*
X13633Y136118D01*
X16559D01*
Y139044D01*
D02*
G37*
G36*
X89740Y138828D02*
Y135902D01*
X92666D01*
X92515Y136465D01*
X91982Y137389D01*
X91228Y138143D01*
X90304Y138677D01*
X89740Y138828D01*
D02*
G37*
G36*
X87740D02*
X87177Y138677D01*
X86253Y138143D01*
X85498Y137389D01*
X84965Y136465D01*
X84814Y135902D01*
X87740D01*
Y138828D01*
D02*
G37*
G36*
X356413Y137532D02*
Y132874D01*
X361072D01*
X360748Y134084D01*
X359994Y135389D01*
X358928Y136455D01*
X357623Y137208D01*
X356413Y137532D01*
D02*
G37*
G36*
X354413Y137532D02*
X353204Y137208D01*
X351899Y136455D01*
X350833Y135389D01*
X350079Y134084D01*
X349755Y132874D01*
X354413D01*
Y137532D01*
D02*
G37*
G36*
X369622Y146072D02*
X368204D01*
X366814Y145795D01*
X365504Y145253D01*
X364325Y144465D01*
X363323Y143462D01*
X362535Y142283D01*
X361992Y140973D01*
X361716Y139583D01*
Y138165D01*
X361992Y136775D01*
X362535Y135465D01*
X363323Y134286D01*
X364325Y133283D01*
X365504Y132496D01*
X366814Y131953D01*
X368204Y131676D01*
X369622D01*
X371013Y131953D01*
X372323Y132496D01*
X373502Y133283D01*
X374504Y134286D01*
X375292Y135465D01*
X375834Y136775D01*
X376111Y138165D01*
Y139583D01*
X375834Y140973D01*
X375292Y142283D01*
X374504Y143462D01*
X373502Y144465D01*
X372323Y145253D01*
X371013Y145795D01*
X369622Y146072D01*
D02*
G37*
G36*
X21485Y134118D02*
X18559D01*
Y131192D01*
X19123Y131343D01*
X20046Y131876D01*
X20801Y132631D01*
X21334Y133554D01*
X21485Y134118D01*
D02*
G37*
G36*
X16559D02*
X13633D01*
X13784Y133554D01*
X14317Y132631D01*
X15072Y131876D01*
X15995Y131343D01*
X16559Y131192D01*
Y134118D01*
D02*
G37*
G36*
X79247Y138753D02*
X78233D01*
X77254Y138490D01*
X76376Y137983D01*
X75659Y137266D01*
X75151Y136388D01*
X74889Y135409D01*
Y134395D01*
X75151Y133415D01*
X75659Y132537D01*
X76376Y131820D01*
X77254Y131313D01*
X78233Y131050D01*
X79247D01*
X80227Y131313D01*
X81105Y131820D01*
X81822Y132537D01*
X82329Y133415D01*
X82591Y134395D01*
Y135409D01*
X82329Y136388D01*
X81822Y137266D01*
X81105Y137983D01*
X80227Y138490D01*
X79247Y138753D01*
D02*
G37*
G36*
X92666Y133902D02*
X89740D01*
Y130975D01*
X90304Y131126D01*
X91228Y131660D01*
X91982Y132414D01*
X92515Y133338D01*
X92666Y133902D01*
D02*
G37*
G36*
X87740D02*
X84814D01*
X84965Y133338D01*
X85498Y132414D01*
X86253Y131660D01*
X87177Y131126D01*
X87740Y130975D01*
Y133902D01*
D02*
G37*
G36*
X361072Y130874D02*
X356413D01*
Y126216D01*
X357623Y126540D01*
X358928Y127293D01*
X359994Y128359D01*
X360748Y129665D01*
X361072Y130874D01*
D02*
G37*
G36*
X354413D02*
X349755D01*
X350079Y129665D01*
X350833Y128359D01*
X351899Y127293D01*
X353204Y126540D01*
X354413Y126216D01*
Y130874D01*
D02*
G37*
G36*
X18559Y129044D02*
Y126118D01*
X21485D01*
X21334Y126682D01*
X20801Y127606D01*
X20046Y128360D01*
X19123Y128893D01*
X18559Y129044D01*
D02*
G37*
G36*
X16559D02*
X15995Y128893D01*
X15072Y128360D01*
X14317Y127606D01*
X13784Y126682D01*
X13633Y126118D01*
X16559D01*
Y129044D01*
D02*
G37*
G36*
X89740Y128828D02*
Y125902D01*
X92666D01*
X92515Y126465D01*
X91982Y127389D01*
X91228Y128143D01*
X90304Y128677D01*
X89740Y128828D01*
D02*
G37*
G36*
X87740D02*
X87177Y128677D01*
X86253Y128143D01*
X85498Y127389D01*
X84965Y126465D01*
X84814Y125902D01*
X87740D01*
Y128828D01*
D02*
G37*
G36*
X28066Y128969D02*
X27052D01*
X26073Y128707D01*
X25194Y128200D01*
X24477Y127483D01*
X23970Y126605D01*
X23708Y125625D01*
Y124611D01*
X23970Y123632D01*
X24477Y122753D01*
X25194Y122036D01*
X26073Y121529D01*
X27052Y121267D01*
X28066D01*
X29046Y121529D01*
X29924Y122036D01*
X30641Y122753D01*
X31148Y123632D01*
X31410Y124611D01*
Y125625D01*
X31148Y126605D01*
X30641Y127483D01*
X29924Y128200D01*
X29046Y128707D01*
X28066Y128969D01*
D02*
G37*
G36*
X21485Y124118D02*
X18559D01*
Y121192D01*
X19123Y121343D01*
X20046Y121876D01*
X20801Y122631D01*
X21334Y123554D01*
X21485Y124118D01*
D02*
G37*
G36*
X16559D02*
X13633D01*
X13784Y123554D01*
X14317Y122631D01*
X15072Y121876D01*
X15995Y121343D01*
X16559Y121192D01*
Y124118D01*
D02*
G37*
G36*
X79247Y128753D02*
X78233D01*
X77254Y128490D01*
X76376Y127983D01*
X75659Y127266D01*
X75151Y126388D01*
X74889Y125409D01*
Y124395D01*
X75151Y123415D01*
X75659Y122537D01*
X76376Y121820D01*
X77254Y121313D01*
X78233Y121050D01*
X79247D01*
X80227Y121313D01*
X81105Y121820D01*
X81822Y122537D01*
X82329Y123415D01*
X82591Y124395D01*
Y125409D01*
X82329Y126388D01*
X81822Y127266D01*
X81105Y127983D01*
X80227Y128490D01*
X79247Y128753D01*
D02*
G37*
G36*
X92666Y123902D02*
X89740D01*
Y120975D01*
X90304Y121126D01*
X91228Y121660D01*
X91982Y122414D01*
X92515Y123338D01*
X92666Y123902D01*
D02*
G37*
G36*
X87740D02*
X84814D01*
X84965Y123338D01*
X85498Y122414D01*
X86253Y121660D01*
X87177Y121126D01*
X87740Y120975D01*
Y123902D01*
D02*
G37*
G36*
X253362Y122228D02*
X251591D01*
Y120850D01*
X253362D01*
Y122228D01*
D02*
G37*
G36*
X249591D02*
X247819D01*
Y120850D01*
X249591D01*
Y122228D01*
D02*
G37*
G36*
X241551D02*
X239779D01*
Y120850D01*
X241551D01*
Y122228D01*
D02*
G37*
G36*
X237779D02*
X236008D01*
Y120850D01*
X237779D01*
Y122228D01*
D02*
G37*
G36*
X79247Y218753D02*
X78233D01*
X77254Y218490D01*
X76376Y217983D01*
X75659Y217266D01*
X75151Y216388D01*
X74889Y215409D01*
Y214394D01*
X75151Y213415D01*
X75659Y212537D01*
X76376Y211820D01*
X77254Y211313D01*
X78233Y211050D01*
X79247D01*
X80122Y211285D01*
X82583Y208823D01*
X83096Y208481D01*
X83701Y208361D01*
X84800D01*
X85129Y207902D01*
X85377Y207179D01*
X84965Y206465D01*
X84814Y205902D01*
X88740D01*
X92666D01*
X92515Y206465D01*
X92103Y207179D01*
X92351Y207902D01*
X92681Y208361D01*
X105349D01*
X108656Y205054D01*
Y141732D01*
X108776Y141128D01*
X109119Y140615D01*
X115024Y134709D01*
X115537Y134367D01*
X116142Y134246D01*
X231188D01*
Y133157D01*
X235125D01*
X236135Y133157D01*
X237199Y132875D01*
Y130918D01*
X236208D01*
X236208Y126705D01*
X236008Y125606D01*
X236008Y125464D01*
Y124228D01*
X238779D01*
X241551D01*
Y125464D01*
X241551Y125606D01*
X241351Y126705D01*
X241351Y126787D01*
Y130918D01*
X240360D01*
Y133157D01*
X241253D01*
Y134246D01*
X242999D01*
Y133157D01*
X246936D01*
X247946Y133157D01*
X249010Y132875D01*
Y130918D01*
X248019D01*
X248019Y126705D01*
X247819Y125606D01*
X247819Y125464D01*
Y124228D01*
X250591D01*
X253362D01*
Y125464D01*
X253362Y125606D01*
X253162Y126705D01*
X253162Y126787D01*
Y130918D01*
X252171D01*
Y133157D01*
X253064D01*
Y134610D01*
X331693D01*
X332159Y134702D01*
X332554Y134966D01*
X336491Y138903D01*
X336754Y139298D01*
X336847Y139764D01*
Y173708D01*
X339795Y176657D01*
X347819D01*
X348501Y175476D01*
X348413Y175324D01*
X348293Y174874D01*
X351913D01*
Y172874D01*
X348293D01*
X348413Y172424D01*
X348501Y172272D01*
X347819Y171091D01*
X347039D01*
X346574Y170999D01*
X346179Y170735D01*
X342643Y167199D01*
X342379Y166804D01*
X342287Y166339D01*
Y109756D01*
X338078Y105548D01*
X194009D01*
Y107001D01*
X190072D01*
X189062Y107001D01*
X187881Y107001D01*
X183944D01*
Y105911D01*
X182198D01*
Y107001D01*
X178261D01*
X177251Y107001D01*
X176070Y107001D01*
X172133D01*
Y105911D01*
X107938D01*
X102958Y110891D01*
Y195866D01*
X102838Y196471D01*
X102495Y196984D01*
X98460Y201019D01*
X97947Y201362D01*
X97342Y201482D01*
X92720D01*
X92421Y201860D01*
X92126Y202663D01*
X92515Y203338D01*
X92666Y203902D01*
X88740D01*
X84814D01*
X84965Y203338D01*
X84371Y202042D01*
X84247Y202002D01*
X83796Y202081D01*
X82357Y203520D01*
X82591Y204395D01*
Y205409D01*
X82329Y206388D01*
X81822Y207266D01*
X81105Y207983D01*
X80227Y208490D01*
X79247Y208753D01*
X78233D01*
X77254Y208490D01*
X76376Y207983D01*
X75659Y207266D01*
X75151Y206388D01*
X74889Y205409D01*
Y204395D01*
X75151Y203415D01*
X75659Y202537D01*
X76376Y201820D01*
X77254Y201313D01*
X78233Y201050D01*
X79247D01*
X80122Y201285D01*
X82623Y198784D01*
X83135Y198442D01*
X83740Y198321D01*
X84760D01*
X85060Y197943D01*
X85355Y197140D01*
X84965Y196465D01*
X84814Y195902D01*
X88740D01*
X92666D01*
X92515Y196465D01*
X92126Y197140D01*
X92421Y197943D01*
X92720Y198321D01*
X96688D01*
X99798Y195212D01*
Y110236D01*
X99918Y109631D01*
X100260Y109119D01*
X106166Y103213D01*
X106679Y102871D01*
X107283Y102750D01*
X172133D01*
Y101661D01*
X176070D01*
X177079Y101661D01*
X178144Y101379D01*
Y99422D01*
X177153D01*
X177153Y95208D01*
X176953Y94110D01*
X176953Y93968D01*
Y92732D01*
X179724D01*
X182496D01*
Y93968D01*
X182496Y94110D01*
X182296Y95208D01*
X182296Y95291D01*
Y99422D01*
X181305D01*
Y101661D01*
X182198D01*
Y102750D01*
X183944D01*
Y101661D01*
X187881D01*
X188891Y101661D01*
X189955Y101379D01*
Y99422D01*
X188964D01*
X188964Y95208D01*
X188764Y94110D01*
X188764Y93968D01*
Y92732D01*
X191535D01*
X194307D01*
Y93968D01*
X194307Y94110D01*
X194107Y95208D01*
X194107Y95291D01*
Y99422D01*
X193116D01*
Y101661D01*
X194009D01*
Y103113D01*
X338583D01*
X339048Y103206D01*
X339443Y103470D01*
X344365Y108391D01*
X344628Y108786D01*
X344721Y109252D01*
Y165834D01*
X347023Y168137D01*
X347706Y168061D01*
X347956Y167833D01*
X348496Y166858D01*
X348358Y166342D01*
Y165406D01*
X348600Y164502D01*
X349068Y163691D01*
X349730Y163029D01*
X350473Y162599D01*
X350526Y162334D01*
X350469Y161460D01*
X350445Y161363D01*
X349607Y160880D01*
X348908Y160180D01*
X348413Y159324D01*
X348293Y158874D01*
X351913D01*
Y156874D01*
X348293D01*
X348413Y156424D01*
X348908Y155568D01*
X349607Y154869D01*
X350200Y154526D01*
X350322Y153994D01*
Y153754D01*
X350200Y153222D01*
X349607Y152880D01*
X348908Y152180D01*
X348413Y151324D01*
X348293Y150874D01*
X351913D01*
X356407D01*
X356710Y151049D01*
X356730Y151029D01*
X357541Y150560D01*
X358445Y150318D01*
X359382D01*
X360286Y150560D01*
X361097Y151029D01*
X361759Y151691D01*
X362227Y152501D01*
X362469Y153406D01*
Y154342D01*
X362227Y155247D01*
X361759Y156057D01*
X361097Y156720D01*
X360353Y157149D01*
X360301Y157414D01*
X360357Y158288D01*
X360382Y158385D01*
X361220Y158869D01*
X361919Y159568D01*
X362413Y160424D01*
X362534Y160874D01*
X358913D01*
Y162874D01*
X362534D01*
X362413Y163324D01*
X361919Y164180D01*
X361220Y164880D01*
X360382Y165363D01*
X360357Y165460D01*
X360301Y166334D01*
X360353Y166599D01*
X361097Y167029D01*
X361759Y167691D01*
X362227Y168501D01*
X362469Y169406D01*
Y170342D01*
X362227Y171247D01*
X361759Y172057D01*
X361097Y172720D01*
X360373Y173137D01*
X360345Y173245D01*
X360936Y174318D01*
X362469D01*
Y181430D01*
X355358D01*
Y179091D01*
X339291D01*
X338826Y178998D01*
X338431Y178735D01*
X334769Y175073D01*
X334506Y174678D01*
X334413Y174213D01*
Y140268D01*
X331189Y137044D01*
X253064D01*
Y138497D01*
X249127D01*
X248117Y138497D01*
X246936Y138497D01*
X242999D01*
Y137407D01*
X241253D01*
Y138497D01*
X237316D01*
X236306Y138497D01*
X235125Y138497D01*
X231188D01*
Y137407D01*
X116796D01*
X111817Y142387D01*
Y205709D01*
X111696Y206313D01*
X111354Y206826D01*
X107121Y211058D01*
X106609Y211401D01*
X106004Y211521D01*
X92760D01*
X92489Y211831D01*
X92148Y212702D01*
X92515Y213338D01*
X92666Y213902D01*
X88740D01*
X84814D01*
X84965Y213338D01*
X84323Y212101D01*
X84092Y212036D01*
X83767Y212109D01*
X82357Y213520D01*
X82591Y214394D01*
Y215409D01*
X82329Y216388D01*
X81822Y217266D01*
X81105Y217983D01*
X80227Y218490D01*
X79247Y218753D01*
D02*
G37*
G36*
X194307Y90732D02*
X192535D01*
Y89354D01*
X194307D01*
Y90732D01*
D02*
G37*
G36*
X190535D02*
X188764D01*
Y89354D01*
X190535D01*
Y90732D01*
D02*
G37*
G36*
X182496D02*
X180724D01*
Y89354D01*
X182496D01*
Y90732D01*
D02*
G37*
G36*
X178724D02*
X176953D01*
Y89354D01*
X178724D01*
Y90732D01*
D02*
G37*
G36*
X19783Y34811D02*
X17417Y34625D01*
X15109Y34071D01*
X12916Y33163D01*
X10892Y31922D01*
X9088Y30381D01*
X7546Y28576D01*
X6306Y26552D01*
X5398Y24359D01*
X4843Y22051D01*
X4657Y19685D01*
X4843Y17319D01*
X5398Y15011D01*
X6306Y12818D01*
X7546Y10794D01*
X9088Y8989D01*
X10892Y7448D01*
X12916Y6208D01*
X15109Y5299D01*
X17417Y4745D01*
X19783Y4559D01*
X22150Y4745D01*
X24458Y5299D01*
X26651Y6208D01*
X28674Y7448D01*
X30479Y8989D01*
X32021Y10794D01*
X33261Y12818D01*
X34169Y15011D01*
X34723Y17319D01*
X34910Y19685D01*
X34723Y22051D01*
X34169Y24359D01*
X33261Y26552D01*
X32021Y28576D01*
X30479Y30381D01*
X28674Y31922D01*
X26651Y33163D01*
X24458Y34071D01*
X22150Y34625D01*
X19783Y34811D01*
D02*
G37*
G36*
X373721Y34418D02*
X371354Y34231D01*
X369046Y33677D01*
X366853Y32769D01*
X364829Y31529D01*
X363025Y29987D01*
X361483Y28182D01*
X360243Y26158D01*
X359335Y23966D01*
X358781Y21658D01*
X358594Y19291D01*
X358781Y16925D01*
X359335Y14617D01*
X360243Y12424D01*
X361483Y10400D01*
X363025Y8596D01*
X364829Y7054D01*
X366853Y5814D01*
X369046Y4905D01*
X371354Y4351D01*
X373721Y4165D01*
X376087Y4351D01*
X378395Y4905D01*
X380588Y5814D01*
X382611Y7054D01*
X384416Y8596D01*
X385958Y10400D01*
X387198Y12424D01*
X388106Y14617D01*
X388660Y16925D01*
X388847Y19291D01*
X388660Y21658D01*
X388106Y23966D01*
X387198Y26158D01*
X385958Y28182D01*
X384416Y29987D01*
X382611Y31529D01*
X380588Y32769D01*
X378395Y33677D01*
X376087Y34231D01*
X373721Y34418D01*
D02*
G37*
%LPD*%
G36*
X345669Y356693D02*
Y316634D01*
X336549Y306136D01*
X325596Y306156D01*
Y333550D01*
X326686D01*
Y338318D01*
X326686Y338497D01*
X326686Y338847D01*
Y343615D01*
X325596D01*
Y356563D01*
X325773Y356598D01*
X326428Y357036D01*
X326866Y357692D01*
X327020Y358465D01*
X326866Y359238D01*
X326428Y359893D01*
X325773Y360331D01*
X325000Y360485D01*
X323031D01*
X322258Y360331D01*
X321603Y359893D01*
X321165Y359238D01*
X321012Y358465D01*
X321165Y357692D01*
X321603Y357036D01*
X322258Y356598D01*
X322435Y356563D01*
Y343615D01*
X321346D01*
Y338847D01*
X321346Y338668D01*
X321346Y338318D01*
Y333550D01*
X322435D01*
Y306410D01*
X322188Y306162D01*
X278352Y306244D01*
Y333550D01*
X279442D01*
Y338318D01*
X279442Y338497D01*
X279442Y338847D01*
Y343615D01*
X278352D01*
Y356563D01*
X278529Y356598D01*
X279184Y357036D01*
X279622Y357692D01*
X279776Y358465D01*
X279622Y359238D01*
X279184Y359893D01*
X278529Y360331D01*
X277756Y360485D01*
X275787D01*
X275014Y360331D01*
X274359Y359893D01*
X273921Y359238D01*
X273767Y358465D01*
X273921Y357692D01*
X274359Y357036D01*
X275014Y356598D01*
X275191Y356563D01*
Y343615D01*
X274102D01*
Y338847D01*
X274102Y338668D01*
X274102Y338318D01*
Y333550D01*
X275191D01*
Y306498D01*
X274944Y306250D01*
X243643Y306309D01*
X231108Y306332D01*
Y333550D01*
X232198D01*
Y338318D01*
X232198Y338497D01*
X232198Y338847D01*
Y343615D01*
X231108D01*
Y356563D01*
X231285Y356598D01*
X231940Y357036D01*
X232378Y357692D01*
X232532Y358465D01*
X232378Y359238D01*
X231940Y359893D01*
X231285Y360331D01*
X230512Y360485D01*
X228543D01*
X227770Y360331D01*
X227115Y359893D01*
X226677Y359238D01*
X226523Y358465D01*
X226677Y357692D01*
X227115Y357036D01*
X227770Y356598D01*
X227947Y356563D01*
Y343615D01*
X226857D01*
Y338847D01*
X226857Y338668D01*
X226857Y338318D01*
Y333550D01*
X227947D01*
Y306586D01*
X227699Y306338D01*
X207589Y306376D01*
X183864Y306420D01*
Y333550D01*
X184953D01*
Y338318D01*
X184953Y338497D01*
X184953Y338847D01*
Y343615D01*
X183864D01*
Y356563D01*
X184041Y356598D01*
X184696Y357036D01*
X185134Y357692D01*
X185288Y358465D01*
X185134Y359238D01*
X184696Y359893D01*
X184041Y360331D01*
X183268Y360485D01*
X181299D01*
X180526Y360331D01*
X179871Y359893D01*
X179433Y359238D01*
X179279Y358465D01*
X179433Y357692D01*
X179871Y357036D01*
X180526Y356598D01*
X180703Y356563D01*
Y343615D01*
X179613D01*
Y338847D01*
X179613Y338668D01*
X179613Y338318D01*
Y333550D01*
X180703D01*
Y306674D01*
X180455Y306426D01*
X136771Y306508D01*
X136620Y306693D01*
Y333550D01*
X137709D01*
Y338318D01*
X137709Y338497D01*
X137709Y338847D01*
Y343615D01*
X136620D01*
Y356563D01*
X136797Y356598D01*
X137452Y357036D01*
X137890Y357692D01*
X138043Y358465D01*
X137890Y359238D01*
X137452Y359893D01*
X136797Y360331D01*
X136024Y360485D01*
X134055D01*
X133282Y360331D01*
X132627Y359893D01*
X132189Y359238D01*
X132035Y358465D01*
X132189Y357692D01*
X132627Y357036D01*
X133282Y356598D01*
X133459Y356563D01*
Y343615D01*
X132369D01*
Y338847D01*
X132369Y338668D01*
X132369Y338318D01*
Y333550D01*
X133459D01*
Y307347D01*
X132627Y306516D01*
X106044Y306565D01*
X87245Y306600D01*
X87111Y306924D01*
X88913Y308725D01*
X89255Y309238D01*
X89376Y309842D01*
Y333550D01*
X90465D01*
Y338318D01*
X90465Y338497D01*
X90465Y338847D01*
Y343615D01*
X89376D01*
Y356563D01*
X89552Y356598D01*
X90208Y357036D01*
X90646Y357692D01*
X90799Y358465D01*
X90646Y359238D01*
X90208Y359893D01*
X89552Y360331D01*
X88779Y360485D01*
X86811D01*
X86038Y360331D01*
X85383Y359893D01*
X84945Y359238D01*
X84791Y358465D01*
X84945Y357692D01*
X85383Y357036D01*
X86038Y356598D01*
X86215Y356563D01*
Y343615D01*
X85125D01*
Y338847D01*
X85125Y338668D01*
X85125Y338318D01*
Y333550D01*
X86215D01*
Y310497D01*
X82416Y306698D01*
X53150D01*
X52976Y306664D01*
X37402Y306693D01*
X35433Y304724D01*
X33858Y266142D01*
X30709Y260630D01*
X24409D01*
X22835Y262992D01*
X22047Y266142D01*
X22835Y302362D01*
Y318196D01*
X24736D01*
X24914Y318196D01*
X25264Y318196D01*
X25979D01*
Y316084D01*
X24889D01*
Y311165D01*
X24689D01*
Y309492D01*
X30429D01*
Y311165D01*
X30229D01*
Y316084D01*
X29139D01*
Y318196D01*
X30032D01*
Y323536D01*
X25264D01*
X25086Y323536D01*
X24736Y323536D01*
X22835D01*
Y335433D01*
X52264Y364862D01*
X85152D01*
X85383Y364517D01*
X86038Y364079D01*
X86811Y363925D01*
X88779D01*
X89552Y364079D01*
X90208Y364517D01*
X90439Y364862D01*
X132396D01*
X132627Y364517D01*
X133282Y364079D01*
X134055Y363925D01*
X136024D01*
X136797Y364079D01*
X137452Y364517D01*
X137683Y364862D01*
X179640D01*
X179871Y364517D01*
X180526Y364079D01*
X181299Y363925D01*
X183268D01*
X184041Y364079D01*
X184696Y364517D01*
X184927Y364862D01*
X226884D01*
X227115Y364517D01*
X227770Y364079D01*
X228543Y363925D01*
X230512D01*
X231285Y364079D01*
X231940Y364517D01*
X232171Y364862D01*
X274128D01*
X274359Y364517D01*
X275014Y364079D01*
X275787Y363925D01*
X277756D01*
X278529Y364079D01*
X279184Y364517D01*
X279415Y364862D01*
X321372D01*
X321603Y364517D01*
X322258Y364079D01*
X323031Y363925D01*
X325000D01*
X325773Y364079D01*
X326428Y364517D01*
X326659Y364862D01*
X336549D01*
X345669Y356693D01*
D02*
G37*
G36*
X86798Y305937D02*
X86931Y305847D01*
X86932Y305847D01*
X86932Y305847D01*
X87088Y305816D01*
X87243Y305784D01*
X106042Y305749D01*
X130273Y305704D01*
X130724Y304613D01*
X128873Y302762D01*
X84460D01*
X84101Y303943D01*
X84188Y304001D01*
X85633Y305446D01*
X86608Y305992D01*
X86668Y306024D01*
X86798Y305937D01*
D02*
G37*
G36*
X136576Y305731D02*
X136691Y305696D01*
X136731Y305700D01*
X136770Y305692D01*
X180454Y305611D01*
X180520Y305307D01*
X180703Y304456D01*
Y303411D01*
X176117Y298825D01*
X130917D01*
X130558Y300006D01*
X130645Y300064D01*
X136157Y305575D01*
X136458Y305755D01*
X136576Y305731D01*
D02*
G37*
G36*
X207588Y305560D02*
X227698Y305523D01*
X227765Y305213D01*
X227947Y304368D01*
Y298686D01*
X224149Y294887D01*
X178161D01*
X177802Y296069D01*
X177889Y296127D01*
X183401Y301638D01*
X183744Y302151D01*
X183864Y302756D01*
Y304768D01*
X184700Y305603D01*
X207588Y305560D01*
D02*
G37*
G36*
X243642Y305493D02*
X274942Y305435D01*
X275008Y305131D01*
X275191Y304280D01*
Y295536D01*
X270605Y290950D01*
X226192D01*
X225834Y292132D01*
X225921Y292190D01*
X230645Y296914D01*
X230988Y297427D01*
X231108Y298031D01*
Y304680D01*
X231944Y305515D01*
X243642Y305493D01*
D02*
G37*
G36*
X322186Y305347D02*
X322252Y305043D01*
X322435Y304192D01*
Y290812D01*
X318637Y287013D01*
X272649D01*
X272290Y288194D01*
X272377Y288253D01*
X277889Y293764D01*
X278232Y294277D01*
X278352Y294882D01*
Y304592D01*
X279188Y305427D01*
X322186Y305347D01*
D02*
G37*
%LPC*%
G36*
X314764Y364225D02*
X312795D01*
X312022Y364071D01*
X311367Y363633D01*
X310929Y362978D01*
X310775Y362205D01*
X310929Y361432D01*
X311367Y360776D01*
X312022Y360339D01*
X312199Y360303D01*
Y351981D01*
X311405D01*
Y347232D01*
X316154D01*
Y351981D01*
X315360D01*
Y360303D01*
X315537Y360339D01*
X316192Y360776D01*
X316630Y361432D01*
X316784Y362205D01*
X316630Y362978D01*
X316192Y363633D01*
X315537Y364071D01*
X314764Y364225D01*
D02*
G37*
G36*
X267520D02*
X265551D01*
X264778Y364071D01*
X264123Y363633D01*
X263685Y362978D01*
X263531Y362205D01*
X263685Y361432D01*
X264123Y360776D01*
X264778Y360339D01*
X264955Y360303D01*
Y351981D01*
X264161D01*
Y347232D01*
X268910D01*
Y351981D01*
X268116D01*
Y360303D01*
X268293Y360339D01*
X268948Y360776D01*
X269386Y361432D01*
X269540Y362205D01*
X269386Y362978D01*
X268948Y363633D01*
X268293Y364071D01*
X267520Y364225D01*
D02*
G37*
G36*
X220276D02*
X218307D01*
X217534Y364071D01*
X216879Y363633D01*
X216441Y362978D01*
X216287Y362205D01*
X216441Y361432D01*
X216879Y360776D01*
X217534Y360339D01*
X217711Y360303D01*
Y351981D01*
X216916D01*
Y347232D01*
X221666D01*
Y351981D01*
X220872D01*
Y360303D01*
X221049Y360339D01*
X221704Y360776D01*
X222142Y361432D01*
X222295Y362205D01*
X222142Y362978D01*
X221704Y363633D01*
X221049Y364071D01*
X220276Y364225D01*
D02*
G37*
G36*
X173031D02*
X171063D01*
X170290Y364071D01*
X169635Y363633D01*
X169197Y362978D01*
X169043Y362205D01*
X169197Y361432D01*
X169635Y360776D01*
X170290Y360339D01*
X170467Y360303D01*
Y351981D01*
X169672D01*
Y347232D01*
X174422D01*
Y351981D01*
X173628D01*
Y360303D01*
X173804Y360339D01*
X174460Y360776D01*
X174898Y361432D01*
X175051Y362205D01*
X174898Y362978D01*
X174460Y363633D01*
X173804Y364071D01*
X173031Y364225D01*
D02*
G37*
G36*
X125787D02*
X123819D01*
X123046Y364071D01*
X122391Y363633D01*
X121953Y362978D01*
X121799Y362205D01*
X121953Y361432D01*
X122391Y360776D01*
X123046Y360339D01*
X123223Y360303D01*
Y351981D01*
X122428D01*
Y347232D01*
X127178D01*
Y351981D01*
X126383D01*
Y360303D01*
X126560Y360339D01*
X127216Y360776D01*
X127654Y361432D01*
X127807Y362205D01*
X127654Y362978D01*
X127216Y363633D01*
X126560Y364071D01*
X125787Y364225D01*
D02*
G37*
G36*
X78543Y364225D02*
X76575D01*
X75802Y364071D01*
X75147Y363633D01*
X74709Y362978D01*
X74555Y362205D01*
X74709Y361432D01*
X75147Y360776D01*
X75802Y360339D01*
X75979Y360303D01*
Y351981D01*
X75184D01*
Y347232D01*
X79934D01*
Y351981D01*
X79139D01*
Y360303D01*
X79316Y360339D01*
X79972Y360776D01*
X80409Y361432D01*
X80563Y362205D01*
X80409Y362978D01*
X79972Y363633D01*
X79316Y364071D01*
X78543Y364225D01*
D02*
G37*
G36*
X316154Y345682D02*
X311405D01*
Y340932D01*
X312199D01*
Y335741D01*
X311109D01*
Y330973D01*
X311109Y330795D01*
X311109Y330445D01*
Y325676D01*
X312199D01*
Y321961D01*
X311109D01*
Y317043D01*
X310910D01*
Y315370D01*
X316650D01*
Y317043D01*
X316450D01*
Y321961D01*
X315360D01*
Y325676D01*
X316450D01*
Y330445D01*
X316450Y330623D01*
X316450Y330973D01*
Y335741D01*
X315360D01*
Y340932D01*
X316154D01*
Y345682D01*
D02*
G37*
G36*
X268910D02*
X264161D01*
Y340932D01*
X264955D01*
Y335741D01*
X263865D01*
Y330973D01*
X263865Y330795D01*
X263865Y330445D01*
Y325676D01*
X264955D01*
Y321961D01*
X263865D01*
Y317043D01*
X263665D01*
Y315370D01*
X269406D01*
Y317043D01*
X269205D01*
Y321961D01*
X268116D01*
Y325676D01*
X269205D01*
Y330445D01*
X269205Y330623D01*
X269205Y330973D01*
Y335741D01*
X268116D01*
Y340932D01*
X268910D01*
Y345682D01*
D02*
G37*
G36*
X221666D02*
X216916D01*
Y340932D01*
X217711D01*
Y335741D01*
X216621D01*
Y330973D01*
X216621Y330795D01*
X216621Y330445D01*
Y325676D01*
X217711D01*
Y321961D01*
X216621D01*
Y317043D01*
X216421D01*
Y315370D01*
X222161D01*
Y317043D01*
X221961D01*
Y321961D01*
X220872D01*
Y325676D01*
X221961D01*
Y330445D01*
X221961Y330623D01*
X221961Y330973D01*
Y335741D01*
X220872D01*
Y340932D01*
X221666D01*
Y345682D01*
D02*
G37*
G36*
X174422D02*
X169672D01*
Y340932D01*
X170467D01*
Y335741D01*
X169377D01*
Y330973D01*
X169377Y330795D01*
X169377Y330445D01*
Y325676D01*
X170467D01*
Y321961D01*
X169377D01*
Y317043D01*
X169177D01*
Y315370D01*
X174917D01*
Y317043D01*
X174717D01*
Y321961D01*
X173628D01*
Y325676D01*
X174717D01*
Y330445D01*
X174717Y330623D01*
X174717Y330973D01*
Y335741D01*
X173628D01*
Y340932D01*
X174422D01*
Y345682D01*
D02*
G37*
G36*
X127178D02*
X122428D01*
Y340932D01*
X123223D01*
Y335741D01*
X122133D01*
Y330973D01*
X122133Y330795D01*
X122133Y330445D01*
Y325676D01*
X123223D01*
Y321961D01*
X122133D01*
Y317043D01*
X121933D01*
Y315370D01*
X127673D01*
Y317043D01*
X127473D01*
Y321961D01*
X126383D01*
Y325676D01*
X127473D01*
Y330445D01*
X127473Y330623D01*
X127473Y330973D01*
Y335741D01*
X126383D01*
Y340932D01*
X127178D01*
Y345682D01*
D02*
G37*
G36*
X79934D02*
X75184D01*
Y340932D01*
X75979D01*
Y335741D01*
X74889D01*
Y330973D01*
X74889Y330795D01*
X74889Y330445D01*
Y325676D01*
X75979D01*
Y321961D01*
X74889D01*
Y317043D01*
X74689D01*
Y315370D01*
X80429D01*
Y317043D01*
X80229D01*
Y321961D01*
X79139D01*
Y325676D01*
X80229D01*
Y330445D01*
X80229Y330623D01*
X80229Y330973D01*
Y335741D01*
X79139D01*
Y340932D01*
X79934D01*
Y345682D01*
D02*
G37*
G36*
X316650Y313370D02*
X314779D01*
Y311697D01*
X316650D01*
Y313370D01*
D02*
G37*
G36*
X312779D02*
X310910D01*
Y311697D01*
X312779D01*
Y313370D01*
D02*
G37*
G36*
X269406D02*
X267535D01*
Y311697D01*
X269406D01*
Y313370D01*
D02*
G37*
G36*
X265535D02*
X263665D01*
Y311697D01*
X265535D01*
Y313370D01*
D02*
G37*
G36*
X222161D02*
X220291D01*
Y311697D01*
X222161D01*
Y313370D01*
D02*
G37*
G36*
X218291D02*
X216421D01*
Y311697D01*
X218291D01*
Y313370D01*
D02*
G37*
G36*
X174917D02*
X173047D01*
Y311697D01*
X174917D01*
Y313370D01*
D02*
G37*
G36*
X171047D02*
X169177D01*
Y311697D01*
X171047D01*
Y313370D01*
D02*
G37*
G36*
X127673D02*
X125803D01*
Y311697D01*
X127673D01*
Y313370D01*
D02*
G37*
G36*
X123803D02*
X121933D01*
Y311697D01*
X123803D01*
Y313370D01*
D02*
G37*
G36*
X80429D02*
X78559D01*
Y311697D01*
X80429D01*
Y313370D01*
D02*
G37*
G36*
X76559D02*
X74689D01*
Y311697D01*
X76559D01*
Y313370D01*
D02*
G37*
G36*
X30429Y307492D02*
X28559D01*
Y305819D01*
X30429D01*
Y307492D01*
D02*
G37*
G36*
X26559D02*
X24689D01*
Y305819D01*
X26559D01*
Y307492D01*
D02*
G37*
G36*
X28559Y269044D02*
Y266118D01*
X31485D01*
X31334Y266682D01*
X30801Y267606D01*
X30046Y268360D01*
X29123Y268893D01*
X28559Y269044D01*
D02*
G37*
G36*
X26559D02*
X25995Y268893D01*
X25072Y268360D01*
X24317Y267606D01*
X23784Y266682D01*
X23633Y266118D01*
X26559D01*
Y269044D01*
D02*
G37*
G36*
X31485Y264118D02*
X28559D01*
Y261192D01*
X29123Y261343D01*
X30046Y261876D01*
X30801Y262631D01*
X31334Y263554D01*
X31485Y264118D01*
D02*
G37*
G36*
X26559D02*
X23633D01*
X23784Y263554D01*
X24317Y262631D01*
X25072Y261876D01*
X25995Y261343D01*
X26559Y261192D01*
Y264118D01*
D02*
G37*
%LPD*%
G36*
X375671Y385936D02*
X377573Y385480D01*
X379381Y384731D01*
X381049Y383709D01*
X382537Y382438D01*
X383807Y380950D01*
X384829Y379282D01*
X385578Y377475D01*
X386035Y375572D01*
X386188Y373622D01*
X386035Y371672D01*
X385578Y369769D01*
X384829Y367962D01*
X383807Y366294D01*
X382537Y364806D01*
X381049Y363535D01*
X379381Y362513D01*
X377573Y361764D01*
X375671Y361308D01*
X373721Y361154D01*
X371770Y361308D01*
X369868Y361764D01*
X368060Y362513D01*
X366392Y363535D01*
X364904Y364806D01*
X363634Y366294D01*
X362611Y367962D01*
X361863Y369769D01*
X361406Y371672D01*
X361252Y373622D01*
X361406Y375572D01*
X361863Y377475D01*
X362611Y379282D01*
X363634Y380950D01*
X364904Y382438D01*
X366392Y383709D01*
X368060Y384731D01*
X369868Y385480D01*
X371770Y385936D01*
X373721Y386090D01*
X375671Y385936D01*
D02*
G37*
%LPC*%
G36*
X374515Y382509D02*
X372926D01*
X372847Y382493D01*
X372766D01*
X371207Y382183D01*
X371133Y382152D01*
X371054Y382136D01*
X369585Y381528D01*
X369519Y381483D01*
X369444Y381453D01*
X368122Y380569D01*
X368066Y380512D01*
X367999Y380468D01*
X366875Y379344D01*
X366830Y379277D01*
X366773Y379220D01*
X365890Y377898D01*
X365859Y377824D01*
X365815Y377757D01*
X365206Y376288D01*
X365191Y376210D01*
X365160Y376135D01*
X364850Y374576D01*
Y374496D01*
X364834Y374417D01*
Y373622D01*
Y372827D01*
X364850Y372748D01*
Y372668D01*
X365160Y371109D01*
X365191Y371035D01*
X365206Y370956D01*
X365815Y369487D01*
X365859Y369420D01*
X365890Y369346D01*
X366773Y368024D01*
X366830Y367967D01*
X366875Y367900D01*
X367999Y366776D01*
X368066Y366732D01*
X368122Y366675D01*
X369444Y365792D01*
X369518Y365761D01*
X369585Y365716D01*
X371054Y365108D01*
X371133Y365092D01*
X371207Y365061D01*
X372766Y364751D01*
X372847D01*
X372926Y364736D01*
X374515D01*
X374594Y364751D01*
X374675D01*
X376234Y365061D01*
X376308Y365092D01*
X376387Y365108D01*
X377856Y365716D01*
X377922Y365761D01*
X377997Y365792D01*
X379318Y366675D01*
X379375Y366732D01*
X379442Y366776D01*
X380566Y367900D01*
X380611Y367967D01*
X380668Y368024D01*
X381551Y369346D01*
X381582Y369420D01*
X381626Y369487D01*
X382235Y370956D01*
X382250Y371035D01*
X382281Y371109D01*
X382591Y372668D01*
Y372748D01*
X382607Y372827D01*
Y373622D01*
Y374417D01*
X382591Y374496D01*
Y374576D01*
X382281Y376135D01*
X382250Y376210D01*
X382235Y376288D01*
X381626Y377757D01*
X381582Y377824D01*
X381551Y377898D01*
X380668Y379220D01*
X380611Y379277D01*
X380566Y379344D01*
X379442Y380468D01*
X379375Y380512D01*
X379318Y380569D01*
X377997Y381453D01*
X377922Y381483D01*
X377856Y381528D01*
X376387Y382136D01*
X376308Y382152D01*
X376234Y382183D01*
X374675Y382493D01*
X374594D01*
X374515Y382509D01*
D02*
G37*
%LPD*%
G36*
X21340Y385936D02*
X23243Y385480D01*
X25050Y384731D01*
X26718Y383709D01*
X28206Y382438D01*
X29476Y380950D01*
X30499Y379282D01*
X31247Y377475D01*
X31704Y375572D01*
X31858Y373622D01*
X31704Y371672D01*
X31247Y369769D01*
X30499Y367962D01*
X29476Y366294D01*
X28206Y364806D01*
X26718Y363535D01*
X25050Y362513D01*
X23243Y361764D01*
X21340Y361308D01*
X19390Y361154D01*
X17439Y361308D01*
X15537Y361764D01*
X13729Y362513D01*
X12061Y363535D01*
X10574Y364806D01*
X9303Y366294D01*
X8281Y367962D01*
X7532Y369769D01*
X7075Y371672D01*
X6922Y373622D01*
X7075Y375572D01*
X7532Y377475D01*
X8281Y379282D01*
X9303Y380950D01*
X10574Y382438D01*
X12061Y383709D01*
X13729Y384731D01*
X15537Y385480D01*
X17439Y385936D01*
X19390Y386090D01*
X21340Y385936D01*
D02*
G37*
%LPC*%
G36*
X20185Y382509D02*
X18595D01*
X18516Y382493D01*
X18436D01*
X16876Y382183D01*
X16802Y382152D01*
X16723Y382136D01*
X15255Y381528D01*
X15188Y381483D01*
X15114Y381453D01*
X13792Y380569D01*
X13735Y380512D01*
X13668Y380468D01*
X12544Y379344D01*
X12499Y379277D01*
X12443Y379220D01*
X11559Y377898D01*
X11529Y377824D01*
X11484Y377757D01*
X10875Y376288D01*
X10860Y376210D01*
X10829Y376135D01*
X10519Y374576D01*
Y374496D01*
X10503Y374417D01*
Y373622D01*
Y372827D01*
X10519Y372748D01*
Y372668D01*
X10829Y371109D01*
X10860Y371035D01*
X10875Y370956D01*
X11484Y369487D01*
X11529Y369420D01*
X11559Y369346D01*
X12443Y368024D01*
X12499Y367967D01*
X12544Y367900D01*
X13668Y366776D01*
X13735Y366732D01*
X13792Y366675D01*
X15114Y365792D01*
X15188Y365761D01*
X15255Y365716D01*
X16723Y365108D01*
X16802Y365092D01*
X16876Y365061D01*
X18436Y364751D01*
X18516D01*
X18595Y364736D01*
X20185D01*
X20264Y364751D01*
X20344D01*
X21903Y365061D01*
X21977Y365092D01*
X22056Y365108D01*
X23525Y365716D01*
X23592Y365761D01*
X23666Y365792D01*
X24988Y366675D01*
X25045Y366732D01*
X25111Y366776D01*
X26236Y367900D01*
X26280Y367967D01*
X26337Y368024D01*
X27220Y369346D01*
X27251Y369420D01*
X27296Y369487D01*
X27904Y370956D01*
X27920Y371035D01*
X27951Y371109D01*
X28261Y372668D01*
Y372748D01*
X28276Y372827D01*
Y373622D01*
Y374417D01*
X28261Y374496D01*
Y374576D01*
X27951Y376135D01*
X27920Y376210D01*
X27904Y376288D01*
X27296Y377757D01*
X27251Y377824D01*
X27220Y377898D01*
X26337Y379220D01*
X26280Y379277D01*
X26236Y379344D01*
X25111Y380468D01*
X25045Y380512D01*
X24988Y380569D01*
X23666Y381453D01*
X23592Y381483D01*
X23525Y381528D01*
X22056Y382136D01*
X21977Y382152D01*
X21903Y382183D01*
X20344Y382493D01*
X20264D01*
X20185Y382509D01*
D02*
G37*
%LPD*%
G36*
X21734Y31999D02*
X23636Y31543D01*
X25444Y30794D01*
X27112Y29772D01*
X28600Y28501D01*
X29870Y27013D01*
X30893Y25345D01*
X31641Y23538D01*
X32098Y21635D01*
X32251Y19685D01*
X32098Y17735D01*
X31641Y15832D01*
X30893Y14025D01*
X29870Y12357D01*
X28600Y10869D01*
X27112Y9598D01*
X25444Y8576D01*
X23636Y7827D01*
X21734Y7371D01*
X19783Y7217D01*
X17833Y7371D01*
X15931Y7827D01*
X14123Y8576D01*
X12455Y9598D01*
X10967Y10869D01*
X9697Y12357D01*
X8674Y14025D01*
X7926Y15832D01*
X7469Y17735D01*
X7316Y19685D01*
X7469Y21635D01*
X7926Y23538D01*
X8674Y25345D01*
X9697Y27013D01*
X10967Y28501D01*
X12455Y29772D01*
X14123Y30794D01*
X15931Y31543D01*
X17833Y31999D01*
X19783Y32153D01*
X21734Y31999D01*
D02*
G37*
%LPC*%
G36*
X20578Y28572D02*
X18989D01*
X18910Y28556D01*
X18829D01*
X17270Y28246D01*
X17196Y28215D01*
X17117Y28199D01*
X15648Y27591D01*
X15582Y27546D01*
X15507Y27516D01*
X14185Y26632D01*
X14129Y26575D01*
X14062Y26531D01*
X12938Y25407D01*
X12893Y25340D01*
X12836Y25283D01*
X11953Y23961D01*
X11922Y23887D01*
X11878Y23820D01*
X11269Y22351D01*
X11253Y22273D01*
X11223Y22198D01*
X10913Y20639D01*
Y20559D01*
X10897Y20480D01*
Y19685D01*
Y18890D01*
X10913Y18811D01*
Y18731D01*
X11223Y17172D01*
X11253Y17097D01*
X11269Y17019D01*
X11878Y15550D01*
X11922Y15483D01*
X11953Y15409D01*
X12836Y14087D01*
X12893Y14030D01*
X12938Y13963D01*
X14062Y12839D01*
X14129Y12795D01*
X14185Y12738D01*
X15507Y11855D01*
X15582Y11824D01*
X15648Y11779D01*
X17117Y11171D01*
X17196Y11155D01*
X17270Y11124D01*
X18829Y10814D01*
X18910D01*
X18989Y10798D01*
X20578D01*
X20657Y10814D01*
X20738D01*
X22297Y11124D01*
X22371Y11155D01*
X22450Y11171D01*
X23919Y11779D01*
X23985Y11824D01*
X24060Y11855D01*
X25381Y12738D01*
X25438Y12795D01*
X25505Y12839D01*
X26629Y13963D01*
X26674Y14030D01*
X26731Y14087D01*
X27614Y15409D01*
X27645Y15483D01*
X27689Y15550D01*
X28298Y17019D01*
X28313Y17097D01*
X28344Y17172D01*
X28654Y18731D01*
Y18811D01*
X28670Y18890D01*
Y19685D01*
Y20480D01*
X28654Y20559D01*
Y20639D01*
X28344Y22198D01*
X28313Y22273D01*
X28298Y22351D01*
X27689Y23820D01*
X27645Y23887D01*
X27614Y23961D01*
X26731Y25283D01*
X26674Y25340D01*
X26629Y25407D01*
X25505Y26531D01*
X25438Y26575D01*
X25381Y26632D01*
X24060Y27516D01*
X23985Y27546D01*
X23919Y27591D01*
X22450Y28199D01*
X22371Y28215D01*
X22297Y28246D01*
X20738Y28556D01*
X20657D01*
X20578Y28572D01*
D02*
G37*
%LPD*%
G36*
X375671Y31606D02*
X377573Y31149D01*
X379381Y30400D01*
X381049Y29378D01*
X382537Y28108D01*
X383807Y26620D01*
X384829Y24952D01*
X385578Y23144D01*
X386035Y21242D01*
X386188Y19291D01*
X386035Y17341D01*
X385578Y15439D01*
X384829Y13631D01*
X383807Y11963D01*
X382537Y10475D01*
X381049Y9205D01*
X379381Y8182D01*
X377573Y7434D01*
X375671Y6977D01*
X373721Y6823D01*
X371770Y6977D01*
X369868Y7434D01*
X368060Y8182D01*
X366392Y9205D01*
X364904Y10475D01*
X363634Y11963D01*
X362611Y13631D01*
X361863Y15439D01*
X361406Y17341D01*
X361252Y19291D01*
X361406Y21242D01*
X361863Y23144D01*
X362611Y24952D01*
X363634Y26620D01*
X364904Y28108D01*
X366392Y29378D01*
X368060Y30400D01*
X369868Y31149D01*
X371770Y31606D01*
X373721Y31759D01*
X375671Y31606D01*
D02*
G37*
%LPC*%
G36*
X374515Y28178D02*
X372926D01*
X372847Y28162D01*
X372766D01*
X371207Y27852D01*
X371133Y27821D01*
X371054Y27806D01*
X369585Y27197D01*
X369519Y27153D01*
X369444Y27122D01*
X368122Y26239D01*
X368066Y26182D01*
X367999Y26137D01*
X366875Y25013D01*
X366830Y24946D01*
X366773Y24889D01*
X365890Y23568D01*
X365859Y23493D01*
X365815Y23426D01*
X365206Y21958D01*
X365191Y21879D01*
X365160Y21805D01*
X364850Y20245D01*
Y20165D01*
X364834Y20086D01*
Y19291D01*
Y18496D01*
X364850Y18418D01*
Y18337D01*
X365160Y16778D01*
X365191Y16704D01*
X365206Y16625D01*
X365815Y15156D01*
X365859Y15089D01*
X365890Y15015D01*
X366773Y13693D01*
X366830Y13636D01*
X366875Y13570D01*
X367999Y12445D01*
X368066Y12401D01*
X368122Y12344D01*
X369444Y11461D01*
X369518Y11430D01*
X369585Y11385D01*
X371054Y10777D01*
X371133Y10761D01*
X371207Y10731D01*
X372766Y10420D01*
X372847D01*
X372926Y10405D01*
X374515D01*
X374594Y10420D01*
X374675D01*
X376234Y10731D01*
X376308Y10761D01*
X376387Y10777D01*
X377856Y11385D01*
X377922Y11430D01*
X377997Y11461D01*
X379318Y12344D01*
X379375Y12401D01*
X379442Y12445D01*
X380566Y13570D01*
X380611Y13636D01*
X380668Y13693D01*
X381551Y15015D01*
X381582Y15089D01*
X381626Y15156D01*
X382235Y16625D01*
X382250Y16704D01*
X382281Y16778D01*
X382591Y18337D01*
Y18418D01*
X382607Y18496D01*
Y19291D01*
Y20086D01*
X382591Y20165D01*
Y20245D01*
X382281Y21805D01*
X382250Y21879D01*
X382235Y21958D01*
X381626Y23426D01*
X381582Y23493D01*
X381551Y23568D01*
X380668Y24889D01*
X380611Y24946D01*
X380566Y25013D01*
X379442Y26137D01*
X379375Y26182D01*
X379318Y26239D01*
X377997Y27122D01*
X377922Y27153D01*
X377856Y27197D01*
X376387Y27806D01*
X376308Y27821D01*
X376234Y27852D01*
X374675Y28162D01*
X374594D01*
X374515Y28178D01*
D02*
G37*
%LPD*%
D17*
X191535Y104331D02*
X338583D01*
X343504Y109252D01*
Y166339D01*
X347039Y169874D01*
X358913D01*
X250590Y135827D02*
X250591Y135827D01*
X331693D01*
X335630Y139764D01*
Y174213D01*
X339291Y177874D01*
X358913D01*
X191535Y165354D02*
X319882D01*
X324803Y170276D01*
Y210630D01*
X330047Y215874D01*
X358913D01*
X311023Y196850D02*
X314961Y200787D01*
Y223425D01*
X250590Y196850D02*
X311023D01*
X319409Y227874D02*
X351913D01*
X314961Y223425D02*
X319409Y227874D01*
X315945Y244094D02*
X320165Y239874D01*
X315945Y244094D02*
Y255906D01*
X320165Y239874D02*
X358913D01*
X250590Y259842D02*
X312008D01*
X315945Y255906D01*
X191535Y228346D02*
X249016D01*
X252543Y231874D01*
X358913D01*
D22*
X172047Y333268D02*
D03*
Y328150D02*
D03*
X124803Y333268D02*
D03*
Y328150D02*
D03*
X219291Y333268D02*
D03*
Y328150D02*
D03*
X266535Y333268D02*
D03*
Y328150D02*
D03*
X313779Y333268D02*
D03*
Y328150D02*
D03*
X77559Y333268D02*
D03*
Y328150D02*
D03*
X77559Y319488D02*
D03*
Y314370D02*
D03*
X219291D02*
D03*
X313779D02*
D03*
X124803D02*
D03*
X266535D02*
D03*
X172047D02*
D03*
X27559Y308492D02*
D03*
Y313610D02*
D03*
X229528Y336024D02*
D03*
Y341142D02*
D03*
X172047Y319488D02*
D03*
X219291D02*
D03*
X324016Y336024D02*
D03*
Y341142D02*
D03*
X313779Y319488D02*
D03*
X87795Y336024D02*
D03*
Y341142D02*
D03*
X124803Y319488D02*
D03*
X266535D02*
D03*
X135039Y336024D02*
D03*
Y341142D02*
D03*
X276772Y336024D02*
D03*
Y341142D02*
D03*
X182283Y336024D02*
D03*
Y341142D02*
D03*
D23*
X172047Y343307D02*
D03*
X17323Y313610D02*
D03*
Y307311D02*
D03*
X172047Y349606D02*
D03*
X313779D02*
D03*
Y343307D02*
D03*
X219291Y349606D02*
D03*
Y343307D02*
D03*
X77559Y349606D02*
D03*
Y343307D02*
D03*
X124803Y349606D02*
D03*
Y343307D02*
D03*
X266535Y349606D02*
D03*
Y343307D02*
D03*
D24*
X22441Y320866D02*
D03*
X27559D02*
D03*
X233661Y135827D02*
D03*
X238779D02*
D03*
X245472D02*
D03*
X250590D02*
D03*
X174606Y104331D02*
D03*
X179724D02*
D03*
X186417D02*
D03*
X191535D02*
D03*
X233661Y259842D02*
D03*
X238779D02*
D03*
X250590D02*
D03*
X245472D02*
D03*
X174606Y228346D02*
D03*
X179724D02*
D03*
X186417D02*
D03*
X191535D02*
D03*
X250590Y196850D02*
D03*
X191535Y165354D02*
D03*
X233661Y196850D02*
D03*
X238779D02*
D03*
X245472D02*
D03*
X174606Y165354D02*
D03*
X179724D02*
D03*
X186417D02*
D03*
D25*
X238779Y184252D02*
D03*
X191535Y91732D02*
D03*
X179724D02*
D03*
X250590Y123228D02*
D03*
X238779D02*
D03*
X191535Y152756D02*
D03*
X179724D02*
D03*
X250590Y184252D02*
D03*
X191535Y215748D02*
D03*
X179724D02*
D03*
X250590Y247244D02*
D03*
X238779D02*
D03*
Y189764D02*
D03*
Y128740D02*
D03*
X250590D02*
D03*
X179724Y97244D02*
D03*
X191535D02*
D03*
X250590Y252756D02*
D03*
X238779D02*
D03*
X179724Y221260D02*
D03*
X191535D02*
D03*
X250590Y189764D02*
D03*
X191535Y158268D02*
D03*
X179724D02*
D03*
D26*
X182283Y365945D02*
D03*
X229528D02*
D03*
X135039D02*
D03*
X87795Y365945D02*
D03*
X324016Y365945D02*
D03*
X276772D02*
D03*
Y358465D02*
D03*
X266535Y362205D02*
D03*
X324016Y358465D02*
D03*
X313779Y362205D02*
D03*
X87795Y358465D02*
D03*
X77559Y362205D02*
D03*
X135039Y358465D02*
D03*
X124803Y362205D02*
D03*
X229528Y358465D02*
D03*
X219291Y362205D02*
D03*
X182283Y358465D02*
D03*
X172047Y362205D02*
D03*
D37*
X313779Y333268D02*
Y343307D01*
Y319488D02*
Y328150D01*
X266535Y333268D02*
Y343307D01*
Y319488D02*
Y328150D01*
X219291Y333268D02*
Y343307D01*
Y319488D02*
Y328150D01*
X172047Y333268D02*
Y343307D01*
Y319488D02*
Y328150D01*
X124803Y333268D02*
Y343307D01*
Y319488D02*
Y328150D01*
X77559Y319488D02*
Y328150D01*
X77559Y319488D02*
X77559Y319488D01*
X77559Y343307D02*
X77559Y343307D01*
Y333268D02*
Y343307D01*
X17323Y313610D02*
Y319488D01*
X18701Y320866D01*
X22441D01*
X27559Y313610D02*
Y320866D01*
X17539Y265138D02*
X17559Y265118D01*
X17323Y307311D02*
X17343Y307291D01*
X324016Y341142D02*
Y358465D01*
Y341142D02*
X324016Y341142D01*
X313779Y349606D02*
Y362205D01*
Y349606D02*
X313779Y349606D01*
X276772Y341142D02*
Y358465D01*
Y341142D02*
X276772Y341142D01*
X266535Y349606D02*
Y362205D01*
Y349606D02*
X266535Y349606D01*
X219291Y349606D02*
Y362205D01*
Y349606D02*
X219291Y349606D01*
X229528Y341142D02*
Y358465D01*
Y341142D02*
X229528Y341142D01*
X182283Y358465D02*
X182283Y358465D01*
Y341142D02*
Y358465D01*
X172047Y362205D02*
X172047Y362205D01*
Y349606D02*
Y362205D01*
X135039Y358465D02*
X135039Y358465D01*
Y341142D02*
Y358465D01*
X124803Y362205D02*
X124803Y362205D01*
Y349606D02*
Y362205D01*
X77559Y349606D02*
Y362205D01*
X77559Y362205D02*
X77559Y362205D01*
X87795Y358465D02*
X87795Y358465D01*
Y341142D02*
Y358465D01*
X271260Y289370D02*
X276772Y294882D01*
Y336024D01*
X60039Y289370D02*
X271260D01*
X319291Y285433D02*
X324016Y290158D01*
Y336024D01*
X62008Y285433D02*
X319291D01*
X229528Y298031D02*
Y336024D01*
X224803Y293307D02*
X229528Y298031D01*
X58071Y293307D02*
X224803D01*
X182283Y302756D02*
Y336024D01*
X56102Y297244D02*
X176772D01*
X182283Y302756D01*
X129527Y301181D02*
X135039Y306693D01*
Y336024D01*
X54134Y301181D02*
X129527D01*
X83071Y305118D02*
X87795Y309842D01*
Y336024D01*
X53150Y305118D02*
X83071D01*
X41831Y293799D02*
X53150Y305118D01*
X48870Y290012D02*
X56102Y297244D01*
X45276Y191929D02*
Y292323D01*
X48870Y175327D02*
Y290012D01*
X45276Y292323D02*
X54134Y301181D01*
X52564Y287801D02*
X58071Y293307D01*
X56102Y285433D02*
X60039Y289370D01*
X56102Y162629D02*
Y285433D01*
X59957Y283382D02*
X62008Y285433D01*
X59957Y156533D02*
Y283382D01*
X83740Y249902D02*
X169604D01*
X78740Y254902D02*
X83740Y249902D01*
X169604D02*
X179545Y259842D01*
X38465Y185118D02*
X45276Y191929D01*
X52564Y169154D02*
Y287801D01*
X38542Y135118D02*
X59957Y156533D01*
X38591Y145118D02*
X56102Y162629D01*
X27559Y135118D02*
X38542D01*
X27559Y145118D02*
X38591D01*
X38528Y155118D02*
X52564Y169154D01*
X27559Y155118D02*
X38528D01*
X38662Y165118D02*
X48870Y175327D01*
X27559Y165118D02*
X38662D01*
X38622Y195118D02*
X41831Y198327D01*
Y293799D01*
X27559Y195118D02*
X38622D01*
X27559Y185118D02*
X38465D01*
X238779Y128740D02*
Y135827D01*
X245472D01*
X174606Y228346D02*
Y234842D01*
X83780Y239862D02*
X169587D01*
X174606Y234842D01*
X101378Y110236D02*
X107283Y104331D01*
X174606D01*
X101378Y110236D02*
Y195866D01*
X97342Y199902D02*
X101378Y195866D01*
X83740Y199902D02*
X97342D01*
X110236Y141732D02*
Y205709D01*
Y141732D02*
X116142Y135827D01*
X233661D01*
X106004Y209941D02*
X110236Y205709D01*
X83701Y209941D02*
X106004D01*
X119095Y171260D02*
Y214961D01*
Y171260D02*
X125000Y165354D01*
X174606D01*
X114173Y219882D02*
X119095Y214961D01*
X131890Y196850D02*
X233661D01*
X126969Y201772D02*
X131890Y196850D01*
X126969Y201772D02*
Y225394D01*
X122062Y230300D02*
X126969Y225394D01*
X86834Y230300D02*
X122062D01*
X86820Y230315D02*
X86834Y230300D01*
X83327Y230315D02*
X86820D01*
X78740Y234902D02*
X83327Y230315D01*
X179545Y259842D02*
X233661D01*
X191535Y221260D02*
X191535Y221260D01*
Y228346D01*
X179724D02*
X186417D01*
X179724Y221260D02*
Y228346D01*
Y158268D02*
Y165354D01*
X186417D01*
X191535Y158268D02*
Y165354D01*
X191535Y158268D02*
X191535Y158268D01*
X191535Y97244D02*
X191535Y97244D01*
Y104331D01*
X179724D02*
X186417D01*
X179724Y97244D02*
Y104331D01*
X250590Y128740D02*
Y135827D01*
Y189764D02*
Y196850D01*
X250590Y196850D01*
X238779D02*
X245472D01*
X238779Y189764D02*
Y196850D01*
X250590Y252756D02*
Y259842D01*
X250590Y259842D01*
X238779D02*
X245472D01*
X238779Y252756D02*
Y259842D01*
X83760Y219882D02*
X114173D01*
X78740Y204902D02*
X83740Y199902D01*
X78740Y214902D02*
X83701Y209941D01*
X78740Y244902D02*
X83780Y239862D01*
X78740Y224902D02*
X83760Y219882D01*
D38*
X78740Y264902D02*
D03*
X27559Y265118D02*
D03*
X88740Y124902D02*
D03*
Y134902D02*
D03*
Y144902D02*
D03*
Y154902D02*
D03*
Y164902D02*
D03*
Y174902D02*
D03*
Y184902D02*
D03*
Y194902D02*
D03*
Y204902D02*
D03*
Y214902D02*
D03*
Y224902D02*
D03*
Y234902D02*
D03*
Y244902D02*
D03*
Y254902D02*
D03*
Y264902D02*
D03*
X17559Y125118D02*
D03*
Y135118D02*
D03*
Y145118D02*
D03*
Y155118D02*
D03*
Y165118D02*
D03*
Y175118D02*
D03*
Y185118D02*
D03*
Y195118D02*
D03*
Y205118D02*
D03*
Y215118D02*
D03*
Y225118D02*
D03*
Y235118D02*
D03*
Y245118D02*
D03*
Y255118D02*
D03*
Y265118D02*
D03*
X27559Y125118D02*
D03*
Y145118D02*
D03*
Y155118D02*
D03*
Y175118D02*
D03*
Y195118D02*
D03*
Y205118D02*
D03*
Y215118D02*
D03*
Y225118D02*
D03*
Y235118D02*
D03*
Y245118D02*
D03*
Y255118D02*
D03*
Y165118D02*
D03*
Y185118D02*
D03*
Y135118D02*
D03*
X78740Y254902D02*
D03*
Y244902D02*
D03*
Y234902D02*
D03*
Y224902D02*
D03*
Y214902D02*
D03*
Y204902D02*
D03*
Y194902D02*
D03*
Y174902D02*
D03*
Y154902D02*
D03*
Y144902D02*
D03*
Y124902D02*
D03*
Y164902D02*
D03*
Y184902D02*
D03*
Y134902D02*
D03*
D39*
X351913Y173874D02*
D03*
X358913Y161874D02*
D03*
X351913Y157874D02*
D03*
Y149874D02*
D03*
Y235874D02*
D03*
X358913Y223874D02*
D03*
X351913Y219874D02*
D03*
Y211874D02*
D03*
X358913Y169874D02*
D03*
X351913Y165874D02*
D03*
X358913Y153874D02*
D03*
Y215874D02*
D03*
X351913Y227874D02*
D03*
X358913Y231874D02*
D03*
D40*
X355413Y131874D02*
D03*
Y257874D02*
D03*
D41*
X368913Y138874D02*
D03*
Y250874D02*
D03*
D42*
X358913Y239874D02*
D03*
Y177874D02*
D03*
M02*
