G04*
G04 #@! TF.GenerationSoftware,Altium Limited,Altium Designer,22.7.1 (60)*
G04*
G04 Layer_Color=8388736*
%FSLAX25Y25*%
%MOIN*%
G70*
G04*
G04 #@! TF.SameCoordinates,D577BDC7-E0A4-4166-8C9B-59C617DF8D27*
G04*
G04*
G04 #@! TF.FilePolarity,Negative*
G04*
G01*
G75*
%ADD27R,0.04540X0.04147*%
%ADD28R,0.04147X0.04540*%
%ADD29O,0.03162X0.05131*%
%ADD30R,0.04343X0.03556*%
%ADD31R,0.03556X0.04343*%
%ADD32R,0.05524X0.05131*%
%ADD33R,0.03950X0.03950*%
%ADD34R,0.05131X0.05524*%
%ADD35R,0.06824X0.06824*%
%ADD36C,0.06824*%
%ADD37R,0.06312X0.06312*%
%ADD38C,0.06312*%
%ADD39C,0.10249*%
%ADD40C,0.13595*%
%ADD41C,0.06902*%
%ADD42C,0.06194*%
%ADD43R,0.06194X0.06194*%
D27*
X23917Y46358D02*
D03*
Y51476D02*
D03*
X39433Y112500D02*
D03*
Y107382D02*
D03*
X55512Y46358D02*
D03*
Y51476D02*
D03*
X70964Y112500D02*
D03*
Y107382D02*
D03*
X87272Y46260D02*
D03*
Y51378D02*
D03*
X102756Y112500D02*
D03*
Y107382D02*
D03*
X118898Y46259D02*
D03*
Y51378D02*
D03*
X134339Y112500D02*
D03*
Y107382D02*
D03*
X150788Y46259D02*
D03*
Y51378D02*
D03*
X166229Y112500D02*
D03*
Y107382D02*
D03*
X182789Y46260D02*
D03*
Y51378D02*
D03*
X198131Y112303D02*
D03*
Y107185D02*
D03*
X252851Y313517D02*
D03*
Y308399D02*
D03*
X23917Y62500D02*
D03*
Y57382D02*
D03*
X39433Y96358D02*
D03*
Y101477D02*
D03*
X55512Y62500D02*
D03*
Y57382D02*
D03*
X70964Y96358D02*
D03*
Y101477D02*
D03*
X87272Y62402D02*
D03*
Y57283D02*
D03*
X102756Y96358D02*
D03*
Y101477D02*
D03*
X118898Y57284D02*
D03*
Y62401D02*
D03*
X134339Y96359D02*
D03*
Y101477D02*
D03*
X150788Y62401D02*
D03*
Y57284D02*
D03*
X166229Y96359D02*
D03*
Y101476D02*
D03*
X182789Y62401D02*
D03*
Y57284D02*
D03*
X198131Y96162D02*
D03*
Y101280D02*
D03*
X199603Y252887D02*
D03*
Y258005D02*
D03*
X199603Y264698D02*
D03*
Y269815D02*
D03*
X212454Y234819D02*
D03*
Y229701D02*
D03*
X212454Y223795D02*
D03*
Y218677D02*
D03*
X239507Y234819D02*
D03*
Y229701D02*
D03*
X239507Y223795D02*
D03*
Y218677D02*
D03*
X266560Y234819D02*
D03*
Y229701D02*
D03*
X266560Y223795D02*
D03*
Y218677D02*
D03*
X293613Y234819D02*
D03*
Y229701D02*
D03*
X293613Y223795D02*
D03*
Y218677D02*
D03*
X320666Y234819D02*
D03*
Y229701D02*
D03*
X320666Y223795D02*
D03*
Y218677D02*
D03*
X213383Y164698D02*
D03*
Y169816D02*
D03*
X213383Y175721D02*
D03*
Y180839D02*
D03*
X280312Y252887D02*
D03*
Y258005D02*
D03*
X280312Y264698D02*
D03*
Y269815D02*
D03*
X240318Y175721D02*
D03*
Y180839D02*
D03*
X240318Y164698D02*
D03*
Y169816D02*
D03*
X294190D02*
D03*
Y164697D02*
D03*
X294190Y180839D02*
D03*
Y175721D02*
D03*
X267254Y169816D02*
D03*
Y164697D02*
D03*
X267254Y180839D02*
D03*
Y175721D02*
D03*
X225686Y319423D02*
D03*
Y324540D02*
D03*
X225686Y308399D02*
D03*
Y313517D02*
D03*
X226571Y258005D02*
D03*
Y252887D02*
D03*
X226571Y269816D02*
D03*
Y264698D02*
D03*
X252851Y319423D02*
D03*
Y324540D02*
D03*
X253245Y258005D02*
D03*
Y252887D02*
D03*
X253245Y269816D02*
D03*
Y264698D02*
D03*
X280115Y319423D02*
D03*
Y324540D02*
D03*
X280115Y308399D02*
D03*
Y313517D02*
D03*
X307280Y319423D02*
D03*
Y324540D02*
D03*
X307604Y308075D02*
D03*
Y313193D02*
D03*
X307379Y258005D02*
D03*
Y252887D02*
D03*
X307378Y269815D02*
D03*
Y264698D02*
D03*
D28*
X311024Y378839D02*
D03*
X305906D02*
D03*
X311024Y372047D02*
D03*
X305906D02*
D03*
X290846Y365149D02*
D03*
X285728D02*
D03*
X285728Y371457D02*
D03*
X290846D02*
D03*
X309627Y56668D02*
D03*
X304509D02*
D03*
X309627Y63754D02*
D03*
X304509D02*
D03*
X282435Y56668D02*
D03*
X277317D02*
D03*
X282435Y63754D02*
D03*
X277317D02*
D03*
X255243Y56668D02*
D03*
X250125D02*
D03*
X255243Y63754D02*
D03*
X250125D02*
D03*
X304399Y91536D02*
D03*
X309517D02*
D03*
Y98622D02*
D03*
X304399D02*
D03*
X277252Y91829D02*
D03*
X282370D02*
D03*
Y98915D02*
D03*
X277252D02*
D03*
X255223Y91829D02*
D03*
X250105D02*
D03*
X255223Y98915D02*
D03*
X250105D02*
D03*
X222958D02*
D03*
X228076D02*
D03*
X222958Y91829D02*
D03*
X228076D02*
D03*
X228051Y63754D02*
D03*
X222933D02*
D03*
X228051Y56668D02*
D03*
X222933D02*
D03*
X311024Y365551D02*
D03*
X305906D02*
D03*
X271850D02*
D03*
X266732D02*
D03*
X251969D02*
D03*
X246850D02*
D03*
D29*
X184745Y101870D02*
D03*
X181005Y112106D02*
D03*
X188485D02*
D03*
X194600Y56693D02*
D03*
X198340Y46457D02*
D03*
X190859D02*
D03*
X152941Y102067D02*
D03*
X149201Y112303D02*
D03*
X156681D02*
D03*
X162501Y56693D02*
D03*
X166241Y46457D02*
D03*
X158761D02*
D03*
X121051Y102067D02*
D03*
X117311Y112303D02*
D03*
X124792D02*
D03*
X130611Y56693D02*
D03*
X134351Y46457D02*
D03*
X126871D02*
D03*
X89469Y102067D02*
D03*
X85728Y112303D02*
D03*
X93209D02*
D03*
X98985Y56693D02*
D03*
X102725Y46457D02*
D03*
X95245D02*
D03*
X57677Y102067D02*
D03*
X53937Y112303D02*
D03*
X61417D02*
D03*
X67225Y56791D02*
D03*
X70965Y46555D02*
D03*
X63485D02*
D03*
X26047Y102067D02*
D03*
X22307Y112303D02*
D03*
X29787D02*
D03*
X35532Y56791D02*
D03*
X39272Y46555D02*
D03*
X31791D02*
D03*
X309249Y221236D02*
D03*
X305509Y231473D02*
D03*
X312989D02*
D03*
X305607Y178280D02*
D03*
X309347Y168044D02*
D03*
X301867D02*
D03*
X282196Y221236D02*
D03*
X278455Y231473D02*
D03*
X285936D02*
D03*
X278671Y178280D02*
D03*
X282411Y168044D02*
D03*
X274931D02*
D03*
X255142Y221236D02*
D03*
X251402Y231472D02*
D03*
X258883D02*
D03*
X251735Y178280D02*
D03*
X255476Y168044D02*
D03*
X247995D02*
D03*
X228089Y221236D02*
D03*
X224349Y231472D02*
D03*
X231830D02*
D03*
X224800Y178280D02*
D03*
X228540Y168044D02*
D03*
X221060D02*
D03*
X201036Y221236D02*
D03*
X197296Y231472D02*
D03*
X204776D02*
D03*
X210827Y266535D02*
D03*
X214567Y256299D02*
D03*
X207087D02*
D03*
X214268Y310958D02*
D03*
X210528Y321194D02*
D03*
X218009D02*
D03*
X237989Y266469D02*
D03*
X241729Y256233D02*
D03*
X234248D02*
D03*
X241434Y310958D02*
D03*
X237694Y321194D02*
D03*
X245174D02*
D03*
X264662Y266469D02*
D03*
X268402Y256233D02*
D03*
X260922D02*
D03*
X268698Y310958D02*
D03*
X264957Y321194D02*
D03*
X272438D02*
D03*
X291729Y266469D02*
D03*
X295469Y256233D02*
D03*
X287989D02*
D03*
X295863Y310958D02*
D03*
X292123Y321194D02*
D03*
X299603D02*
D03*
X318796Y266469D02*
D03*
X322536Y256233D02*
D03*
X315056D02*
D03*
D30*
X298283Y58048D02*
D03*
Y63560D02*
D03*
X271091Y58048D02*
D03*
Y63560D02*
D03*
X243899Y58048D02*
D03*
Y63560D02*
D03*
X298173Y98427D02*
D03*
Y92915D02*
D03*
X271026Y98721D02*
D03*
Y93209D02*
D03*
X243879D02*
D03*
Y98720D02*
D03*
X216732Y98721D02*
D03*
Y93209D02*
D03*
X216707Y58048D02*
D03*
Y63560D02*
D03*
D31*
X304706Y70054D02*
D03*
X310217D02*
D03*
X277514D02*
D03*
X283026D02*
D03*
X250322Y70053D02*
D03*
X255834D02*
D03*
X310108Y104921D02*
D03*
X304596D02*
D03*
X282961Y105215D02*
D03*
X277449D02*
D03*
X250302D02*
D03*
X255814D02*
D03*
X228666D02*
D03*
X223155D02*
D03*
X223130Y70054D02*
D03*
X228642D02*
D03*
D32*
X39626Y75295D02*
D03*
Y83563D02*
D03*
X54685Y83563D02*
D03*
Y75295D02*
D03*
X71157Y75295D02*
D03*
Y83563D02*
D03*
X86445Y83464D02*
D03*
Y75197D02*
D03*
X102949Y75295D02*
D03*
Y83563D02*
D03*
X118071Y83464D02*
D03*
Y75197D02*
D03*
X134532Y75295D02*
D03*
Y83563D02*
D03*
X149961Y83464D02*
D03*
Y75197D02*
D03*
X166422Y75295D02*
D03*
Y83563D02*
D03*
X181962Y83464D02*
D03*
Y75197D02*
D03*
X198324Y75098D02*
D03*
Y83366D02*
D03*
X23091Y75295D02*
D03*
Y83563D02*
D03*
D33*
X205902Y286352D02*
D03*
Y292651D02*
D03*
X206154Y202930D02*
D03*
Y196630D02*
D03*
X233208Y202930D02*
D03*
Y196630D02*
D03*
X260261Y202930D02*
D03*
Y196630D02*
D03*
X287314Y202930D02*
D03*
Y196630D02*
D03*
X314367Y202930D02*
D03*
Y196630D02*
D03*
X219682Y196587D02*
D03*
Y202886D02*
D03*
X286611Y286352D02*
D03*
Y292651D02*
D03*
X246617Y196587D02*
D03*
Y202886D02*
D03*
X300489D02*
D03*
Y196587D02*
D03*
X273553Y202886D02*
D03*
Y196587D02*
D03*
X219386Y286351D02*
D03*
Y292650D02*
D03*
X232871Y292651D02*
D03*
Y286352D02*
D03*
X246552Y286351D02*
D03*
Y292650D02*
D03*
X259544Y292651D02*
D03*
Y286352D02*
D03*
X273815Y286351D02*
D03*
Y292650D02*
D03*
X300981Y286351D02*
D03*
Y292650D02*
D03*
X313678Y292651D02*
D03*
Y286352D02*
D03*
D34*
X312400Y357873D02*
D03*
X304132D02*
D03*
X292321D02*
D03*
X284054D02*
D03*
X273030D02*
D03*
X264762D02*
D03*
X245077D02*
D03*
X253345D02*
D03*
D35*
X30176Y336027D02*
D03*
D36*
Y326027D02*
D03*
Y316027D02*
D03*
Y306027D02*
D03*
Y296027D02*
D03*
Y286027D02*
D03*
Y276027D02*
D03*
Y266027D02*
D03*
Y256027D02*
D03*
Y246027D02*
D03*
Y236027D02*
D03*
Y226027D02*
D03*
Y216027D02*
D03*
Y206027D02*
D03*
Y196027D02*
D03*
Y186027D02*
D03*
Y176027D02*
D03*
Y166027D02*
D03*
Y156027D02*
D03*
Y146027D02*
D03*
X20176Y336027D02*
D03*
Y326027D02*
D03*
Y316027D02*
D03*
Y306027D02*
D03*
Y296027D02*
D03*
Y286027D02*
D03*
Y276027D02*
D03*
Y266027D02*
D03*
Y256027D02*
D03*
Y246027D02*
D03*
Y236027D02*
D03*
Y226027D02*
D03*
Y216027D02*
D03*
Y206027D02*
D03*
Y196027D02*
D03*
Y186027D02*
D03*
Y176027D02*
D03*
Y166027D02*
D03*
Y156027D02*
D03*
Y146027D02*
D03*
D37*
X360335Y154520D02*
D03*
Y92520D02*
D03*
D38*
X353335Y150520D02*
D03*
X360335Y146520D02*
D03*
X353335Y142520D02*
D03*
X360335Y138520D02*
D03*
X353335Y134520D02*
D03*
X360335Y130520D02*
D03*
X353335Y126520D02*
D03*
Y64520D02*
D03*
X360335Y68520D02*
D03*
X353335Y72520D02*
D03*
X360335Y76520D02*
D03*
X353335Y80520D02*
D03*
X360335Y84520D02*
D03*
X353335Y88520D02*
D03*
D39*
X356835Y172520D02*
D03*
Y46520D02*
D03*
D40*
X370335Y165520D02*
D03*
Y53520D02*
D03*
D41*
X191614Y363779D02*
D03*
X181614D02*
D03*
X171614D02*
D03*
X161614D02*
D03*
X151614D02*
D03*
X141614D02*
D03*
X131614D02*
D03*
X121614D02*
D03*
X111614D02*
D03*
X101614D02*
D03*
X91614D02*
D03*
X81614D02*
D03*
X71614D02*
D03*
X61614D02*
D03*
X51614D02*
D03*
X191614Y373780D02*
D03*
X181614D02*
D03*
X171614D02*
D03*
X161614D02*
D03*
X151614D02*
D03*
X141614D02*
D03*
X131614D02*
D03*
X121614D02*
D03*
X111614D02*
D03*
X101614D02*
D03*
X91614D02*
D03*
X81614D02*
D03*
X71614D02*
D03*
X61614D02*
D03*
X51614D02*
D03*
D42*
X117815Y333858D02*
D03*
X127815D02*
D03*
X117815Y323858D02*
D03*
X127815D02*
D03*
X117815Y313858D02*
D03*
X127815D02*
D03*
X117815Y303858D02*
D03*
X127815D02*
D03*
X117815Y293858D02*
D03*
X127815D02*
D03*
X117815Y283858D02*
D03*
X127815D02*
D03*
X117815Y273858D02*
D03*
X127815D02*
D03*
X117815Y263858D02*
D03*
X127815D02*
D03*
X117815Y253858D02*
D03*
X127815D02*
D03*
X117815Y243858D02*
D03*
X127815D02*
D03*
X117815Y233858D02*
D03*
X127815D02*
D03*
X117815Y223858D02*
D03*
X127815D02*
D03*
X117815Y213858D02*
D03*
X127815D02*
D03*
X117815Y203858D02*
D03*
X127815D02*
D03*
X117815Y193858D02*
D03*
X127815D02*
D03*
X117815Y183858D02*
D03*
X127815D02*
D03*
X117815Y173858D02*
D03*
X127815D02*
D03*
X117815Y163858D02*
D03*
X127815D02*
D03*
X117815Y153858D02*
D03*
X127815D02*
D03*
X117815Y143858D02*
D03*
D43*
X127815D02*
D03*
M02*
