G04*
G04 #@! TF.GenerationSoftware,Altium Limited,Altium Designer,22.7.1 (60)*
G04*
G04 Layer_Physical_Order=4*
G04 Layer_Color=16711680*
%FSLAX25Y25*%
%MOIN*%
G70*
G04*
G04 #@! TF.SameCoordinates,322B7B6B-0129-4EB8-82DD-95CAF5E8B4A6*
G04*
G04*
G04 #@! TF.FilePolarity,Positive*
G04*
G01*
G75*
%ADD15C,0.01000*%
%ADD45R,0.06024X0.06024*%
%ADD46C,0.06024*%
%ADD47R,0.05512X0.05512*%
%ADD48C,0.05512*%
%ADD49C,0.09449*%
%ADD50C,0.12795*%
%ADD51C,0.06102*%
%ADD52C,0.05394*%
%ADD53R,0.05394X0.05394*%
%ADD54C,0.02165*%
%ADD55C,0.01968*%
G36*
X388034Y392257D02*
X389208Y391771D01*
X390263Y391065D01*
X391161Y390167D01*
X391866Y389112D01*
X392352Y387938D01*
X392600Y386692D01*
X392603Y386056D01*
Y6858D01*
Y6223D01*
X392355Y4978D01*
X391869Y3804D01*
X391164Y2749D01*
X390266Y1851D01*
X389210Y1145D01*
X388037Y659D01*
X386790Y411D01*
X386122Y409D01*
X6321D01*
X5076Y657D01*
X3903Y1143D01*
X2847Y1848D01*
X1949Y2746D01*
X1244Y3802D01*
X758Y4975D01*
X510Y6220D01*
Y6855D01*
X508Y383760D01*
X508Y384042D01*
Y386691D01*
X755Y387936D01*
X1241Y389109D01*
X1946Y390165D01*
X2844Y391063D01*
X3900Y391768D01*
X5073Y392254D01*
X6319Y392502D01*
X6954D01*
X386154Y392504D01*
X386789D01*
X388034Y392257D01*
D02*
G37*
%LPC*%
G36*
X192614Y377706D02*
Y374780D01*
X195540D01*
X195389Y375343D01*
X194856Y376267D01*
X194102Y377021D01*
X193178Y377555D01*
X192614Y377706D01*
D02*
G37*
G36*
X182614D02*
Y374780D01*
X185540D01*
X185389Y375343D01*
X184856Y376267D01*
X184102Y377021D01*
X183178Y377555D01*
X182614Y377706D01*
D02*
G37*
G36*
X102614D02*
Y374780D01*
X105540D01*
X105389Y375343D01*
X104856Y376267D01*
X104102Y377021D01*
X103178Y377555D01*
X102614Y377706D01*
D02*
G37*
G36*
X190614D02*
X190050Y377555D01*
X189127Y377021D01*
X188372Y376267D01*
X187839Y375343D01*
X187688Y374780D01*
X190614D01*
Y377706D01*
D02*
G37*
G36*
X180614D02*
X180051Y377555D01*
X179127Y377021D01*
X178372Y376267D01*
X177839Y375343D01*
X177688Y374780D01*
X180614D01*
Y377706D01*
D02*
G37*
G36*
X100614D02*
X100050Y377555D01*
X99127Y377021D01*
X98372Y376267D01*
X97839Y375343D01*
X97688Y374780D01*
X100614D01*
Y377706D01*
D02*
G37*
G36*
X172121Y377631D02*
X171107D01*
X170128Y377368D01*
X169249Y376861D01*
X168533Y376144D01*
X168025Y375266D01*
X167763Y374287D01*
Y373272D01*
X168025Y372293D01*
X168533Y371415D01*
X169249Y370698D01*
X170128Y370191D01*
X171107Y369928D01*
X172121D01*
X173101Y370191D01*
X173979Y370698D01*
X174696Y371415D01*
X175203Y372293D01*
X175465Y373272D01*
Y374287D01*
X175203Y375266D01*
X174696Y376144D01*
X173979Y376861D01*
X173101Y377368D01*
X172121Y377631D01*
D02*
G37*
G36*
X162121D02*
X161107D01*
X160128Y377368D01*
X159249Y376861D01*
X158533Y376144D01*
X158025Y375266D01*
X157763Y374287D01*
Y373272D01*
X158025Y372293D01*
X158533Y371415D01*
X159249Y370698D01*
X160128Y370191D01*
X161107Y369928D01*
X162121D01*
X163101Y370191D01*
X163979Y370698D01*
X164696Y371415D01*
X165203Y372293D01*
X165465Y373272D01*
Y374287D01*
X165203Y375266D01*
X164696Y376144D01*
X163979Y376861D01*
X163101Y377368D01*
X162121Y377631D01*
D02*
G37*
G36*
X152121D02*
X151107D01*
X150128Y377368D01*
X149249Y376861D01*
X148532Y376144D01*
X148025Y375266D01*
X147763Y374287D01*
Y373272D01*
X148025Y372293D01*
X148532Y371415D01*
X149249Y370698D01*
X150128Y370191D01*
X151107Y369928D01*
X152121D01*
X153101Y370191D01*
X153979Y370698D01*
X154696Y371415D01*
X155203Y372293D01*
X155465Y373272D01*
Y374287D01*
X155203Y375266D01*
X154696Y376144D01*
X153979Y376861D01*
X153101Y377368D01*
X152121Y377631D01*
D02*
G37*
G36*
X142121D02*
X141107D01*
X140128Y377368D01*
X139250Y376861D01*
X138532Y376144D01*
X138025Y375266D01*
X137763Y374287D01*
Y373272D01*
X138025Y372293D01*
X138532Y371415D01*
X139250Y370698D01*
X140128Y370191D01*
X141107Y369928D01*
X142121D01*
X143101Y370191D01*
X143979Y370698D01*
X144696Y371415D01*
X145203Y372293D01*
X145465Y373272D01*
Y374287D01*
X145203Y375266D01*
X144696Y376144D01*
X143979Y376861D01*
X143101Y377368D01*
X142121Y377631D01*
D02*
G37*
G36*
X132121D02*
X131107D01*
X130128Y377368D01*
X129250Y376861D01*
X128533Y376144D01*
X128025Y375266D01*
X127763Y374287D01*
Y373272D01*
X128025Y372293D01*
X128533Y371415D01*
X129250Y370698D01*
X130128Y370191D01*
X131107Y369928D01*
X132121D01*
X133101Y370191D01*
X133979Y370698D01*
X134696Y371415D01*
X135203Y372293D01*
X135465Y373272D01*
Y374287D01*
X135203Y375266D01*
X134696Y376144D01*
X133979Y376861D01*
X133101Y377368D01*
X132121Y377631D01*
D02*
G37*
G36*
X122121D02*
X121107D01*
X120128Y377368D01*
X119249Y376861D01*
X118533Y376144D01*
X118025Y375266D01*
X117763Y374287D01*
Y373272D01*
X118025Y372293D01*
X118533Y371415D01*
X119249Y370698D01*
X120128Y370191D01*
X121107Y369928D01*
X122121D01*
X123101Y370191D01*
X123979Y370698D01*
X124696Y371415D01*
X125203Y372293D01*
X125465Y373272D01*
Y374287D01*
X125203Y375266D01*
X124696Y376144D01*
X123979Y376861D01*
X123101Y377368D01*
X122121Y377631D01*
D02*
G37*
G36*
X112121D02*
X111107D01*
X110128Y377368D01*
X109249Y376861D01*
X108533Y376144D01*
X108025Y375266D01*
X107763Y374287D01*
Y373272D01*
X108025Y372293D01*
X108533Y371415D01*
X109249Y370698D01*
X110128Y370191D01*
X111107Y369928D01*
X112121D01*
X113101Y370191D01*
X113979Y370698D01*
X114696Y371415D01*
X115203Y372293D01*
X115465Y373272D01*
Y374287D01*
X115203Y375266D01*
X114696Y376144D01*
X113979Y376861D01*
X113101Y377368D01*
X112121Y377631D01*
D02*
G37*
G36*
X92121D02*
X91107D01*
X90128Y377368D01*
X89249Y376861D01*
X88533Y376144D01*
X88025Y375266D01*
X87763Y374287D01*
Y373272D01*
X88025Y372293D01*
X88533Y371415D01*
X89249Y370698D01*
X90128Y370191D01*
X91107Y369928D01*
X92121D01*
X93101Y370191D01*
X93979Y370698D01*
X94696Y371415D01*
X95203Y372293D01*
X95465Y373272D01*
Y374287D01*
X95203Y375266D01*
X94696Y376144D01*
X93979Y376861D01*
X93101Y377368D01*
X92121Y377631D01*
D02*
G37*
G36*
X82121D02*
X81107D01*
X80128Y377368D01*
X79250Y376861D01*
X78532Y376144D01*
X78025Y375266D01*
X77763Y374287D01*
Y373272D01*
X78025Y372293D01*
X78532Y371415D01*
X79250Y370698D01*
X80128Y370191D01*
X81107Y369928D01*
X82121D01*
X83101Y370191D01*
X83979Y370698D01*
X84696Y371415D01*
X85203Y372293D01*
X85465Y373272D01*
Y374287D01*
X85203Y375266D01*
X84696Y376144D01*
X83979Y376861D01*
X83101Y377368D01*
X82121Y377631D01*
D02*
G37*
G36*
X72121D02*
X71107D01*
X70128Y377368D01*
X69249Y376861D01*
X68533Y376144D01*
X68025Y375266D01*
X67763Y374287D01*
Y373272D01*
X68025Y372293D01*
X68533Y371415D01*
X69249Y370698D01*
X70128Y370191D01*
X71107Y369928D01*
X72121D01*
X73101Y370191D01*
X73979Y370698D01*
X74696Y371415D01*
X75203Y372293D01*
X75465Y373272D01*
Y374287D01*
X75203Y375266D01*
X74696Y376144D01*
X73979Y376861D01*
X73101Y377368D01*
X72121Y377631D01*
D02*
G37*
G36*
X62121D02*
X61107D01*
X60128Y377368D01*
X59250Y376861D01*
X58533Y376144D01*
X58025Y375266D01*
X57763Y374287D01*
Y373272D01*
X58025Y372293D01*
X58533Y371415D01*
X59250Y370698D01*
X60128Y370191D01*
X61107Y369928D01*
X62121D01*
X63101Y370191D01*
X63979Y370698D01*
X64696Y371415D01*
X65203Y372293D01*
X65465Y373272D01*
Y374287D01*
X65203Y375266D01*
X64696Y376144D01*
X63979Y376861D01*
X63101Y377368D01*
X62121Y377631D01*
D02*
G37*
G36*
X52121D02*
X51107D01*
X50128Y377368D01*
X49250Y376861D01*
X48533Y376144D01*
X48025Y375266D01*
X47763Y374287D01*
Y373272D01*
X48025Y372293D01*
X48533Y371415D01*
X49250Y370698D01*
X50128Y370191D01*
X51107Y369928D01*
X52121D01*
X53101Y370191D01*
X53979Y370698D01*
X54696Y371415D01*
X55203Y372293D01*
X55465Y373272D01*
Y374287D01*
X55203Y375266D01*
X54696Y376144D01*
X53979Y376861D01*
X53101Y377368D01*
X52121Y377631D01*
D02*
G37*
G36*
X195540Y372780D02*
X192614D01*
Y369853D01*
X193178Y370004D01*
X194102Y370538D01*
X194856Y371292D01*
X195389Y372216D01*
X195540Y372780D01*
D02*
G37*
G36*
X185540D02*
X182614D01*
Y369853D01*
X183178Y370004D01*
X184102Y370538D01*
X184856Y371292D01*
X185389Y372216D01*
X185540Y372780D01*
D02*
G37*
G36*
X105540D02*
X102614D01*
Y369853D01*
X103178Y370004D01*
X104102Y370538D01*
X104856Y371292D01*
X105389Y372216D01*
X105540Y372780D01*
D02*
G37*
G36*
X190614D02*
X187688D01*
X187839Y372216D01*
X188372Y371292D01*
X189127Y370538D01*
X190050Y370004D01*
X190614Y369853D01*
Y372780D01*
D02*
G37*
G36*
X180614D02*
X177688D01*
X177839Y372216D01*
X178372Y371292D01*
X179127Y370538D01*
X180051Y370004D01*
X180614Y369853D01*
Y372780D01*
D02*
G37*
G36*
X100614D02*
X97688D01*
X97839Y372216D01*
X98372Y371292D01*
X99127Y370538D01*
X100050Y370004D01*
X100614Y369853D01*
Y372780D01*
D02*
G37*
G36*
X182121Y367631D02*
X181107D01*
X180128Y367368D01*
X179250Y366861D01*
X178533Y366144D01*
X178025Y365266D01*
X177763Y364286D01*
Y363273D01*
X178025Y362293D01*
X178533Y361415D01*
X179250Y360698D01*
X180128Y360191D01*
X181107Y359928D01*
X182121D01*
X183101Y360191D01*
X183979Y360698D01*
X184696Y361415D01*
X185203Y362293D01*
X185465Y363273D01*
Y364286D01*
X185203Y365266D01*
X184696Y366144D01*
X183979Y366861D01*
X183101Y367368D01*
X182121Y367631D01*
D02*
G37*
G36*
X172121D02*
X171107D01*
X170128Y367368D01*
X169249Y366861D01*
X168533Y366144D01*
X168025Y365266D01*
X167763Y364286D01*
Y363273D01*
X168025Y362293D01*
X168533Y361415D01*
X169249Y360698D01*
X170128Y360191D01*
X171107Y359928D01*
X172121D01*
X173101Y360191D01*
X173979Y360698D01*
X174696Y361415D01*
X175203Y362293D01*
X175465Y363273D01*
Y364286D01*
X175203Y365266D01*
X174696Y366144D01*
X173979Y366861D01*
X173101Y367368D01*
X172121Y367631D01*
D02*
G37*
G36*
X162121D02*
X161107D01*
X160128Y367368D01*
X159249Y366861D01*
X158533Y366144D01*
X158025Y365266D01*
X157763Y364286D01*
Y363273D01*
X158025Y362293D01*
X158533Y361415D01*
X159249Y360698D01*
X160128Y360191D01*
X161107Y359928D01*
X162121D01*
X163101Y360191D01*
X163979Y360698D01*
X164696Y361415D01*
X165203Y362293D01*
X165465Y363273D01*
Y364286D01*
X165203Y365266D01*
X164696Y366144D01*
X163979Y366861D01*
X163101Y367368D01*
X162121Y367631D01*
D02*
G37*
G36*
X152121D02*
X151107D01*
X150128Y367368D01*
X149249Y366861D01*
X148532Y366144D01*
X148025Y365266D01*
X147763Y364286D01*
Y363273D01*
X148025Y362293D01*
X148532Y361415D01*
X149249Y360698D01*
X150128Y360191D01*
X151107Y359928D01*
X152121D01*
X153101Y360191D01*
X153979Y360698D01*
X154696Y361415D01*
X155203Y362293D01*
X155465Y363273D01*
Y364286D01*
X155203Y365266D01*
X154696Y366144D01*
X153979Y366861D01*
X153101Y367368D01*
X152121Y367631D01*
D02*
G37*
G36*
X142121D02*
X141107D01*
X140128Y367368D01*
X139250Y366861D01*
X138532Y366144D01*
X138025Y365266D01*
X137763Y364286D01*
Y363273D01*
X138025Y362293D01*
X138532Y361415D01*
X139250Y360698D01*
X140128Y360191D01*
X141107Y359928D01*
X142121D01*
X143101Y360191D01*
X143979Y360698D01*
X144696Y361415D01*
X145203Y362293D01*
X145465Y363273D01*
Y364286D01*
X145203Y365266D01*
X144696Y366144D01*
X143979Y366861D01*
X143101Y367368D01*
X142121Y367631D01*
D02*
G37*
G36*
X132121D02*
X131107D01*
X130128Y367368D01*
X129250Y366861D01*
X128533Y366144D01*
X128025Y365266D01*
X127763Y364286D01*
Y363273D01*
X128025Y362293D01*
X128533Y361415D01*
X129250Y360698D01*
X130128Y360191D01*
X131107Y359928D01*
X132121D01*
X133101Y360191D01*
X133979Y360698D01*
X134696Y361415D01*
X135203Y362293D01*
X135465Y363273D01*
Y364286D01*
X135203Y365266D01*
X134696Y366144D01*
X133979Y366861D01*
X133101Y367368D01*
X132121Y367631D01*
D02*
G37*
G36*
X122121D02*
X121107D01*
X120128Y367368D01*
X119249Y366861D01*
X118533Y366144D01*
X118025Y365266D01*
X117763Y364286D01*
Y363273D01*
X118025Y362293D01*
X118533Y361415D01*
X119249Y360698D01*
X120128Y360191D01*
X121107Y359928D01*
X122121D01*
X123101Y360191D01*
X123979Y360698D01*
X124696Y361415D01*
X125203Y362293D01*
X125465Y363273D01*
Y364286D01*
X125203Y365266D01*
X124696Y366144D01*
X123979Y366861D01*
X123101Y367368D01*
X122121Y367631D01*
D02*
G37*
G36*
X112121D02*
X111107D01*
X110128Y367368D01*
X109249Y366861D01*
X108533Y366144D01*
X108025Y365266D01*
X107763Y364286D01*
Y363273D01*
X108025Y362293D01*
X108533Y361415D01*
X109249Y360698D01*
X110128Y360191D01*
X111107Y359928D01*
X112121D01*
X113101Y360191D01*
X113979Y360698D01*
X114696Y361415D01*
X115203Y362293D01*
X115465Y363273D01*
Y364286D01*
X115203Y365266D01*
X114696Y366144D01*
X113979Y366861D01*
X113101Y367368D01*
X112121Y367631D01*
D02*
G37*
G36*
X92121D02*
X91107D01*
X90128Y367368D01*
X89249Y366861D01*
X88533Y366144D01*
X88025Y365266D01*
X87763Y364286D01*
Y363273D01*
X88025Y362293D01*
X88533Y361415D01*
X89249Y360698D01*
X90128Y360191D01*
X91107Y359928D01*
X92121D01*
X93101Y360191D01*
X93979Y360698D01*
X94696Y361415D01*
X95203Y362293D01*
X95465Y363273D01*
Y364286D01*
X95203Y365266D01*
X94696Y366144D01*
X93979Y366861D01*
X93101Y367368D01*
X92121Y367631D01*
D02*
G37*
G36*
X82121D02*
X81107D01*
X80128Y367368D01*
X79250Y366861D01*
X78532Y366144D01*
X78025Y365266D01*
X77763Y364286D01*
Y363273D01*
X78025Y362293D01*
X78532Y361415D01*
X79250Y360698D01*
X80128Y360191D01*
X81107Y359928D01*
X82121D01*
X83101Y360191D01*
X83979Y360698D01*
X84696Y361415D01*
X85203Y362293D01*
X85465Y363273D01*
Y364286D01*
X85203Y365266D01*
X84696Y366144D01*
X83979Y366861D01*
X83101Y367368D01*
X82121Y367631D01*
D02*
G37*
G36*
X72121D02*
X71107D01*
X70128Y367368D01*
X69249Y366861D01*
X68533Y366144D01*
X68025Y365266D01*
X67763Y364286D01*
Y363273D01*
X68025Y362293D01*
X68533Y361415D01*
X69249Y360698D01*
X70128Y360191D01*
X71107Y359928D01*
X72121D01*
X73101Y360191D01*
X73979Y360698D01*
X74696Y361415D01*
X75203Y362293D01*
X75465Y363273D01*
Y364286D01*
X75203Y365266D01*
X74696Y366144D01*
X73979Y366861D01*
X73101Y367368D01*
X72121Y367631D01*
D02*
G37*
G36*
X62121D02*
X61107D01*
X60128Y367368D01*
X59250Y366861D01*
X58533Y366144D01*
X58025Y365266D01*
X57763Y364286D01*
Y363273D01*
X58025Y362293D01*
X58533Y361415D01*
X59250Y360698D01*
X60128Y360191D01*
X61107Y359928D01*
X62121D01*
X63101Y360191D01*
X63979Y360698D01*
X64696Y361415D01*
X65203Y362293D01*
X65465Y363273D01*
Y364286D01*
X65203Y365266D01*
X64696Y366144D01*
X63979Y366861D01*
X63101Y367368D01*
X62121Y367631D01*
D02*
G37*
G36*
X52121D02*
X51107D01*
X50128Y367368D01*
X49250Y366861D01*
X48533Y366144D01*
X48025Y365266D01*
X47763Y364286D01*
Y363273D01*
X48025Y362293D01*
X48533Y361415D01*
X49250Y360698D01*
X50128Y360191D01*
X51107Y359928D01*
X52121D01*
X53101Y360191D01*
X53979Y360698D01*
X54696Y361415D01*
X55203Y362293D01*
X55465Y363273D01*
Y364286D01*
X55203Y365266D01*
X54696Y366144D01*
X53979Y366861D01*
X53101Y367368D01*
X52121Y367631D01*
D02*
G37*
G36*
X373721Y388748D02*
X371354Y388562D01*
X369046Y388008D01*
X366853Y387100D01*
X364829Y385859D01*
X363025Y384318D01*
X361483Y382513D01*
X360243Y380489D01*
X359335Y378296D01*
X358781Y375988D01*
X358594Y373622D01*
X358781Y371256D01*
X359335Y368948D01*
X360243Y366755D01*
X361483Y364731D01*
X363025Y362926D01*
X364829Y361385D01*
X366853Y360144D01*
X369046Y359236D01*
X371354Y358682D01*
X373721Y358496D01*
X376087Y358682D01*
X378395Y359236D01*
X380588Y360144D01*
X382611Y361385D01*
X384416Y362926D01*
X385958Y364731D01*
X387198Y366755D01*
X388106Y368948D01*
X388660Y371256D01*
X388847Y373622D01*
X388660Y375988D01*
X388106Y378296D01*
X387198Y380489D01*
X385958Y382513D01*
X384416Y384318D01*
X382611Y385859D01*
X380588Y387100D01*
X378395Y388008D01*
X376087Y388562D01*
X373721Y388748D01*
D02*
G37*
G36*
X19390D02*
X17023Y388562D01*
X14716Y388008D01*
X12523Y387100D01*
X10499Y385859D01*
X8694Y384318D01*
X7152Y382513D01*
X5912Y380489D01*
X5004Y378296D01*
X4450Y375988D01*
X4264Y373622D01*
X4450Y371256D01*
X5004Y368948D01*
X5912Y366755D01*
X7152Y364731D01*
X8694Y362926D01*
X10499Y361385D01*
X12523Y360144D01*
X14716Y359236D01*
X17023Y358682D01*
X19390Y358496D01*
X21756Y358682D01*
X24064Y359236D01*
X26257Y360144D01*
X28281Y361385D01*
X30086Y362926D01*
X31627Y364731D01*
X32867Y366755D01*
X33776Y368948D01*
X34330Y371256D01*
X34516Y373622D01*
X34330Y375988D01*
X33776Y378296D01*
X32867Y380489D01*
X31627Y382513D01*
X30086Y384318D01*
X28281Y385859D01*
X26257Y387100D01*
X24064Y388008D01*
X21756Y388562D01*
X19390Y388748D01*
D02*
G37*
G36*
X52028Y356804D02*
X51318D01*
X50662Y356532D01*
X50161Y356030D01*
X49889Y355375D01*
Y354665D01*
X50161Y354009D01*
X50662Y353507D01*
X51318Y353235D01*
X52028D01*
X52684Y353507D01*
X53186Y354009D01*
X53457Y354665D01*
Y355375D01*
X53186Y356030D01*
X52684Y356532D01*
X52028Y356804D01*
D02*
G37*
G36*
X71910Y356115D02*
X71200D01*
X70544Y355843D01*
X70043Y355341D01*
X69771Y354686D01*
Y353976D01*
X70043Y353320D01*
X70544Y352818D01*
X71200Y352546D01*
X71910D01*
X72566Y352818D01*
X73068Y353320D01*
X73339Y353976D01*
Y354686D01*
X73068Y355341D01*
X72566Y355843D01*
X71910Y356115D01*
D02*
G37*
G36*
Y349914D02*
X71200D01*
X70544Y349642D01*
X70043Y349141D01*
X69771Y348485D01*
Y347775D01*
X70043Y347119D01*
X70544Y346617D01*
X71200Y346346D01*
X71910D01*
X72566Y346617D01*
X73068Y347119D01*
X73339Y347775D01*
Y348485D01*
X73068Y349141D01*
X72566Y349642D01*
X71910Y349914D01*
D02*
G37*
G36*
Y343713D02*
X71200D01*
X70544Y343442D01*
X70043Y342940D01*
X69771Y342284D01*
Y341574D01*
X70043Y340918D01*
X70544Y340417D01*
X71200Y340145D01*
X71910D01*
X72566Y340417D01*
X73068Y340918D01*
X73339Y341574D01*
Y342284D01*
X73068Y342940D01*
X72566Y343442D01*
X71910Y343713D01*
D02*
G37*
G36*
X21176Y339913D02*
Y337027D01*
X24062D01*
X23915Y337576D01*
X23386Y338491D01*
X22639Y339238D01*
X21725Y339766D01*
X21176Y339913D01*
D02*
G37*
G36*
X19176D02*
X18628Y339766D01*
X17713Y339238D01*
X16966Y338491D01*
X16438Y337576D01*
X16291Y337027D01*
X19176D01*
Y339913D01*
D02*
G37*
G36*
X71910Y337513D02*
X71200D01*
X70544Y337241D01*
X70043Y336739D01*
X69771Y336083D01*
Y335373D01*
X70043Y334718D01*
X70544Y334216D01*
X71200Y333944D01*
X71910D01*
X72566Y334216D01*
X73068Y334718D01*
X73339Y335373D01*
Y336083D01*
X73068Y336739D01*
X72566Y337241D01*
X71910Y337513D01*
D02*
G37*
G36*
X24062Y335027D02*
X21176D01*
Y332142D01*
X21725Y332289D01*
X22639Y332817D01*
X23386Y333564D01*
X23915Y334479D01*
X24062Y335027D01*
D02*
G37*
G36*
X19176D02*
X16291D01*
X16438Y334479D01*
X16966Y333564D01*
X17713Y332817D01*
X18628Y332289D01*
X19176Y332142D01*
Y335027D01*
D02*
G37*
G36*
X102121Y367631D02*
X101107D01*
X100128Y367368D01*
X99250Y366861D01*
X98532Y366144D01*
X98025Y365266D01*
X97763Y364286D01*
Y363273D01*
X98025Y362293D01*
X98532Y361415D01*
X99250Y360698D01*
X100128Y360191D01*
X101107Y359928D01*
X101548D01*
X101621Y359913D01*
X102041Y359908D01*
X102782Y359856D01*
X103078Y359813D01*
X103346Y359758D01*
X103574Y359694D01*
X103762Y359624D01*
X103909Y359552D01*
X104018Y359482D01*
X104018Y359482D01*
X126041Y337458D01*
X126074Y337386D01*
X125965Y336828D01*
X125668Y336656D01*
X125017Y336005D01*
X124556Y335208D01*
X124318Y334319D01*
Y333398D01*
X124556Y332508D01*
X125017Y331711D01*
X125668Y331060D01*
X126465Y330600D01*
X127355Y330361D01*
X128275D01*
X129165Y330600D01*
X129962Y331060D01*
X130613Y331711D01*
X131073Y332508D01*
X131312Y333398D01*
Y334319D01*
X131073Y335208D01*
X130613Y336005D01*
X129962Y336656D01*
X129417Y336971D01*
X129383Y337000D01*
X129299Y337047D01*
X129269Y337069D01*
X129245Y337091D01*
X129225Y337117D01*
X129205Y337150D01*
X129184Y337195D01*
X129165Y337257D01*
X129148Y337337D01*
X129140Y337397D01*
Y337559D01*
X129040Y338066D01*
X128752Y338496D01*
X105896Y361353D01*
X105895Y361354D01*
X105825Y361462D01*
X105753Y361609D01*
X105684Y361795D01*
X105622Y362022D01*
X105569Y362288D01*
X105528Y362583D01*
X105482Y363320D01*
X105481Y363737D01*
X105465Y363813D01*
Y364286D01*
X105203Y365266D01*
X104696Y366144D01*
X103979Y366861D01*
X103101Y367368D01*
X102121Y367631D01*
D02*
G37*
G36*
X118275Y337355D02*
X117355D01*
X116465Y337117D01*
X115668Y336656D01*
X115017Y336005D01*
X114556Y335208D01*
X114318Y334319D01*
Y333398D01*
X114556Y332508D01*
X115017Y331711D01*
X115668Y331060D01*
X116465Y330600D01*
X117355Y330361D01*
X118275D01*
X119165Y330600D01*
X119962Y331060D01*
X120613Y331711D01*
X121073Y332508D01*
X121312Y333398D01*
Y334319D01*
X121073Y335208D01*
X120613Y336005D01*
X119962Y336656D01*
X119165Y337117D01*
X118275Y337355D01*
D02*
G37*
G36*
X307737Y332493D02*
X307027D01*
X306371Y332221D01*
X305869Y331719D01*
X305598Y331064D01*
Y330354D01*
X305869Y329698D01*
X306371Y329196D01*
X307027Y328924D01*
X307737D01*
X308393Y329196D01*
X308894Y329698D01*
X309166Y330354D01*
Y331064D01*
X308894Y331719D01*
X308393Y332221D01*
X307737Y332493D01*
D02*
G37*
G36*
X280571Y332395D02*
X279862D01*
X279206Y332123D01*
X278704Y331621D01*
X278432Y330965D01*
Y330255D01*
X278704Y329599D01*
X279206Y329098D01*
X279862Y328826D01*
X280571D01*
X281227Y329098D01*
X281729Y329599D01*
X282001Y330255D01*
Y330965D01*
X281729Y331621D01*
X281227Y332123D01*
X280571Y332395D01*
D02*
G37*
G36*
X253504Y332296D02*
X252795D01*
X252139Y332024D01*
X251637Y331522D01*
X251365Y330867D01*
Y330157D01*
X251637Y329501D01*
X252139Y328999D01*
X252795Y328728D01*
X253504D01*
X254160Y328999D01*
X254662Y329501D01*
X254934Y330157D01*
Y330867D01*
X254662Y331522D01*
X254160Y332024D01*
X253504Y332296D01*
D02*
G37*
G36*
X226142Y331902D02*
X225432D01*
X224777Y331631D01*
X224275Y331129D01*
X224003Y330473D01*
Y329763D01*
X224275Y329107D01*
X224777Y328606D01*
X225432Y328334D01*
X226142D01*
X226798Y328606D01*
X227300Y329107D01*
X227572Y329763D01*
Y330473D01*
X227300Y331129D01*
X226798Y331631D01*
X226142Y331902D01*
D02*
G37*
G36*
X71910Y331312D02*
X71200D01*
X70544Y331040D01*
X70043Y330538D01*
X69771Y329883D01*
Y329173D01*
X70043Y328517D01*
X70544Y328015D01*
X71200Y327743D01*
X71910D01*
X72566Y328015D01*
X73068Y328517D01*
X73339Y329173D01*
Y329883D01*
X73068Y330538D01*
X72566Y331040D01*
X71910Y331312D01*
D02*
G37*
G36*
X192121Y367631D02*
X191107D01*
X190128Y367368D01*
X189250Y366861D01*
X188532Y366144D01*
X188025Y365266D01*
X187763Y364286D01*
Y363273D01*
X188025Y362293D01*
X188532Y361415D01*
X188977Y360970D01*
X189012Y360920D01*
X189594Y360357D01*
X189810Y360116D01*
X189997Y359884D01*
X190148Y359668D01*
X190263Y359472D01*
X190346Y359298D01*
X190399Y359148D01*
X190426Y359023D01*
X190427Y359018D01*
Y354407D01*
X161203Y325184D01*
X131984D01*
X131881Y325204D01*
X131749Y325247D01*
X131595Y325314D01*
X131422Y325408D01*
X131231Y325531D01*
X131032Y325676D01*
X130562Y326082D01*
X130313Y326328D01*
X130249Y326370D01*
X129962Y326656D01*
X129165Y327117D01*
X128275Y327355D01*
X127878D01*
X127811Y327370D01*
X127112Y327390D01*
X126836Y327417D01*
X126582Y327456D01*
X126360Y327504D01*
X126171Y327561D01*
X126015Y327622D01*
X125892Y327685D01*
X125804Y327744D01*
X124264Y329284D01*
X123834Y329571D01*
X123327Y329672D01*
X79716D01*
X79208Y329571D01*
X78778Y329284D01*
X76017Y326522D01*
X41513D01*
X34291Y333745D01*
X34135Y333913D01*
X34029Y334046D01*
X33988Y334104D01*
Y334376D01*
X33993Y334399D01*
X33988Y334421D01*
Y339839D01*
X26364D01*
Y332215D01*
X31528D01*
X31545Y332212D01*
X31635Y332179D01*
X31700Y332181D01*
X31763Y332169D01*
X31857Y332188D01*
X31953Y332191D01*
X32000Y332213D01*
X32005Y332209D01*
X32107Y332139D01*
X32375Y331912D01*
X40027Y324260D01*
X40457Y323972D01*
X40964Y323871D01*
X76566D01*
X77073Y323972D01*
X77503Y324260D01*
X80265Y327021D01*
X115341D01*
X115532Y326521D01*
X115387Y326375D01*
X115329Y326339D01*
X114820Y325859D01*
X114606Y325682D01*
X114399Y325531D01*
X114208Y325408D01*
X114035Y325314D01*
X113881Y325247D01*
X113749Y325204D01*
X113646Y325184D01*
X112933D01*
X112426Y325083D01*
X111996Y324796D01*
X34586Y247386D01*
X34578Y247388D01*
X34400Y247469D01*
X34198Y247583D01*
X33975Y247730D01*
X33740Y247906D01*
X33240Y248344D01*
X33226Y248368D01*
X32517Y249078D01*
X31648Y249579D01*
X30678Y249839D01*
X29674D01*
X28705Y249579D01*
X27836Y249078D01*
X27126Y248368D01*
X26624Y247499D01*
X26364Y246529D01*
Y245526D01*
X26624Y244556D01*
X27126Y243687D01*
X27836Y242977D01*
X28705Y242475D01*
X29674Y242215D01*
X30678D01*
X31648Y242475D01*
X32517Y242977D01*
X32706Y243166D01*
X32770Y243209D01*
X32901Y243295D01*
X33193Y243583D01*
X33741Y244062D01*
X33975Y244238D01*
X34198Y244386D01*
X34400Y244499D01*
X34578Y244581D01*
X34730Y244632D01*
X34855Y244659D01*
X35059D01*
X35566Y244760D01*
X35996Y245047D01*
X113482Y322533D01*
X113646D01*
X113749Y322512D01*
X113881Y322469D01*
X114035Y322403D01*
X114208Y322308D01*
X114399Y322186D01*
X114598Y322040D01*
X115068Y321634D01*
X115317Y321389D01*
X115381Y321347D01*
X115668Y321060D01*
X116465Y320600D01*
X117355Y320361D01*
X118275D01*
X119165Y320600D01*
X119962Y321060D01*
X120613Y321711D01*
X121073Y322509D01*
X121312Y323398D01*
Y324319D01*
X121073Y325208D01*
X120613Y326005D01*
X120097Y326521D01*
X120289Y327021D01*
X122778D01*
X123930Y325869D01*
X123988Y325782D01*
X124051Y325658D01*
X124113Y325502D01*
X124169Y325313D01*
X124217Y325091D01*
X124255Y324847D01*
X124300Y324228D01*
X124303Y323878D01*
X124318Y323804D01*
Y323398D01*
X124556Y322509D01*
X125017Y321711D01*
X125668Y321060D01*
X126465Y320600D01*
X127355Y320361D01*
X128275D01*
X129165Y320600D01*
X129962Y321060D01*
X130243Y321341D01*
X130301Y321377D01*
X130810Y321858D01*
X131024Y322034D01*
X131231Y322186D01*
X131422Y322308D01*
X131595Y322403D01*
X131749Y322469D01*
X131881Y322512D01*
X131984Y322533D01*
X161752D01*
X162259Y322634D01*
X162689Y322921D01*
X192689Y352921D01*
X192976Y353351D01*
X193077Y353858D01*
Y359062D01*
X193104Y359188D01*
X193157Y359347D01*
X193240Y359535D01*
X193356Y359750D01*
X193506Y359989D01*
X193684Y360242D01*
X194163Y360833D01*
X194451Y361152D01*
X194478Y361197D01*
X194696Y361415D01*
X195203Y362293D01*
X195465Y363273D01*
Y364286D01*
X195203Y365266D01*
X194696Y366144D01*
X193979Y366861D01*
X193101Y367368D01*
X192121Y367631D01*
D02*
G37*
G36*
X30678Y329839D02*
X29674D01*
X28705Y329579D01*
X27836Y329078D01*
X27126Y328368D01*
X26624Y327499D01*
X26364Y326529D01*
Y325525D01*
X26624Y324556D01*
X27126Y323687D01*
X27836Y322977D01*
X28705Y322475D01*
X29674Y322216D01*
X30678D01*
X31648Y322475D01*
X32517Y322977D01*
X33226Y323687D01*
X33728Y324556D01*
X33988Y325525D01*
Y326529D01*
X33728Y327499D01*
X33226Y328368D01*
X32517Y329078D01*
X31648Y329579D01*
X30678Y329839D01*
D02*
G37*
G36*
X20678D02*
X19674D01*
X18705Y329579D01*
X17836Y329078D01*
X17126Y328368D01*
X16624Y327499D01*
X16364Y326529D01*
Y325525D01*
X16624Y324556D01*
X17126Y323687D01*
X17836Y322977D01*
X18705Y322475D01*
X19674Y322216D01*
X20678D01*
X21647Y322475D01*
X22517Y322977D01*
X23226Y323687D01*
X23728Y324556D01*
X23988Y325525D01*
Y326529D01*
X23728Y327499D01*
X23226Y328368D01*
X22517Y329078D01*
X21647Y329579D01*
X20678Y329839D01*
D02*
G37*
G36*
X128815Y317418D02*
Y314858D01*
X131374D01*
X131260Y315285D01*
X130773Y316128D01*
X130085Y316816D01*
X129242Y317303D01*
X128815Y317418D01*
D02*
G37*
G36*
X118815D02*
Y314858D01*
X121374D01*
X121260Y315285D01*
X120773Y316128D01*
X120085Y316816D01*
X119242Y317303D01*
X118815Y317418D01*
D02*
G37*
G36*
X126815Y317418D02*
X126388Y317303D01*
X125545Y316816D01*
X124857Y316128D01*
X124370Y315285D01*
X124256Y314858D01*
X126815D01*
Y317418D01*
D02*
G37*
G36*
X116815D02*
X116388Y317303D01*
X115545Y316816D01*
X114857Y316128D01*
X114370Y315285D01*
X114256Y314858D01*
X116815D01*
Y317418D01*
D02*
G37*
G36*
X30678Y319839D02*
X29674D01*
X28705Y319579D01*
X27836Y319077D01*
X27126Y318368D01*
X26624Y317499D01*
X26364Y316529D01*
Y315526D01*
X26624Y314556D01*
X27126Y313687D01*
X27836Y312977D01*
X28705Y312475D01*
X29674Y312215D01*
X30678D01*
X31648Y312475D01*
X32517Y312977D01*
X33226Y313687D01*
X33728Y314556D01*
X33988Y315526D01*
Y316529D01*
X33728Y317499D01*
X33226Y318368D01*
X32517Y319077D01*
X31648Y319579D01*
X30678Y319839D01*
D02*
G37*
G36*
X20678D02*
X19674D01*
X18705Y319579D01*
X17836Y319077D01*
X17126Y318368D01*
X16624Y317499D01*
X16364Y316529D01*
Y315526D01*
X16624Y314556D01*
X17126Y313687D01*
X17836Y312977D01*
X18705Y312475D01*
X19674Y312215D01*
X20678D01*
X21647Y312475D01*
X22517Y312977D01*
X23226Y313687D01*
X23728Y314556D01*
X23988Y315526D01*
Y316529D01*
X23728Y317499D01*
X23226Y318368D01*
X22517Y319077D01*
X21647Y319579D01*
X20678Y319839D01*
D02*
G37*
G36*
X126815Y312858D02*
X124256D01*
X124370Y312431D01*
X124857Y311588D01*
X125545Y310900D01*
X126388Y310413D01*
X126815Y310299D01*
Y312858D01*
D02*
G37*
G36*
X116815D02*
X114256D01*
X114370Y312431D01*
X114857Y311588D01*
X115545Y310900D01*
X116388Y310413D01*
X116815Y310299D01*
Y312858D01*
D02*
G37*
G36*
X131374D02*
X128815D01*
Y310299D01*
X129242Y310413D01*
X130085Y310900D01*
X130773Y311588D01*
X131260Y312431D01*
X131374Y312858D01*
D02*
G37*
G36*
X121374D02*
X118815D01*
Y310299D01*
X119242Y310413D01*
X120085Y310900D01*
X120773Y311588D01*
X121260Y312431D01*
X121374Y312858D01*
D02*
G37*
G36*
X128815Y307418D02*
Y304858D01*
X131374D01*
X131260Y305285D01*
X130773Y306128D01*
X130085Y306817D01*
X129242Y307303D01*
X128815Y307418D01*
D02*
G37*
G36*
X118815D02*
Y304858D01*
X121374D01*
X121260Y305285D01*
X120773Y306128D01*
X120085Y306817D01*
X119242Y307303D01*
X118815Y307418D01*
D02*
G37*
G36*
X126815Y307418D02*
X126388Y307303D01*
X125545Y306817D01*
X124857Y306128D01*
X124370Y305285D01*
X124256Y304858D01*
X126815D01*
Y307418D01*
D02*
G37*
G36*
X116815D02*
X116388Y307303D01*
X115545Y306817D01*
X114857Y306128D01*
X114370Y305285D01*
X114256Y304858D01*
X116815D01*
Y307418D01*
D02*
G37*
G36*
X140217Y306410D02*
X139507D01*
X138851Y306139D01*
X138350Y305637D01*
X138078Y304981D01*
Y304271D01*
X138350Y303615D01*
X138851Y303113D01*
X139507Y302842D01*
X140217D01*
X140873Y303113D01*
X141375Y303615D01*
X141647Y304271D01*
Y304981D01*
X141375Y305637D01*
X140873Y306139D01*
X140217Y306410D01*
D02*
G37*
G36*
X30678Y309839D02*
X29674D01*
X28705Y309579D01*
X27836Y309078D01*
X27126Y308368D01*
X26624Y307499D01*
X26364Y306529D01*
Y305525D01*
X26624Y304556D01*
X27126Y303687D01*
X27836Y302977D01*
X28705Y302475D01*
X29674Y302216D01*
X30678D01*
X31648Y302475D01*
X32517Y302977D01*
X33226Y303687D01*
X33728Y304556D01*
X33988Y305525D01*
Y306529D01*
X33728Y307499D01*
X33226Y308368D01*
X32517Y309078D01*
X31648Y309579D01*
X30678Y309839D01*
D02*
G37*
G36*
X20678D02*
X19674D01*
X18705Y309579D01*
X17836Y309078D01*
X17126Y308368D01*
X16624Y307499D01*
X16364Y306529D01*
Y305525D01*
X16624Y304556D01*
X17126Y303687D01*
X17836Y302977D01*
X18705Y302475D01*
X19674Y302216D01*
X20678D01*
X21647Y302475D01*
X22517Y302977D01*
X23226Y303687D01*
X23728Y304556D01*
X23988Y305525D01*
Y306529D01*
X23728Y307499D01*
X23226Y308368D01*
X22517Y309078D01*
X21647Y309579D01*
X20678Y309839D01*
D02*
G37*
G36*
X126815Y302858D02*
X124256D01*
X124370Y302431D01*
X124857Y301588D01*
X125545Y300900D01*
X126388Y300413D01*
X126815Y300299D01*
Y302858D01*
D02*
G37*
G36*
X116815D02*
X114256D01*
X114370Y302431D01*
X114857Y301588D01*
X115545Y300900D01*
X116388Y300413D01*
X116815Y300299D01*
Y302858D01*
D02*
G37*
G36*
X131374D02*
X128815D01*
Y300299D01*
X129242Y300413D01*
X130085Y300900D01*
X130773Y301588D01*
X131260Y302431D01*
X131374Y302858D01*
D02*
G37*
G36*
X121374D02*
X118815D01*
Y300299D01*
X119242Y300413D01*
X120085Y300900D01*
X120773Y301588D01*
X121260Y302431D01*
X121374Y302858D01*
D02*
G37*
G36*
X30678Y299839D02*
X29674D01*
X28705Y299579D01*
X27836Y299078D01*
X27126Y298368D01*
X26624Y297499D01*
X26364Y296529D01*
Y295526D01*
X26624Y294556D01*
X27126Y293687D01*
X27836Y292977D01*
X28705Y292475D01*
X29674Y292215D01*
X30678D01*
X31648Y292475D01*
X32517Y292977D01*
X33226Y293687D01*
X33728Y294556D01*
X33988Y295526D01*
Y296529D01*
X33728Y297499D01*
X33226Y298368D01*
X32517Y299078D01*
X31648Y299579D01*
X30678Y299839D01*
D02*
G37*
G36*
X20678D02*
X19674D01*
X18705Y299579D01*
X17836Y299078D01*
X17126Y298368D01*
X16624Y297499D01*
X16364Y296529D01*
Y295526D01*
X16624Y294556D01*
X17126Y293687D01*
X17836Y292977D01*
X18705Y292475D01*
X19674Y292215D01*
X20678D01*
X21647Y292475D01*
X22517Y292977D01*
X23226Y293687D01*
X23728Y294556D01*
X23988Y295526D01*
Y296529D01*
X23728Y297499D01*
X23226Y298368D01*
X22517Y299078D01*
X21647Y299579D01*
X20678Y299839D01*
D02*
G37*
G36*
X128275Y297355D02*
X127355D01*
X126465Y297117D01*
X125668Y296656D01*
X125017Y296005D01*
X124556Y295208D01*
X124318Y294319D01*
Y293398D01*
X124556Y292509D01*
X125017Y291711D01*
X125668Y291060D01*
X125774Y290999D01*
X125640Y290499D01*
X123049D01*
X121700Y291847D01*
X121642Y291935D01*
X121579Y292059D01*
X121517Y292215D01*
X121461Y292404D01*
X121413Y292625D01*
X121375Y292869D01*
X121330Y293488D01*
X121327Y293838D01*
X121312Y293913D01*
Y294319D01*
X121073Y295208D01*
X120613Y296005D01*
X119962Y296656D01*
X119165Y297117D01*
X118275Y297355D01*
X117355D01*
X116465Y297117D01*
X115668Y296656D01*
X115017Y296005D01*
X114556Y295208D01*
X114318Y294319D01*
Y293398D01*
X114556Y292509D01*
X115017Y291711D01*
X115668Y291060D01*
X116465Y290600D01*
X117355Y290361D01*
X117752D01*
X117819Y290346D01*
X118518Y290326D01*
X118794Y290299D01*
X119048Y290261D01*
X119270Y290212D01*
X119458Y290156D01*
X119615Y290095D01*
X119738Y290031D01*
X119826Y289973D01*
X121563Y288236D01*
X121993Y287949D01*
X122500Y287848D01*
X127337D01*
X127355Y287355D01*
X126465Y287117D01*
X125668Y286656D01*
X125017Y286005D01*
X124556Y285208D01*
X124318Y284319D01*
Y283398D01*
X124556Y282508D01*
X125017Y281711D01*
X125668Y281060D01*
X126465Y280600D01*
X127355Y280361D01*
X128275D01*
X129165Y280600D01*
X129962Y281060D01*
X130613Y281711D01*
X131073Y282508D01*
X131312Y283398D01*
Y284319D01*
X131073Y285208D01*
X130613Y286005D01*
X129962Y286656D01*
X129165Y287117D01*
X128275Y287355D01*
X128293Y287848D01*
X141183D01*
X193059Y235972D01*
X193489Y235685D01*
X193996Y235584D01*
X205938D01*
X206446Y235685D01*
X206876Y235972D01*
X213175Y242271D01*
X213180Y242276D01*
X213211Y242299D01*
X213230Y242310D01*
X213478D01*
X214134Y242582D01*
X214636Y243084D01*
X214908Y243740D01*
Y244449D01*
X214636Y245105D01*
X214134Y245607D01*
X213478Y245879D01*
X212768D01*
X212113Y245607D01*
X211611Y245105D01*
X211339Y244449D01*
Y244201D01*
X211328Y244183D01*
X211310Y244159D01*
X211292Y244138D01*
X205389Y238235D01*
X194545D01*
X142670Y290110D01*
X142239Y290398D01*
X141732Y290499D01*
X129990D01*
X129856Y290999D01*
X129962Y291060D01*
X130243Y291341D01*
X130301Y291377D01*
X130810Y291858D01*
X131024Y292034D01*
X131231Y292186D01*
X131422Y292308D01*
X131595Y292403D01*
X131749Y292469D01*
X131881Y292512D01*
X131984Y292533D01*
X149392D01*
X197925Y244000D01*
X197929Y243994D01*
X197952Y243963D01*
X197964Y243945D01*
Y243696D01*
X198235Y243040D01*
X198737Y242538D01*
X199393Y242267D01*
X200103D01*
X200759Y242538D01*
X201261Y243040D01*
X201532Y243696D01*
Y244406D01*
X201261Y245062D01*
X200759Y245564D01*
X200103Y245835D01*
X199854D01*
X199836Y245847D01*
X199812Y245864D01*
X199791Y245882D01*
X150878Y294795D01*
X150448Y295083D01*
X149941Y295184D01*
X131984D01*
X131881Y295204D01*
X131749Y295247D01*
X131595Y295314D01*
X131422Y295408D01*
X131231Y295531D01*
X131032Y295676D01*
X130562Y296082D01*
X130313Y296328D01*
X130249Y296370D01*
X129962Y296656D01*
X129165Y297117D01*
X128275Y297355D01*
D02*
G37*
G36*
X30678Y289839D02*
X29674D01*
X28705Y289579D01*
X27836Y289077D01*
X27126Y288368D01*
X26624Y287499D01*
X26364Y286529D01*
Y285525D01*
X26624Y284556D01*
X27126Y283687D01*
X27836Y282977D01*
X28705Y282475D01*
X29674Y282215D01*
X30678D01*
X31648Y282475D01*
X32517Y282977D01*
X33226Y283687D01*
X33728Y284556D01*
X33988Y285525D01*
Y286529D01*
X33728Y287499D01*
X33226Y288368D01*
X32517Y289077D01*
X31648Y289579D01*
X30678Y289839D01*
D02*
G37*
G36*
X20678D02*
X19674D01*
X18705Y289579D01*
X17836Y289077D01*
X17126Y288368D01*
X16624Y287499D01*
X16364Y286529D01*
Y285525D01*
X16624Y284556D01*
X17126Y283687D01*
X17836Y282977D01*
X18705Y282475D01*
X19674Y282215D01*
X20678D01*
X21647Y282475D01*
X22517Y282977D01*
X23226Y283687D01*
X23728Y284556D01*
X23988Y285525D01*
Y286529D01*
X23728Y287499D01*
X23226Y288368D01*
X22517Y289077D01*
X21647Y289579D01*
X20678Y289839D01*
D02*
G37*
G36*
X118275Y287355D02*
X117355D01*
X116465Y287117D01*
X115668Y286656D01*
X115017Y286005D01*
X114556Y285208D01*
X114318Y284319D01*
Y283398D01*
X114556Y282508D01*
X115017Y281711D01*
X115668Y281060D01*
X116465Y280600D01*
X117355Y280361D01*
X118275D01*
X119165Y280600D01*
X119962Y281060D01*
X120613Y281711D01*
X121073Y282508D01*
X121312Y283398D01*
Y284319D01*
X121073Y285208D01*
X120613Y286005D01*
X119962Y286656D01*
X119165Y287117D01*
X118275Y287355D01*
D02*
G37*
G36*
X42186Y283280D02*
X41476D01*
X40820Y283009D01*
X40318Y282507D01*
X40047Y281851D01*
Y281141D01*
X40318Y280485D01*
X40820Y279983D01*
X41476Y279712D01*
X42186D01*
X42841Y279983D01*
X43343Y280485D01*
X43615Y281141D01*
Y281851D01*
X43343Y282507D01*
X42841Y283009D01*
X42186Y283280D01*
D02*
G37*
G36*
X30678Y279839D02*
X29674D01*
X28705Y279579D01*
X27836Y279078D01*
X27126Y278368D01*
X26624Y277499D01*
X26364Y276529D01*
Y275525D01*
X26624Y274556D01*
X27126Y273687D01*
X27836Y272977D01*
X28705Y272475D01*
X29674Y272216D01*
X30678D01*
X31648Y272475D01*
X32517Y272977D01*
X33226Y273687D01*
X33728Y274556D01*
X33988Y275525D01*
Y276529D01*
X33728Y277499D01*
X33226Y278368D01*
X32517Y279078D01*
X31648Y279579D01*
X30678Y279839D01*
D02*
G37*
G36*
X20678D02*
X19674D01*
X18705Y279579D01*
X17836Y279078D01*
X17126Y278368D01*
X16624Y277499D01*
X16364Y276529D01*
Y275525D01*
X16624Y274556D01*
X17126Y273687D01*
X17836Y272977D01*
X18705Y272475D01*
X19674Y272216D01*
X20678D01*
X21647Y272475D01*
X22517Y272977D01*
X23226Y273687D01*
X23728Y274556D01*
X23988Y275525D01*
Y276529D01*
X23728Y277499D01*
X23226Y278368D01*
X22517Y279078D01*
X21647Y279579D01*
X20678Y279839D01*
D02*
G37*
G36*
X128275Y277355D02*
X127355D01*
X126465Y277117D01*
X125668Y276656D01*
X125017Y276005D01*
X124556Y275208D01*
X124318Y274319D01*
Y273398D01*
X124556Y272509D01*
X125017Y271711D01*
X125668Y271060D01*
X126026Y270853D01*
X126200Y270188D01*
X126163Y270125D01*
X123423D01*
X121700Y271847D01*
X121642Y271935D01*
X121579Y272059D01*
X121517Y272215D01*
X121461Y272404D01*
X121413Y272625D01*
X121375Y272869D01*
X121330Y273488D01*
X121327Y273838D01*
X121312Y273913D01*
Y274319D01*
X121073Y275208D01*
X120613Y276005D01*
X119962Y276656D01*
X119165Y277117D01*
X118275Y277355D01*
X117355D01*
X116465Y277117D01*
X115668Y276656D01*
X115017Y276005D01*
X114556Y275208D01*
X114318Y274319D01*
Y273398D01*
X114556Y272509D01*
X115017Y271711D01*
X115668Y271060D01*
X116465Y270600D01*
X117355Y270361D01*
X117752D01*
X117819Y270346D01*
X118518Y270326D01*
X118794Y270299D01*
X119048Y270261D01*
X119270Y270212D01*
X119458Y270156D01*
X119615Y270095D01*
X119738Y270031D01*
X119826Y269973D01*
X121937Y267862D01*
X122367Y267575D01*
X122874Y267474D01*
X126084D01*
X126217Y266974D01*
X125668Y266656D01*
X125017Y266005D01*
X124556Y265208D01*
X124318Y264319D01*
Y263398D01*
X124556Y262509D01*
X125017Y261711D01*
X125668Y261060D01*
X126465Y260600D01*
X127355Y260361D01*
X128275D01*
X129165Y260600D01*
X129962Y261060D01*
X130613Y261711D01*
X131073Y262509D01*
X131312Y263398D01*
Y264319D01*
X131073Y265208D01*
X130613Y266005D01*
X129962Y266656D01*
X129412Y266974D01*
X129546Y267474D01*
X136262D01*
X177409Y226326D01*
X177839Y226039D01*
X178347Y225938D01*
X223130D01*
X223637Y226039D01*
X224067Y226326D01*
X240012Y242271D01*
X240017Y242276D01*
X240049Y242299D01*
X240067Y242310D01*
X240316D01*
X240971Y242582D01*
X241473Y243084D01*
X241745Y243740D01*
Y244449D01*
X241473Y245105D01*
X240971Y245607D01*
X240316Y245879D01*
X239606D01*
X238950Y245607D01*
X238448Y245105D01*
X238176Y244449D01*
Y244201D01*
X238165Y244183D01*
X238147Y244159D01*
X238129Y244138D01*
X222581Y228589D01*
X178895D01*
X137748Y269737D01*
X137318Y270024D01*
X136811Y270125D01*
X129467D01*
X129430Y270188D01*
X129604Y270853D01*
X129962Y271060D01*
X130243Y271341D01*
X130301Y271377D01*
X130810Y271858D01*
X131024Y272034D01*
X131231Y272186D01*
X131422Y272308D01*
X131595Y272403D01*
X131749Y272469D01*
X131881Y272512D01*
X131984Y272533D01*
X143408D01*
X184791Y231149D01*
X185221Y230862D01*
X185728Y230761D01*
X214534D01*
X215041Y230862D01*
X215471Y231149D01*
X226593Y242271D01*
X226599Y242276D01*
X226630Y242299D01*
X226648Y242310D01*
X226897D01*
X227553Y242582D01*
X228055Y243084D01*
X228326Y243740D01*
Y244449D01*
X228055Y245105D01*
X227553Y245607D01*
X226897Y245879D01*
X226187D01*
X225531Y245607D01*
X225029Y245105D01*
X224758Y244449D01*
Y244201D01*
X224746Y244183D01*
X224729Y244159D01*
X224711Y244138D01*
X213985Y233412D01*
X186277D01*
X144894Y274796D01*
X144464Y275083D01*
X143957Y275184D01*
X131984D01*
X131881Y275204D01*
X131749Y275247D01*
X131595Y275314D01*
X131422Y275408D01*
X131231Y275531D01*
X131032Y275676D01*
X130562Y276082D01*
X130313Y276328D01*
X130249Y276370D01*
X129962Y276656D01*
X129165Y277117D01*
X128275Y277355D01*
D02*
G37*
G36*
X30678Y269839D02*
X29674D01*
X28705Y269579D01*
X27836Y269077D01*
X27126Y268368D01*
X26624Y267499D01*
X26364Y266529D01*
Y265526D01*
X26624Y264556D01*
X27126Y263687D01*
X27836Y262977D01*
X28705Y262475D01*
X29674Y262215D01*
X30678D01*
X31648Y262475D01*
X32517Y262977D01*
X33226Y263687D01*
X33728Y264556D01*
X33988Y265526D01*
Y266529D01*
X33728Y267499D01*
X33226Y268368D01*
X32517Y269077D01*
X31648Y269579D01*
X30678Y269839D01*
D02*
G37*
G36*
X20678D02*
X19674D01*
X18705Y269579D01*
X17836Y269077D01*
X17126Y268368D01*
X16624Y267499D01*
X16364Y266529D01*
Y265526D01*
X16624Y264556D01*
X17126Y263687D01*
X17836Y262977D01*
X18705Y262475D01*
X19674Y262215D01*
X20678D01*
X21647Y262475D01*
X22517Y262977D01*
X23226Y263687D01*
X23728Y264556D01*
X23988Y265526D01*
Y266529D01*
X23728Y267499D01*
X23226Y268368D01*
X22517Y269077D01*
X21647Y269579D01*
X20678Y269839D01*
D02*
G37*
G36*
X42186Y265564D02*
X41476D01*
X40820Y265292D01*
X40318Y264790D01*
X40047Y264134D01*
Y263425D01*
X40318Y262769D01*
X40820Y262267D01*
X41476Y261995D01*
X42186D01*
X42841Y262267D01*
X43343Y262769D01*
X43615Y263425D01*
Y264134D01*
X43343Y264790D01*
X42841Y265292D01*
X42186Y265564D01*
D02*
G37*
G36*
X118275Y267355D02*
X117355D01*
X116465Y267117D01*
X115668Y266656D01*
X115017Y266005D01*
X114556Y265208D01*
X114318Y264319D01*
Y263398D01*
X114556Y262509D01*
X115017Y261711D01*
X115668Y261060D01*
X116465Y260600D01*
X117355Y260361D01*
X118275D01*
X119165Y260600D01*
X119962Y261060D01*
X120613Y261711D01*
X121073Y262509D01*
X121312Y263398D01*
Y264319D01*
X121073Y265208D01*
X120613Y266005D01*
X119962Y266656D01*
X119165Y267117D01*
X118275Y267355D01*
D02*
G37*
G36*
X30678Y259839D02*
X29674D01*
X28705Y259579D01*
X27836Y259078D01*
X27126Y258368D01*
X26624Y257499D01*
X26364Y256529D01*
Y255525D01*
X26624Y254556D01*
X27126Y253687D01*
X27836Y252977D01*
X28705Y252475D01*
X29674Y252216D01*
X30678D01*
X31648Y252475D01*
X32517Y252977D01*
X33226Y253687D01*
X33728Y254556D01*
X33988Y255525D01*
Y256529D01*
X33728Y257499D01*
X33226Y258368D01*
X32517Y259078D01*
X31648Y259579D01*
X30678Y259839D01*
D02*
G37*
G36*
X20678D02*
X19674D01*
X18705Y259579D01*
X17836Y259078D01*
X17126Y258368D01*
X16624Y257499D01*
X16364Y256529D01*
Y255525D01*
X16624Y254556D01*
X17126Y253687D01*
X17836Y252977D01*
X18705Y252475D01*
X19674Y252216D01*
X20678D01*
X21647Y252475D01*
X22517Y252977D01*
X23226Y253687D01*
X23728Y254556D01*
X23988Y255525D01*
Y256529D01*
X23728Y257499D01*
X23226Y258368D01*
X22517Y259078D01*
X21647Y259579D01*
X20678Y259839D01*
D02*
G37*
G36*
X128275Y257355D02*
X127355D01*
X126465Y257117D01*
X125668Y256656D01*
X125017Y256005D01*
X124556Y255208D01*
X124318Y254319D01*
Y253398D01*
X124556Y252508D01*
X125017Y251711D01*
X125668Y251060D01*
X125876Y250940D01*
X125742Y250440D01*
X123108D01*
X121700Y251847D01*
X121642Y251935D01*
X121579Y252059D01*
X121517Y252215D01*
X121461Y252404D01*
X121413Y252625D01*
X121375Y252869D01*
X121330Y253488D01*
X121327Y253838D01*
X121312Y253913D01*
Y254319D01*
X121073Y255208D01*
X120613Y256005D01*
X119962Y256656D01*
X119165Y257117D01*
X118275Y257355D01*
X117355D01*
X116465Y257117D01*
X115668Y256656D01*
X115017Y256005D01*
X114556Y255208D01*
X114318Y254319D01*
Y253398D01*
X114556Y252508D01*
X115017Y251711D01*
X115668Y251060D01*
X116465Y250600D01*
X117355Y250361D01*
X117752D01*
X117819Y250346D01*
X118518Y250326D01*
X118794Y250299D01*
X119048Y250260D01*
X119270Y250212D01*
X119458Y250156D01*
X119615Y250095D01*
X119738Y250031D01*
X119826Y249973D01*
X121622Y248177D01*
X122052Y247890D01*
X122559Y247789D01*
X127041D01*
X127107Y247289D01*
X126465Y247117D01*
X125668Y246656D01*
X125017Y246005D01*
X124556Y245208D01*
X124318Y244319D01*
Y243398D01*
X124556Y242509D01*
X125017Y241711D01*
X125668Y241060D01*
X126465Y240600D01*
X127355Y240361D01*
X128275D01*
X129165Y240600D01*
X129962Y241060D01*
X130613Y241711D01*
X131073Y242509D01*
X131312Y243398D01*
Y244319D01*
X131073Y245208D01*
X130613Y246005D01*
X129962Y246656D01*
X129165Y247117D01*
X128523Y247289D01*
X128589Y247789D01*
X134097D01*
X167468Y214417D01*
X167898Y214130D01*
X168405Y214029D01*
X238058D01*
X238565Y214130D01*
X238995Y214417D01*
X266849Y242271D01*
X266855Y242276D01*
X266886Y242299D01*
X266904Y242310D01*
X267153D01*
X267809Y242582D01*
X268310Y243084D01*
X268582Y243740D01*
Y244449D01*
X268310Y245105D01*
X267809Y245607D01*
X267153Y245879D01*
X266443D01*
X265787Y245607D01*
X265285Y245105D01*
X265014Y244449D01*
Y244201D01*
X265002Y244183D01*
X264985Y244159D01*
X264967Y244138D01*
X237509Y216680D01*
X168955D01*
X135583Y250051D01*
X135153Y250339D01*
X134646Y250440D01*
X129887D01*
X129753Y250940D01*
X129962Y251060D01*
X130243Y251341D01*
X130301Y251378D01*
X130810Y251858D01*
X131024Y252034D01*
X131231Y252186D01*
X131422Y252309D01*
X131595Y252402D01*
X131749Y252469D01*
X131881Y252512D01*
X131984Y252533D01*
X140278D01*
X171799Y221012D01*
X172229Y220724D01*
X172736Y220623D01*
X231234D01*
X231741Y220724D01*
X232171Y221012D01*
X253431Y242271D01*
X253436Y242276D01*
X253467Y242299D01*
X253486Y242310D01*
X253734D01*
X254390Y242582D01*
X254892Y243084D01*
X255164Y243740D01*
Y244449D01*
X254892Y245105D01*
X254390Y245607D01*
X253734Y245879D01*
X253024D01*
X252368Y245607D01*
X251867Y245105D01*
X251595Y244449D01*
Y244201D01*
X251583Y244183D01*
X251566Y244159D01*
X251548Y244138D01*
X230684Y223274D01*
X173285D01*
X141764Y254796D01*
X141334Y255083D01*
X140827Y255184D01*
X131984D01*
X131881Y255204D01*
X131749Y255247D01*
X131595Y255314D01*
X131422Y255408D01*
X131231Y255531D01*
X131032Y255677D01*
X130562Y256083D01*
X130313Y256328D01*
X130249Y256370D01*
X129962Y256656D01*
X129165Y257117D01*
X128275Y257355D01*
D02*
G37*
G36*
X21176Y249913D02*
Y247027D01*
X24062D01*
X23915Y247576D01*
X23386Y248491D01*
X22639Y249238D01*
X21725Y249766D01*
X21176Y249913D01*
D02*
G37*
G36*
X19176D02*
X18628Y249766D01*
X17713Y249238D01*
X16966Y248491D01*
X16438Y247576D01*
X16291Y247027D01*
X19176D01*
Y249913D01*
D02*
G37*
G36*
X24062Y245027D02*
X21176D01*
Y242142D01*
X21725Y242289D01*
X22639Y242817D01*
X23386Y243564D01*
X23915Y244479D01*
X24062Y245027D01*
D02*
G37*
G36*
X19176D02*
X16291D01*
X16438Y244479D01*
X16966Y243564D01*
X17713Y242817D01*
X18628Y242289D01*
X19176Y242142D01*
Y245027D01*
D02*
G37*
G36*
X118275Y247355D02*
X117355D01*
X116465Y247117D01*
X115668Y246656D01*
X115017Y246005D01*
X114556Y245208D01*
X114318Y244319D01*
Y243398D01*
X114556Y242509D01*
X115017Y241711D01*
X115668Y241060D01*
X116465Y240600D01*
X117355Y240361D01*
X118275D01*
X119165Y240600D01*
X119962Y241060D01*
X120613Y241711D01*
X121073Y242509D01*
X121312Y243398D01*
Y244319D01*
X121073Y245208D01*
X120613Y246005D01*
X119962Y246656D01*
X119165Y247117D01*
X118275Y247355D01*
D02*
G37*
G36*
X30678Y239839D02*
X29674D01*
X28705Y239579D01*
X27836Y239077D01*
X27126Y238368D01*
X26624Y237499D01*
X26364Y236529D01*
Y235525D01*
X26624Y234556D01*
X27126Y233687D01*
X27836Y232977D01*
X28705Y232475D01*
X29674Y232215D01*
X30678D01*
X31648Y232475D01*
X32517Y232977D01*
X33226Y233687D01*
X33728Y234556D01*
X33988Y235525D01*
Y236529D01*
X33728Y237499D01*
X33226Y238368D01*
X32517Y239077D01*
X31648Y239579D01*
X30678Y239839D01*
D02*
G37*
G36*
X20678D02*
X19674D01*
X18705Y239579D01*
X17836Y239077D01*
X17126Y238368D01*
X16624Y237499D01*
X16364Y236529D01*
Y235525D01*
X16624Y234556D01*
X17126Y233687D01*
X17836Y232977D01*
X18705Y232475D01*
X19674Y232215D01*
X20678D01*
X21647Y232475D01*
X22517Y232977D01*
X23226Y233687D01*
X23728Y234556D01*
X23988Y235525D01*
Y236529D01*
X23728Y237499D01*
X23226Y238368D01*
X22517Y239077D01*
X21647Y239579D01*
X20678Y239839D01*
D02*
G37*
G36*
X30678Y229839D02*
X29674D01*
X28705Y229579D01*
X27836Y229078D01*
X27126Y228368D01*
X26624Y227499D01*
X26364Y226529D01*
Y225525D01*
X26624Y224556D01*
X27126Y223687D01*
X27836Y222977D01*
X28705Y222475D01*
X29674Y222216D01*
X30678D01*
X31648Y222475D01*
X32517Y222977D01*
X33226Y223687D01*
X33728Y224556D01*
X33988Y225525D01*
Y226529D01*
X33728Y227499D01*
X33226Y228368D01*
X32517Y229078D01*
X31648Y229579D01*
X30678Y229839D01*
D02*
G37*
G36*
X20678D02*
X19674D01*
X18705Y229579D01*
X17836Y229078D01*
X17126Y228368D01*
X16624Y227499D01*
X16364Y226529D01*
Y225525D01*
X16624Y224556D01*
X17126Y223687D01*
X17836Y222977D01*
X18705Y222475D01*
X19674Y222216D01*
X20678D01*
X21647Y222475D01*
X22517Y222977D01*
X23226Y223687D01*
X23728Y224556D01*
X23988Y225525D01*
Y226529D01*
X23728Y227499D01*
X23226Y228368D01*
X22517Y229078D01*
X21647Y229579D01*
X20678Y229839D01*
D02*
G37*
G36*
X118275Y227355D02*
X117355D01*
X116465Y227117D01*
X115668Y226656D01*
X115017Y226005D01*
X114556Y225208D01*
X114318Y224319D01*
Y223398D01*
X114556Y222509D01*
X115017Y221711D01*
X115668Y221060D01*
X116465Y220600D01*
X117355Y220361D01*
X118275D01*
X119165Y220600D01*
X119962Y221060D01*
X120613Y221711D01*
X121073Y222509D01*
X121312Y223398D01*
Y224319D01*
X121073Y225208D01*
X120613Y226005D01*
X119962Y226656D01*
X119165Y227117D01*
X118275Y227355D01*
D02*
G37*
G36*
X30678Y219839D02*
X29674D01*
X28705Y219579D01*
X27836Y219077D01*
X27126Y218368D01*
X26624Y217499D01*
X26364Y216529D01*
Y215526D01*
X26624Y214556D01*
X27126Y213687D01*
X27836Y212977D01*
X28705Y212475D01*
X29674Y212215D01*
X30678D01*
X31648Y212475D01*
X32517Y212977D01*
X33226Y213687D01*
X33728Y214556D01*
X33988Y215526D01*
Y216529D01*
X33728Y217499D01*
X33226Y218368D01*
X32517Y219077D01*
X31648Y219579D01*
X30678Y219839D01*
D02*
G37*
G36*
X20678D02*
X19674D01*
X18705Y219579D01*
X17836Y219077D01*
X17126Y218368D01*
X16624Y217499D01*
X16364Y216529D01*
Y215526D01*
X16624Y214556D01*
X17126Y213687D01*
X17836Y212977D01*
X18705Y212475D01*
X19674Y212215D01*
X20678D01*
X21647Y212475D01*
X22517Y212977D01*
X23226Y213687D01*
X23728Y214556D01*
X23988Y215526D01*
Y216529D01*
X23728Y217499D01*
X23226Y218368D01*
X22517Y219077D01*
X21647Y219579D01*
X20678Y219839D01*
D02*
G37*
G36*
X293990Y245879D02*
X293280D01*
X292624Y245607D01*
X292123Y245105D01*
X291851Y244449D01*
Y244201D01*
X291839Y244183D01*
X291822Y244159D01*
X291804Y244138D01*
X252240Y204573D01*
X160785D01*
X135681Y229677D01*
X135251Y229965D01*
X134744Y230066D01*
X129103D01*
X129037Y230566D01*
X129165Y230600D01*
X129962Y231060D01*
X130243Y231341D01*
X130301Y231378D01*
X130810Y231858D01*
X131024Y232034D01*
X131231Y232186D01*
X131422Y232309D01*
X131595Y232402D01*
X131749Y232469D01*
X131881Y232512D01*
X131984Y232533D01*
X141085D01*
X165106Y208512D01*
X165536Y208224D01*
X166043Y208123D01*
X166043Y208123D01*
X245571D01*
X246078Y208224D01*
X246508Y208512D01*
X280268Y242271D01*
X280273Y242276D01*
X280305Y242299D01*
X280323Y242310D01*
X280571D01*
X281227Y242582D01*
X281729Y243084D01*
X282001Y243740D01*
Y244449D01*
X281729Y245105D01*
X281227Y245607D01*
X280571Y245879D01*
X279862D01*
X279206Y245607D01*
X278704Y245105D01*
X278432Y244449D01*
Y244201D01*
X278421Y244183D01*
X278403Y244159D01*
X278385Y244138D01*
X245022Y210774D01*
X166592D01*
X142571Y234795D01*
X142141Y235083D01*
X141634Y235184D01*
X131984D01*
X131881Y235204D01*
X131749Y235247D01*
X131595Y235314D01*
X131422Y235408D01*
X131231Y235530D01*
X131032Y235677D01*
X130562Y236083D01*
X130313Y236328D01*
X130249Y236370D01*
X129962Y236656D01*
X129165Y237117D01*
X128275Y237355D01*
X127355D01*
X126465Y237117D01*
X125668Y236656D01*
X125017Y236005D01*
X124556Y235208D01*
X124318Y234319D01*
Y233398D01*
X124556Y232508D01*
X125017Y231711D01*
X125668Y231060D01*
X126465Y230600D01*
X126593Y230566D01*
X126527Y230066D01*
X123482D01*
X121700Y231847D01*
X121642Y231935D01*
X121579Y232059D01*
X121517Y232215D01*
X121461Y232404D01*
X121413Y232626D01*
X121375Y232869D01*
X121330Y233488D01*
X121327Y233838D01*
X121312Y233913D01*
Y234319D01*
X121073Y235208D01*
X120613Y236005D01*
X119962Y236656D01*
X119165Y237117D01*
X118275Y237355D01*
X117355D01*
X116465Y237117D01*
X115668Y236656D01*
X115017Y236005D01*
X114556Y235208D01*
X114318Y234319D01*
Y233398D01*
X114556Y232508D01*
X115017Y231711D01*
X115668Y231060D01*
X116465Y230600D01*
X117355Y230361D01*
X117752D01*
X117819Y230346D01*
X118518Y230326D01*
X118794Y230299D01*
X119048Y230260D01*
X119270Y230212D01*
X119458Y230156D01*
X119615Y230095D01*
X119738Y230031D01*
X119826Y229973D01*
X121996Y227803D01*
X122426Y227516D01*
X122933Y227415D01*
X125981D01*
X126115Y226915D01*
X125668Y226656D01*
X125017Y226005D01*
X124556Y225208D01*
X124318Y224319D01*
Y223398D01*
X124556Y222509D01*
X125017Y221711D01*
X125668Y221060D01*
X126465Y220600D01*
X127355Y220361D01*
X128275D01*
X129165Y220600D01*
X129962Y221060D01*
X130613Y221711D01*
X131073Y222509D01*
X131312Y223398D01*
Y224319D01*
X131073Y225208D01*
X130613Y226005D01*
X129962Y226656D01*
X129515Y226915D01*
X129649Y227415D01*
X134195D01*
X159299Y202311D01*
X159729Y202024D01*
X160236Y201923D01*
X252789D01*
X253296Y202024D01*
X253726Y202311D01*
X293686Y242271D01*
X293692Y242276D01*
X293723Y242299D01*
X293741Y242310D01*
X293990D01*
X294646Y242582D01*
X295148Y243084D01*
X295419Y243740D01*
Y244449D01*
X295148Y245105D01*
X294646Y245607D01*
X293990Y245879D01*
D02*
G37*
G36*
X118815Y207418D02*
Y204858D01*
X121374D01*
X121260Y205285D01*
X120773Y206128D01*
X120085Y206817D01*
X119242Y207303D01*
X118815Y207418D01*
D02*
G37*
G36*
X116815Y207418D02*
X116388Y207303D01*
X115545Y206817D01*
X114857Y206128D01*
X114370Y205285D01*
X114256Y204858D01*
X116815D01*
Y207418D01*
D02*
G37*
G36*
X30678Y209839D02*
X29674D01*
X28705Y209579D01*
X27836Y209078D01*
X27126Y208368D01*
X26624Y207499D01*
X26364Y206529D01*
Y205525D01*
X26624Y204556D01*
X27126Y203687D01*
X27836Y202977D01*
X28705Y202475D01*
X29674Y202216D01*
X30678D01*
X31648Y202475D01*
X32517Y202977D01*
X33226Y203687D01*
X33728Y204556D01*
X33988Y205525D01*
Y206529D01*
X33728Y207499D01*
X33226Y208368D01*
X32517Y209078D01*
X31648Y209579D01*
X30678Y209839D01*
D02*
G37*
G36*
X20678D02*
X19674D01*
X18705Y209579D01*
X17836Y209078D01*
X17126Y208368D01*
X16624Y207499D01*
X16364Y206529D01*
Y205525D01*
X16624Y204556D01*
X17126Y203687D01*
X17836Y202977D01*
X18705Y202475D01*
X19674Y202216D01*
X20678D01*
X21647Y202475D01*
X22517Y202977D01*
X23226Y203687D01*
X23728Y204556D01*
X23988Y205525D01*
Y206529D01*
X23728Y207499D01*
X23226Y208368D01*
X22517Y209078D01*
X21647Y209579D01*
X20678Y209839D01*
D02*
G37*
G36*
X116815Y202858D02*
X114256D01*
X114370Y202431D01*
X114857Y201588D01*
X115545Y200900D01*
X116388Y200413D01*
X116815Y200299D01*
Y202858D01*
D02*
G37*
G36*
X126815D02*
X124256D01*
X124370Y202431D01*
X124857Y201588D01*
X125545Y200900D01*
X126388Y200413D01*
X126815Y200299D01*
Y202858D01*
D02*
G37*
G36*
X131374D02*
X128815D01*
Y200299D01*
X129242Y200413D01*
X130085Y200900D01*
X130773Y201588D01*
X131260Y202431D01*
X131374Y202858D01*
D02*
G37*
G36*
X121374D02*
X118815D01*
Y200299D01*
X119242Y200413D01*
X120085Y200900D01*
X120773Y201588D01*
X121260Y202431D01*
X121374Y202858D01*
D02*
G37*
G36*
X307409Y245879D02*
X306699D01*
X306043Y245607D01*
X305541Y245105D01*
X305270Y244449D01*
Y244201D01*
X305258Y244183D01*
X305241Y244159D01*
X305223Y244138D01*
X259654Y198570D01*
X156553D01*
X140327Y214795D01*
X139897Y215083D01*
X139390Y215184D01*
X131984D01*
X131881Y215204D01*
X131749Y215247D01*
X131595Y215314D01*
X131422Y215408D01*
X131231Y215530D01*
X131032Y215676D01*
X130562Y216083D01*
X130313Y216328D01*
X130249Y216370D01*
X129962Y216656D01*
X129165Y217117D01*
X128275Y217355D01*
X127355D01*
X126465Y217117D01*
X125668Y216656D01*
X125017Y216005D01*
X124556Y215208D01*
X124318Y214319D01*
Y213398D01*
X124556Y212509D01*
X125017Y211711D01*
X125668Y211060D01*
X126320Y210684D01*
X126186Y210184D01*
X123364D01*
X121700Y211847D01*
X121642Y211935D01*
X121579Y212059D01*
X121517Y212215D01*
X121461Y212404D01*
X121413Y212626D01*
X121375Y212869D01*
X121330Y213488D01*
X121327Y213838D01*
X121312Y213913D01*
Y214319D01*
X121073Y215208D01*
X120613Y216005D01*
X119962Y216656D01*
X119165Y217117D01*
X118275Y217355D01*
X117355D01*
X116465Y217117D01*
X115668Y216656D01*
X115017Y216005D01*
X114556Y215208D01*
X114318Y214319D01*
Y213398D01*
X114556Y212509D01*
X115017Y211711D01*
X115668Y211060D01*
X116465Y210600D01*
X117355Y210361D01*
X117752D01*
X117819Y210346D01*
X118518Y210326D01*
X118794Y210299D01*
X119048Y210261D01*
X119270Y210212D01*
X119458Y210156D01*
X119615Y210095D01*
X119738Y210031D01*
X119826Y209973D01*
X121878Y207921D01*
X122308Y207634D01*
X122815Y207533D01*
X125786D01*
X125920Y207033D01*
X125545Y206817D01*
X124857Y206128D01*
X124370Y205285D01*
X124256Y204858D01*
X127815D01*
X131374D01*
X131260Y205285D01*
X130773Y206128D01*
X130085Y206817D01*
X129710Y207033D01*
X129844Y207533D01*
X132915D01*
X151166Y189282D01*
X151596Y188995D01*
X152103Y188894D01*
X266991D01*
X267498Y188995D01*
X267929Y189282D01*
X320524Y241878D01*
X320529Y241882D01*
X320561Y241905D01*
X320579Y241916D01*
X320827D01*
X321483Y242188D01*
X321985Y242690D01*
X322257Y243346D01*
Y244056D01*
X321985Y244711D01*
X321483Y245213D01*
X320827Y245485D01*
X320117D01*
X319462Y245213D01*
X318960Y244711D01*
X318688Y244056D01*
Y243807D01*
X318676Y243789D01*
X318659Y243765D01*
X318641Y243744D01*
X266442Y191545D01*
X152652D01*
X134402Y209795D01*
X133972Y210083D01*
X133465Y210184D01*
X129444D01*
X129310Y210684D01*
X129962Y211060D01*
X130243Y211341D01*
X130301Y211378D01*
X130810Y211858D01*
X131024Y212034D01*
X131231Y212186D01*
X131422Y212309D01*
X131595Y212403D01*
X131749Y212469D01*
X131881Y212512D01*
X131984Y212533D01*
X138841D01*
X155067Y196307D01*
X155497Y196019D01*
X156004Y195919D01*
X260203D01*
X260711Y196019D01*
X261141Y196307D01*
X307105Y242271D01*
X307110Y242276D01*
X307142Y242299D01*
X307160Y242310D01*
X307409D01*
X308065Y242582D01*
X308566Y243084D01*
X308838Y243740D01*
Y244449D01*
X308566Y245105D01*
X308065Y245607D01*
X307409Y245879D01*
D02*
G37*
G36*
X30678Y199839D02*
X29674D01*
X28705Y199579D01*
X27836Y199077D01*
X27126Y198368D01*
X26624Y197499D01*
X26364Y196529D01*
Y195526D01*
X26624Y194556D01*
X27126Y193687D01*
X27836Y192977D01*
X28705Y192475D01*
X29674Y192216D01*
X30678D01*
X31648Y192475D01*
X32517Y192977D01*
X33226Y193687D01*
X33728Y194556D01*
X33988Y195526D01*
Y196529D01*
X33728Y197499D01*
X33226Y198368D01*
X32517Y199077D01*
X31648Y199579D01*
X30678Y199839D01*
D02*
G37*
G36*
X20678D02*
X19674D01*
X18705Y199579D01*
X17836Y199077D01*
X17126Y198368D01*
X16624Y197499D01*
X16364Y196529D01*
Y195526D01*
X16624Y194556D01*
X17126Y193687D01*
X17836Y192977D01*
X18705Y192475D01*
X19674Y192216D01*
X20678D01*
X21647Y192475D01*
X22517Y192977D01*
X23226Y193687D01*
X23728Y194556D01*
X23988Y195526D01*
Y196529D01*
X23728Y197499D01*
X23226Y198368D01*
X22517Y199077D01*
X21647Y199579D01*
X20678Y199839D01*
D02*
G37*
G36*
X128275Y197355D02*
X127355D01*
X126465Y197117D01*
X125668Y196656D01*
X125017Y196005D01*
X124556Y195208D01*
X124318Y194319D01*
Y193398D01*
X124556Y192508D01*
X125017Y191711D01*
X125668Y191060D01*
X126465Y190600D01*
X127355Y190361D01*
X128275D01*
X129165Y190600D01*
X129962Y191060D01*
X130613Y191711D01*
X131073Y192508D01*
X131312Y193398D01*
Y194319D01*
X131073Y195208D01*
X130613Y196005D01*
X129962Y196656D01*
X129165Y197117D01*
X128275Y197355D01*
D02*
G37*
G36*
X118275D02*
X117355D01*
X116465Y197117D01*
X115668Y196656D01*
X115017Y196005D01*
X114556Y195208D01*
X114318Y194319D01*
Y193398D01*
X114556Y192508D01*
X115017Y191711D01*
X115668Y191060D01*
X116465Y190600D01*
X117355Y190361D01*
X118275D01*
X119165Y190600D01*
X119962Y191060D01*
X120613Y191711D01*
X121073Y192508D01*
X121312Y193398D01*
Y194319D01*
X121073Y195208D01*
X120613Y196005D01*
X119962Y196656D01*
X119165Y197117D01*
X118275Y197355D01*
D02*
G37*
G36*
X30678Y189839D02*
X29674D01*
X28705Y189579D01*
X27836Y189077D01*
X27126Y188368D01*
X26624Y187499D01*
X26364Y186529D01*
Y185526D01*
X26624Y184556D01*
X27126Y183687D01*
X27836Y182977D01*
X28705Y182475D01*
X29674Y182215D01*
X30678D01*
X31648Y182475D01*
X32517Y182977D01*
X33226Y183687D01*
X33728Y184556D01*
X33988Y185526D01*
Y186529D01*
X33728Y187499D01*
X33226Y188368D01*
X32517Y189077D01*
X31648Y189579D01*
X30678Y189839D01*
D02*
G37*
G36*
X20678D02*
X19674D01*
X18705Y189579D01*
X17836Y189077D01*
X17126Y188368D01*
X16624Y187499D01*
X16364Y186529D01*
Y185526D01*
X16624Y184556D01*
X17126Y183687D01*
X17836Y182977D01*
X18705Y182475D01*
X19674Y182215D01*
X20678D01*
X21647Y182475D01*
X22517Y182977D01*
X23226Y183687D01*
X23728Y184556D01*
X23988Y185526D01*
Y186529D01*
X23728Y187499D01*
X23226Y188368D01*
X22517Y189077D01*
X21647Y189579D01*
X20678Y189839D01*
D02*
G37*
G36*
X128275Y187355D02*
X127355D01*
X126465Y187117D01*
X125668Y186656D01*
X125017Y186005D01*
X124556Y185208D01*
X124318Y184319D01*
Y183398D01*
X124556Y182509D01*
X125017Y181711D01*
X125668Y181060D01*
X126465Y180600D01*
X127355Y180361D01*
X128275D01*
X129165Y180600D01*
X129962Y181060D01*
X130613Y181711D01*
X131073Y182509D01*
X131312Y183398D01*
Y184319D01*
X131073Y185208D01*
X130613Y186005D01*
X129962Y186656D01*
X129165Y187117D01*
X128275Y187355D01*
D02*
G37*
G36*
X118275D02*
X117355D01*
X116465Y187117D01*
X115668Y186656D01*
X115017Y186005D01*
X114556Y185208D01*
X114318Y184319D01*
Y183398D01*
X114556Y182509D01*
X115017Y181711D01*
X115668Y181060D01*
X116465Y180600D01*
X117355Y180361D01*
X118275D01*
X119165Y180600D01*
X119962Y181060D01*
X120613Y181711D01*
X121073Y182509D01*
X121312Y183398D01*
Y184319D01*
X121073Y185208D01*
X120613Y186005D01*
X119962Y186656D01*
X119165Y187117D01*
X118275Y187355D01*
D02*
G37*
G36*
X357835Y178178D02*
Y173520D01*
X362493D01*
X362169Y174729D01*
X361415Y176035D01*
X360349Y177100D01*
X359044Y177854D01*
X357835Y178178D01*
D02*
G37*
G36*
X355835Y178178D02*
X354625Y177854D01*
X353320Y177100D01*
X352254Y176035D01*
X351500Y174729D01*
X351176Y173520D01*
X355835D01*
Y178178D01*
D02*
G37*
G36*
X30678Y179839D02*
X29674D01*
X28705Y179579D01*
X27836Y179077D01*
X27126Y178368D01*
X26624Y177499D01*
X26364Y176529D01*
Y175525D01*
X26624Y174556D01*
X27126Y173687D01*
X27836Y172977D01*
X28705Y172475D01*
X29674Y172215D01*
X30678D01*
X31648Y172475D01*
X32517Y172977D01*
X33226Y173687D01*
X33728Y174556D01*
X33988Y175525D01*
Y176529D01*
X33728Y177499D01*
X33226Y178368D01*
X32517Y179077D01*
X31648Y179579D01*
X30678Y179839D01*
D02*
G37*
G36*
X20678D02*
X19674D01*
X18705Y179579D01*
X17836Y179077D01*
X17126Y178368D01*
X16624Y177499D01*
X16364Y176529D01*
Y175525D01*
X16624Y174556D01*
X17126Y173687D01*
X17836Y172977D01*
X18705Y172475D01*
X19674Y172215D01*
X20678D01*
X21647Y172475D01*
X22517Y172977D01*
X23226Y173687D01*
X23728Y174556D01*
X23988Y175525D01*
Y176529D01*
X23728Y177499D01*
X23226Y178368D01*
X22517Y179077D01*
X21647Y179579D01*
X20678Y179839D01*
D02*
G37*
G36*
X128275Y177355D02*
X127355D01*
X126465Y177117D01*
X125668Y176656D01*
X125017Y176005D01*
X124556Y175208D01*
X124318Y174319D01*
Y173398D01*
X124556Y172509D01*
X125017Y171711D01*
X125668Y171060D01*
X126465Y170600D01*
X127355Y170361D01*
X128275D01*
X129165Y170600D01*
X129962Y171060D01*
X130613Y171711D01*
X131073Y172509D01*
X131312Y173398D01*
Y174319D01*
X131073Y175208D01*
X130613Y176005D01*
X129962Y176656D01*
X129165Y177117D01*
X128275Y177355D01*
D02*
G37*
G36*
X355835Y171520D02*
X351176D01*
X351500Y170310D01*
X352254Y169005D01*
X353320Y167939D01*
X354625Y167185D01*
X355835Y166861D01*
Y171520D01*
D02*
G37*
G36*
X362493D02*
X357835D01*
Y166861D01*
X359044Y167185D01*
X360349Y167939D01*
X361415Y169005D01*
X362169Y170310D01*
X362493Y171520D01*
D02*
G37*
G36*
X30678Y169839D02*
X29674D01*
X28705Y169579D01*
X27836Y169078D01*
X27126Y168368D01*
X26624Y167499D01*
X26364Y166529D01*
Y165525D01*
X26624Y164556D01*
X27126Y163687D01*
X27836Y162977D01*
X28705Y162475D01*
X29674Y162215D01*
X30678D01*
X31648Y162475D01*
X32517Y162977D01*
X33226Y163687D01*
X33728Y164556D01*
X33988Y165525D01*
Y166529D01*
X33728Y167499D01*
X33226Y168368D01*
X32517Y169078D01*
X31648Y169579D01*
X30678Y169839D01*
D02*
G37*
G36*
X20678D02*
X19674D01*
X18705Y169579D01*
X17836Y169078D01*
X17126Y168368D01*
X16624Y167499D01*
X16364Y166529D01*
Y165525D01*
X16624Y164556D01*
X17126Y163687D01*
X17836Y162977D01*
X18705Y162475D01*
X19674Y162215D01*
X20678D01*
X21647Y162475D01*
X22517Y162977D01*
X23226Y163687D01*
X23728Y164556D01*
X23988Y165525D01*
Y166529D01*
X23728Y167499D01*
X23226Y168368D01*
X22517Y169078D01*
X21647Y169579D01*
X20678Y169839D01*
D02*
G37*
G36*
X371044Y172717D02*
X369626D01*
X368235Y172441D01*
X366925Y171898D01*
X365746Y171110D01*
X364744Y170108D01*
X363956Y168929D01*
X363414Y167619D01*
X363137Y166229D01*
Y164811D01*
X363414Y163420D01*
X363956Y162110D01*
X364744Y160932D01*
X365746Y159929D01*
X366925Y159141D01*
X368235Y158599D01*
X369626Y158322D01*
X371044D01*
X372434Y158599D01*
X373744Y159141D01*
X374923Y159929D01*
X375925Y160932D01*
X376713Y162110D01*
X377256Y163420D01*
X377532Y164811D01*
Y166229D01*
X377256Y167619D01*
X376713Y168929D01*
X375925Y170108D01*
X374923Y171110D01*
X373744Y171898D01*
X372434Y172441D01*
X371044Y172717D01*
D02*
G37*
G36*
X267579Y160938D02*
X266869D01*
X266214Y160666D01*
X265712Y160164D01*
X265440Y159509D01*
Y158799D01*
X265712Y158143D01*
X266214Y157641D01*
X266869Y157369D01*
X267579D01*
X268235Y157641D01*
X268737Y158143D01*
X269009Y158799D01*
Y159509D01*
X268737Y160164D01*
X268235Y160666D01*
X267579Y160938D01*
D02*
G37*
G36*
X213741D02*
X213031D01*
X212375Y160666D01*
X211873Y160164D01*
X211602Y159509D01*
Y158799D01*
X211873Y158143D01*
X212375Y157641D01*
X213031Y157369D01*
X213741D01*
X214397Y157641D01*
X214898Y158143D01*
X215170Y158799D01*
Y159509D01*
X214898Y160164D01*
X214397Y160666D01*
X213741Y160938D01*
D02*
G37*
G36*
X240709Y160741D02*
X239999D01*
X239344Y160469D01*
X238842Y159967D01*
X238570Y159312D01*
Y158602D01*
X238842Y157946D01*
X239344Y157444D01*
X239999Y157173D01*
X240709D01*
X241365Y157444D01*
X241867Y157946D01*
X242139Y158602D01*
Y159312D01*
X241867Y159967D01*
X241365Y160469D01*
X240709Y160741D01*
D02*
G37*
G36*
X294253Y160544D02*
X293543D01*
X292887Y160273D01*
X292385Y159771D01*
X292113Y159115D01*
Y158405D01*
X292385Y157749D01*
X292887Y157247D01*
X293543Y156976D01*
X294253D01*
X294908Y157247D01*
X295410Y157749D01*
X295682Y158405D01*
Y159115D01*
X295410Y159771D01*
X294908Y160273D01*
X294253Y160544D01*
D02*
G37*
G36*
X363891Y158076D02*
X356779D01*
Y152974D01*
X356279Y152887D01*
X355641Y153525D01*
X354784Y154020D01*
X354335Y154140D01*
Y150520D01*
Y146899D01*
X354784Y147020D01*
X355641Y147514D01*
X356340Y148214D01*
X356835Y149070D01*
X357090Y150025D01*
Y150964D01*
X363891D01*
Y158076D01*
D02*
G37*
G36*
X30678Y159839D02*
X29674D01*
X28705Y159579D01*
X27836Y159078D01*
X27126Y158368D01*
X26624Y157499D01*
X26364Y156529D01*
Y155526D01*
X26624Y154556D01*
X27126Y153687D01*
X27836Y152977D01*
X28705Y152475D01*
X29674Y152216D01*
X30678D01*
X31648Y152475D01*
X32517Y152977D01*
X33226Y153687D01*
X33728Y154556D01*
X33988Y155526D01*
Y156529D01*
X33728Y157499D01*
X33226Y158368D01*
X32517Y159078D01*
X31648Y159579D01*
X30678Y159839D01*
D02*
G37*
G36*
X20678D02*
X19674D01*
X18705Y159579D01*
X17836Y159078D01*
X17126Y158368D01*
X16624Y157499D01*
X16364Y156529D01*
Y155526D01*
X16624Y154556D01*
X17126Y153687D01*
X17836Y152977D01*
X18705Y152475D01*
X19674Y152216D01*
X20678D01*
X21647Y152475D01*
X22517Y152977D01*
X23226Y153687D01*
X23728Y154556D01*
X23988Y155526D01*
Y156529D01*
X23728Y157499D01*
X23226Y158368D01*
X22517Y159078D01*
X21647Y159579D01*
X20678Y159839D01*
D02*
G37*
G36*
X352335Y154140D02*
X351885Y154020D01*
X351028Y153525D01*
X350329Y152826D01*
X349835Y151969D01*
X349714Y151520D01*
X352335D01*
Y154140D01*
D02*
G37*
G36*
X128275Y157355D02*
X127355D01*
X126465Y157117D01*
X125668Y156656D01*
X125017Y156005D01*
X124556Y155208D01*
X124318Y154319D01*
Y153398D01*
X124556Y152508D01*
X125017Y151711D01*
X125668Y151060D01*
X126465Y150600D01*
X127355Y150361D01*
X128275D01*
X129165Y150600D01*
X129962Y151060D01*
X130613Y151711D01*
X131073Y152508D01*
X131312Y153398D01*
Y154319D01*
X131073Y155208D01*
X130613Y156005D01*
X129962Y156656D01*
X129165Y157117D01*
X128275Y157355D01*
D02*
G37*
G36*
X118275D02*
X117355D01*
X116465Y157117D01*
X115668Y156656D01*
X115017Y156005D01*
X114556Y155208D01*
X114318Y154319D01*
Y153398D01*
X114556Y152508D01*
X115017Y151711D01*
X115668Y151060D01*
X116465Y150600D01*
X117355Y150361D01*
X118275D01*
X119165Y150600D01*
X119962Y151060D01*
X120613Y151711D01*
X121073Y152508D01*
X121312Y153398D01*
Y154319D01*
X121073Y155208D01*
X120613Y156005D01*
X119962Y156656D01*
X119165Y157117D01*
X118275Y157355D01*
D02*
G37*
G36*
X21176Y149913D02*
Y147027D01*
X24062D01*
X23915Y147576D01*
X23386Y148491D01*
X22639Y149238D01*
X21725Y149766D01*
X21176Y149913D01*
D02*
G37*
G36*
X19176D02*
X18628Y149766D01*
X17713Y149238D01*
X16966Y148491D01*
X16438Y147576D01*
X16291Y147027D01*
X19176D01*
Y149913D01*
D02*
G37*
G36*
X352335Y149520D02*
X349714D01*
X349835Y149070D01*
X350329Y148214D01*
X351028Y147514D01*
X351885Y147020D01*
X352335Y146899D01*
Y149520D01*
D02*
G37*
G36*
X360803Y150076D02*
X359866D01*
X358962Y149833D01*
X358151Y149365D01*
X357489Y148703D01*
X357021Y147892D01*
X356779Y146988D01*
Y146052D01*
X357021Y145147D01*
X357489Y144336D01*
X358151Y143674D01*
X358962Y143206D01*
X359866Y142964D01*
X360803D01*
X361707Y143206D01*
X362518Y143674D01*
X363180Y144336D01*
X363648Y145147D01*
X363891Y146052D01*
Y146988D01*
X363648Y147892D01*
X363180Y148703D01*
X362518Y149365D01*
X361707Y149833D01*
X360803Y150076D01*
D02*
G37*
G36*
X30678Y149839D02*
X29674D01*
X28705Y149579D01*
X27836Y149077D01*
X27126Y148368D01*
X26624Y147499D01*
X26364Y146529D01*
Y145526D01*
X26624Y144556D01*
X27126Y143687D01*
X27836Y142977D01*
X28705Y142475D01*
X29674Y142216D01*
X30678D01*
X31648Y142475D01*
X32517Y142977D01*
X33226Y143687D01*
X33728Y144556D01*
X33988Y145526D01*
Y146529D01*
X33728Y147499D01*
X33226Y148368D01*
X32517Y149077D01*
X31648Y149579D01*
X30678Y149839D01*
D02*
G37*
G36*
X24062Y145027D02*
X21176D01*
Y142142D01*
X21725Y142289D01*
X22639Y142817D01*
X23386Y143564D01*
X23915Y144479D01*
X24062Y145027D01*
D02*
G37*
G36*
X19176D02*
X16291D01*
X16438Y144479D01*
X16966Y143564D01*
X17713Y142817D01*
X18628Y142289D01*
X19176Y142142D01*
Y145027D01*
D02*
G37*
G36*
X361335Y142140D02*
Y139520D01*
X363955D01*
X363835Y139969D01*
X363340Y140826D01*
X362641Y141525D01*
X361784Y142020D01*
X361335Y142140D01*
D02*
G37*
G36*
X359335Y142140D02*
X358885Y142020D01*
X358029Y141525D01*
X357329Y140826D01*
X356835Y139969D01*
X356714Y139520D01*
X359335D01*
Y142140D01*
D02*
G37*
G36*
X353803Y146076D02*
X352867D01*
X351962Y145833D01*
X351151Y145365D01*
X350489Y144703D01*
X350021Y143892D01*
X349779Y142988D01*
Y142051D01*
X350021Y141147D01*
X350489Y140336D01*
X351151Y139674D01*
X351962Y139206D01*
X352867Y138964D01*
X353803D01*
X354707Y139206D01*
X355518Y139674D01*
X356180Y140336D01*
X356648Y141147D01*
X356891Y142051D01*
Y142988D01*
X356648Y143892D01*
X356180Y144703D01*
X355518Y145365D01*
X354707Y145833D01*
X353803Y146076D01*
D02*
G37*
G36*
X354335Y138140D02*
Y135520D01*
X356955D01*
X356835Y135969D01*
X356340Y136826D01*
X355641Y137525D01*
X354784Y138020D01*
X354335Y138140D01*
D02*
G37*
G36*
X352335Y138140D02*
X351885Y138020D01*
X351028Y137525D01*
X350329Y136826D01*
X349835Y135969D01*
X349714Y135520D01*
X352335D01*
Y138140D01*
D02*
G37*
G36*
X359335Y137520D02*
X356714D01*
X356835Y137070D01*
X357329Y136214D01*
X358029Y135514D01*
X358885Y135020D01*
X359335Y134899D01*
Y137520D01*
D02*
G37*
G36*
X363955D02*
X361335D01*
Y134899D01*
X361784Y135020D01*
X362641Y135514D01*
X363340Y136214D01*
X363835Y137070D01*
X363955Y137520D01*
D02*
G37*
G36*
X356955Y133520D02*
X353335D01*
X349714D01*
X349835Y133070D01*
X350329Y132213D01*
X351028Y131514D01*
X351885Y131020D01*
X352840Y130764D01*
Y130276D01*
X351885Y130020D01*
X351028Y129525D01*
X350329Y128826D01*
X349835Y127969D01*
X349714Y127520D01*
X353335D01*
X356955D01*
X356835Y127969D01*
X356340Y128826D01*
X355641Y129525D01*
X354784Y130020D01*
X353829Y130276D01*
Y130764D01*
X354784Y131020D01*
X355641Y131514D01*
X356340Y132213D01*
X356835Y133070D01*
X356955Y133520D01*
D02*
G37*
G36*
X360803Y134076D02*
X359866D01*
X358962Y133833D01*
X358151Y133365D01*
X357489Y132703D01*
X357021Y131892D01*
X356779Y130988D01*
Y130052D01*
X357021Y129147D01*
X357489Y128336D01*
X358151Y127674D01*
X358962Y127206D01*
X359866Y126964D01*
X360803D01*
X361707Y127206D01*
X362518Y127674D01*
X363180Y128336D01*
X363648Y129147D01*
X363891Y130052D01*
Y130988D01*
X363648Y131892D01*
X363180Y132703D01*
X362518Y133365D01*
X361707Y133833D01*
X360803Y134076D01*
D02*
G37*
G36*
X352335Y125520D02*
X349714D01*
X349835Y125070D01*
X350329Y124214D01*
X351028Y123514D01*
X351885Y123020D01*
X352335Y122899D01*
Y125520D01*
D02*
G37*
G36*
X356955D02*
X354335D01*
Y122899D01*
X354784Y123020D01*
X355641Y123514D01*
X356340Y124214D01*
X356835Y125070D01*
X356955Y125520D01*
D02*
G37*
G36*
X135001Y120583D02*
X134291D01*
X133635Y120312D01*
X133133Y119810D01*
X132862Y119154D01*
Y118444D01*
X133133Y117789D01*
X133635Y117287D01*
X134291Y117015D01*
X135001D01*
X135657Y117287D01*
X136159Y117789D01*
X136430Y118444D01*
Y119154D01*
X136159Y119810D01*
X135657Y120312D01*
X135001Y120583D01*
D02*
G37*
G36*
X103210D02*
X102500D01*
X101844Y120312D01*
X101342Y119810D01*
X101070Y119154D01*
Y118444D01*
X101342Y117789D01*
X101844Y117287D01*
X102500Y117015D01*
X103210D01*
X103865Y117287D01*
X104367Y117789D01*
X104639Y118444D01*
Y119154D01*
X104367Y119810D01*
X103865Y120312D01*
X103210Y120583D01*
D02*
G37*
G36*
X71615Y120485D02*
X70905D01*
X70249Y120213D01*
X69747Y119711D01*
X69476Y119056D01*
Y118346D01*
X69747Y117690D01*
X70249Y117188D01*
X70905Y116917D01*
X71615D01*
X72271Y117188D01*
X72773Y117690D01*
X73044Y118346D01*
Y119056D01*
X72773Y119711D01*
X72271Y120213D01*
X71615Y120485D01*
D02*
G37*
G36*
X166694Y120387D02*
X165984D01*
X165329Y120115D01*
X164827Y119613D01*
X164555Y118957D01*
Y118247D01*
X164827Y117592D01*
X165329Y117090D01*
X165984Y116818D01*
X166694D01*
X167350Y117090D01*
X167852Y117592D01*
X168123Y118247D01*
Y118957D01*
X167852Y119613D01*
X167350Y120115D01*
X166694Y120387D01*
D02*
G37*
G36*
X118275Y147355D02*
X117355D01*
X116465Y147117D01*
X115668Y146656D01*
X115017Y146005D01*
X114556Y145208D01*
X114318Y144319D01*
Y143398D01*
X114556Y142508D01*
X115017Y141711D01*
X115298Y141430D01*
X115334Y141372D01*
X115815Y140864D01*
X115991Y140649D01*
X116143Y140443D01*
X116265Y140252D01*
X116359Y140078D01*
X116426Y139925D01*
X116469Y139792D01*
X116490Y139689D01*
Y138287D01*
X116590Y137780D01*
X116878Y137350D01*
X127114Y127114D01*
X127544Y126827D01*
X128051Y126726D01*
X174057D01*
X183413Y117370D01*
X183843Y117083D01*
X184350Y116982D01*
X196469D01*
X196476Y116981D01*
X196514Y116975D01*
X196535Y116970D01*
X196711Y116795D01*
X197367Y116523D01*
X198077D01*
X198732Y116795D01*
X199234Y117296D01*
X199506Y117952D01*
Y118662D01*
X199234Y119318D01*
X198732Y119820D01*
X198077Y120091D01*
X197367D01*
X196711Y119820D01*
X196535Y119644D01*
X196514Y119639D01*
X196485Y119635D01*
X196457Y119633D01*
X184899D01*
X175544Y128988D01*
X175113Y129276D01*
X174606Y129377D01*
X128600D01*
X119140Y138836D01*
Y139689D01*
X119161Y139792D01*
X119204Y139925D01*
X119271Y140078D01*
X119365Y140252D01*
X119487Y140443D01*
X119633Y140641D01*
X120039Y141111D01*
X120284Y141361D01*
X120326Y141424D01*
X120613Y141711D01*
X121073Y142508D01*
X121312Y143398D01*
Y144319D01*
X121073Y145208D01*
X120613Y146005D01*
X119962Y146656D01*
X119165Y147117D01*
X118275Y147355D01*
D02*
G37*
G36*
X262068Y107296D02*
X261358D01*
X260702Y107024D01*
X260200Y106523D01*
X259928Y105867D01*
Y105157D01*
X260200Y104501D01*
X260702Y103999D01*
X261358Y103728D01*
X262068D01*
X262723Y103999D01*
X263225Y104501D01*
X263497Y105157D01*
Y105867D01*
X263225Y106523D01*
X262723Y107024D01*
X262068Y107296D01*
D02*
G37*
G36*
X363891Y96076D02*
X356779D01*
Y90974D01*
X356279Y90887D01*
X355641Y91525D01*
X354784Y92020D01*
X354335Y92140D01*
Y88520D01*
Y84899D01*
X354784Y85020D01*
X355641Y85514D01*
X356340Y86213D01*
X356835Y87070D01*
X357090Y88025D01*
Y88964D01*
X363891D01*
Y96076D01*
D02*
G37*
G36*
X352335Y92140D02*
X351885Y92020D01*
X351028Y91525D01*
X350329Y90826D01*
X349835Y89969D01*
X349714Y89520D01*
X352335D01*
Y92140D01*
D02*
G37*
G36*
Y87520D02*
X349714D01*
X349835Y87070D01*
X350329Y86213D01*
X351028Y85514D01*
X351885Y85020D01*
X352335Y84899D01*
Y87520D01*
D02*
G37*
G36*
X255670Y86528D02*
X254960D01*
X254304Y86257D01*
X253802Y85755D01*
X253531Y85099D01*
Y84389D01*
X253802Y83733D01*
X254304Y83232D01*
X254960Y82960D01*
X255670D01*
X256326Y83232D01*
X256828Y83733D01*
X257099Y84389D01*
Y85099D01*
X256828Y85755D01*
X256326Y86257D01*
X255670Y86528D01*
D02*
G37*
G36*
X228504D02*
X227795D01*
X227139Y86257D01*
X226637Y85755D01*
X226365Y85099D01*
Y84389D01*
X226637Y83733D01*
X227139Y83232D01*
X227795Y82960D01*
X228504D01*
X229160Y83232D01*
X229662Y83733D01*
X229934Y84389D01*
Y85099D01*
X229662Y85755D01*
X229160Y86257D01*
X228504Y86528D01*
D02*
G37*
G36*
X309705Y85544D02*
X308996D01*
X308340Y85273D01*
X307838Y84771D01*
X307566Y84115D01*
Y83405D01*
X307838Y82749D01*
X308340Y82247D01*
X308996Y81976D01*
X309705D01*
X310361Y82247D01*
X310863Y82749D01*
X311135Y83405D01*
Y84115D01*
X310863Y84771D01*
X310361Y85273D01*
X309705Y85544D01*
D02*
G37*
G36*
X360803Y88076D02*
X359866D01*
X358962Y87833D01*
X358151Y87365D01*
X357489Y86703D01*
X357021Y85892D01*
X356779Y84988D01*
Y84052D01*
X357021Y83147D01*
X357489Y82336D01*
X358151Y81674D01*
X358962Y81206D01*
X359866Y80964D01*
X360803D01*
X361707Y81206D01*
X362518Y81674D01*
X363180Y82336D01*
X363648Y83147D01*
X363891Y84052D01*
Y84988D01*
X363648Y85892D01*
X363180Y86703D01*
X362518Y87365D01*
X361707Y87833D01*
X360803Y88076D01*
D02*
G37*
G36*
X361335Y80140D02*
Y77520D01*
X363955D01*
X363835Y77969D01*
X363340Y78826D01*
X362641Y79525D01*
X361784Y80020D01*
X361335Y80140D01*
D02*
G37*
G36*
X359335Y80140D02*
X358885Y80020D01*
X358029Y79525D01*
X357329Y78826D01*
X356835Y77969D01*
X356714Y77520D01*
X359335D01*
Y80140D01*
D02*
G37*
G36*
X353803Y84076D02*
X352867D01*
X351962Y83833D01*
X351151Y83365D01*
X350489Y82703D01*
X350021Y81892D01*
X349779Y80988D01*
Y80051D01*
X350021Y79147D01*
X350489Y78336D01*
X351151Y77674D01*
X351962Y77206D01*
X352867Y76964D01*
X353803D01*
X354707Y77206D01*
X355518Y77674D01*
X356180Y78336D01*
X356648Y79147D01*
X356891Y80051D01*
Y80988D01*
X356648Y81892D01*
X356180Y82703D01*
X355518Y83365D01*
X354707Y83833D01*
X353803Y84076D01*
D02*
G37*
G36*
X354335Y76140D02*
Y73520D01*
X356955D01*
X356835Y73969D01*
X356340Y74826D01*
X355641Y75525D01*
X354784Y76020D01*
X354335Y76140D01*
D02*
G37*
G36*
X352335Y76140D02*
X351885Y76020D01*
X351028Y75525D01*
X350329Y74826D01*
X349835Y73969D01*
X349714Y73520D01*
X352335D01*
Y76140D01*
D02*
G37*
G36*
X359335Y75520D02*
X356714D01*
X356835Y75070D01*
X357329Y74213D01*
X358029Y73514D01*
X358885Y73020D01*
X359335Y72899D01*
Y75520D01*
D02*
G37*
G36*
X363955D02*
X361335D01*
Y72899D01*
X361784Y73020D01*
X362641Y73514D01*
X363340Y74213D01*
X363835Y75070D01*
X363955Y75520D01*
D02*
G37*
G36*
X261182Y70879D02*
X260472D01*
X259816Y70607D01*
X259314Y70105D01*
X259043Y69449D01*
Y68740D01*
X259314Y68084D01*
X259816Y67582D01*
X260472Y67310D01*
X261182D01*
X261838Y67582D01*
X262339Y68084D01*
X262611Y68740D01*
Y69449D01*
X262339Y70105D01*
X261838Y70607D01*
X261182Y70879D01*
D02*
G37*
G36*
X356955Y71520D02*
X353335D01*
X349714D01*
X349835Y71070D01*
X350329Y70214D01*
X351028Y69514D01*
X351885Y69020D01*
X352840Y68764D01*
Y68276D01*
X351885Y68020D01*
X351028Y67525D01*
X350329Y66826D01*
X349835Y65969D01*
X349714Y65520D01*
X353335D01*
X356955D01*
X356835Y65969D01*
X356340Y66826D01*
X355641Y67525D01*
X354784Y68020D01*
X353829Y68276D01*
Y68764D01*
X354784Y69020D01*
X355641Y69514D01*
X356340Y70214D01*
X356835Y71070D01*
X356955Y71520D01*
D02*
G37*
G36*
X360803Y72076D02*
X359866D01*
X358962Y71833D01*
X358151Y71365D01*
X357489Y70703D01*
X357021Y69892D01*
X356779Y68988D01*
Y68051D01*
X357021Y67147D01*
X357489Y66336D01*
X358151Y65674D01*
X358962Y65206D01*
X359866Y64964D01*
X360803D01*
X361707Y65206D01*
X362518Y65674D01*
X363180Y66336D01*
X363648Y67147D01*
X363891Y68051D01*
Y68988D01*
X363648Y69892D01*
X363180Y70703D01*
X362518Y71365D01*
X361707Y71833D01*
X360803Y72076D01*
D02*
G37*
G36*
X352335Y63520D02*
X349714D01*
X349835Y63070D01*
X350329Y62213D01*
X351028Y61514D01*
X351885Y61020D01*
X352335Y60899D01*
Y63520D01*
D02*
G37*
G36*
X356955D02*
X354335D01*
Y60899D01*
X354784Y61020D01*
X355641Y61514D01*
X356340Y62213D01*
X356835Y63070D01*
X356955Y63520D01*
D02*
G37*
G36*
X131312Y147355D02*
X124318D01*
Y140361D01*
X131312D01*
Y142533D01*
X180691D01*
X208615Y114609D01*
Y67913D01*
X208716Y67406D01*
X209004Y66976D01*
X226228Y49752D01*
X226232Y49747D01*
X226255Y49715D01*
X226267Y49697D01*
Y49448D01*
X226539Y48792D01*
X227041Y48291D01*
X227696Y48019D01*
X228406D01*
X229062Y48291D01*
X229564Y48792D01*
X229835Y49448D01*
Y50158D01*
X229564Y50814D01*
X229062Y51316D01*
X228406Y51587D01*
X228157D01*
X228139Y51599D01*
X228116Y51616D01*
X228094Y51634D01*
X211266Y68462D01*
Y115157D01*
X211165Y115665D01*
X210878Y116095D01*
X182177Y144796D01*
X181747Y145083D01*
X181240Y145184D01*
X131312D01*
Y147355D01*
D02*
G37*
G36*
X357835Y52178D02*
Y47520D01*
X362493D01*
X362169Y48729D01*
X361415Y50035D01*
X360349Y51100D01*
X359044Y51854D01*
X357835Y52178D01*
D02*
G37*
G36*
X355835Y52178D02*
X354625Y51854D01*
X353320Y51100D01*
X352254Y50035D01*
X351500Y48729D01*
X351176Y47520D01*
X355835D01*
Y52178D01*
D02*
G37*
G36*
X310099Y50800D02*
X309389D01*
X308733Y50528D01*
X308231Y50026D01*
X307960Y49371D01*
Y48661D01*
X308231Y48005D01*
X308733Y47503D01*
X309389Y47232D01*
X310099D01*
X310755Y47503D01*
X311257Y48005D01*
X311528Y48661D01*
Y49371D01*
X311257Y50026D01*
X310755Y50528D01*
X310099Y50800D01*
D02*
G37*
G36*
X118275Y177355D02*
X117355D01*
X116465Y177117D01*
X115668Y176656D01*
X115017Y176005D01*
X114556Y175208D01*
X114318Y174319D01*
Y173398D01*
X114556Y172509D01*
X115017Y171711D01*
X115668Y171060D01*
X116026Y170853D01*
X116200Y170188D01*
X116163Y170125D01*
X90650D01*
X90142Y170024D01*
X89712Y169737D01*
X43053Y123077D01*
X32355D01*
X32348Y123078D01*
X32310Y123084D01*
X32289Y123089D01*
X32113Y123265D01*
X31457Y123536D01*
X30748D01*
X30092Y123265D01*
X29590Y122763D01*
X29318Y122107D01*
Y121397D01*
X29590Y120741D01*
X30092Y120239D01*
X30748Y119968D01*
X31457D01*
X32113Y120239D01*
X32289Y120415D01*
X32310Y120420D01*
X32339Y120424D01*
X32367Y120426D01*
X43602D01*
X44110Y120527D01*
X44540Y120815D01*
X91199Y167474D01*
X116084D01*
X116217Y166974D01*
X115668Y166656D01*
X115017Y166005D01*
X114556Y165208D01*
X114318Y164319D01*
Y163921D01*
X114303Y163855D01*
X114283Y163155D01*
X114256Y162879D01*
X114217Y162626D01*
X114169Y162404D01*
X114113Y162215D01*
X114051Y162059D01*
X113988Y161935D01*
X113930Y161847D01*
X93551Y141469D01*
X93264Y141039D01*
X93163Y140532D01*
Y108465D01*
X93264Y107957D01*
X93551Y107527D01*
X161563Y39516D01*
X161993Y39228D01*
X162500Y39127D01*
X181819D01*
X181825Y39127D01*
X181864Y39121D01*
X181885Y39116D01*
X182061Y38940D01*
X182717Y38669D01*
X183426D01*
X184082Y38940D01*
X184584Y39442D01*
X184856Y40098D01*
Y40808D01*
X184584Y41464D01*
X184082Y41965D01*
X183426Y42237D01*
X182717D01*
X182061Y41965D01*
X181885Y41790D01*
X181864Y41785D01*
X181835Y41780D01*
X181807Y41778D01*
X163049D01*
X95814Y109014D01*
Y139982D01*
X115804Y159973D01*
X115892Y160031D01*
X116015Y160095D01*
X116172Y160156D01*
X116360Y160212D01*
X116582Y160260D01*
X116826Y160298D01*
X117445Y160343D01*
X117795Y160346D01*
X117870Y160361D01*
X118275D01*
X119165Y160600D01*
X119962Y161060D01*
X120613Y161711D01*
X121073Y162508D01*
X121312Y163398D01*
Y164319D01*
X121073Y165208D01*
X120613Y166005D01*
X119962Y166656D01*
X119413Y166974D01*
X119546Y167474D01*
X122325D01*
X123930Y165869D01*
X123988Y165782D01*
X124051Y165658D01*
X124113Y165502D01*
X124169Y165313D01*
X124217Y165091D01*
X124255Y164848D01*
X124300Y164228D01*
X124303Y163878D01*
X124318Y163804D01*
Y163398D01*
X124556Y162508D01*
X125017Y161711D01*
X125668Y161060D01*
X126465Y160600D01*
X127355Y160361D01*
X128275D01*
X129165Y160600D01*
X129962Y161060D01*
X130243Y161341D01*
X130301Y161378D01*
X130810Y161858D01*
X131024Y162034D01*
X131231Y162186D01*
X131422Y162309D01*
X131595Y162402D01*
X131749Y162469D01*
X131881Y162512D01*
X131984Y162533D01*
X165612D01*
X253104Y75042D01*
Y50269D01*
X253103Y50262D01*
X253097Y50223D01*
X253092Y50202D01*
X252917Y50026D01*
X252645Y49371D01*
Y48661D01*
X252917Y48005D01*
X253418Y47503D01*
X254074Y47232D01*
X254784D01*
X255440Y47503D01*
X255942Y48005D01*
X256213Y48661D01*
Y49371D01*
X255942Y50026D01*
X255766Y50202D01*
X255761Y50223D01*
X255757Y50252D01*
X255755Y50280D01*
Y75591D01*
X255654Y76098D01*
X255366Y76528D01*
X167099Y164795D01*
X166669Y165083D01*
X166161Y165184D01*
X131984D01*
X131881Y165204D01*
X131749Y165247D01*
X131595Y165314D01*
X131422Y165408D01*
X131231Y165531D01*
X131032Y165676D01*
X130562Y166083D01*
X130313Y166328D01*
X130249Y166370D01*
X129962Y166656D01*
X129165Y167117D01*
X128275Y167355D01*
X127878D01*
X127811Y167370D01*
X127112Y167390D01*
X126836Y167417D01*
X126582Y167456D01*
X126360Y167505D01*
X126171Y167561D01*
X126015Y167622D01*
X125892Y167685D01*
X125804Y167744D01*
X123811Y169737D01*
X123381Y170024D01*
X122874Y170125D01*
X119467D01*
X119430Y170188D01*
X119604Y170853D01*
X119962Y171060D01*
X120613Y171711D01*
X121073Y172509D01*
X121312Y173398D01*
Y174319D01*
X121073Y175208D01*
X120613Y176005D01*
X119962Y176656D01*
X119165Y177117D01*
X118275Y177355D01*
D02*
G37*
G36*
X282048Y50603D02*
X281338D01*
X280682Y50331D01*
X280180Y49830D01*
X279909Y49174D01*
Y48464D01*
X280180Y47808D01*
X280682Y47306D01*
X281338Y47035D01*
X282048D01*
X282704Y47306D01*
X283206Y47808D01*
X283477Y48464D01*
Y49174D01*
X283206Y49830D01*
X282704Y50331D01*
X282048Y50603D01*
D02*
G37*
G36*
X371044Y60717D02*
X369626D01*
X368235Y60441D01*
X366925Y59898D01*
X365746Y59110D01*
X364744Y58108D01*
X363956Y56929D01*
X363414Y55619D01*
X363137Y54229D01*
Y52811D01*
X363414Y51420D01*
X363956Y50110D01*
X364744Y48932D01*
X365746Y47929D01*
X366925Y47141D01*
X368235Y46599D01*
X369626Y46322D01*
X371044D01*
X372434Y46599D01*
X373744Y47141D01*
X374923Y47929D01*
X375925Y48932D01*
X376713Y50110D01*
X377256Y51420D01*
X377532Y52811D01*
Y54229D01*
X377256Y55619D01*
X376713Y56929D01*
X375925Y58108D01*
X374923Y59110D01*
X373744Y59898D01*
X372434Y60441D01*
X371044Y60717D01*
D02*
G37*
G36*
X17284Y48044D02*
X16574D01*
X15918Y47772D01*
X15416Y47271D01*
X15145Y46615D01*
Y45905D01*
X15416Y45249D01*
X15918Y44747D01*
X16574Y44476D01*
X17284D01*
X17940Y44747D01*
X18442Y45249D01*
X18713Y45905D01*
Y46615D01*
X18442Y47271D01*
X17940Y47772D01*
X17284Y48044D01*
D02*
G37*
G36*
X355835Y45520D02*
X351176D01*
X351500Y44310D01*
X352254Y43005D01*
X353320Y41939D01*
X354625Y41185D01*
X355835Y40861D01*
Y45520D01*
D02*
G37*
G36*
X362493D02*
X357835D01*
Y40861D01*
X359044Y41185D01*
X360349Y41939D01*
X361415Y43005D01*
X362169Y44310D01*
X362493Y45520D01*
D02*
G37*
G36*
X151241Y42237D02*
X150531D01*
X149876Y41965D01*
X149374Y41464D01*
X149102Y40808D01*
Y40098D01*
X149374Y39442D01*
X149876Y38940D01*
X150531Y38669D01*
X151241D01*
X151897Y38940D01*
X152399Y39442D01*
X152671Y40098D01*
Y40808D01*
X152399Y41464D01*
X151897Y41965D01*
X151241Y42237D01*
D02*
G37*
G36*
X87757D02*
X87047D01*
X86391Y41965D01*
X85889Y41464D01*
X85618Y40808D01*
Y40098D01*
X85889Y39442D01*
X86391Y38940D01*
X87047Y38669D01*
X87757D01*
X88412Y38940D01*
X88915Y39442D01*
X89186Y40098D01*
Y40808D01*
X88915Y41464D01*
X88412Y41965D01*
X87757Y42237D01*
D02*
G37*
G36*
X55867D02*
X55157D01*
X54501Y41965D01*
X53999Y41464D01*
X53728Y40808D01*
Y40098D01*
X53999Y39442D01*
X54501Y38940D01*
X55157Y38669D01*
X55867D01*
X56523Y38940D01*
X57025Y39442D01*
X57296Y40098D01*
Y40808D01*
X57025Y41464D01*
X56523Y41965D01*
X55867Y42237D01*
D02*
G37*
G36*
X282559Y86252D02*
X281849D01*
X281194Y85981D01*
X280692Y85479D01*
X280420Y84823D01*
Y84113D01*
X280692Y83457D01*
X280868Y83282D01*
X280872Y83261D01*
X280877Y83232D01*
X280879Y83204D01*
Y67104D01*
X239215Y25440D01*
X136081D01*
X121017Y40504D01*
X121012Y40509D01*
X120989Y40541D01*
X120978Y40559D01*
Y40808D01*
X120706Y41464D01*
X120204Y41965D01*
X119548Y42237D01*
X118838D01*
X118183Y41965D01*
X117681Y41464D01*
X117409Y40808D01*
Y40098D01*
X117681Y39442D01*
X118183Y38940D01*
X118838Y38669D01*
X119087D01*
X119105Y38657D01*
X119129Y38640D01*
X119150Y38622D01*
X134595Y23177D01*
X135025Y22890D01*
X135532Y22789D01*
X239764D01*
X240271Y22890D01*
X240701Y23177D01*
X283142Y65618D01*
X283429Y66048D01*
X283530Y66555D01*
Y83215D01*
X283530Y83222D01*
X283537Y83261D01*
X283541Y83282D01*
X283717Y83457D01*
X283989Y84113D01*
Y84823D01*
X283717Y85479D01*
X283215Y85981D01*
X282559Y86252D01*
D02*
G37*
G36*
X19783Y34811D02*
X17417Y34625D01*
X15109Y34071D01*
X12916Y33163D01*
X10892Y31922D01*
X9088Y30381D01*
X7546Y28576D01*
X6306Y26552D01*
X5398Y24359D01*
X4843Y22051D01*
X4657Y19685D01*
X4843Y17319D01*
X5398Y15011D01*
X6306Y12818D01*
X7546Y10794D01*
X9088Y8989D01*
X10892Y7448D01*
X12916Y6208D01*
X15109Y5299D01*
X17417Y4745D01*
X19783Y4559D01*
X22150Y4745D01*
X24458Y5299D01*
X26651Y6208D01*
X28674Y7448D01*
X30479Y8989D01*
X32021Y10794D01*
X33261Y12818D01*
X34169Y15011D01*
X34723Y17319D01*
X34910Y19685D01*
X34723Y22051D01*
X34169Y24359D01*
X33261Y26552D01*
X32021Y28576D01*
X30479Y30381D01*
X28674Y31922D01*
X26651Y33163D01*
X24458Y34071D01*
X22150Y34625D01*
X19783Y34811D01*
D02*
G37*
G36*
X373721Y34418D02*
X371354Y34231D01*
X369046Y33677D01*
X366853Y32769D01*
X364829Y31529D01*
X363025Y29987D01*
X361483Y28182D01*
X360243Y26158D01*
X359335Y23966D01*
X358781Y21658D01*
X358594Y19291D01*
X358781Y16925D01*
X359335Y14617D01*
X360243Y12424D01*
X361483Y10400D01*
X363025Y8596D01*
X364829Y7054D01*
X366853Y5814D01*
X369046Y4905D01*
X371354Y4351D01*
X373721Y4165D01*
X376087Y4351D01*
X378395Y4905D01*
X380588Y5814D01*
X382611Y7054D01*
X384416Y8596D01*
X385958Y10400D01*
X387198Y12424D01*
X388106Y14617D01*
X388660Y16925D01*
X388847Y19291D01*
X388660Y21658D01*
X388106Y23966D01*
X387198Y26158D01*
X385958Y28182D01*
X384416Y29987D01*
X382611Y31529D01*
X380588Y32769D01*
X378395Y33677D01*
X376087Y34231D01*
X373721Y34418D01*
D02*
G37*
%LPD*%
G36*
X375671Y385936D02*
X377573Y385480D01*
X379381Y384731D01*
X381049Y383709D01*
X382537Y382438D01*
X383807Y380950D01*
X384829Y379282D01*
X385578Y377475D01*
X386035Y375572D01*
X386188Y373622D01*
X386035Y371672D01*
X385578Y369769D01*
X384829Y367962D01*
X383807Y366294D01*
X382537Y364806D01*
X381049Y363535D01*
X379381Y362513D01*
X377573Y361764D01*
X375671Y361308D01*
X373721Y361154D01*
X371770Y361308D01*
X369868Y361764D01*
X368060Y362513D01*
X366392Y363535D01*
X364904Y364806D01*
X363634Y366294D01*
X362611Y367962D01*
X361863Y369769D01*
X361406Y371672D01*
X361252Y373622D01*
X361406Y375572D01*
X361863Y377475D01*
X362611Y379282D01*
X363634Y380950D01*
X364904Y382438D01*
X366392Y383709D01*
X368060Y384731D01*
X369868Y385480D01*
X371770Y385936D01*
X373721Y386090D01*
X375671Y385936D01*
D02*
G37*
%LPC*%
G36*
X374515Y382509D02*
X372926D01*
X372847Y382493D01*
X372766D01*
X371207Y382183D01*
X371133Y382152D01*
X371054Y382136D01*
X369585Y381528D01*
X369519Y381483D01*
X369444Y381453D01*
X368122Y380569D01*
X368066Y380512D01*
X367999Y380468D01*
X366875Y379344D01*
X366830Y379277D01*
X366773Y379220D01*
X365890Y377898D01*
X365859Y377824D01*
X365815Y377757D01*
X365206Y376288D01*
X365191Y376210D01*
X365160Y376135D01*
X364850Y374576D01*
Y374496D01*
X364834Y374417D01*
Y373622D01*
Y372827D01*
X364850Y372748D01*
Y372668D01*
X365160Y371109D01*
X365191Y371035D01*
X365206Y370956D01*
X365815Y369487D01*
X365859Y369420D01*
X365890Y369346D01*
X366773Y368024D01*
X366830Y367967D01*
X366875Y367900D01*
X367999Y366776D01*
X368066Y366732D01*
X368122Y366675D01*
X369444Y365792D01*
X369518Y365761D01*
X369585Y365716D01*
X371054Y365108D01*
X371133Y365092D01*
X371207Y365061D01*
X372766Y364751D01*
X372847D01*
X372926Y364736D01*
X374515D01*
X374594Y364751D01*
X374675D01*
X376234Y365061D01*
X376308Y365092D01*
X376387Y365108D01*
X377856Y365716D01*
X377922Y365761D01*
X377997Y365792D01*
X379318Y366675D01*
X379375Y366732D01*
X379442Y366776D01*
X380566Y367900D01*
X380611Y367967D01*
X380668Y368024D01*
X381551Y369346D01*
X381582Y369420D01*
X381626Y369487D01*
X382235Y370956D01*
X382250Y371035D01*
X382281Y371109D01*
X382591Y372668D01*
Y372748D01*
X382607Y372827D01*
Y373622D01*
Y374417D01*
X382591Y374496D01*
Y374576D01*
X382281Y376135D01*
X382250Y376210D01*
X382235Y376288D01*
X381626Y377757D01*
X381582Y377824D01*
X381551Y377898D01*
X380668Y379220D01*
X380611Y379277D01*
X380566Y379344D01*
X379442Y380468D01*
X379375Y380512D01*
X379318Y380569D01*
X377997Y381453D01*
X377922Y381483D01*
X377856Y381528D01*
X376387Y382136D01*
X376308Y382152D01*
X376234Y382183D01*
X374675Y382493D01*
X374594D01*
X374515Y382509D01*
D02*
G37*
%LPD*%
G36*
X21340Y385936D02*
X23243Y385480D01*
X25050Y384731D01*
X26718Y383709D01*
X28206Y382438D01*
X29476Y380950D01*
X30499Y379282D01*
X31247Y377475D01*
X31704Y375572D01*
X31858Y373622D01*
X31704Y371672D01*
X31247Y369769D01*
X30499Y367962D01*
X29476Y366294D01*
X28206Y364806D01*
X26718Y363535D01*
X25050Y362513D01*
X23243Y361764D01*
X21340Y361308D01*
X19390Y361154D01*
X17439Y361308D01*
X15537Y361764D01*
X13729Y362513D01*
X12061Y363535D01*
X10574Y364806D01*
X9303Y366294D01*
X8281Y367962D01*
X7532Y369769D01*
X7075Y371672D01*
X6922Y373622D01*
X7075Y375572D01*
X7532Y377475D01*
X8281Y379282D01*
X9303Y380950D01*
X10574Y382438D01*
X12061Y383709D01*
X13729Y384731D01*
X15537Y385480D01*
X17439Y385936D01*
X19390Y386090D01*
X21340Y385936D01*
D02*
G37*
%LPC*%
G36*
X20185Y382509D02*
X18595D01*
X18516Y382493D01*
X18436D01*
X16876Y382183D01*
X16802Y382152D01*
X16723Y382136D01*
X15255Y381528D01*
X15188Y381483D01*
X15114Y381453D01*
X13792Y380569D01*
X13735Y380512D01*
X13668Y380468D01*
X12544Y379344D01*
X12499Y379277D01*
X12443Y379220D01*
X11559Y377898D01*
X11529Y377824D01*
X11484Y377757D01*
X10875Y376288D01*
X10860Y376210D01*
X10829Y376135D01*
X10519Y374576D01*
Y374496D01*
X10503Y374417D01*
Y373622D01*
Y372827D01*
X10519Y372748D01*
Y372668D01*
X10829Y371109D01*
X10860Y371035D01*
X10875Y370956D01*
X11484Y369487D01*
X11529Y369420D01*
X11559Y369346D01*
X12443Y368024D01*
X12499Y367967D01*
X12544Y367900D01*
X13668Y366776D01*
X13735Y366732D01*
X13792Y366675D01*
X15114Y365792D01*
X15188Y365761D01*
X15255Y365716D01*
X16723Y365108D01*
X16802Y365092D01*
X16876Y365061D01*
X18436Y364751D01*
X18516D01*
X18595Y364736D01*
X20185D01*
X20264Y364751D01*
X20344D01*
X21903Y365061D01*
X21977Y365092D01*
X22056Y365108D01*
X23525Y365716D01*
X23592Y365761D01*
X23666Y365792D01*
X24988Y366675D01*
X25045Y366732D01*
X25111Y366776D01*
X26236Y367900D01*
X26280Y367967D01*
X26337Y368024D01*
X27220Y369346D01*
X27251Y369420D01*
X27296Y369487D01*
X27904Y370956D01*
X27920Y371035D01*
X27951Y371109D01*
X28261Y372668D01*
Y372748D01*
X28276Y372827D01*
Y373622D01*
Y374417D01*
X28261Y374496D01*
Y374576D01*
X27951Y376135D01*
X27920Y376210D01*
X27904Y376288D01*
X27296Y377757D01*
X27251Y377824D01*
X27220Y377898D01*
X26337Y379220D01*
X26280Y379277D01*
X26236Y379344D01*
X25111Y380468D01*
X25045Y380512D01*
X24988Y380569D01*
X23666Y381453D01*
X23592Y381483D01*
X23525Y381528D01*
X22056Y382136D01*
X21977Y382152D01*
X21903Y382183D01*
X20344Y382493D01*
X20264D01*
X20185Y382509D01*
D02*
G37*
%LPD*%
G36*
X104666Y363293D02*
X104716Y362502D01*
X104764Y362152D01*
X104828Y361833D01*
X104907Y361545D01*
X105002Y361287D01*
X105113Y361060D01*
X105240Y360864D01*
X105382Y360699D01*
X104672Y359995D01*
X104507Y360137D01*
X104312Y360263D01*
X104085Y360374D01*
X103827Y360470D01*
X103539Y360551D01*
X103219Y360617D01*
X102868Y360668D01*
X102074Y360723D01*
X101631Y360728D01*
X104665Y363735D01*
X104666Y363293D01*
D02*
G37*
G36*
X128322Y337376D02*
X128342Y337205D01*
X128375Y337047D01*
X128422Y336901D01*
X128483Y336767D01*
X128557Y336646D01*
X128644Y336538D01*
X128745Y336442D01*
X128859Y336358D01*
X128986Y336287D01*
X126644D01*
X126771Y336358D01*
X126885Y336442D01*
X126986Y336538D01*
X127073Y336646D01*
X127147Y336767D01*
X127208Y336901D01*
X127254Y337047D01*
X127288Y337205D01*
X127308Y337376D01*
X127315Y337559D01*
X128315D01*
X128322Y337376D01*
D02*
G37*
G36*
X193543Y361364D02*
X193033Y360735D01*
X192826Y360441D01*
X192650Y360160D01*
X192507Y359894D01*
X192395Y359641D01*
X192316Y359402D01*
X192268Y359177D01*
X192252Y358965D01*
X191252Y358919D01*
X191235Y359141D01*
X191185Y359371D01*
X191101Y359610D01*
X190984Y359856D01*
X190834Y360111D01*
X190650Y360373D01*
X190432Y360644D01*
X190181Y360924D01*
X189579Y361506D01*
X193846Y361699D01*
X193543Y361364D01*
D02*
G37*
G36*
X33120Y334321D02*
X33092Y334229D01*
Y334123D01*
X33120Y334003D01*
X33177Y333868D01*
X33262Y333720D01*
X33375Y333557D01*
X33516Y333380D01*
X33884Y332984D01*
X33177Y332277D01*
X32972Y332475D01*
X32604Y332786D01*
X32441Y332900D01*
X32293Y332984D01*
X32159Y333041D01*
X32039Y333069D01*
X31932D01*
X31841Y333041D01*
X31763Y332984D01*
X33177Y334399D01*
X33120Y334321D01*
D02*
G37*
G36*
X125302Y327098D02*
X125478Y326981D01*
X125679Y326877D01*
X125906Y326789D01*
X126157Y326714D01*
X126433Y326654D01*
X126734Y326608D01*
X127061Y326576D01*
X127788Y326555D01*
X125118Y323885D01*
X125115Y324261D01*
X125066Y324939D01*
X125020Y325240D01*
X124959Y325516D01*
X124885Y325767D01*
X124796Y325994D01*
X124692Y326195D01*
X124575Y326371D01*
X124443Y326523D01*
X125150Y327230D01*
X125302Y327098D01*
D02*
G37*
G36*
X130009Y325482D02*
X130523Y325038D01*
X130769Y324858D01*
X131007Y324705D01*
X131237Y324580D01*
X131460Y324483D01*
X131675Y324414D01*
X131883Y324372D01*
X132083Y324358D01*
Y323358D01*
X131883Y323344D01*
X131675Y323303D01*
X131460Y323233D01*
X131237Y323136D01*
X131007Y323011D01*
X130769Y322859D01*
X130523Y322678D01*
X130270Y322470D01*
X129741Y321971D01*
Y325746D01*
X130009Y325482D01*
D02*
G37*
G36*
X115889Y321971D02*
X115621Y322234D01*
X115107Y322678D01*
X114861Y322859D01*
X114623Y323011D01*
X114393Y323136D01*
X114170Y323233D01*
X113955Y323303D01*
X113747Y323344D01*
X113547Y323358D01*
Y324358D01*
X113747Y324372D01*
X113955Y324414D01*
X114170Y324483D01*
X114393Y324580D01*
X114623Y324705D01*
X114861Y324858D01*
X115107Y325038D01*
X115360Y325247D01*
X115889Y325746D01*
Y321971D01*
D02*
G37*
G36*
X32638Y247787D02*
X33226Y247272D01*
X33505Y247063D01*
X33773Y246886D01*
X34030Y246742D01*
X34277Y246629D01*
X34513Y246549D01*
X34739Y246500D01*
X34954Y246484D01*
Y245484D01*
X34739Y245468D01*
X34513Y245420D01*
X34277Y245339D01*
X34030Y245227D01*
X33773Y245082D01*
X33505Y244905D01*
X33226Y244696D01*
X32638Y244181D01*
X32328Y243876D01*
Y248093D01*
X32638Y247787D01*
D02*
G37*
G36*
X130009Y295482D02*
X130523Y295038D01*
X130769Y294858D01*
X131007Y294705D01*
X131237Y294580D01*
X131460Y294483D01*
X131675Y294414D01*
X131883Y294372D01*
X132083Y294358D01*
Y293358D01*
X131883Y293344D01*
X131675Y293303D01*
X131460Y293233D01*
X131237Y293136D01*
X131007Y293011D01*
X130769Y292859D01*
X130523Y292678D01*
X130270Y292470D01*
X129741Y291970D01*
Y295746D01*
X130009Y295482D01*
D02*
G37*
G36*
X120515Y293455D02*
X120564Y292778D01*
X120610Y292477D01*
X120671Y292200D01*
X120745Y291949D01*
X120834Y291723D01*
X120937Y291521D01*
X121055Y291345D01*
X121187Y291194D01*
X120480Y290487D01*
X120328Y290618D01*
X120152Y290736D01*
X119950Y290839D01*
X119724Y290928D01*
X119473Y291002D01*
X119197Y291063D01*
X118895Y291109D01*
X118569Y291141D01*
X117842Y291161D01*
X120512Y293831D01*
X120515Y293455D01*
D02*
G37*
G36*
X199161Y245348D02*
X199307Y245223D01*
X199376Y245173D01*
X199443Y245131D01*
X199507Y245096D01*
X199568Y245069D01*
X199627Y245050D01*
X199684Y245039D01*
X199738Y245035D01*
X198764Y244061D01*
X198760Y244115D01*
X198749Y244172D01*
X198730Y244231D01*
X198703Y244292D01*
X198669Y244357D01*
X198626Y244423D01*
X198576Y244492D01*
X198517Y244564D01*
X198378Y244715D01*
X199085Y245422D01*
X199161Y245348D01*
D02*
G37*
G36*
X213113Y243110D02*
X213059Y243107D01*
X213003Y243096D01*
X212944Y243077D01*
X212882Y243050D01*
X212818Y243015D01*
X212751Y242972D01*
X212682Y242922D01*
X212611Y242864D01*
X212460Y242724D01*
X211753Y243431D01*
X211827Y243508D01*
X211951Y243653D01*
X212001Y243722D01*
X212044Y243789D01*
X212079Y243853D01*
X212105Y243915D01*
X212124Y243974D01*
X212136Y244030D01*
X212139Y244085D01*
X213113Y243110D01*
D02*
G37*
G36*
X130009Y275482D02*
X130523Y275038D01*
X130769Y274858D01*
X131007Y274705D01*
X131237Y274580D01*
X131460Y274483D01*
X131675Y274414D01*
X131883Y274372D01*
X132083Y274358D01*
Y273358D01*
X131883Y273344D01*
X131675Y273303D01*
X131460Y273233D01*
X131237Y273136D01*
X131007Y273011D01*
X130769Y272859D01*
X130523Y272678D01*
X130270Y272470D01*
X129741Y271971D01*
Y275746D01*
X130009Y275482D01*
D02*
G37*
G36*
X120515Y273455D02*
X120564Y272778D01*
X120610Y272477D01*
X120671Y272200D01*
X120745Y271949D01*
X120834Y271723D01*
X120937Y271521D01*
X121055Y271345D01*
X121187Y271194D01*
X120480Y270487D01*
X120328Y270618D01*
X120152Y270736D01*
X119950Y270839D01*
X119724Y270928D01*
X119473Y271003D01*
X119197Y271063D01*
X118895Y271109D01*
X118569Y271141D01*
X117842Y271162D01*
X120512Y273831D01*
X120515Y273455D01*
D02*
G37*
G36*
X239951Y243110D02*
X239897Y243107D01*
X239840Y243096D01*
X239781Y243077D01*
X239719Y243050D01*
X239655Y243015D01*
X239588Y242972D01*
X239519Y242922D01*
X239448Y242864D01*
X239297Y242724D01*
X238590Y243431D01*
X238664Y243508D01*
X238788Y243653D01*
X238839Y243722D01*
X238881Y243789D01*
X238916Y243853D01*
X238943Y243915D01*
X238962Y243974D01*
X238973Y244030D01*
X238976Y244085D01*
X239951Y243110D01*
D02*
G37*
G36*
X226532D02*
X226478Y243107D01*
X226421Y243096D01*
X226362Y243077D01*
X226301Y243050D01*
X226236Y243015D01*
X226170Y242972D01*
X226101Y242922D01*
X226029Y242864D01*
X225879Y242724D01*
X225171Y243431D01*
X225245Y243508D01*
X225370Y243653D01*
X225420Y243722D01*
X225463Y243789D01*
X225497Y243853D01*
X225524Y243915D01*
X225543Y243974D01*
X225554Y244030D01*
X225558Y244085D01*
X226532Y243110D01*
D02*
G37*
G36*
X130009Y255482D02*
X130523Y255038D01*
X130769Y254858D01*
X131007Y254705D01*
X131237Y254580D01*
X131460Y254483D01*
X131675Y254414D01*
X131883Y254372D01*
X132083Y254358D01*
Y253358D01*
X131883Y253344D01*
X131675Y253303D01*
X131460Y253233D01*
X131237Y253136D01*
X131007Y253011D01*
X130769Y252859D01*
X130523Y252678D01*
X130270Y252470D01*
X129741Y251971D01*
Y255746D01*
X130009Y255482D01*
D02*
G37*
G36*
X120515Y253455D02*
X120564Y252778D01*
X120610Y252477D01*
X120671Y252200D01*
X120745Y251949D01*
X120834Y251723D01*
X120937Y251521D01*
X121055Y251345D01*
X121187Y251194D01*
X120480Y250487D01*
X120328Y250618D01*
X120152Y250736D01*
X119950Y250839D01*
X119724Y250928D01*
X119473Y251003D01*
X119197Y251063D01*
X118895Y251109D01*
X118569Y251141D01*
X117842Y251162D01*
X120512Y253831D01*
X120515Y253455D01*
D02*
G37*
G36*
X266788Y243110D02*
X266734Y243107D01*
X266677Y243096D01*
X266618Y243077D01*
X266556Y243050D01*
X266492Y243015D01*
X266426Y242972D01*
X266357Y242922D01*
X266285Y242864D01*
X266134Y242724D01*
X265427Y243431D01*
X265501Y243508D01*
X265625Y243653D01*
X265676Y243722D01*
X265718Y243789D01*
X265753Y243853D01*
X265780Y243915D01*
X265799Y243974D01*
X265810Y244030D01*
X265814Y244085D01*
X266788Y243110D01*
D02*
G37*
G36*
X253369D02*
X253315Y243107D01*
X253259Y243096D01*
X253199Y243077D01*
X253138Y243050D01*
X253074Y243015D01*
X253007Y242972D01*
X252938Y242922D01*
X252866Y242864D01*
X252716Y242724D01*
X252009Y243431D01*
X252082Y243508D01*
X252207Y243653D01*
X252257Y243722D01*
X252300Y243789D01*
X252334Y243853D01*
X252361Y243915D01*
X252380Y243974D01*
X252392Y244030D01*
X252395Y244085D01*
X253369Y243110D01*
D02*
G37*
G36*
X293625D02*
X293571Y243107D01*
X293514Y243096D01*
X293455Y243077D01*
X293394Y243050D01*
X293330Y243015D01*
X293263Y242972D01*
X293194Y242922D01*
X293122Y242864D01*
X292972Y242724D01*
X292265Y243431D01*
X292338Y243508D01*
X292463Y243653D01*
X292513Y243722D01*
X292556Y243789D01*
X292590Y243853D01*
X292617Y243915D01*
X292636Y243974D01*
X292648Y244030D01*
X292651Y244085D01*
X293625Y243110D01*
D02*
G37*
G36*
X280207D02*
X280153Y243107D01*
X280096Y243096D01*
X280037Y243077D01*
X279975Y243050D01*
X279911Y243015D01*
X279844Y242972D01*
X279775Y242922D01*
X279704Y242864D01*
X279553Y242724D01*
X278846Y243431D01*
X278920Y243508D01*
X279044Y243653D01*
X279095Y243722D01*
X279137Y243789D01*
X279172Y243853D01*
X279199Y243915D01*
X279218Y243974D01*
X279229Y244030D01*
X279232Y244085D01*
X280207Y243110D01*
D02*
G37*
G36*
X130009Y235482D02*
X130523Y235038D01*
X130769Y234858D01*
X131007Y234705D01*
X131237Y234580D01*
X131460Y234483D01*
X131675Y234414D01*
X131883Y234372D01*
X132083Y234358D01*
Y233358D01*
X131883Y233344D01*
X131675Y233303D01*
X131460Y233233D01*
X131237Y233136D01*
X131007Y233011D01*
X130769Y232859D01*
X130523Y232678D01*
X130270Y232470D01*
X129741Y231971D01*
Y235746D01*
X130009Y235482D01*
D02*
G37*
G36*
X120515Y233455D02*
X120564Y232778D01*
X120610Y232476D01*
X120671Y232200D01*
X120745Y231949D01*
X120834Y231723D01*
X120937Y231521D01*
X121055Y231345D01*
X121187Y231194D01*
X120480Y230487D01*
X120328Y230618D01*
X120152Y230736D01*
X119950Y230839D01*
X119724Y230928D01*
X119473Y231002D01*
X119197Y231063D01*
X118895Y231109D01*
X118569Y231141D01*
X117842Y231161D01*
X120512Y233831D01*
X120515Y233455D01*
D02*
G37*
G36*
X307044Y243110D02*
X306990Y243107D01*
X306933Y243096D01*
X306874Y243077D01*
X306812Y243050D01*
X306748Y243015D01*
X306682Y242972D01*
X306612Y242922D01*
X306541Y242864D01*
X306390Y242724D01*
X305683Y243431D01*
X305757Y243508D01*
X305881Y243653D01*
X305932Y243722D01*
X305974Y243789D01*
X306009Y243853D01*
X306036Y243915D01*
X306055Y243974D01*
X306066Y244030D01*
X306070Y244085D01*
X307044Y243110D01*
D02*
G37*
G36*
X320463Y242717D02*
X320408Y242713D01*
X320352Y242702D01*
X320293Y242683D01*
X320231Y242656D01*
X320167Y242621D01*
X320100Y242579D01*
X320031Y242528D01*
X319959Y242470D01*
X319809Y242330D01*
X319102Y243037D01*
X319176Y243114D01*
X319300Y243260D01*
X319350Y243329D01*
X319393Y243395D01*
X319428Y243459D01*
X319455Y243521D01*
X319474Y243580D01*
X319485Y243637D01*
X319488Y243691D01*
X320463Y242717D01*
D02*
G37*
G36*
X130009Y215482D02*
X130523Y215038D01*
X130769Y214858D01*
X131007Y214705D01*
X131237Y214580D01*
X131460Y214483D01*
X131675Y214414D01*
X131883Y214372D01*
X132083Y214358D01*
Y213358D01*
X131883Y213344D01*
X131675Y213303D01*
X131460Y213233D01*
X131237Y213136D01*
X131007Y213011D01*
X130769Y212859D01*
X130523Y212678D01*
X130270Y212470D01*
X129741Y211970D01*
Y215746D01*
X130009Y215482D01*
D02*
G37*
G36*
X120515Y213455D02*
X120564Y212778D01*
X120610Y212476D01*
X120671Y212200D01*
X120745Y211949D01*
X120834Y211723D01*
X120937Y211521D01*
X121055Y211345D01*
X121187Y211194D01*
X120480Y210487D01*
X120328Y210618D01*
X120152Y210736D01*
X119950Y210839D01*
X119724Y210928D01*
X119473Y211002D01*
X119197Y211063D01*
X118895Y211109D01*
X118569Y211141D01*
X117842Y211161D01*
X120512Y213831D01*
X120515Y213455D01*
D02*
G37*
G36*
X119439Y141664D02*
X118995Y141150D01*
X118815Y140905D01*
X118662Y140667D01*
X118537Y140436D01*
X118440Y140213D01*
X118370Y139998D01*
X118329Y139790D01*
X118315Y139590D01*
X117315D01*
X117301Y139790D01*
X117259Y139998D01*
X117190Y140213D01*
X117093Y140436D01*
X116968Y140667D01*
X116815Y140905D01*
X116635Y141150D01*
X116427Y141403D01*
X115927Y141932D01*
X119703D01*
X119439Y141664D01*
D02*
G37*
G36*
X197019Y117618D02*
X196978Y117654D01*
X196930Y117686D01*
X196875Y117715D01*
X196812Y117739D01*
X196742Y117760D01*
X196665Y117777D01*
X196581Y117790D01*
X196489Y117799D01*
X196283Y117807D01*
Y118807D01*
X196390Y118809D01*
X196581Y118824D01*
X196665Y118837D01*
X196742Y118854D01*
X196812Y118875D01*
X196875Y118900D01*
X196930Y118928D01*
X196978Y118960D01*
X197019Y118996D01*
Y117618D01*
D02*
G37*
G36*
X130498Y144763D02*
X130528Y144678D01*
X130579Y144603D01*
X130650Y144538D01*
X130741Y144483D01*
X130852Y144438D01*
X130984Y144403D01*
X131135Y144378D01*
X131307Y144363D01*
X131500Y144358D01*
Y143358D01*
X131307Y143353D01*
X131135Y143338D01*
X130984Y143313D01*
X130852Y143278D01*
X130741Y143233D01*
X130650Y143178D01*
X130579Y143113D01*
X130528Y143038D01*
X130498Y142953D01*
X130488Y142858D01*
Y144858D01*
X130498Y144763D01*
D02*
G37*
G36*
X227464Y51100D02*
X227610Y50976D01*
X227679Y50925D01*
X227746Y50883D01*
X227810Y50848D01*
X227871Y50821D01*
X227930Y50802D01*
X227987Y50791D01*
X228041Y50787D01*
X227067Y49813D01*
X227064Y49867D01*
X227052Y49924D01*
X227033Y49983D01*
X227006Y50045D01*
X226972Y50109D01*
X226929Y50175D01*
X226879Y50244D01*
X226820Y50316D01*
X226681Y50467D01*
X227388Y51174D01*
X227464Y51100D01*
D02*
G37*
G36*
X125302Y167098D02*
X125478Y166981D01*
X125679Y166877D01*
X125906Y166789D01*
X126157Y166714D01*
X126433Y166654D01*
X126734Y166608D01*
X127061Y166576D01*
X127788Y166555D01*
X125118Y163885D01*
X125115Y164261D01*
X125066Y164939D01*
X125020Y165240D01*
X124959Y165516D01*
X124885Y165768D01*
X124796Y165994D01*
X124692Y166195D01*
X124575Y166371D01*
X124443Y166523D01*
X125150Y167230D01*
X125302Y167098D01*
D02*
G37*
G36*
X130009Y165482D02*
X130523Y165038D01*
X130769Y164858D01*
X131007Y164705D01*
X131237Y164580D01*
X131460Y164483D01*
X131675Y164414D01*
X131883Y164372D01*
X132083Y164358D01*
Y163358D01*
X131883Y163344D01*
X131675Y163303D01*
X131460Y163233D01*
X131237Y163136D01*
X131007Y163011D01*
X130769Y162859D01*
X130523Y162678D01*
X130270Y162470D01*
X129741Y161970D01*
Y165746D01*
X130009Y165482D01*
D02*
G37*
G36*
X117788Y161162D02*
X117412Y161158D01*
X116735Y161109D01*
X116433Y161063D01*
X116157Y161003D01*
X115906Y160928D01*
X115679Y160839D01*
X115478Y160736D01*
X115302Y160618D01*
X115150Y160487D01*
X114443Y161194D01*
X114575Y161345D01*
X114692Y161521D01*
X114796Y161723D01*
X114885Y161949D01*
X114959Y162200D01*
X115020Y162477D01*
X115066Y162778D01*
X115097Y163104D01*
X115118Y163831D01*
X117788Y161162D01*
D02*
G37*
G36*
X31846Y122405D02*
X31894Y122373D01*
X31949Y122345D01*
X32012Y122320D01*
X32082Y122299D01*
X32159Y122282D01*
X32243Y122269D01*
X32335Y122259D01*
X32541Y122252D01*
Y121252D01*
X32434Y121250D01*
X32243Y121235D01*
X32159Y121222D01*
X32082Y121205D01*
X32012Y121184D01*
X31949Y121159D01*
X31894Y121131D01*
X31846Y121099D01*
X31805Y121063D01*
Y122441D01*
X31846Y122405D01*
D02*
G37*
G36*
X254931Y50348D02*
X254946Y50157D01*
X254959Y50072D01*
X254976Y49995D01*
X254997Y49925D01*
X255022Y49863D01*
X255050Y49807D01*
X255082Y49759D01*
X255118Y49719D01*
X253740D01*
X253776Y49759D01*
X253808Y49807D01*
X253836Y49863D01*
X253861Y49925D01*
X253882Y49995D01*
X253899Y50072D01*
X253912Y50157D01*
X253922Y50249D01*
X253929Y50454D01*
X254929D01*
X254931Y50348D01*
D02*
G37*
G36*
X182369Y39764D02*
X182328Y39800D01*
X182280Y39832D01*
X182225Y39860D01*
X182162Y39885D01*
X182092Y39906D01*
X182015Y39922D01*
X181930Y39936D01*
X181839Y39945D01*
X181633Y39953D01*
Y40953D01*
X181740Y40955D01*
X181930Y40970D01*
X182015Y40983D01*
X182092Y41000D01*
X182162Y41021D01*
X182225Y41045D01*
X182280Y41074D01*
X182328Y41106D01*
X182369Y41142D01*
Y39764D01*
D02*
G37*
G36*
X282857Y83724D02*
X282825Y83676D01*
X282797Y83621D01*
X282772Y83559D01*
X282752Y83489D01*
X282735Y83412D01*
X282721Y83327D01*
X282712Y83235D01*
X282704Y83030D01*
X281704D01*
X281702Y83136D01*
X281687Y83327D01*
X281674Y83412D01*
X281657Y83489D01*
X281636Y83559D01*
X281612Y83621D01*
X281583Y83676D01*
X281551Y83724D01*
X281515Y83765D01*
X282893D01*
X282857Y83724D01*
D02*
G37*
G36*
X120181Y40389D02*
X120192Y40332D01*
X120211Y40273D01*
X120238Y40211D01*
X120273Y40147D01*
X120315Y40081D01*
X120366Y40012D01*
X120424Y39940D01*
X120564Y39789D01*
X119857Y39082D01*
X119780Y39156D01*
X119635Y39280D01*
X119565Y39331D01*
X119499Y39373D01*
X119435Y39408D01*
X119373Y39435D01*
X119314Y39454D01*
X119257Y39465D01*
X119203Y39469D01*
X120177Y40443D01*
X120181Y40389D01*
D02*
G37*
G36*
X21734Y31999D02*
X23636Y31543D01*
X25444Y30794D01*
X27112Y29772D01*
X28600Y28501D01*
X29870Y27013D01*
X30893Y25345D01*
X31641Y23538D01*
X32098Y21635D01*
X32251Y19685D01*
X32098Y17735D01*
X31641Y15832D01*
X30893Y14025D01*
X29870Y12357D01*
X28600Y10869D01*
X27112Y9598D01*
X25444Y8576D01*
X23636Y7827D01*
X21734Y7371D01*
X19783Y7217D01*
X17833Y7371D01*
X15931Y7827D01*
X14123Y8576D01*
X12455Y9598D01*
X10967Y10869D01*
X9697Y12357D01*
X8674Y14025D01*
X7926Y15832D01*
X7469Y17735D01*
X7316Y19685D01*
X7469Y21635D01*
X7926Y23538D01*
X8674Y25345D01*
X9697Y27013D01*
X10967Y28501D01*
X12455Y29772D01*
X14123Y30794D01*
X15931Y31543D01*
X17833Y31999D01*
X19783Y32153D01*
X21734Y31999D01*
D02*
G37*
%LPC*%
G36*
X20578Y28572D02*
X18989D01*
X18910Y28556D01*
X18829D01*
X17270Y28246D01*
X17196Y28215D01*
X17117Y28199D01*
X15648Y27591D01*
X15582Y27546D01*
X15507Y27516D01*
X14185Y26632D01*
X14129Y26575D01*
X14062Y26531D01*
X12938Y25407D01*
X12893Y25340D01*
X12836Y25283D01*
X11953Y23961D01*
X11922Y23887D01*
X11878Y23820D01*
X11269Y22351D01*
X11253Y22273D01*
X11223Y22198D01*
X10913Y20639D01*
Y20559D01*
X10897Y20480D01*
Y19685D01*
Y18890D01*
X10913Y18811D01*
Y18731D01*
X11223Y17172D01*
X11253Y17097D01*
X11269Y17019D01*
X11878Y15550D01*
X11922Y15483D01*
X11953Y15409D01*
X12836Y14087D01*
X12893Y14030D01*
X12938Y13963D01*
X14062Y12839D01*
X14129Y12795D01*
X14185Y12738D01*
X15507Y11855D01*
X15582Y11824D01*
X15648Y11779D01*
X17117Y11171D01*
X17196Y11155D01*
X17270Y11124D01*
X18829Y10814D01*
X18910D01*
X18989Y10798D01*
X20578D01*
X20657Y10814D01*
X20738D01*
X22297Y11124D01*
X22371Y11155D01*
X22450Y11171D01*
X23919Y11779D01*
X23985Y11824D01*
X24060Y11855D01*
X25381Y12738D01*
X25438Y12795D01*
X25505Y12839D01*
X26629Y13963D01*
X26674Y14030D01*
X26731Y14087D01*
X27614Y15409D01*
X27645Y15483D01*
X27689Y15550D01*
X28298Y17019D01*
X28313Y17097D01*
X28344Y17172D01*
X28654Y18731D01*
Y18811D01*
X28670Y18890D01*
Y19685D01*
Y20480D01*
X28654Y20559D01*
Y20639D01*
X28344Y22198D01*
X28313Y22273D01*
X28298Y22351D01*
X27689Y23820D01*
X27645Y23887D01*
X27614Y23961D01*
X26731Y25283D01*
X26674Y25340D01*
X26629Y25407D01*
X25505Y26531D01*
X25438Y26575D01*
X25381Y26632D01*
X24060Y27516D01*
X23985Y27546D01*
X23919Y27591D01*
X22450Y28199D01*
X22371Y28215D01*
X22297Y28246D01*
X20738Y28556D01*
X20657D01*
X20578Y28572D01*
D02*
G37*
%LPD*%
G36*
X375671Y31606D02*
X377573Y31149D01*
X379381Y30400D01*
X381049Y29378D01*
X382537Y28108D01*
X383807Y26620D01*
X384829Y24952D01*
X385578Y23144D01*
X386035Y21242D01*
X386188Y19291D01*
X386035Y17341D01*
X385578Y15439D01*
X384829Y13631D01*
X383807Y11963D01*
X382537Y10475D01*
X381049Y9205D01*
X379381Y8182D01*
X377573Y7434D01*
X375671Y6977D01*
X373721Y6823D01*
X371770Y6977D01*
X369868Y7434D01*
X368060Y8182D01*
X366392Y9205D01*
X364904Y10475D01*
X363634Y11963D01*
X362611Y13631D01*
X361863Y15439D01*
X361406Y17341D01*
X361252Y19291D01*
X361406Y21242D01*
X361863Y23144D01*
X362611Y24952D01*
X363634Y26620D01*
X364904Y28108D01*
X366392Y29378D01*
X368060Y30400D01*
X369868Y31149D01*
X371770Y31606D01*
X373721Y31759D01*
X375671Y31606D01*
D02*
G37*
%LPC*%
G36*
X374515Y28178D02*
X372926D01*
X372847Y28162D01*
X372766D01*
X371207Y27852D01*
X371133Y27821D01*
X371054Y27806D01*
X369585Y27197D01*
X369519Y27153D01*
X369444Y27122D01*
X368122Y26239D01*
X368066Y26182D01*
X367999Y26137D01*
X366875Y25013D01*
X366830Y24946D01*
X366773Y24889D01*
X365890Y23568D01*
X365859Y23493D01*
X365815Y23426D01*
X365206Y21958D01*
X365191Y21879D01*
X365160Y21805D01*
X364850Y20245D01*
Y20165D01*
X364834Y20086D01*
Y19291D01*
Y18496D01*
X364850Y18418D01*
Y18337D01*
X365160Y16778D01*
X365191Y16704D01*
X365206Y16625D01*
X365815Y15156D01*
X365859Y15089D01*
X365890Y15015D01*
X366773Y13693D01*
X366830Y13636D01*
X366875Y13570D01*
X367999Y12445D01*
X368066Y12401D01*
X368122Y12344D01*
X369444Y11461D01*
X369518Y11430D01*
X369585Y11385D01*
X371054Y10777D01*
X371133Y10761D01*
X371207Y10731D01*
X372766Y10420D01*
X372847D01*
X372926Y10405D01*
X374515D01*
X374594Y10420D01*
X374675D01*
X376234Y10731D01*
X376308Y10761D01*
X376387Y10777D01*
X377856Y11385D01*
X377922Y11430D01*
X377997Y11461D01*
X379318Y12344D01*
X379375Y12401D01*
X379442Y12445D01*
X380566Y13570D01*
X380611Y13636D01*
X380668Y13693D01*
X381551Y15015D01*
X381582Y15089D01*
X381626Y15156D01*
X382235Y16625D01*
X382250Y16704D01*
X382281Y16778D01*
X382591Y18337D01*
Y18418D01*
X382607Y18496D01*
Y19291D01*
Y20086D01*
X382591Y20165D01*
Y20245D01*
X382281Y21805D01*
X382250Y21879D01*
X382235Y21958D01*
X381626Y23426D01*
X381582Y23493D01*
X381551Y23568D01*
X380668Y24889D01*
X380611Y24946D01*
X380566Y25013D01*
X379442Y26137D01*
X379375Y26182D01*
X379318Y26239D01*
X377997Y27122D01*
X377922Y27153D01*
X377856Y27197D01*
X376387Y27806D01*
X376308Y27821D01*
X376234Y27852D01*
X374675Y28162D01*
X374594D01*
X374515Y28178D01*
D02*
G37*
%LPD*%
D15*
X43602Y121752D02*
X90650Y168799D01*
X31102Y121752D02*
X43602D01*
X162500Y40453D02*
X183071D01*
X94488Y108465D02*
X162500Y40453D01*
X101752Y363622D02*
X127815Y337559D01*
Y333858D02*
Y337559D01*
X90650Y168799D02*
X122874D01*
X205938Y236910D02*
X213123Y244094D01*
X184350Y118307D02*
X197722D01*
X117815Y138287D02*
X128051Y128051D01*
X174606D01*
X184350Y118307D01*
X209941Y67913D02*
X228051Y49803D01*
X209941Y67913D02*
Y115157D01*
X181240Y143858D02*
X209941Y115157D01*
X127815Y163858D02*
X166161D01*
X254429Y49016D02*
Y75591D01*
X166161Y163858D02*
X254429Y75591D01*
X127815Y143858D02*
X181240D01*
X135532Y24114D02*
X239764D01*
X119193Y40453D02*
X135532Y24114D01*
X94488Y108465D02*
Y140532D01*
X282204Y66555D02*
Y84468D01*
X239764Y24114D02*
X282204Y66555D01*
X185728Y232087D02*
X214534D01*
X143957Y273858D02*
X185728Y232087D01*
X127815Y273858D02*
X143957D01*
X122874Y268799D02*
X136811D01*
X178347Y227264D02*
X223130D01*
X136811Y268799D02*
X178347Y227264D01*
X172736Y221949D02*
X231234D01*
X140827Y253858D02*
X172736Y221949D01*
X127815Y253858D02*
X140827D01*
X122559Y249114D02*
X134646D01*
X168405Y215354D02*
X238058D01*
X134646Y249114D02*
X168405Y215354D01*
X166043Y209449D02*
X245571D01*
X127815Y233858D02*
X141634D01*
X166043Y209449D01*
X134744Y228740D02*
X160236Y203248D01*
X122933Y228740D02*
X134744D01*
X160236Y203248D02*
X252789D01*
X152103Y190220D02*
X266991D01*
X133465Y208858D02*
X152103Y190220D01*
X122815Y208858D02*
X133465D01*
X156004Y197244D02*
X260203D01*
X127815Y213858D02*
X139390D01*
X156004Y197244D01*
X117815Y213858D02*
X122815Y208858D01*
X117815Y233858D02*
X122933Y228740D01*
X117815Y273858D02*
X122874Y268799D01*
X122500Y289173D02*
X141732D01*
X193996Y236910D02*
X205938D01*
X141732Y289173D02*
X193996Y236910D01*
X238058Y215354D02*
X266798Y244094D01*
X214534Y232087D02*
X226542Y244094D01*
X223130Y227264D02*
X239961Y244094D01*
X231234Y221949D02*
X253379Y244094D01*
X245571Y209449D02*
X280217Y244094D01*
X252789Y203248D02*
X293635Y244094D01*
X260203Y197244D02*
X307054Y244094D01*
X266991Y190220D02*
X320472Y243701D01*
X117815Y293858D02*
X122500Y289173D01*
X117815Y253858D02*
X122559Y249114D01*
X127815Y293858D02*
X149941D01*
X199748Y244051D01*
X94488Y140532D02*
X117815Y163858D01*
Y138287D02*
Y143858D01*
X122874Y168799D02*
X127815Y163858D01*
X112933Y323858D02*
X117815D01*
X35059Y245984D02*
X112933Y323858D01*
X30177Y245984D02*
X35059D01*
X123327Y328346D02*
X127815Y323858D01*
X79716Y328346D02*
X123327D01*
X76566Y325197D02*
X79716Y328346D01*
X40964Y325197D02*
X76566D01*
X30177Y335984D02*
X40964Y325197D01*
X127815Y323858D02*
X161752D01*
X191752Y353858D01*
Y363622D01*
D45*
X30176Y336027D02*
D03*
D46*
Y326027D02*
D03*
Y316027D02*
D03*
Y306027D02*
D03*
Y296027D02*
D03*
Y286027D02*
D03*
Y276027D02*
D03*
Y266027D02*
D03*
Y256027D02*
D03*
Y246027D02*
D03*
Y236027D02*
D03*
Y226027D02*
D03*
Y216027D02*
D03*
Y206027D02*
D03*
Y196027D02*
D03*
Y186027D02*
D03*
Y176027D02*
D03*
Y166027D02*
D03*
Y156027D02*
D03*
Y146027D02*
D03*
X20176Y336027D02*
D03*
Y326027D02*
D03*
Y316027D02*
D03*
Y306027D02*
D03*
Y296027D02*
D03*
Y286027D02*
D03*
Y276027D02*
D03*
Y266027D02*
D03*
Y256027D02*
D03*
Y246027D02*
D03*
Y236027D02*
D03*
Y226027D02*
D03*
Y216027D02*
D03*
Y206027D02*
D03*
Y196027D02*
D03*
Y186027D02*
D03*
Y176027D02*
D03*
Y166027D02*
D03*
Y156027D02*
D03*
Y146027D02*
D03*
D47*
X360335Y154520D02*
D03*
Y92520D02*
D03*
D48*
X353335Y150520D02*
D03*
X360335Y146520D02*
D03*
X353335Y142520D02*
D03*
X360335Y138520D02*
D03*
X353335Y134520D02*
D03*
X360335Y130520D02*
D03*
X353335Y126520D02*
D03*
Y64520D02*
D03*
X360335Y68520D02*
D03*
X353335Y72520D02*
D03*
X360335Y76520D02*
D03*
X353335Y80520D02*
D03*
X360335Y84520D02*
D03*
X353335Y88520D02*
D03*
D49*
X356835Y172520D02*
D03*
Y46520D02*
D03*
D50*
X370335Y165520D02*
D03*
Y53520D02*
D03*
D51*
X191614Y363779D02*
D03*
X181614D02*
D03*
X171614D02*
D03*
X161614D02*
D03*
X151614D02*
D03*
X141614D02*
D03*
X131614D02*
D03*
X121614D02*
D03*
X111614D02*
D03*
X101614D02*
D03*
X91614D02*
D03*
X81614D02*
D03*
X71614D02*
D03*
X61614D02*
D03*
X51614D02*
D03*
X191614Y373780D02*
D03*
X181614D02*
D03*
X171614D02*
D03*
X161614D02*
D03*
X151614D02*
D03*
X141614D02*
D03*
X131614D02*
D03*
X121614D02*
D03*
X111614D02*
D03*
X101614D02*
D03*
X91614D02*
D03*
X81614D02*
D03*
X71614D02*
D03*
X61614D02*
D03*
X51614D02*
D03*
D52*
X117815Y333858D02*
D03*
X127815D02*
D03*
X117815Y323858D02*
D03*
X127815D02*
D03*
X117815Y313858D02*
D03*
X127815D02*
D03*
X117815Y303858D02*
D03*
X127815D02*
D03*
X117815Y293858D02*
D03*
X127815D02*
D03*
X117815Y283858D02*
D03*
X127815D02*
D03*
X117815Y273858D02*
D03*
X127815D02*
D03*
X117815Y263858D02*
D03*
X127815D02*
D03*
X117815Y253858D02*
D03*
X127815D02*
D03*
X117815Y243858D02*
D03*
X127815D02*
D03*
X117815Y233858D02*
D03*
X127815D02*
D03*
X117815Y223858D02*
D03*
X127815D02*
D03*
X117815Y213858D02*
D03*
X127815D02*
D03*
X117815Y203858D02*
D03*
X127815D02*
D03*
X117815Y193858D02*
D03*
X127815D02*
D03*
X117815Y183858D02*
D03*
X127815D02*
D03*
X117815Y173858D02*
D03*
X127815D02*
D03*
X117815Y163858D02*
D03*
X127815D02*
D03*
X117815Y153858D02*
D03*
X127815D02*
D03*
X117815Y143858D02*
D03*
D53*
X127815D02*
D03*
D54*
X245399Y22663D02*
D03*
X45866Y133465D02*
D03*
X259018Y244084D02*
D03*
X176502Y160459D02*
D03*
X219156Y243789D02*
D03*
X88779Y307677D02*
D03*
X61344Y307801D02*
D03*
X213116Y105340D02*
D03*
X341856Y325813D02*
D03*
X355636Y298254D02*
D03*
X341856Y160459D02*
D03*
X355636Y188018D02*
D03*
X328077Y353372D02*
D03*
X341856Y215577D02*
D03*
X369415Y270695D02*
D03*
Y215577D02*
D03*
X341856Y50222D02*
D03*
X355636Y243136D02*
D03*
X328077Y132899D02*
D03*
X300518Y353372D02*
D03*
X341856Y270695D02*
D03*
X328077Y22663D02*
D03*
Y298254D02*
D03*
X355636Y353372D02*
D03*
X328077Y188018D02*
D03*
X369415Y325813D02*
D03*
X52486Y22663D02*
D03*
X300518Y132899D02*
D03*
X259179Y325813D02*
D03*
X93825Y160459D02*
D03*
X80045Y132899D02*
D03*
X176502Y105340D02*
D03*
X314297Y160459D02*
D03*
X217841Y132899D02*
D03*
X286738Y325813D02*
D03*
X272959Y22663D02*
D03*
X286738Y50222D02*
D03*
X24927Y132899D02*
D03*
X272959D02*
D03*
X231620Y325813D02*
D03*
X314297Y50222D02*
D03*
X300518Y22663D02*
D03*
X107604Y132899D02*
D03*
X383195Y107998D02*
D03*
Y163116D02*
D03*
Y52880D02*
D03*
X24927Y353372D02*
D03*
X245399Y132899D02*
D03*
X160360Y133293D02*
D03*
X132801D02*
D03*
X109573Y46285D02*
D03*
X173057D02*
D03*
X78077D02*
D03*
X141561D02*
D03*
X8588Y129750D02*
D03*
Y157309D02*
D03*
Y184868D02*
D03*
X8884Y243628D02*
D03*
X93332Y383785D02*
D03*
X304061D02*
D03*
X276502D02*
D03*
X312562Y243789D02*
D03*
X272404Y243985D02*
D03*
X8884Y216069D02*
D03*
Y271187D02*
D03*
X298979Y243690D02*
D03*
X120892Y383785D02*
D03*
X248943D02*
D03*
X148451D02*
D03*
X286381Y244182D02*
D03*
X206915Y45498D02*
D03*
X205278Y243690D02*
D03*
X232050Y243789D02*
D03*
X213018Y330340D02*
D03*
X238706Y69021D02*
D03*
X267840Y105537D02*
D03*
X241069Y104848D02*
D03*
X215478Y69809D02*
D03*
X314297Y325813D02*
D03*
X292742Y105045D02*
D03*
X268333Y69415D02*
D03*
X294415Y69514D02*
D03*
X245436Y243887D02*
D03*
D55*
X139862Y304626D02*
D03*
X213123Y244094D02*
D03*
X134646Y118799D02*
D03*
X166339Y118602D02*
D03*
X150886Y40453D02*
D03*
X183071D02*
D03*
X255315Y84744D02*
D03*
X71555Y335728D02*
D03*
Y341929D02*
D03*
Y354331D02*
D03*
Y348130D02*
D03*
Y329528D02*
D03*
X51673Y355020D02*
D03*
X197722Y118307D02*
D03*
X16929Y46260D02*
D03*
X31102Y121752D02*
D03*
X55512Y40453D02*
D03*
X71260Y118701D02*
D03*
X87402Y40453D02*
D03*
X102855Y118799D02*
D03*
X119193Y40453D02*
D03*
X254429Y49016D02*
D03*
X261713Y105512D02*
D03*
X228150Y84744D02*
D03*
X282204Y84468D02*
D03*
X309350Y83760D02*
D03*
X260827Y69095D02*
D03*
X309744Y49016D02*
D03*
X281693Y48819D02*
D03*
X228051Y49803D02*
D03*
X307382Y330709D02*
D03*
X280217Y330610D02*
D03*
X253150Y330512D02*
D03*
X225787Y330118D02*
D03*
X293898Y158760D02*
D03*
X267224Y159153D02*
D03*
X240354Y158957D02*
D03*
X199748Y244051D02*
D03*
X213386Y159153D02*
D03*
X293635Y244094D02*
D03*
X320472Y243701D02*
D03*
X253379Y244094D02*
D03*
X239961D02*
D03*
X307054D02*
D03*
X226542D02*
D03*
X266798D02*
D03*
X280217D02*
D03*
X41831Y281496D02*
D03*
Y263779D02*
D03*
M02*
