G04*
G04 #@! TF.GenerationSoftware,Altium Limited,Altium Designer,22.7.1 (60)*
G04*
G04 Layer_Color=16711935*
%FSLAX25Y25*%
%MOIN*%
G70*
G04*
G04 #@! TF.SameCoordinates,322B7B6B-0129-4EB8-82DD-95CAF5E8B4A6*
G04*
G04*
G04 #@! TF.FilePolarity,Negative*
G04*
G01*
G75*
%ADD35R,0.06824X0.06824*%
%ADD36C,0.06824*%
%ADD37R,0.06312X0.06312*%
%ADD38C,0.06312*%
%ADD39C,0.10249*%
%ADD40C,0.13595*%
%ADD41C,0.06902*%
%ADD42C,0.06194*%
%ADD43R,0.06194X0.06194*%
D35*
X30176Y336027D02*
D03*
D36*
Y326027D02*
D03*
Y316027D02*
D03*
Y306027D02*
D03*
Y296027D02*
D03*
Y286027D02*
D03*
Y276027D02*
D03*
Y266027D02*
D03*
Y256027D02*
D03*
Y246027D02*
D03*
Y236027D02*
D03*
Y226027D02*
D03*
Y216027D02*
D03*
Y206027D02*
D03*
Y196027D02*
D03*
Y186027D02*
D03*
Y176027D02*
D03*
Y166027D02*
D03*
Y156027D02*
D03*
Y146027D02*
D03*
X20176Y336027D02*
D03*
Y326027D02*
D03*
Y316027D02*
D03*
Y306027D02*
D03*
Y296027D02*
D03*
Y286027D02*
D03*
Y276027D02*
D03*
Y266027D02*
D03*
Y256027D02*
D03*
Y246027D02*
D03*
Y236027D02*
D03*
Y226027D02*
D03*
Y216027D02*
D03*
Y206027D02*
D03*
Y196027D02*
D03*
Y186027D02*
D03*
Y176027D02*
D03*
Y166027D02*
D03*
Y156027D02*
D03*
Y146027D02*
D03*
D37*
X360335Y154520D02*
D03*
Y92520D02*
D03*
D38*
X353335Y150520D02*
D03*
X360335Y146520D02*
D03*
X353335Y142520D02*
D03*
X360335Y138520D02*
D03*
X353335Y134520D02*
D03*
X360335Y130520D02*
D03*
X353335Y126520D02*
D03*
Y64520D02*
D03*
X360335Y68520D02*
D03*
X353335Y72520D02*
D03*
X360335Y76520D02*
D03*
X353335Y80520D02*
D03*
X360335Y84520D02*
D03*
X353335Y88520D02*
D03*
D39*
X356835Y172520D02*
D03*
Y46520D02*
D03*
D40*
X370335Y165520D02*
D03*
Y53520D02*
D03*
D41*
X191614Y363779D02*
D03*
X181614D02*
D03*
X171614D02*
D03*
X161614D02*
D03*
X151614D02*
D03*
X141614D02*
D03*
X131614D02*
D03*
X121614D02*
D03*
X111614D02*
D03*
X101614D02*
D03*
X91614D02*
D03*
X81614D02*
D03*
X71614D02*
D03*
X61614D02*
D03*
X51614D02*
D03*
X191614Y373780D02*
D03*
X181614D02*
D03*
X171614D02*
D03*
X161614D02*
D03*
X151614D02*
D03*
X141614D02*
D03*
X131614D02*
D03*
X121614D02*
D03*
X111614D02*
D03*
X101614D02*
D03*
X91614D02*
D03*
X81614D02*
D03*
X71614D02*
D03*
X61614D02*
D03*
X51614D02*
D03*
D42*
X117815Y333858D02*
D03*
X127815D02*
D03*
X117815Y323858D02*
D03*
X127815D02*
D03*
X117815Y313858D02*
D03*
X127815D02*
D03*
X117815Y303858D02*
D03*
X127815D02*
D03*
X117815Y293858D02*
D03*
X127815D02*
D03*
X117815Y283858D02*
D03*
X127815D02*
D03*
X117815Y273858D02*
D03*
X127815D02*
D03*
X117815Y263858D02*
D03*
X127815D02*
D03*
X117815Y253858D02*
D03*
X127815D02*
D03*
X117815Y243858D02*
D03*
X127815D02*
D03*
X117815Y233858D02*
D03*
X127815D02*
D03*
X117815Y223858D02*
D03*
X127815D02*
D03*
X117815Y213858D02*
D03*
X127815D02*
D03*
X117815Y203858D02*
D03*
X127815D02*
D03*
X117815Y193858D02*
D03*
X127815D02*
D03*
X117815Y183858D02*
D03*
X127815D02*
D03*
X117815Y173858D02*
D03*
X127815D02*
D03*
X117815Y163858D02*
D03*
X127815D02*
D03*
X117815Y153858D02*
D03*
X127815D02*
D03*
X117815Y143858D02*
D03*
D43*
X127815D02*
D03*
M02*
